<svg xmlns="http://www.w3.org/2000/svg" version="1.1"><polyline points="213.0,63.5,216.5,75.5,216.5,88.0,217.0,100.0,218.5,112.5,223.0,124.5,224.5,137.0,222.5,149.0" stroke="black" stroke-width="2" fill="none" />
<polyline points="280.0,141.5,275.5,135.5,272.5,123.5,271.0,111.5,271.0,99.0,269.5,87.0,269.0,75.0,270.5,63.5,269.0,65.0" stroke="black" stroke-width="2" fill="none" />
<polyline points="276.0,64.5,277.5,76.0,277.5,88.0,277.5,100.0,278.5,111.5,280.0,123.5,284.5,135.5" stroke="black" stroke-width="2" fill="none" />
<polyline points="312.0,226.5,324.0,226.5,336.0,231.0,340.5,234.5,342.0,246.5,334.0,258.5,325.0,270.0,312.0,282.0,294.0,294.0,270.0,306.0" stroke="black" stroke-width="2" fill="none" />
<polyline points="314.5,233.5,326.0,236.0" stroke="black" stroke-width="2" fill="none" />
<polyline points="220.0,150.5,212.5,147.0,209.5,135.0,209.5,123.0,209.5,111.0,209.5,98.5,209.5,86.5,208.0,74.5,208.0,62.5,208.5,62.5" stroke="black" stroke-width="2" fill="none" />
<polyline points="165.5,272.5,167.5,284.5,181.0,296.5" stroke="black" stroke-width="2" fill="none" />
<polyline points="163.5,279.0,175.5,288.0,187.5,297.0,199.0,304.5,211.0,307.5,223.0,310.5,235.0,311.0,247.0,311.5,259.0,308.5,271.0,306.0,283.0,302.0,295.0,294.0,307.0,286.5,319.0,277.5,331.0,263.5" stroke="black" stroke-width="2" fill="none" />
<polyline points="285.5,290.0,305.0,278.0,318.5,266.5,328.5,255.0,334.5,243.0,330.0,252.5,317.5,267.5,305.5,278.0,293.0,287.0,280.5,293.0,269.0,299.0,257.0,301.5,245.0,303.0,233.5,304.0,222.0,302.5,210.0,299.0,198.0,294.5,186.0,286.5,174.0,274.0,162.0,273.5" stroke="black" stroke-width="2" fill="none" />
<polyline points="168.0,273.0,181.5,285.0,201.0,297.5" stroke="black" stroke-width="2" fill="none" />
</svg>