<svg xmlns="http://www.w3.org/2000/svg" version="1.1"><polyline points="229.0,1.5,226.5,9.5,223.5,18.0,219.5,26.5,215.0,34.5,211.5,43.0,207.5,50.5,205.5,55.5,213.5,37.5,221.5,19.5" stroke="black" stroke-width="2" fill="none" />
<polyline points="219.0,23.5,227.0,22.5" stroke="black" stroke-width="2" fill="none" />
<polyline points="226.0,31.0,218.0,31.5" stroke="black" stroke-width="2" fill="none" />
<polyline points="219.0,37.5,211.5,37.5" stroke="black" stroke-width="2" fill="none" />
<polyline points="217.5,43.0,210.5,44.0,203.0,44.5" stroke="black" stroke-width="2" fill="none" />
<polyline points="181.0,61.5,189.0,61.0,197.0,60.5,205.0,60.0,213.0,59.5,221.0,58.5,228.5,58.0,235.5,57.5,243.0,57.5,251.0,57.5" stroke="black" stroke-width="2" fill="none" />
<polyline points="259.0,85.5,266.5,85.0,274.5,85.0,282.5,84.5,290.5,84.0,299.0,83.0,307.0,82.5,314.5,81.5,322.5,81.5,330.0,81.0,338.0,80.5,346.5,80.0,355.5,79.0,364.0,78.5,372.5,78.0,380.5,77.5,389.0,77.5,396.5,77.5,404.5,77.0,413.0,77.0,421.0,76.5,428.5,76.0,436.0,75.5,443.5,75.0,451.5,74.0,459.5,73.5,467.0,72.5,474.5,72.5,482.5,72.5,490.0,72.0,498.0,71.5,506.0,71.0,514.0,70.5" stroke="black" stroke-width="2" fill="none" />
<polyline points="516.5,74.0,509.0,82.0,501.0,89.5,492.5,97.0,484.0,105.0,475.5,113.0,467.0,120.5,458.5,127.5,450.5,134.5,442.5,141.5,434.0,149.0,426.5,157.0" stroke="black" stroke-width="2" fill="none" />
<polyline points="427.5,152.5,435.5,152.0,443.5,151.0,451.5,150.5,460.0,150.5,468.0,150.5,476.0,149.0,484.5,148.0" stroke="black" stroke-width="2" fill="none" />
<polyline points="486.0,147.5,478.0,155.0,469.5,163.0,461.5,170.5,453.5,178.0,445.5,186.0,437.5,193.5" stroke="black" stroke-width="2" fill="none" />
<polyline points="436.0,194.5,444.0,193.5,452.0,193.5,460.0,193.0,468.0,192.5,475.5,191.5,483.5,190.5,492.0,190.0" stroke="black" stroke-width="2" fill="none" />
<polyline points="491.5,188.0,483.0,195.0,475.5,202.5,468.0,210.0,460.5,217.5,452.0,224.5,444.0,231.5" stroke="black" stroke-width="2" fill="none" />
<polyline points="443.0,233.0,451.0,232.0,459.0,231.5,467.0,231.0,474.5,230.5" stroke="black" stroke-width="2" fill="none" />
<polyline points="492.5,228.5,484.5,236.0,476.5,243.0,468.0,250.5,460.0,258.5,451.5,265.5" stroke="black" stroke-width="2" fill="none" />
<polyline points="453.0,263.5,460.5,263.0,469.0,262.5,477.0,262.5,485.5,263.0" stroke="black" stroke-width="2" fill="none" />
<polyline points="501.0,251.5,493.0,258.5,485.0,265.5,476.5,273.0,468.5,281.0,460.5,288.5" stroke="black" stroke-width="2" fill="none" />
<polyline points="460.0,290.0,468.0,290.0,475.5,290.0,483.5,290.0,492.0,289.5" stroke="black" stroke-width="2" fill="none" />
<polyline points="516.0,292.0,507.5,299.5,499.5,307.0,490.5,314.5,482.0,322.0,474.0,329.5,465.5,337.0" stroke="black" stroke-width="2" fill="none" />
<polyline points="468.0,339.5,476.0,338.5,484.0,338.0,492.0,337.0,501.0,336.0,509.5,335.5" stroke="black" stroke-width="2" fill="none" />
<polyline points="515.5,339.5,508.0,346.5,499.5,353.5,491.5,360.5,483.5,367.5,476.0,375.5" stroke="black" stroke-width="2" fill="none" />
<polyline points="476.0,376.5,484.5,376.0,492.0,376.5,500.0,376.0,507.5,375.5,515.0,375.0" stroke="black" stroke-width="2" fill="none" />
<polyline points="514.0,372.5,506.0,380.0,497.5,387.0" stroke="black" stroke-width="2" fill="none" />
<polyline points="506.5,388.0,514.5,380.5" stroke="black" stroke-width="2" fill="none" />
<polyline points="515.0,365.0,507.0,372.5,499.0,379.5,491.0,386.5" stroke="black" stroke-width="2" fill="none" />
<polyline points="484.0,386.5,492.0,379.0,500.0,371.5,508.0,364.0,516.0,356.5" stroke="black" stroke-width="2" fill="none" />
<polyline points="516.0,348.0,508.0,355.5,500.5,362.5,493.0,370.0,484.5,377.0,476.5,384.0" stroke="black" stroke-width="2" fill="none" />
<polyline points="478.0,382.0,486.0,381.5,494.0,380.5,502.0,379.0,509.5,378.0,517.0,377.5" stroke="black" stroke-width="2" fill="none" />
<polyline points="515.0,383.5,507.0,383.5,499.0,384.0,491.0,385.0,483.5,385.5" stroke="black" stroke-width="2" fill="none" />
<polyline points="475.5,368.0,483.5,360.5,492.0,353.0,500.0,346.0,508.0,339.0,516.0,332.0" stroke="black" stroke-width="2" fill="none" />
<polyline points="515.5,322.0,508.0,330.0,500.5,338.5,492.5,346.5,484.5,354.0,476.0,361.5" stroke="black" stroke-width="2" fill="none" />
<polyline points="476.5,361.5,484.5,361.0,492.5,360.0,500.0,360.0,508.0,359.5,516.5,359.0" stroke="black" stroke-width="2" fill="none" />
<polyline points="514.5,367.0,506.5,367.5,498.5,367.5,490.5,367.5,482.5,367.5,474.0,368.0" stroke="black" stroke-width="2" fill="none" />
<polyline points="467.5,364.5,475.5,364.0,483.0,363.5,491.0,363.0,500.0,363.0,508.0,362.5,516.0,361.5" stroke="black" stroke-width="2" fill="none" />
<polyline points="517.5,351.0,509.5,351.5,501.5,351.5,493.5,351.5,484.5,351.5,477.0,352.5" stroke="black" stroke-width="2" fill="none" />
<polyline points="476.0,353.5,484.0,345.5,492.0,337.0,500.0,329.0,508.5,321.0,516.5,313.0" stroke="black" stroke-width="2" fill="none" />
<polyline points="515.0,306.5,507.0,313.5,499.0,321.0,491.0,329.0,483.0,337.0,475.5,344.5,468.0,352.5" stroke="black" stroke-width="2" fill="none" />
<polyline points="466.5,355.0,475.0,354.5,483.0,354.0,491.5,354.0,499.5,354.0,507.5,354.0,515.5,354.0" stroke="black" stroke-width="2" fill="none" />
<polyline points="509.0,344.0,500.0,345.0,491.5,345.5,483.0,345.5,474.5,346.0" stroke="black" stroke-width="2" fill="none" />
<polyline points="468.5,348.5,476.5,348.0,484.5,347.0,492.0,346.0,500.0,346.0,508.0,345.5,515.5,345.5" stroke="black" stroke-width="2" fill="none" />
<polyline points="516.5,297.5,508.5,305.5,500.0,313.0,491.5,321.0,483.5,328.0,475.0,335.5,467.5,343.0" stroke="black" stroke-width="2" fill="none" />
<polyline points="466.0,341.5,474.5,341.0,482.5,340.5,491.0,340.5,499.0,340.5,507.0,340.0,515.5,339.0" stroke="black" stroke-width="2" fill="none" />
<polyline points="468.5,328.5,476.5,321.5,484.5,313.5,492.0,306.0,500.0,298.5,508.0,291.0,516.5,283.5" stroke="black" stroke-width="2" fill="none" />
<polyline points="517.0,275.5,509.0,283.0,500.5,291.0,492.5,298.5,484.5,305.0,476.0,312.5,468.5,319.5" stroke="black" stroke-width="2" fill="none" />
<polyline points="466.5,321.0,475.0,320.5,483.5,319.5,491.5,318.5,499.0,317.5" stroke="black" stroke-width="2" fill="none" />
<polyline points="499.0,326.5,491.0,327.0,483.0,327.5,475.5,328.5,467.5,329.5" stroke="black" stroke-width="2" fill="none" />
<polyline points="459.0,332.0,467.0,331.0,475.0,330.0,482.5,329.5,491.0,329.5,499.5,329.0,507.5,329.0,515.5,329.5" stroke="black" stroke-width="2" fill="none" />
<polyline points="516.0,370.5,507.5,370.5,499.5,371.5,491.5,372.0,483.0,372.5,475.0,373.0,467.0,373.5" stroke="black" stroke-width="2" fill="none" />
<polyline points="458.5,324.5,466.5,324.0,475.0,323.5,483.0,323.0,491.0,322.0,499.5,321.5,507.5,321.5,516.0,321.5" stroke="black" stroke-width="2" fill="none" />
<polyline points="499.5,309.5,492.0,310.0,484.5,311.0,476.5,311.0,468.0,311.5" stroke="black" stroke-width="2" fill="none" />
<polyline points="468.0,311.5,476.5,304.0,484.5,296.5,492.5,289.5,501.0,282.5,509.5,275.5,517.5,268.0" stroke="black" stroke-width="2" fill="none" />
<polyline points="508.0,267.5,499.5,275.0,491.5,282.5,483.0,290.0,475.5,297.0,467.0,305.0,459.0,312.5" stroke="black" stroke-width="2" fill="none" />
<polyline points="460.5,315.5,468.5,315.5,476.0,315.0,484.5,315.0,492.5,314.5,500.5,314.5,508.5,314.0,516.0,313.5" stroke="black" stroke-width="2" fill="none" />
<polyline points="509.0,260.0,501.0,267.5,492.5,275.5,484.0,283.0,476.0,290.0,468.0,297.5,459.0,305.0" stroke="black" stroke-width="2" fill="none" />
<polyline points="460.5,303.0,468.5,303.0,477.0,303.0,485.0,302.5,492.5,301.5" stroke="black" stroke-width="2" fill="none" />
<polyline points="460.0,297.5,468.5,290.5,476.5,282.5,485.0,275.0,493.0,267.5,501.0,260.0,509.5,252.5" stroke="black" stroke-width="2" fill="none" />
<polyline points="501.0,244.0,493.0,251.5,484.5,258.5,476.0,266.0,468.0,273.0,460.0,280.0" stroke="black" stroke-width="2" fill="none" />
<polyline points="458.0,283.5,466.5,283.0,475.0,282.5,483.0,281.5" stroke="black" stroke-width="2" fill="none" />
<polyline points="491.0,296.0,483.5,296.5,475.5,297.0,467.5,297.0,459.5,297.0" stroke="black" stroke-width="2" fill="none" />
<polyline points="451.0,293.0,459.0,293.0,467.0,292.5,474.5,292.0,482.5,291.5,490.0,290.5,498.5,290.0,506.5,290.0,515.0,290.0" stroke="black" stroke-width="2" fill="none" />
<polyline points="500.5,235.5,492.0,243.5,483.5,251.0,475.5,259.0,467.5,266.5,459.5,273.5,451.0,281.5" stroke="black" stroke-width="2" fill="none" />
<polyline points="443.5,284.5,451.5,284.5,460.0,284.0,468.0,283.5,476.0,283.0,483.5,283.0,491.5,282.0,499.5,281.0,507.5,280.5,516.0,280.0" stroke="black" stroke-width="2" fill="none" />
<polyline points="501.5,229.0,493.5,236.5,485.0,243.5,477.0,250.5,468.5,257.5,459.5,264.5,452.0,272.5" stroke="black" stroke-width="2" fill="none" />
<polyline points="458.5,276.0,466.5,275.5,474.5,274.5,482.5,274.0" stroke="black" stroke-width="2" fill="none" />
<polyline points="476.5,256.0,468.5,256.0,460.0,256.5,452.0,256.5" stroke="black" stroke-width="2" fill="none" />
<polyline points="450.5,258.0,459.0,251.0,467.0,243.5,475.5,236.0,483.5,227.5,491.5,220.0" stroke="black" stroke-width="2" fill="none" />
<polyline points="491.0,212.5,483.0,220.0,475.5,228.0,467.5,235.5,460.0,243.0,452.5,250.0" stroke="black" stroke-width="2" fill="none" />
<polyline points="452.5,251.5,460.0,251.0,468.0,250.0,476.0,249.5" stroke="black" stroke-width="2" fill="none" />
<polyline points="476.5,241.0,468.5,242.0,461.0,242.5,453.0,243.5" stroke="black" stroke-width="2" fill="none" />
<polyline points="444.5,248.5,453.0,240.5,460.5,233.5,469.0,226.0,477.0,218.5,485.5,211.5,493.5,204.5,501.5,197.5" stroke="black" stroke-width="2" fill="none" />
<polyline points="491.5,197.0,483.5,204.5,476.0,212.0,468.0,219.5,460.0,226.0,452.0,233.0,444.0,240.5" stroke="black" stroke-width="2" fill="none" />
<polyline points="443.0,225.0,451.5,224.5,459.5,223.0,467.5,222.5,476.0,222.5" stroke="black" stroke-width="2" fill="none" />
<polyline points="443.0,223.0,451.0,215.5,459.5,208.0,468.5,200.0,476.5,192.0,484.5,185.0,492.0,178.0" stroke="black" stroke-width="2" fill="none" />
<polyline points="490.0,171.0,482.5,179.0,475.0,186.5,467.5,194.0,460.0,201.0,452.0,208.0,444.0,215.5" stroke="black" stroke-width="2" fill="none" />
<polyline points="443.0,216.5,451.0,216.0,459.0,216.0,467.0,215.5,474.5,214.5" stroke="black" stroke-width="2" fill="none" />
<polyline points="482.5,206.5,475.0,207.0,467.0,207.5,459.5,208.5,452.0,209.0,444.5,209.0" stroke="black" stroke-width="2" fill="none" />
<polyline points="445.0,200.5,453.0,200.5,460.5,200.0,468.5,199.5,476.0,199.0,484.0,198.0,491.5,198.0" stroke="black" stroke-width="2" fill="none" />
<polyline points="488.5,166.0,481.0,173.0,474.0,180.0,467.0,187.0,459.5,193.5,452.0,200.5,444.0,208.0,436.0,216.0" stroke="black" stroke-width="2" fill="none" />
<polyline points="436.0,208.5,444.0,201.5,452.5,194.0,460.0,186.5,468.0,179.5,476.0,172.0,484.5,164.5,492.5,156.5" stroke="black" stroke-width="2" fill="none" />
<polyline points="484.0,156.5,476.0,164.0,468.5,171.5,461.0,178.5,453.5,186.5,445.0,194.0,437.0,201.5" stroke="black" stroke-width="2" fill="none" />
<polyline points="436.0,186.5,444.0,186.5,452.0,186.0,459.5,185.0,467.5,184.0,475.0,183.0,483.5,182.5,491.0,182.5" stroke="black" stroke-width="2" fill="none" />
<polyline points="483.5,141.0,475.5,148.5,468.0,155.5,460.5,162.5,453.0,169.5,445.0,176.5,437.0,183.5" stroke="black" stroke-width="2" fill="none" />
<polyline points="435.5,176.0,443.5,175.5,451.5,175.0,460.0,175.0,468.0,175.0,476.5,174.5,484.0,174.0" stroke="black" stroke-width="2" fill="none" />
<polyline points="485.5,133.0,477.5,140.5,470.0,148.0,461.5,155.5,453.0,162.5,445.5,170.0,437.5,177.0,429.0,184.0" stroke="black" stroke-width="2" fill="none" />
<polyline points="427.5,173.5,436.0,166.5,444.0,159.0,451.5,152.0,459.5,145.0,467.5,137.5,476.0,129.5,484.5,122.0,493.0,114.0,501.0,105.5,509.0,98.0,517.0,90.0" stroke="black" stroke-width="2" fill="none" />
<polyline points="517.0,84.0,508.5,91.5,500.0,99.0,492.0,106.5,483.5,113.5,475.5,121.0,467.0,128.5,458.5,135.5,450.0,142.5,442.0,150.0,434.0,157.0,426.0,165.0" stroke="black" stroke-width="2" fill="none" />
<polyline points="427.5,161.5,436.0,161.0,444.0,160.0,452.0,159.5,460.0,159.0,468.0,158.5,475.5,158.0,483.5,157.0" stroke="black" stroke-width="2" fill="none" />
<polyline points="483.5,165.5,475.0,165.5,468.0,166.0,460.5,166.0,452.5,166.5,445.0,168.0,437.0,168.5" stroke="black" stroke-width="2" fill="none" />
<polyline points="427.0,149.0,434.5,141.5,442.0,134.0,450.5,126.5,458.5,119.5,467.0,111.5,475.5,104.0,484.0,96.0,492.5,88.5,501.0,81.0,509.5,73.0,517.0,66.0" stroke="black" stroke-width="2" fill="none" />
<polyline points="516.0,59.0,508.0,66.0,500.0,74.0,492.0,82.0,483.5,89.5,475.5,97.5,467.5,104.5,460.0,112.0,451.5,119.0,443.5,126.5,435.5,133.5,427.0,141.5,419.0,148.5" stroke="black" stroke-width="2" fill="none" />
<polyline points="419.0,142.0,427.0,134.5,435.5,127.0,443.0,119.0,451.0,111.5,459.0,104.5,467.5,97.5,475.0,90.0,483.5,82.0,491.5,74.0,499.5,66.0,507.0,59.0,514.5,52.0" stroke="black" stroke-width="2" fill="none" />
<polyline points="517.0,45.0,509.0,52.0,501.0,60.0,492.5,67.5,484.5,75.0,476.0,83.0,468.0,90.0,460.0,97.0,451.5,104.0,443.0,111.0,435.5,119.0,427.0,126.0,418.5,133.5" stroke="black" stroke-width="2" fill="none" />
<polyline points="421.5,128.5,429.5,128.5,437.0,128.5,444.5,128.5,452.0,128.0,459.0,127.5,467.5,127.5,475.5,127.5" stroke="black" stroke-width="2" fill="none" />
<polyline points="476.0,126.5,484.0,119.5,492.0,114.0,499.5,108.0,507.0,102.0,509.0,100.0,498.5,108.0,487.5,116.5,477.5,124.5,474.5,132.5,476.5,140.5,478.5,148.5,481.5,156.0,484.0,164.0,486.0,172.0,488.0,179.5,490.0,187.5,491.5,195.5,490.5,203.0,477.5,210.5,472.5,214.5,480.5,208.5,489.0,203.5" stroke="black" stroke-width="2" fill="none" />
<polyline points="493.0,120.5,501.5,112.5,509.5,105.0,517.5,97.5" stroke="black" stroke-width="2" fill="none" />
<polyline points="516.5,41.5,508.5,41.5,500.5,42.0,492.0,42.5" stroke="black" stroke-width="2" fill="none" />
<polyline points="485.0,36.5,476.5,44.5,468.0,52.0,460.0,59.5,452.0,66.5,444.5,73.5,436.0,81.5,427.5,89.0,420.0,96.5,412.5,104.0,405.0,111.0" stroke="black" stroke-width="2" fill="none" />
<polyline points="411.0,117.0,418.5,109.5,425.5,102.0,433.0,94.0,441.0,86.5,449.5,79.0,458.0,72.0,466.5,65.0,474.5,58.0,483.0,51.0,492.0,43.5,500.0,36.0,507.5,29.0,515.5,21.5" stroke="black" stroke-width="2" fill="none" />
<polyline points="517.0,30.0,508.5,37.0,501.0,43.5,493.0,50.5,484.5,57.5,476.5,64.5,468.0,72.0,459.5,79.5,451.5,87.0,443.5,95.0,435.0,103.0,427.5,110.0,419.5,117.5,411.5,125.0" stroke="black" stroke-width="2" fill="none" />
<polyline points="419.5,122.0,427.0,121.5,435.5,121.5,443.0,121.0,451.0,120.5,459.0,120.0,466.5,119.5,474.5,118.5,482.5,118.5" stroke="black" stroke-width="2" fill="none" />
<polyline points="453.0,75.0,461.0,74.5,468.0,73.5,476.0,73.0,484.0,72.5,492.5,72.0,501.0,71.5,509.5,71.0,518.0,70.5" stroke="black" stroke-width="2" fill="none" />
<polyline points="517.5,37.5,509.5,45.0,501.0,52.5,493.0,59.5,484.5,66.5,476.5,73.5,468.0,81.0,460.5,89.0,452.5,96.5,444.5,104.0,436.0,111.0,428.0,119.0,420.0,126.0" stroke="black" stroke-width="2" fill="none" />
<polyline points="420.5,126.0,422.5,130.0,424.0,138.5,426.0,146.5,427.5,155.0,429.5,163.0,431.0,171.5,431.5,179.5,433.0,187.5,435.0,195.5,437.5,203.5,438.5,211.5,440.5,219.5,442.5,227.5,443.5,235.5,445.0,243.5,447.0,251.0,449.5,259.0,450.5,266.5,453.0,274.5,455.0,282.5,456.0,290.5,457.5,298.0,459.5,306.0,461.5,314.0,462.5,322.0,464.0,330.5,466.5,338.5,467.5,347.0,470.0,355.5,472.0,363.5,473.0,371.5,475.0,379.5" stroke="black" stroke-width="2" fill="none" />
<polyline points="451.0,310.5,458.5,310.0,466.0,309.5,473.5,308.5,481.5,307.0,489.5,306.0,497.5,305.0,506.0,304.0,514.0,303.5" stroke="black" stroke-width="2" fill="none" />
<polyline points="514.5,295.0,506.5,296.0,499.0,297.5,491.0,299.0,483.0,299.5,474.5,300.5,466.0,301.5,458.0,302.0,450.0,302.5" stroke="black" stroke-width="2" fill="none" />
<polyline points="434.5,278.5,442.5,277.5,450.5,276.5,459.0,275.5,467.5,275.0,475.5,274.5,483.5,273.5,491.0,273.0,499.0,272.0,507.0,271.0,514.5,270.0" stroke="black" stroke-width="2" fill="none" />
<polyline points="515.0,262.5,506.5,262.5,498.5,263.0,490.5,263.5,482.5,264.0,475.0,264.5,467.0,265.5,459.0,266.0,451.0,266.5,443.0,267.5,435.5,268.0,427.5,269.0" stroke="black" stroke-width="2" fill="none" />
<polyline points="428.5,261.5,436.0,260.5,444.0,259.5,451.5,258.5,459.0,257.5,467.0,257.0,475.0,256.0,483.0,255.5,491.5,255.0,499.0,255.0,507.0,255.0,515.0,254.0" stroke="black" stroke-width="2" fill="none" />
<polyline points="515.0,249.5,506.5,250.0,498.0,250.5,490.5,251.0,482.5,252.0,475.0,252.5,467.5,252.5,460.0,253.0,452.0,253.0,444.5,253.0,437.5,253.5,429.5,253.5,421.0,254.0" stroke="black" stroke-width="2" fill="none" />
<polyline points="412.0,246.0,420.0,245.5,428.0,244.5,436.0,244.0,444.0,243.5,452.0,243.0,460.5,242.5,468.5,241.0,476.5,240.5,484.0,240.0,492.0,239.5,500.0,239.5,508.5,239.0,516.5,239.0" stroke="black" stroke-width="2" fill="none" />
<polyline points="476.0,140.5,467.5,141.0,459.0,141.5,450.5,142.0,442.0,143.0,433.5,144.0,426.0,144.5" stroke="black" stroke-width="2" fill="none" />
<polyline points="427.5,137.5,435.5,137.5,444.0,137.0,452.0,136.5,460.5,135.5,468.5,134.5,476.5,134.5" stroke="black" stroke-width="2" fill="none" />
<polyline points="516.0,93.0,508.0,93.0,500.0,93.5,492.5,94.5,484.5,95.0,476.5,95.5,468.5,95.5,460.5,96.0,452.5,96.5,445.0,97.0,437.5,97.0,429.5,97.0" stroke="black" stroke-width="2" fill="none" />
<polyline points="436.0,89.5,444.0,89.0,452.5,88.0,460.0,87.0,468.0,87.0,476.0,86.0,483.5,85.5,491.0,84.5,499.0,84.0,507.0,84.5,514.5,84.0" stroke="black" stroke-width="2" fill="none" />
<polyline points="517.0,48.5,508.5,48.0,500.5,48.5,493.0,49.0,485.0,49.5" stroke="black" stroke-width="2" fill="none" />
<polyline points="475.5,59.0,483.0,58.5,491.0,57.5,499.0,57.0,507.0,56.0,514.5,55.5" stroke="black" stroke-width="2" fill="none" />
<polyline points="518.0,33.5,510.0,34.5,502.5,35.0" stroke="black" stroke-width="2" fill="none" />
<polyline points="507.0,26.0,515.0,25.5" stroke="black" stroke-width="2" fill="none" />
<polyline points="516.0,11.5,508.0,19.0,499.5,26.0,491.5,33.5,484.0,41.0,476.0,48.0,467.5,55.5,459.0,63.0,451.0,70.5,442.5,78.0,434.0,85.0,426.0,92.5,418.0,100.0,410.5,108.0,403.5,116.0" stroke="black" stroke-width="2" fill="none" />
<polyline points="404.0,107.0,412.0,99.5" stroke="black" stroke-width="2" fill="none" />
<polyline points="419.5,106.5,427.5,106.0,435.5,106.0,443.5,105.5,451.5,105.0,459.0,104.0,467.5,104.0,475.0,103.0,483.0,102.0,491.0,100.5,499.0,100.0,507.0,100.0" stroke="black" stroke-width="2" fill="none" />
<polyline points="515.5,61.5,507.0,61.5,499.5,62.5,492.0,63.0,483.5,63.0,475.0,63.5,466.5,63.5" stroke="black" stroke-width="2" fill="none" />
<polyline points="443.5,82.0,451.0,82.0,458.5,81.5,466.5,80.5,474.5,79.5,482.0,79.0,490.5,78.0,499.0,77.5,507.0,77.0,515.0,77.0" stroke="black" stroke-width="2" fill="none" />
<polyline points="499.0,17.5,507.5,9.5,515.5,1.5" stroke="black" stroke-width="2" fill="none" />
<polyline points="515.0,0.0,507.0,0.5,499.0,1.0,491.0,2.0,482.5,2.5,475.0,3.0,467.0,3.5,458.5,4.0,450.5,4.5,441.5,5.0" stroke="black" stroke-width="2" fill="none" />
<polyline points="436.0,12.5,443.5,12.0,452.0,11.5,460.0,11.0,467.5,10.5,475.5,10.0,483.5,9.0,491.5,8.0,499.5,7.5,508.0,7.0,516.0,6.5" stroke="black" stroke-width="2" fill="none" />
<polyline points="512.5,11.0,504.5,19.0,495.0,26.5,487.0,34.5,478.5,42.5,469.5,50.5,461.5,58.5,452.0,66.5,444.0,74.5,436.0,82.5,427.5,90.5,419.5,98.5,412.0,106.5,412.5,107.0,420.0,99.0,428.0,91.0,436.0,84.0,444.0,76.5,451.5,68.5,459.5,61.5,467.5,53.5,475.5,45.5,483.5,38.0,491.5,30.0,499.5,23.0,507.5,15.0" stroke="black" stroke-width="2" fill="none" />
<polyline points="517.0,21.5,508.5,22.0,501.0,22.5,492.5,23.0,484.0,23.5,475.5,24.0,466.5,25.0,458.0,26.0,450.0,27.5,442.0,29.0,434.0,30.0,426.5,31.0,419.0,31.5" stroke="black" stroke-width="2" fill="none" />
<polyline points="412.5,36.0,420.5,35.5,428.5,35.0,436.0,35.5,443.5,36.5,451.5,37.0,460.0,36.5,468.0,36.0,476.5,35.5,484.5,35.0,492.5,34.5,500.0,34.0,508.0,33.0,516.0,32.5" stroke="black" stroke-width="2" fill="none" />
<polyline points="498.0,109.5,490.0,110.0,482.5,110.5,474.5,110.5,467.0,110.5,459.5,111.5,451.5,112.0,443.5,113.0,436.0,113.5,428.5,114.0,421.0,114.5" stroke="black" stroke-width="2" fill="none" />
<polyline points="394.0,44.5,402.5,44.5,410.5,44.5,418.5,44.0,426.5,43.5,434.0,43.0,442.0,42.0,450.5,41.0,458.5,40.5,466.5,40.0,475.0,40.0,483.0,39.0,491.0,38.5,499.0,38.0,506.5,37.5,514.5,37.5" stroke="black" stroke-width="2" fill="none" />
<polyline points="516.5,16.0,508.5,17.0,501.0,17.5,493.0,18.5,484.5,19.0,477.0,19.0,468.5,19.0,460.0,19.0,452.0,19.0,444.0,19.0,435.5,19.5,427.5,19.5,419.5,20.0,411.5,20.0" stroke="black" stroke-width="2" fill="none" />
<polyline points="365.0,52.5,373.0,52.5,381.0,51.5,389.0,51.0,396.5,51.0,404.0,50.5,412.5,50.5,420.5,50.0,427.5,50.0,435.0,49.5,443.5,49.0,451.0,49.0,458.5,48.5,466.5,47.5,474.5,46.5,482.0,46.0,490.5,45.0,499.0,44.5,507.0,44.0,515.0,44.0" stroke="black" stroke-width="2" fill="none" />
<polyline points="516.5,204.5,507.5,204.5,499.0,204.5,490.5,205.5,483.0,206.5,475.0,207.0,467.0,207.0,459.0,207.5,451.0,208.0,443.0,208.5,435.0,209.0,427.0,209.5,419.5,210.0,412.0,210.0,404.5,210.0,397.0,211.0,389.0,211.5,381.5,212.0" stroke="black" stroke-width="2" fill="none" />
<polyline points="388.0,221.0,395.5,220.5,404.0,219.5,411.5,219.0,419.5,218.5,427.5,218.0,435.5,217.5,443.5,216.5,451.5,216.5,459.5,216.5,467.0,216.0,475.5,215.5,483.5,214.0,491.5,213.5,500.0,213.5,508.0,213.0,516.0,212.5" stroke="black" stroke-width="2" fill="none" />
<polyline points="516.0,231.5,508.0,232.0,500.0,232.5,493.0,233.5,485.0,234.0,477.0,234.5,468.5,234.5,460.5,234.5,452.5,235.0,444.0,235.0,436.0,234.5,427.5,234.5,419.0,235.0,410.5,236.0,402.0,237.0" stroke="black" stroke-width="2" fill="none" />
<polyline points="395.0,230.5,402.5,230.0,410.5,229.0,419.0,228.0,427.5,227.0,436.0,227.0,444.0,226.5,452.0,225.5,459.5,225.0,467.5,224.0,475.5,223.5,483.5,223.5,492.0,223.0,500.0,222.5,508.0,222.0,515.5,222.0" stroke="black" stroke-width="2" fill="none" />
<polyline points="515.0,197.5,507.0,197.5,498.5,197.5,490.5,197.5,483.0,198.0,475.0,198.5,467.5,199.5,460.0,200.0,452.5,200.0,444.5,201.0,436.5,202.0,428.0,202.5,420.5,202.5,412.0,202.5,404.5,202.5,396.5,203.0,389.0,203.0,381.5,203.5,373.0,203.5" stroke="black" stroke-width="2" fill="none" />
<polyline points="363.5,195.5,371.5,195.5,380.0,195.0,389.0,194.5,397.0,194.0,405.5,193.5,413.0,193.5,420.5,193.5,428.5,193.5,436.5,192.5,445.0,191.5,453.0,191.5,460.5,191.0,468.5,190.5,476.0,190.0,484.0,189.0,491.5,189.0,499.0,189.5,507.0,189.5,515.0,189.5" stroke="black" stroke-width="2" fill="none" />
<polyline points="341.5,185.0,333.5,193.0,324.5,201.0,316.0,209.0,307.0,217.0,298.0,224.5,290.5,232.0,283.0,239.5,275.0,246.5,267.5,253.5" stroke="black" stroke-width="2" fill="none" />
<polyline points="266.0,256.5,274.0,255.5,281.5,254.5" stroke="black" stroke-width="2" fill="none" />
<polyline points="291.5,258.0,299.5,250.5,307.0,243.0,314.5,235.0,323.0,227.5,331.5,220.0,339.5,212.5" stroke="black" stroke-width="2" fill="none" />
<polyline points="337.5,220.0,329.5,228.0,321.5,236.0,314.0,243.5" stroke="black" stroke-width="2" fill="none" />
<polyline points="315.0,251.0,323.5,244.0,331.5,237.0,339.0,229.5" stroke="black" stroke-width="2" fill="none" />
<polyline points="339.0,231.0,347.0,229.0" stroke="black" stroke-width="2" fill="none" />
<polyline points="338.5,236.5,330.5,244.0,322.5,251.5" stroke="black" stroke-width="2" fill="none" />
<polyline points="324.0,248.0,332.0,247.5" stroke="black" stroke-width="2" fill="none" />
<polyline points="339.0,243.5,331.5,251.0,324.0,258.5" stroke="black" stroke-width="2" fill="none" />
<polyline points="329.5,260.0,338.0,259.5" stroke="black" stroke-width="2" fill="none" />
<polyline points="332.5,259.5,340.5,252.0" stroke="black" stroke-width="2" fill="none" />
<polyline points="338.5,267.5,330.5,268.0" stroke="black" stroke-width="2" fill="none" />
<polyline points="325.0,277.5,333.0,277.0,341.0,276.5" stroke="black" stroke-width="2" fill="none" />
<polyline points="333.5,285.0,325.0,285.5" stroke="black" stroke-width="2" fill="none" />
<polyline points="330.5,287.5,323.0,288.5,315.5,289.0,307.5,290.0,300.0,290.5,292.5,291.0,285.0,292.0,276.5,292.5,268.5,293.0,260.0,293.0,252.0,293.0,243.5,293.5" stroke="black" stroke-width="2" fill="none" />
<polyline points="243.5,298.5,251.5,291.0" stroke="black" stroke-width="2" fill="none" />
<polyline points="247.5,289.0,255.5,285.0,261.0,277.5,254.0,285.0,246.0,290.5" stroke="black" stroke-width="2" fill="none" />
<polyline points="249.5,286.5,257.5,286.0,265.5,284.5,273.5,283.5,281.5,283.0,289.5,282.0,298.0,281.5,306.5,281.5,314.5,281.5" stroke="black" stroke-width="2" fill="none" />
<polyline points="305.5,283.5,298.0,291.5" stroke="black" stroke-width="2" fill="none" />
<polyline points="301.0,299.0,309.5,291.5" stroke="black" stroke-width="2" fill="none" />
<polyline points="308.5,299.0,300.5,307.0,292.5,315.0,285.0,322.5,277.0,329.5,268.5,337.5,260.5,345.0" stroke="black" stroke-width="2" fill="none" />
<polyline points="260.5,337.5,268.0,330.0,275.0,322.5,282.0,315.0,289.5,307.5" stroke="black" stroke-width="2" fill="none" />
<polyline points="290.5,300.5,282.5,308.0,275.0,315.0,267.5,323.0,260.0,330.5,252.5,338.5" stroke="black" stroke-width="2" fill="none" />
<polyline points="259.0,336.0,267.0,336.0" stroke="black" stroke-width="2" fill="none" />
<polyline points="268.0,321.0,276.0,320.5,283.5,319.5,291.5,318.5" stroke="black" stroke-width="2" fill="none" />
<polyline points="307.5,316.5,300.0,324.0,292.0,331.5,284.0,339.0,276.0,346.5,268.0,354.5,260.0,362.0,252.0,369.0" stroke="black" stroke-width="2" fill="none" />
<polyline points="243.0,368.5,251.0,360.5,259.0,352.5,267.0,344.5,275.0,337.0,283.0,329.5,291.0,322.5,299.0,315.0,306.5,307.5" stroke="black" stroke-width="2" fill="none" />
<polyline points="311.5,308.5,318.5,325.0,319.5,333.0,318.5,340.0,319.5,348.5" stroke="black" stroke-width="2" fill="none" />
<polyline points="315.0,349.5,307.0,356.5" stroke="black" stroke-width="2" fill="none" />
<polyline points="299.5,357.0,307.0,349.0,314.5,341.0" stroke="black" stroke-width="2" fill="none" />
<polyline points="312.0,338.0,320.0,338.0" stroke="black" stroke-width="2" fill="none" />
<polyline points="324.5,333.0,332.5,332.0,340.5,332.0,348.0,332.0,356.0,332.0" stroke="black" stroke-width="2" fill="none" />
<polyline points="363.5,347.0,355.5,347.5,347.5,347.5,339.0,347.5" stroke="black" stroke-width="2" fill="none" />
<polyline points="340.0,349.5,332.0,350.0" stroke="black" stroke-width="2" fill="none" />
<polyline points="349.0,364.0,357.0,364.0,365.0,364.0,372.5,363.5" stroke="black" stroke-width="2" fill="none" />
<polyline points="364.5,355.5,356.5,355.5" stroke="black" stroke-width="2" fill="none" />
<polyline points="379.5,377.5,371.5,378.0,363.5,378.5,355.5,379.0,347.0,379.5,338.5,379.5,330.0,380.0,322.0,381.0" stroke="black" stroke-width="2" fill="none" />
<polyline points="321.5,374.5,330.0,374.0,338.5,373.0,346.5,372.5,354.5,372.0,362.5,371.5,371.0,370.5" stroke="black" stroke-width="2" fill="none" />
<polyline points="357.5,331.0,349.0,331.5,341.0,332.0,333.0,332.5,325.0,334.0,317.5,335.5,309.5,336.5,301.5,337.5,293.5,338.0,285.5,338.5,277.5,339.0,268.5,339.5,259.5,339.5,251.0,340.0,242.5,341.0,234.5,341.0,226.0,341.5,218.0,341.5,210.0,342.0" stroke="black" stroke-width="2" fill="none" />
<polyline points="212.0,335.5,220.0,335.0,227.0,334.0,235.0,333.0,243.0,332.0,251.0,331.5,259.0,331.0,267.5,330.5,276.5,330.0,285.0,329.0,293.5,328.5,301.5,328.0,309.0,327.5,317.0,326.5" stroke="black" stroke-width="2" fill="none" />
<polyline points="326.0,323.5,334.0,323.0,341.0,322.5,348.5,321.5" stroke="black" stroke-width="2" fill="none" />
<polyline points="317.5,315.5,309.0,323.5,301.0,331.0,292.5,338.5,284.5,345.5,276.5,353.0" stroke="black" stroke-width="2" fill="none" />
<polyline points="282.0,354.5,290.5,354.0,299.0,353.5,307.0,353.0" stroke="black" stroke-width="2" fill="none" />
<polyline points="308.0,340.0,300.0,347.5,292.0,354.5" stroke="black" stroke-width="2" fill="none" />
<polyline points="282.5,355.5,291.0,347.5,298.5,340.0,306.5,332.0" stroke="black" stroke-width="2" fill="none" />
<polyline points="307.5,344.0,299.5,345.0,291.0,346.0,282.5,347.0" stroke="black" stroke-width="2" fill="none" />
<polyline points="282.5,353.0,274.5,353.5,267.0,354.0,260.0,354.5,252.5,355.0,244.0,356.0,235.0,357.5,226.5,358.0,218.0,358.5,210.0,358.5" stroke="black" stroke-width="2" fill="none" />
<polyline points="207.0,361.5,204.5,375.0" stroke="black" stroke-width="2" fill="none" />
<polyline points="203.0,374.5,210.5,373.5,218.5,372.5,226.5,372.0,234.5,372.0,242.5,371.5,250.5,370.5" stroke="black" stroke-width="2" fill="none" />
<polyline points="250.0,368.5,242.5,369.0" stroke="black" stroke-width="2" fill="none" />
<polyline points="244.0,363.5,236.5,370.5" stroke="black" stroke-width="2" fill="none" />
<polyline points="235.5,363.5,243.5,356.5" stroke="black" stroke-width="2" fill="none" />
<polyline points="236.0,355.5,228.5,363.5" stroke="black" stroke-width="2" fill="none" />
<polyline points="244.5,368.5,230.5,360.5,223.0,352.0,216.5,344.0,211.5,341.5,210.0,333.5,206.0,326.0,202.5,318.0,197.5,308.0,192.5,307.0,198.5,295.0,196.0,286.5,194.0,278.5,192.0,270.5,190.5,262.5,190.0,254.5,188.5,247.0,192.5,239.5,193.5,232.0,195.5,224.0,196.5,216.0,203.0,207.5,214.0,200.0,206.0,196.0,198.0,204.5" stroke="black" stroke-width="2" fill="none" />
<polyline points="204.5,211.5,196.5,219.0,188.0,226.5,180.0,234.0" stroke="black" stroke-width="2" fill="none" />
<polyline points="179.5,234.5,187.5,233.5,194.5,233.0" stroke="black" stroke-width="2" fill="none" />
<polyline points="197.0,236.0,189.0,243.5" stroke="black" stroke-width="2" fill="none" />
<polyline points="187.5,241.0,180.0,241.5" stroke="black" stroke-width="2" fill="none" />
<polyline points="180.5,243.0,188.5,235.0,196.0,227.0" stroke="black" stroke-width="2" fill="none" />
<polyline points="193.5,225.5,185.0,226.0,177.0,227.0" stroke="black" stroke-width="2" fill="none" />
<polyline points="180.0,225.0,189.0,217.5,197.0,210.5,205.5,203.5,213.5,196.0,221.0,188.5" stroke="black" stroke-width="2" fill="none" />
<polyline points="216.0,183.0,216.0,180.5,215.5,178.0,223.0,174.5,230.5,170.5,215.5,178.0,212.5,182.5,214.5,187.0,215.0,195.0,211.0,197.5,213.0,205.5,204.0,212.5,212.5,206.5" stroke="black" stroke-width="2" fill="none" />
<polyline points="204.5,201.0,196.5,201.5,188.5,202.0" stroke="black" stroke-width="2" fill="none" />
<polyline points="182.0,198.5,168.0,210.0,161.0,222.0,155.5,230.0" stroke="black" stroke-width="2" fill="none" />
<polyline points="161.0,228.5,166.0,236.5,167.0,249.0,175.0,249.0,172.0,251.0,182.0,257.0,177.0,259.0,174.5,266.5,178.5,274.5,180.5,283.5,187.0,291.5,192.0,299.5,189.5,307.5,192.5,305.0" stroke="black" stroke-width="2" fill="none" />
<polyline points="191.0,310.0,199.0,311.0,207.0,330.5,215.0,343.5,223.0,352.5,231.0,361.0,239.0,365.5,247.0,368.0,255.0,366.0,263.5,359.0,272.0,358.0,280.0,357.0,287.5,355.0,295.5,355.0,303.5,354.5,311.5,353.5" stroke="black" stroke-width="2" fill="none" />
<polyline points="322.5,342.5,314.5,342.5,306.5,343.5,299.0,344.0,290.5,344.5,282.5,345.0,275.0,345.0,267.0,345.0,259.5,345.0,251.0,345.0,243.0,345.5,235.5,346.5,227.5,347.0,219.5,347.5" stroke="black" stroke-width="2" fill="none" />
<polyline points="212.5,355.0,212.5,363.0,212.5,371.5,210.5,379.5" stroke="black" stroke-width="2" fill="none" />
<polyline points="212.5,379.5,203.5,387.0" stroke="black" stroke-width="2" fill="none" />
<polyline points="204.5,381.5,212.0,381.0,220.0,381.0,228.0,381.0,235.5,380.0,243.0,379.5,251.0,379.0" stroke="black" stroke-width="2" fill="none" />
<polyline points="258.0,362.5,250.0,363.0,242.0,363.5,234.0,364.0,226.0,365.0,218.0,365.5,210.0,366.0,202.0,366.5" stroke="black" stroke-width="2" fill="none" />
<polyline points="210.5,370.0,202.5,377.5" stroke="black" stroke-width="2" fill="none" />
<polyline points="193.5,366.5,185.5,367.0" stroke="black" stroke-width="2" fill="none" />
<polyline points="190.5,361.5,198.0,354.0,199.0,349.0,190.0,357.0,185.5,365.0,181.0,373.0,176.5,380.5,171.5,384.0,179.5,374.5,187.5,360.5,195.5,352.5,203.5,346.5,208.5,350.5,207.0,358.5,204.5,366.5,204.5,374.0,202.5,382.5" stroke="black" stroke-width="2" fill="none" />
<polyline points="186.5,380.0,178.5,380.0" stroke="black" stroke-width="2" fill="none" />
<polyline points="182.5,382.5,184.5,379.5,184.5,375.0,190.5,367.0,194.5,359.5,201.5,351.5" stroke="black" stroke-width="2" fill="none" />
<polyline points="220.5,324.0,228.5,323.5,236.0,323.5,244.0,323.5,251.0,323.5,259.0,323.0,266.5,322.0,274.5,321.0,282.0,320.5,289.5,319.5,297.5,318.5,306.0,318.5,314.0,318.5" stroke="black" stroke-width="2" fill="none" />
<polyline points="290.5,311.5,282.5,311.5,274.5,312.5,267.0,313.0" stroke="black" stroke-width="2" fill="none" />
<polyline points="252.5,321.0,260.5,313.5,268.5,305.5,276.5,298.0,284.5,290.5" stroke="black" stroke-width="2" fill="none" />
<polyline points="277.0,295.0,286.0,302.0" stroke="black" stroke-width="2" fill="none" />
<polyline points="282.5,300.0,274.5,307.0,267.0,314.0,259.5,321.5,252.0,329.5" stroke="black" stroke-width="2" fill="none" />
<polyline points="244.0,321.0,251.5,313.5,259.0,305.5,266.5,297.5,274.0,290.5,281.5,283.0,288.5,275.5" stroke="black" stroke-width="2" fill="none" />
<polyline points="283.5,274.0,275.5,282.0,268.5,290.5,261.0,298.5,253.0,306.5,244.5,314.0,236.0,322.0" stroke="black" stroke-width="2" fill="none" />
<polyline points="236.5,320.0,244.5,317.0,252.0,314.5,260.0,314.0" stroke="black" stroke-width="2" fill="none" />
<polyline points="244.0,306.0,252.5,306.0,260.5,305.5,268.5,304.5,277.0,303.5,284.5,302.5" stroke="black" stroke-width="2" fill="none" />
<polyline points="274.0,295.5,265.5,295.5" stroke="black" stroke-width="2" fill="none" />
<polyline points="259.5,291.5,251.5,299.0,243.5,306.0,235.5,313.5,228.0,321.5" stroke="black" stroke-width="2" fill="none" />
<polyline points="230.0,319.5,238.0,313.0,246.0,310.0,254.0,310.0,262.5,311.0" stroke="black" stroke-width="2" fill="none" />
<polyline points="266.0,332.5,257.5,331.5,249.0,333.0,237.5,324.0,230.5,321.0,236.5,314.5,241.5,305.5,234.5,304.0,234.5,311.0" stroke="black" stroke-width="2" fill="none" />
<polyline points="226.5,310.0,234.5,309.5,242.5,308.5,250.5,307.5,259.0,307.0,267.0,306.5,275.0,306.5,283.0,306.0,290.5,306.0,299.0,306.0,306.5,306.0,315.0,305.0,323.5,304.0,331.5,303.0,339.5,302.0" stroke="black" stroke-width="2" fill="none" />
<polyline points="340.0,294.5,332.0,295.0,324.5,295.5,316.5,296.0,308.5,297.0,300.0,297.5,291.5,298.5,283.0,298.5,275.0,299.5,267.0,300.0,259.0,300.5,252.0,301.0,245.0,301.5,237.0,301.5" stroke="black" stroke-width="2" fill="none" />
<polyline points="233.0,286.0,225.0,287.0" stroke="black" stroke-width="2" fill="none" />
<polyline points="226.5,279.5,234.5,279.0,242.5,278.0" stroke="black" stroke-width="2" fill="none" />
<polyline points="238.5,282.5,243.5,274.5,238.5,282.5,239.5,290.5,235.5,298.5,232.0,306.5,226.0,306.0,222.5,314.5,225.0,322.0" stroke="black" stroke-width="2" fill="none" />
<polyline points="231.0,321.0,239.0,325.0" stroke="black" stroke-width="2" fill="none" />
<polyline points="225.0,312.5,233.5,299.5,238.5,288.5,246.5,285.5,251.5,293.5" stroke="black" stroke-width="2" fill="none" />
<polyline points="258.5,277.5,266.5,277.0,275.5,277.0,284.0,276.5,292.0,275.5,300.0,274.5,308.0,274.0,316.0,273.5" stroke="black" stroke-width="2" fill="none" />
<polyline points="313.0,272.0,321.0,260.0,329.0,259.0,325.0,265.0,324.0,266.0,334.0,268.0,331.5,276.0" stroke="black" stroke-width="2" fill="none" />
<polyline points="333.0,291.5,341.0,312.5,349.5,328.0,357.5,340.0,365.5,357.0,374.5,375.0,382.5,381.0,390.5,383.0,398.5,382.5,406.5,384.0" stroke="black" stroke-width="2" fill="none" />
<polyline points="380.0,380.5,376.0,377.0,370.0,369.5,367.5,361.5,364.0,353.0,359.5,345.0,355.5,337.0,349.5,329.0,345.5,320.5,341.5,313.0,339.0,305.0,335.0,297.0,333.0,289.5,332.5,281.5,336.5,273.5,339.0,265.5,340.0,257.5,340.0,249.5,344.0,241.5,336.0,235.5,332.5,226.0,338.5,218.5,341.5,210.5,341.5,202.5,338.5,194.5,334.0,190.5,326.0,186.5" stroke="black" stroke-width="2" fill="none" />
<polyline points="332.0,187.0,324.0,194.5,316.0,202.0,308.0,209.5,300.5,216.5,293.0,224.5,284.5,232.0,276.0,240.0,268.0,247.5" stroke="black" stroke-width="2" fill="none" />
<polyline points="264.5,248.5,273.0,248.0,281.0,248.0,289.0,247.5,297.0,247.0" stroke="black" stroke-width="2" fill="none" />
<polyline points="300.0,242.5,292.0,250.5,283.5,258.0,275.0,265.5,268.0,273.0" stroke="black" stroke-width="2" fill="none" />
<polyline points="261.5,271.0,269.5,270.5,277.5,269.5,285.5,268.5,293.0,267.0,301.0,265.5,309.0,265.0,317.0,264.5" stroke="black" stroke-width="2" fill="none" />
<polyline points="316.5,257.5,309.0,258.0,301.5,258.5,293.5,259.0,285.0,259.5,277.0,260.5,269.5,261.0,261.5,261.5" stroke="black" stroke-width="2" fill="none" />
<polyline points="260.0,266.0,268.0,270.5" stroke="black" stroke-width="2" fill="none" />
<polyline points="268.0,263.5,275.5,256.0,283.0,248.5,291.0,240.5,298.5,232.5,307.0,225.0,315.5,217.5,323.5,210.0,331.5,202.5,339.0,195.5" stroke="black" stroke-width="2" fill="none" />
<polyline points="340.5,204.5,332.5,211.5,324.5,218.5,316.5,226.0,308.0,233.5" stroke="black" stroke-width="2" fill="none" />
<polyline points="306.0,233.5,314.5,233.0" stroke="black" stroke-width="2" fill="none" />
<polyline points="321.0,234.0,319.5,226.0,317.5,222.0" stroke="black" stroke-width="2" fill="none" />
<polyline points="316.0,225.0,323.5,224.0,331.5,223.5,339.5,223.5" stroke="black" stroke-width="2" fill="none" />
<polyline points="338.5,214.5,330.5,214.5,322.5,215.0,315.0,215.5,307.5,216.0" stroke="black" stroke-width="2" fill="none" />
<polyline points="309.0,222.0,301.0,222.0,293.0,222.5" stroke="black" stroke-width="2" fill="none" />
<polyline points="277.0,224.0,285.0,216.5,292.5,209.5,300.0,202.5,307.5,195.5,316.0,188.0,324.0,180.5" stroke="black" stroke-width="2" fill="none" />
<polyline points="322.5,174.0,314.5,181.0,306.5,188.0,298.0,195.5,290.0,203.0,282.0,210.5,274.5,218.0" stroke="black" stroke-width="2" fill="none" />
<polyline points="269.0,217.5,277.5,209.5,285.5,201.0,294.0,192.5,302.0,184.5,309.5,177.5,318.0,170.0" stroke="black" stroke-width="2" fill="none" />
<polyline points="307.5,164.5,299.5,171.5,290.5,179.0,282.0,187.0,274.0,194.5,266.5,202.0,258.5,209.5" stroke="black" stroke-width="2" fill="none" />
<polyline points="258.5,211.5,256.5,203.5,254.5,195.5,253.5,182.5,256.5,174.0,265.0,166.0,262.0,158.5,264.5,153.0,269.5,146.0,279.5,139.0,274.5,131.0,270.5,134.0,262.5,136.0" stroke="black" stroke-width="2" fill="none" />
<polyline points="265.5,132.0,266.5,138.5,275.0,139.5,283.0,138.5" stroke="black" stroke-width="2" fill="none" />
<polyline points="289.5,145.0,281.5,145.5,273.5,146.0,266.5,146.0,258.5,146.0,250.5,146.0,242.5,146.5,235.0,147.0,227.0,148.0,218.5,148.5,210.0,148.5,201.5,149.0" stroke="black" stroke-width="2" fill="none" />
<polyline points="203.0,147.0,211.0,144.0,214.5,136.5,218.5,144.5" stroke="black" stroke-width="2" fill="none" />
<polyline points="225.0,147.5,216.0,155.5,211.5,158.0,208.5,166.5,193.5,173.5,191.0,174.0,199.0,168.0,207.5,158.0,213.0,158.0,221.0,151.0,229.0,150.0,228.0,139.0,231.0,145.0,239.0,142.0,248.5,135.0,256.5,135.0,265.0,133.0,273.0,130.5,281.0,126.5,289.5,129.5,297.5,132.5" stroke="black" stroke-width="2" fill="none" />
<polyline points="297.0,136.5,305.0,135.5,313.5,135.0,321.5,134.0,329.5,132.5,338.0,131.5,346.0,130.5,354.5,129.5,362.5,128.5,370.5,128.0,378.0,128.0,386.5,127.0,395.0,126.0,403.5,125.5,412.0,125.5,420.0,126.0,428.5,126.0,436.5,125.5,444.5,125.5,453.0,125.5,461.0,125.0,469.0,124.5,476.0,123.5,484.0,123.0,492.0,122.5,500.5,122.0,509.0,121.5,517.5,121.0" stroke="black" stroke-width="2" fill="none" />
<polyline points="516.5,50.0,508.5,50.5,500.5,51.0,492.0,52.0,484.0,53.0,475.5,53.5,467.5,54.5,460.0,55.5,452.0,56.0,444.0,56.5,436.0,56.5,428.0,57.5,419.5,58.0,411.5,58.5,404.0,58.5,397.0,59.0,389.5,59.0,381.5,59.5,373.0,59.5,365.5,59.5,357.5,59.5,349.5,60.0" stroke="black" stroke-width="2" fill="none" />
<polyline points="300.5,69.0,308.5,68.5,316.0,68.0,324.0,67.5,332.0,67.0,340.0,66.5,347.5,66.0,355.5,65.5,363.0,65.5,371.0,65.5,379.0,65.5,386.5,65.0,394.5,64.0,403.0,63.0,411.5,62.0,420.0,62.0,428.0,61.5,436.0,60.5,443.5,60.0,451.5,59.0,459.5,58.5,467.5,58.5,476.0,58.0,484.0,57.5,492.0,57.0,499.5,57.0,507.5,56.0,515.5,55.0" stroke="black" stroke-width="2" fill="none" />
<polyline points="515.5,144.5,507.5,145.5,499.0,146.5,490.5,147.0,483.0,147.5,475.0,147.0,467.0,147.5,459.5,148.5,452.0,149.0,444.0,150.0,436.0,150.0,428.5,151.0,420.0,152.0,412.0,152.5,404.0,152.5,396.5,152.0,388.5,152.0,380.0,152.5,372.0,153.5,363.0,154.0,354.5,154.5,346.5,155.0,337.5,156.0,329.5,156.5" stroke="black" stroke-width="2" fill="none" />
<polyline points="322.5,149.0,314.0,149.5,306.5,150.5,298.0,151.0,290.0,151.5,282.0,151.5,274.5,152.0,266.5,152.5,259.0,153.0,251.0,154.0,242.5,155.5,234.5,156.0,226.5,156.0,218.0,156.0,210.5,156.5,203.0,156.5,195.5,157.5" stroke="black" stroke-width="2" fill="none" />
<polyline points="202.0,151.5,193.0,159.5,183.0,166.5,165.5,174.5,162.5,182.5,161.5,190.5,167.5,196.5,171.5,201.5,177.5,201.5" stroke="black" stroke-width="2" fill="none" />
<polyline points="180.5,207.0,188.5,206.5,196.0,206.5,204.0,206.5" stroke="black" stroke-width="2" fill="none" />
<polyline points="204.0,193.0,196.0,193.5,187.5,193.5" stroke="black" stroke-width="2" fill="none" />
<polyline points="188.5,185.5,196.5,185.0,204.0,184.0,212.0,183.5" stroke="black" stroke-width="2" fill="none" />
<polyline points="208.5,178.0,217.0,178.0" stroke="black" stroke-width="2" fill="none" />
<polyline points="226.0,178.5,234.0,171.0,242.0,163.5,250.5,156.0" stroke="black" stroke-width="2" fill="none" />
<polyline points="245.0,156.0,237.5,163.5,229.0,171.0,220.5,178.5,212.0,186.0,204.0,193.0,196.0,200.5,187.0,208.5,179.0,216.0,170.5,223.0" stroke="black" stroke-width="2" fill="none" />
<polyline points="170.0,221.0,178.0,220.5,186.5,220.0,194.5,220.0,202.0,220.0" stroke="black" stroke-width="2" fill="none" />
<polyline points="194.5,216.0,187.5,216.5,179.5,217.0" stroke="black" stroke-width="2" fill="none" />
<polyline points="170.5,216.5,179.0,209.0,187.5,201.0,195.5,193.0,203.5,185.5,211.5,177.5,220.0,170.0,228.0,162.0,236.0,154.5" stroke="black" stroke-width="2" fill="none" />
<polyline points="238.0,149.0,246.0,146.0,237.0,154.0,234.0,153.5,242.0,151.5,249.0,152.5,257.0,148.5,265.5,152.0,273.5,151.5,273.0,147.5,281.0,145.5,287.0,149.5,295.0,154.5,303.0,152.5,311.0,151.5,313.5,157.0,319.5,164.0,320.5,164.0" stroke="black" stroke-width="2" fill="none" />
<polyline points="320.0,168.5,314.5,166.5,306.0,157.0,297.5,155.0,285.0,159.5,274.0,156.5,270.5,159.5,262.5,164.0,254.0,160.5" stroke="black" stroke-width="2" fill="none" />
<polyline points="250.0,162.5,242.0,170.0,234.0,178.0" stroke="black" stroke-width="2" fill="none" />
<polyline points="236.5,179.5,228.5,183.5" stroke="black" stroke-width="2" fill="none" />
<polyline points="236.0,194.0,243.0,186.5,250.5,179.5,257.5,172.0,265.5,164.5,274.0,156.5" stroke="black" stroke-width="2" fill="none" />
<polyline points="276.0,152.5,271.0,154.5,275.5,162.5,283.5,165.5,293.5,173.5" stroke="black" stroke-width="2" fill="none" />
<polyline points="288.5,170.5,281.0,178.0,273.5,185.5,266.0,193.5,258.0,201.5" stroke="black" stroke-width="2" fill="none" />
<polyline points="260.5,200.0,268.5,200.0,276.5,199.5,284.0,199.5,292.0,199.5" stroke="black" stroke-width="2" fill="none" />
<polyline points="284.5,208.5,292.5,208.0,300.0,207.5,308.5,207.0,316.5,206.5,325.0,205.5,332.5,205.0,340.0,204.5" stroke="black" stroke-width="2" fill="none" />
<polyline points="332.5,180.5,324.0,187.5,316.0,194.5,308.0,202.0,299.5,210.0,291.5,217.5,283.5,225.0,276.0,232.0,268.5,239.0" stroke="black" stroke-width="2" fill="none" />
<polyline points="271.0,236.0,265.0,244.5,262.5,245.0,254.5,249.0,265.5,257.0,267.5,265.5,274.0,268.5,286.0,277.0" stroke="black" stroke-width="2" fill="none" />
<polyline points="284.0,267.0,276.5,274.5,268.5,282.0" stroke="black" stroke-width="2" fill="none" />
<polyline points="274.0,292.0,278.0,300.0,286.0,306.0,291.0,314.0" stroke="black" stroke-width="2" fill="none" />
<polyline points="304.5,273.0,310.5,268.0,302.5,274.0,294.5,276.0,286.5,275.0,279.0,270.0,271.0,266.0,271.0,256.0" stroke="black" stroke-width="2" fill="none" />
<polyline points="260.0,255.5,268.5,254.5,276.5,254.0,284.5,253.0,292.5,251.0,300.0,250.0,308.5,250.0,317.5,249.5,325.5,249.0,333.0,249.0,341.0,248.5" stroke="black" stroke-width="2" fill="none" />
<polyline points="344.5,238.0,336.5,236.0" stroke="black" stroke-width="2" fill="none" />
<polyline points="335.0,234.0,343.0,233.5,351.5,228.5" stroke="black" stroke-width="2" fill="none" />
<polyline points="331.0,239.5,323.0,240.0" stroke="black" stroke-width="2" fill="none" />
<polyline points="323.0,243.5,324.5,251.5" stroke="black" stroke-width="2" fill="none" />
<polyline points="322.0,233.0,330.0,233.0" stroke="black" stroke-width="2" fill="none" />
<polyline points="338.5,213.0,330.5,213.5,322.5,214.0,314.5,214.5,306.5,215.0,297.5,215.5,290.0,216.0,282.0,217.0,274.0,217.5,266.0,217.5,257.5,218.0,249.5,218.5,241.5,219.5,233.5,220.0,225.5,221.0,217.0,221.5" stroke="black" stroke-width="2" fill="none" />
<polyline points="219.5,227.5,211.5,235.0" stroke="black" stroke-width="2" fill="none" />
<polyline points="209.5,237.0,207.0,237.0,198.5,244.5,205.5,237.5,209.0,232.5,217.0,231.0,225.0,232.0,233.0,234.0,241.5,237.0,249.5,238.0,257.5,237.0,257.5,239.0,252.0,250.0,248.0,257.5,244.5,265.5,239.0,274.0" stroke="black" stroke-width="2" fill="none" />
<polyline points="236.0,271.0,244.0,270.5" stroke="black" stroke-width="2" fill="none" />
<polyline points="235.5,260.5,243.5,253.0" stroke="black" stroke-width="2" fill="none" />
<polyline points="245.0,245.0,236.5,252.5,228.5,259.5" stroke="black" stroke-width="2" fill="none" />
<polyline points="228.0,263.0,236.0,262.5,244.5,261.5,252.5,260.5" stroke="black" stroke-width="2" fill="none" />
<polyline points="259.0,269.0,268.0,277.0" stroke="black" stroke-width="2" fill="none" />
<polyline points="250.0,250.0,242.5,251.0,235.0,252.0,227.0,253.5,219.0,254.0" stroke="black" stroke-width="2" fill="none" />
<polyline points="220.0,249.5,229.0,242.0,237.0,234.5,245.0,226.5" stroke="black" stroke-width="2" fill="none" />
<polyline points="245.0,233.5,236.5,241.5,229.0,249.0" stroke="black" stroke-width="2" fill="none" />
<polyline points="238.0,242.0,230.0,240.0,223.0,239.0,215.0,241.0,207.0,246.0" stroke="black" stroke-width="2" fill="none" />
<polyline points="211.5,242.5,206.5,250.0,209.5,251.0,217.0,244.0,224.5,252.5" stroke="black" stroke-width="2" fill="none" />
<polyline points="228.0,260.0,226.0,252.0,218.5,244.0" stroke="black" stroke-width="2" fill="none" />
<polyline points="229.5,233.0,237.5,225.5" stroke="black" stroke-width="2" fill="none" />
<polyline points="227.0,226.5,219.0,234.0" stroke="black" stroke-width="2" fill="none" />
<polyline points="205.5,230.5,206.5,229.0,199.5,230.0,196.5,237.5,195.5,245.0,196.5,252.5,198.0,260.5,202.0,268.5,210.5,277.0" stroke="black" stroke-width="2" fill="none" />
<polyline points="195.5,270.5,187.5,271.0" stroke="black" stroke-width="2" fill="none" />
<polyline points="194.5,262.0,202.5,275.0,210.5,280.5,218.5,282.5,226.5,281.5,235.0,278.0,242.5,269.0,241.5,265.0,235.5,273.0" stroke="black" stroke-width="2" fill="none" />
<polyline points="197.0,260.0,189.0,260.5,181.0,261.5,173.0,262.0" stroke="black" stroke-width="2" fill="none" />
<polyline points="170.0,256.0,178.0,248.5" stroke="black" stroke-width="2" fill="none" />
<polyline points="172.5,247.5,180.5,246.5,188.0,246.0,195.0,245.0,202.5,244.5,210.0,243.5,217.5,243.0,225.5,242.5,233.0,241.5,241.0,241.0,249.0,240.5,257.5,240.0,265.5,239.0,273.5,238.5,281.5,237.5,289.5,237.0,298.0,236.5,306.0,236.5,314.0,236.0,322.0,235.0,329.5,234.5,338.5,234.0,346.5,233.5" stroke="black" stroke-width="2" fill="none" />
<polyline points="339.0,199.5,331.0,199.5,322.5,200.0,314.5,200.5" stroke="black" stroke-width="2" fill="none" />
<polyline points="307.0,193.0,315.0,192.0,323.0,191.5,331.0,191.0" stroke="black" stroke-width="2" fill="none" />
<polyline points="317.0,183.5,309.0,184.0" stroke="black" stroke-width="2" fill="none" />
<polyline points="306.0,173.0,298.0,180.5,290.0,188.5,282.0,196.0,274.5,203.0,267.0,210.0,258.5,217.5" stroke="black" stroke-width="2" fill="none" />
<polyline points="258.5,206.0,266.0,217.0,274.0,218.0" stroke="black" stroke-width="2" fill="none" />
<polyline points="275.0,232.0,283.0,231.5,291.5,231.0" stroke="black" stroke-width="2" fill="none" />
<polyline points="282.0,240.0,290.5,239.0,298.5,241.0,297.0,244.0" stroke="black" stroke-width="2" fill="none" />
<polyline points="290.5,251.0,283.0,244.0" stroke="black" stroke-width="2" fill="none" />
<polyline points="307.5,231.5,317.0,240.0,319.5,248.0,319.5,256.0,333.5,264.5,326.0,272.5,327.5,272.0" stroke="black" stroke-width="2" fill="none" />
<polyline points="284.5,190.0,276.5,190.5,269.0,191.0,261.0,191.5" stroke="black" stroke-width="2" fill="none" />
<polyline points="260.0,185.0,268.0,184.5,276.0,183.5" stroke="black" stroke-width="2" fill="none" />
<polyline points="276.5,177.5,284.5,180.5" stroke="black" stroke-width="2" fill="none" />
<polyline points="284.0,171.0,276.0,178.5,267.5,186.5,260.0,194.5,252.0,202.5" stroke="black" stroke-width="2" fill="none" />
<polyline points="251.5,194.5,260.0,186.5,268.5,178.5,277.0,170.5,285.5,163.0" stroke="black" stroke-width="2" fill="none" />
<polyline points="283.5,161.5,291.0,161.5" stroke="black" stroke-width="2" fill="none" />
<polyline points="288.5,171.5,280.5,168.5" stroke="black" stroke-width="2" fill="none" />
<polyline points="275.0,163.5,267.0,171.0,259.0,178.5,251.0,187.0,243.5,194.5,235.5,201.5" stroke="black" stroke-width="2" fill="none" />
<polyline points="236.5,204.5,245.0,204.5,253.0,204.0,260.5,204.0,267.5,204.5,275.5,205.0,283.0,204.5,291.0,204.0,298.5,203.5,306.5,202.0,314.0,201.5,322.5,201.0,331.0,200.5,339.0,200.0,347.0,199.0" stroke="black" stroke-width="2" fill="none" />
<polyline points="347.5,207.0,339.0,207.0,331.5,207.5,323.5,207.5,316.0,208.0,308.5,208.5,300.5,209.0,292.5,209.5,285.0,210.0,277.0,210.5,269.0,211.0,260.5,211.5,252.5,212.5,244.0,212.5,236.5,213.5" stroke="black" stroke-width="2" fill="none" />
<polyline points="238.0,203.0,241.5,194.5,248.5,189.5,241.0,195.5,234.0,204.0,235.0,199.5,234.5,194.0,238.5,188.0,231.0,193.0,223.0,198.0" stroke="black" stroke-width="2" fill="none" />
<polyline points="219.0,202.0,210.0,202.0,202.0,202.0,194.0,202.0,185.5,202.5,177.5,203.0,169.5,203.5,161.5,203.5" stroke="black" stroke-width="2" fill="none" />
<polyline points="162.0,198.0,170.0,197.0,178.5,196.0,186.5,195.5,195.0,194.5,203.0,194.0,211.0,194.0,218.5,193.5,226.5,193.0,234.0,192.5,242.0,192.5,250.0,192.5,258.5,192.0,266.5,191.0,275.0,190.0,283.0,189.0,291.5,188.0,300.0,187.0,308.5,186.0,317.0,186.0,325.0,185.5,333.0,185.0,340.5,184.5,348.5,184.0" stroke="black" stroke-width="2" fill="none" />
<polyline points="346.5,226.5,339.0,226.5,331.5,227.0,323.0,228.0,314.5,228.0,306.5,228.0,298.0,228.5,290.0,229.0,282.5,230.5,274.5,231.5,266.0,232.5,258.0,234.0,250.0,234.5,242.0,235.0,235.0,235.0,227.5,235.5,219.0,235.5,210.5,236.0,203.5,236.5,195.5,237.0,187.5,237.5,179.5,238.0,171.5,238.5" stroke="black" stroke-width="2" fill="none" />
<polyline points="171.0,235.0,171.5,238.0,174.5,243.5,182.5,245.5,193.0,248.0" stroke="black" stroke-width="2" fill="none" />
<polyline points="193.0,250.5,194.0,258.5,196.5,267.0,202.5,275.0" stroke="black" stroke-width="2" fill="none" />
<polyline points="196.5,260.5,204.5,273.5,212.5,278.5,221.0,280.5,229.0,278.5,237.5,272.5" stroke="black" stroke-width="2" fill="none" />
<polyline points="219.0,318.0,227.0,317.0,234.5,316.0,243.0,315.0,251.5,314.0,259.0,313.0,266.5,312.5,274.5,312.5,282.0,312.0,290.0,311.5,298.0,311.5,306.0,310.5,313.5,309.5,322.0,309.0,330.5,309.0,339.0,308.5,346.5,308.0" stroke="black" stroke-width="2" fill="none" />
<polyline points="319.5,368.5,327.5,365.5,317.5,375.0,318.5,377.0" stroke="black" stroke-width="2" fill="none" />
<polyline points="325.0,348.5,330.5,346.5,340.5,347.0,332.5,349.0,329.5,347.0,324.0,348.5,315.0,354.5,313.0,347.0,310.0,346.0,313.0,338.0,312.0,330.0,314.5,322.0,311.5,314.5,309.5,306.5,307.5,298.5,307.5,290.5,309.5,282.5,312.0,274.5,315.5,266.5,317.5,259.0,319.0,251.0,323.0,243.5,315.5,236.5,307.0,231.5,299.0,230.5,291.0,233.5,283.0,234.5,271.0,233.5,265.5,245.5,258.5,247.0,247.0,258.0,241.5,252.0,233.5,262.0,225.0,262.0,237.5,256.5,243.5,252.5,244.5,244.5,237.5,234.5,237.5,226.5,230.0,224.5,222.0,223.5,214.5,222.5,206.5,223.0,198.5,231.0" stroke="black" stroke-width="2" fill="none" />
<polyline points="171.0,228.0,179.0,228.0,187.0,228.0,195.0,228.0,203.0,227.5,211.0,227.5,219.0,227.5,227.0,227.5,235.0,227.0,243.0,226.5,251.0,226.5,259.0,225.5,266.5,224.5,275.0,223.5,283.0,223.0,291.5,222.5,299.0,221.5,307.0,220.0,314.5,219.5,323.0,219.0,331.0,218.0,339.0,218.0" stroke="black" stroke-width="2" fill="none" />
<polyline points="334.0,196.0,330.0,188.5,333.0,180.5,326.0,173.5,316.5,166.5,317.0,159.5,314.0,157.5,307.0,154.0,305.5,145.5,307.5,138.5,303.0,144.0,297.5,141.0,293.5,140.0,287.5,143.5,284.0,140.0,281.5,132.0,280.5,128.0" stroke="black" stroke-width="2" fill="none" />
<polyline points="279.0,130.0,287.5,134.0,291.5,143.0,304.5,146.5,312.5,150.5,316.5,153.5,319.5,147.0,311.5,148.5" stroke="black" stroke-width="2" fill="none" />
<polyline points="314.0,149.5,322.5,149.0,331.5,148.0,340.0,147.5,348.5,147.0,356.5,146.5,365.0,146.5,372.5,146.5,380.5,146.0,389.0,146.0,397.0,145.5,404.5,145.0,412.0,144.5,419.5,144.0,427.5,143.0,435.5,142.5,443.0,141.5,450.5,141.5,458.5,141.5,466.0,141.0,474.0,140.5,482.0,140.0,490.0,139.5,498.5,138.5,507.0,137.5,515.0,137.0" stroke="black" stroke-width="2" fill="none" />
<polyline points="517.5,128.5,509.5,129.0,501.0,129.5,493.0,130.5,484.5,131.0,476.5,132.0,469.0,132.5,461.0,133.5,452.5,134.0,445.0,134.0,436.5,134.0,428.0,134.0,420.0,134.0,412.0,134.0,403.5,134.5,395.5,134.5,387.5,135.0,379.5,135.0,372.0,136.0,363.5,136.0,355.0,136.5,347.0,137.0,339.0,138.0,330.5,139.0,322.5,139.5,314.5,140.0,306.5,140.5,299.0,141.5" stroke="black" stroke-width="2" fill="none" />
<polyline points="292.5,135.0,284.5,135.5,276.0,136.5,267.5,137.5,259.5,138.5,251.0,139.5,242.5,140.5,234.5,141.0,227.0,141.5,219.0,142.0,211.0,142.0" stroke="black" stroke-width="2" fill="none" />
<polyline points="213.5,138.0,221.5,141.0,230.0,140.5" stroke="black" stroke-width="2" fill="none" />
<polyline points="227.0,145.0,218.5,153.0,210.5,160.5,202.5,168.5,194.5,176.5,186.5,184.0,179.0,192.0,171.0,199.5" stroke="black" stroke-width="2" fill="none" />
<polyline points="170.0,209.0,178.0,201.0,186.0,193.0,194.5,185.0,202.0,177.0,210.0,168.5,217.5,160.5,225.5,152.0,234.0,145.0" stroke="black" stroke-width="2" fill="none" />
<polyline points="228.0,149.0,225.0,157.0,216.5,161.0,220.0,160.0,222.0,162.0,233.5,161.0,244.0,166.0,252.0,165.0,254.0,171.0,262.0,172.0" stroke="black" stroke-width="2" fill="none" />
<polyline points="259.5,177.0,267.5,176.5,275.5,176.5,283.0,176.5" stroke="black" stroke-width="2" fill="none" />
<polyline points="285.5,186.0,277.5,180.0,276.5,176.0,269.0,177.0" stroke="black" stroke-width="2" fill="none" />
<polyline points="259.0,164.5,267.0,157.0,275.0,149.5" stroke="black" stroke-width="2" fill="none" />
<polyline points="267.5,148.5,259.5,155.5" stroke="black" stroke-width="2" fill="none" />
<polyline points="244.0,157.5,239.5,160.5,243.5,168.5,236.0,182.0,226.5,185.0,229.5,188.5,222.0,197.0,227.5,200.5,235.5,193.5,233.5,191.5,221.0,196.5,222.0,189.5,230.0,179.5,238.0,176.5" stroke="black" stroke-width="2" fill="none" />
<polyline points="234.5,186.5,243.0,179.0,251.0,171.5" stroke="black" stroke-width="2" fill="none" />
<polyline points="252.0,171.5,252.0,179.0" stroke="black" stroke-width="2" fill="none" />
<polyline points="252.0,185.5,244.0,186.0" stroke="black" stroke-width="2" fill="none" />
<polyline points="236.0,168.0,227.5,169.0" stroke="black" stroke-width="2" fill="none" />
<polyline points="220.0,165.5,215.0,169.5,221.5,161.5" stroke="black" stroke-width="2" fill="none" />
<polyline points="194.5,171.0,186.5,178.0,178.5,185.0,171.0,192.0" stroke="black" stroke-width="2" fill="none" />
<polyline points="170.0,184.5,178.0,177.0,186.0,170.0" stroke="black" stroke-width="2" fill="none" />
<polyline points="186.5,169.0,180.5,177.0,171.5,183.5,166.0,192.0,158.0,200.0,156.0,208.0,157.5,216.0,161.0,218.0,155.5,226.0,147.5,234.0,145.0,240.0,152.5,233.5,160.5,222.5,164.5,214.5,172.5,211.5" stroke="black" stroke-width="2" fill="none" />
<polyline points="163.0,211.5,171.0,211.0,179.0,211.0,187.0,211.0,195.5,211.0,203.5,211.0" stroke="black" stroke-width="2" fill="none" />
<polyline points="205.0,205.5,196.5,211.5,202.5,199.0,209.0,191.0" stroke="black" stroke-width="2" fill="none" />
<polyline points="200.0,171.5,192.0,175.0" stroke="black" stroke-width="2" fill="none" />
<polyline points="187.0,164.0,195.0,163.5,203.5,163.5,212.0,163.0,221.0,163.0,229.0,163.5,237.5,163.0,245.0,162.0,252.5,161.5,260.5,160.5,268.5,160.5,276.0,159.5,284.5,159.5,292.5,158.5,301.0,158.0,309.0,157.5,317.0,157.0,324.5,156.5,332.5,156.0,340.5,155.5,348.0,155.0,355.5,154.5,363.5,154.5,371.0,154.0,379.5,154.0,387.5,153.5,395.5,152.5,403.5,151.5,412.0,151.0,420.0,150.5,428.0,150.0,435.5,149.5,444.0,148.5,451.5,148.0,459.5,147.5,467.5,147.0,475.5,146.5,483.5,145.5,491.5,145.5,499.5,145.5,507.0,145.0,515.5,144.5" stroke="black" stroke-width="2" fill="none" />
<polyline points="516.0,111.0,507.5,111.0,500.0,111.5,492.0,112.0,484.0,112.5,475.5,112.5,467.5,113.0,459.5,114.5,451.0,115.0,443.5,115.5,435.5,115.5,427.5,115.5,419.5,116.5,411.5,117.0,403.5,117.5,395.5,118.0,388.0,118.5,379.5,119.5,372.0,120.0,364.0,120.5,356.0,121.0,347.5,121.5,339.5,122.5,331.5,123.5,323.5,124.0,315.0,124.0,307.5,124.5,299.5,124.5,292.0,125.0" stroke="black" stroke-width="2" fill="none" />
<polyline points="301.5,129.5,299.5,137.5,295.5,143.5,296.5,151.5,290.0,153.5,291.0,163.5,291.0,167.5,296.5,161.5,304.5,163.0,306.0,171.0,320.0,177.0,326.5,173.5,334.5,177.5,334.0,186.5" stroke="black" stroke-width="2" fill="none" />
<polyline points="305.0,166.0,302.5,168.0,310.5,166.0,306.5,158.0" stroke="black" stroke-width="2" fill="none" />
<polyline points="319.0,156.5,320.0,152.5,322.0,145.0" stroke="black" stroke-width="2" fill="none" />
<polyline points="274.5,117.0,282.5,116.0,290.5,115.0,299.0,114.0,308.0,113.0,316.5,113.0,324.5,112.5,332.5,112.0,340.5,111.5,348.5,111.5,356.5,110.5,364.5,110.5,372.0,110.5,380.0,110.0,388.5,109.0,396.5,108.5,404.0,108.5,411.0,108.5,418.5,108.0,426.0,107.5,433.5,107.0,442.5,106.5,450.5,106.0,459.0,105.5,467.0,105.0,474.5,104.5,483.0,104.0,491.0,103.0,499.0,102.5,507.0,102.0,515.5,101.5" stroke="black" stroke-width="2" fill="none" />
<polyline points="515.0,93.5,506.5,94.0,499.0,94.5,491.0,94.0,483.0,94.5,475.5,95.5,468.0,96.0,460.0,97.0,452.0,97.0,444.5,98.0,436.0,99.0,428.0,99.5,420.0,99.5,412.5,99.0,404.5,99.0,396.0,99.5,388.0,100.5,379.0,101.0,370.5,101.5,362.5,102.0,353.5,103.0,345.5,103.5,338.0,103.5,330.0,104.0,322.5,105.0,314.5,105.5,306.5,106.0,298.5,106.5,290.5,107.0,282.5,107.5,274.5,108.0,265.5,108.5" stroke="black" stroke-width="2" fill="none" />
<polyline points="267.5,101.0,275.0,100.5,282.5,100.5,290.5,99.5,298.0,99.0,305.5,98.5,313.5,98.0,321.0,97.5,329.5,97.0,337.5,96.5,346.0,96.0,354.0,95.0,362.5,94.5,371.0,94.5,379.5,94.0,387.5,93.5,395.5,93.0,403.5,92.5,411.5,91.5,420.0,91.0,428.0,90.5,435.5,90.0,444.0,89.5,452.0,89.0,459.5,88.5,467.5,88.0,475.5,87.0,483.5,86.0,491.5,85.5,500.0,85.0,508.0,84.5,516.5,84.0" stroke="black" stroke-width="2" fill="none" />
<polyline points="514.0,78.5,506.5,79.0,499.0,79.5,490.5,80.0,482.5,80.5,474.5,80.5,466.5,81.5,459.0,82.0,451.0,82.5,443.0,83.0,435.5,83.5,427.0,83.5,419.5,84.0,411.5,85.0,404.5,85.5,396.5,86.0,388.5,85.5,380.0,86.0,371.5,86.0,363.0,86.5,355.0,86.5,346.5,87.0,338.5,87.5,331.0,88.0,323.0,89.0,315.5,90.0,308.0,91.5,300.0,92.0,291.5,92.5,283.0,92.5,274.5,93.0,266.5,94.0,258.0,94.5" stroke="black" stroke-width="2" fill="none" />
<polyline points="257.5,131.5,249.5,132.0" stroke="black" stroke-width="2" fill="none" />
<polyline points="257.0,129.5,249.0,130.0,241.5,130.0,237.5,138.0,229.0,135.0,218.5,134.0,210.0,132.5,201.5,130.5,193.5,128.5,185.5,127.5,177.5,125.5,169.5,123.0,162.0,122.0,154.0,120.0,146.0,119.0,138.0,117.0,130.5,115.0,122.5,114.0,115.0,112.0,106.5,109.5,98.5,108.5,91.0,107.0,83.0,106.0,75.0,104.0,66.5,101.5,58.5,101.0,50.0,99.0,42.0,97.5,33.5,96.5,25.5,95.0,17.5,93.5,9.0,92.5,1.0,90.0" stroke="black" stroke-width="2" fill="none" />
<polyline points="1.5,93.5,9.5,95.5,17.5,97.0,25.5,99.0,33.5,100.5,42.0,101.5,50.0,103.0,58.0,103.5,66.5,105.5,74.5,107.0,82.5,108.0,91.0,110.5,98.5,112.5,106.5,114.0,114.5,116.0,122.5,118.5,130.5,119.0,138.5,121.0,146.5,122.5,154.5,123.5,162.5,125.5,170.5,126.0,178.5,128.0,186.5,130.0,194.5,131.5,203.0,133.5,211.0,135.0,218.5,137.0" stroke="black" stroke-width="2" fill="none" />
<polyline points="219.5,130.0,212.0,130.0,204.5,130.5,197.0,130.5,189.0,131.5,181.5,132.0" stroke="black" stroke-width="2" fill="none" />
<polyline points="188.0,122.5,180.5,123.5,173.0,124.0,165.5,125.0,158.0,125.5,150.0,126.0" stroke="black" stroke-width="2" fill="none" />
<polyline points="146.5,114.5,138.5,114.5,131.0,115.0,123.0,115.5,115.0,116.0,107.5,116.5" stroke="black" stroke-width="2" fill="none" />
<polyline points="107.0,108.0,99.0,108.5,90.5,108.5,83.0,108.5,75.5,108.5" stroke="black" stroke-width="2" fill="none" />
<polyline points="67.0,99.5,58.5,100.5,50.0,101.5,42.0,102.5,34.5,103.0" stroke="black" stroke-width="2" fill="none" />
<polyline points="27.0,91.0,19.5,92.0,12.0,92.5,4.0,93.0" stroke="black" stroke-width="2" fill="none" />
<polyline points="64.0,128.0,71.5,128.0,68.5,128.5,61.5,124.5,59.0,132.5,62.0,123.5,70.0,125.0,77.5,125.5,90.5,123.5,104.5,126.5,103.0,132.0,100.0,140.5,106.5,139.0" stroke="black" stroke-width="2" fill="none" />
<polyline points="104.5,135.5,104.0,127.5" stroke="black" stroke-width="2" fill="none" />
<polyline points="78.5,134.0,76.0,126.5" stroke="black" stroke-width="2" fill="none" />
<polyline points="74.5,128.0,75.0,136.0" stroke="black" stroke-width="2" fill="none" />
<polyline points="68.0,188.0,66.0,196.0,62.0,210.0,60.0,218.0,57.0,223.5" stroke="black" stroke-width="2" fill="none" />
<polyline points="72.5,214.0,80.5,213.0,75.5,213.0,75.0,220.5,74.0,228.5,73.0,235.5,73.0,234.5,79.0,232.5" stroke="black" stroke-width="2" fill="none" />
<polyline points="75.5,233.5,77.5,226.0,78.5,218.5,78.5,215.5" stroke="black" stroke-width="2" fill="none" />
<polyline points="96.0,203.5,103.5,199.0,102.5,206.0,102.5,213.5,103.0,221.0,102.0,229.0,99.5,237.0" stroke="black" stroke-width="2" fill="none" />
<polyline points="116.0,248.0,124.5,246.5,132.5,248.5,133.5,252.5,132.5,261.0" stroke="black" stroke-width="2" fill="none" />
<polyline points="135.0,262.5,135.5,255.0,128.5,252.0,120.5,250.0" stroke="black" stroke-width="2" fill="none" />
<polyline points="107.5,258.0,107.5,266.0" stroke="black" stroke-width="2" fill="none" />
<polyline points="102.0,269.5,99.0,269.5,105.0,268.0,106.0,260.0,106.0,256.0" stroke="black" stroke-width="2" fill="none" />
<polyline points="116.5,266.5,113.0,266.5,111.0,274.5,117.5,271.5" stroke="black" stroke-width="2" fill="none" />
<polyline points="86.5,264.5,88.5,256.5" stroke="black" stroke-width="2" fill="none" />
<polyline points="87.5,257.0,84.0,265.0,89.0,269.0,83.5,272.0,91.5,266.5,97.0,267.5,100.0,274.0,101.0,271.5,112.5,266.5,113.5,269.0" stroke="black" stroke-width="2" fill="none" />
<polyline points="135.5,241.0,136.5,235.5,144.5,238.0,152.5,230.5,161.0,218.5,167.0,221.5,174.0,227.0,170.0,234.5,163.0,241.0,165.0,249.0,158.0,257.0,157.0,265.0,158.0,272.0,157.0,280.5,160.0,281.5,163.0,281.5,160.0,275.5,170.5,280.0,175.5,279.5,188.0,279.5,188.0,287.5,196.0,299.5" stroke="black" stroke-width="2" fill="none" />
<polyline points="193.0,276.5,186.0,275.0,169.0,261.0,169.5,261.5,168.5,250.5" stroke="black" stroke-width="2" fill="none" />
<polyline points="171.5,245.5,179.5,249.5" stroke="black" stroke-width="2" fill="none" />
<polyline points="194.5,251.5,187.0,252.0,179.0,252.5,171.0,252.5,163.0,253.0" stroke="black" stroke-width="2" fill="none" />
<polyline points="157.5,267.5,165.5,258.5,165.5,258.0,160.5,260.0,164.5,250.0,172.5,249.0,173.0,257.0,183.5,258.0,184.5,266.5,183.5,275.0,191.5,283.0,194.5,291.0" stroke="black" stroke-width="2" fill="none" />
<polyline points="165.0,297.5,164.0,305.5" stroke="black" stroke-width="2" fill="none" />
<polyline points="172.5,304.0,162.5,304.0,162.0,296.0" stroke="black" stroke-width="2" fill="none" />
<polyline points="157.5,293.5,153.5,301.5,154.0,293.5" stroke="black" stroke-width="2" fill="none" />
<polyline points="156.0,293.0,151.0,301.0,151.5,305.0,153.0,300.0" stroke="black" stroke-width="2" fill="none" />
<polyline points="161.5,227.0,169.5,234.0,171.5,224.0" stroke="black" stroke-width="2" fill="none" />
<polyline points="166.0,223.0,174.0,217.5,173.5,215.5" stroke="black" stroke-width="2" fill="none" />
<polyline points="169.0,206.5,160.5,210.5" stroke="black" stroke-width="2" fill="none" />
<polyline points="154.5,205.0,162.5,196.0,165.5,192.5,172.0,183.5,180.5,173.5,188.5,170.5,190.5,162.0,200.0,153.5,208.0,149.5,216.5,147.5,224.5,145.5,232.5,146.5,242.5,143.5,250.5,141.5,258.5,140.5,259.0,142.5,262.0,142.0,269.5,145.5,276.0,141.0" stroke="black" stroke-width="2" fill="none" />
<polyline points="287.5,147.5,285.0,156.5,276.5,158.0,267.5,163.0,263.5,156.5,255.5,157.0,257.0,155.5,256.0,147.5,252.0,148.0,256.0,140.0" stroke="black" stroke-width="2" fill="none" />
<polyline points="236.5,129.5,246.5,132.5,244.5,140.0,235.0,143.0,234.5,146.5,246.5,150.0,250.5,157.5,247.5,159.5,254.0,161.0,258.0,166.0,266.0,165.0,278.5,161.0,286.5,163.5" stroke="black" stroke-width="2" fill="none" />
<polyline points="210.0,77.5,218.0,77.5,226.5,77.0,234.5,76.0,243.0,75.0,251.0,74.0,259.5,73.0,268.0,72.0,276.5,71.0,285.0,71.0,293.0,70.5,301.0,70.0,308.5,69.5,316.5,69.0,324.5,68.5,332.5,68.5,340.0,68.0,347.5,67.5,355.0,67.0,363.0,66.5,371.0,66.0,379.0,65.5,386.5,65.0,394.5,65.0,402.5,64.0,411.0,64.0,419.0,64.0,428.0,63.5,437.0,63.5,445.5,62.5,453.5,62.0,461.5,62.0,469.0,62.0,476.5,61.5,484.5,61.0,492.5,60.5,500.5,60.5,508.5,60.0,516.5,59.5" stroke="black" stroke-width="2" fill="none" />
<polyline points="292.5,63.0,285.0,63.0,277.0,63.5,268.5,63.5,260.5,64.5,252.0,64.5,243.5,64.5,234.5,64.5,226.0,64.5,218.0,65.5,210.5,66.0,202.5,66.5,195.0,67.0,187.0,67.5" stroke="black" stroke-width="2" fill="none" />
<polyline points="156.0,53.0,164.0,52.5,172.0,52.0,179.5,52.0,187.5,51.5,196.0,51.0,203.5,50.5,211.0,50.5,218.5,50.0,227.0,50.0" stroke="black" stroke-width="2" fill="none" />
<polyline points="193.5,40.5,186.5,40.5,179.0,41.0,171.5,41.5,164.0,42.0,156.0,42.5,148.0,43.0,140.0,43.5,131.5,44.5,123.0,45.0" stroke="black" stroke-width="2" fill="none" />
<polyline points="105.5,37.5,114.0,37.0,122.5,36.5,131.0,36.0,139.0,35.5,147.0,35.0" stroke="black" stroke-width="2" fill="none" />
<polyline points="107.5,28.0,99.5,27.5,91.5,27.5,83.5,28.0,75.5,28.5,67.5,29.0" stroke="black" stroke-width="2" fill="none" />
<polyline points="59.5,12.5,51.5,13.0" stroke="black" stroke-width="2" fill="none" />
<polyline points="50.0,5.0,58.5,4.0" stroke="black" stroke-width="2" fill="none" />
<polyline points="42.0,20.5,50.5,20.0,59.0,20.0,67.5,20.5,76.0,20.5" stroke="black" stroke-width="2" fill="none" />
<polyline points="34.5,11.5,27.0,12.0,18.5,13.0,10.0,14.0" stroke="black" stroke-width="2" fill="none" />
<polyline points="13.5,4.5,5.0,4.5" stroke="black" stroke-width="2" fill="none" />
<polyline points="65.0,189.5,65.0,193.0,63.5,201.0,60.5,208.5,58.5,216.0,51.0,219.5,55.0,217.5" stroke="black" stroke-width="2" fill="none" />
<polyline points="48.0,200.5,40.0,202.5" stroke="black" stroke-width="2" fill="none" />
<polyline points="28.5,241.5,21.0,252.5,21.0,263.5,29.0,257.5,36.0,250.0,29.0,242.0" stroke="black" stroke-width="2" fill="none" />
<polyline points="30.0,244.0,25.0,252.0,26.0,257.0,34.0,255.0" stroke="black" stroke-width="2" fill="none" />
<polyline points="38.0,261.0,37.0,269.5" stroke="black" stroke-width="2" fill="none" />
<polyline points="49.5,259.5,49.0,258.0,47.5,258.0,45.5,266.0,41.5,268.5,38.5,267.0,41.5,270.0,54.0,263.0" stroke="black" stroke-width="2" fill="none" />
<polyline points="74.0,266.5,71.0,271.5,72.5,264.0,73.5,256.0" stroke="black" stroke-width="2" fill="none" />
<polyline points="77.0,256.5,79.0,264.5,77.5,267.5,85.0,258.5" stroke="black" stroke-width="2" fill="none" />
<polyline points="76.5,264.0,80.5,272.0" stroke="black" stroke-width="2" fill="none" />
<polyline points="102.5,237.0,105.0,229.0,105.5,221.0,106.5,212.5,105.5,203.0,97.5,204.0" stroke="black" stroke-width="2" fill="none" />
<polyline points="161.0,182.0,169.5,181.5,178.0,181.0,186.0,180.5,194.5,180.0,202.5,179.5,211.0,179.0,219.0,178.0,227.5,177.5,236.0,177.0,244.5,176.5,252.0,176.0,260.0,176.0,268.0,176.0,275.5,175.0,283.0,174.5,291.0,174.0,299.0,173.5,307.5,173.0,315.5,172.0,323.5,171.0,331.5,170.5,339.5,170.5,347.0,170.5,355.0,171.0,362.5,170.5,370.5,169.5,378.5,168.5,387.0,167.0,395.5,166.0,404.0,166.0,411.5,165.0,419.5,164.5,427.5,164.5,436.0,164.0,444.0,163.5,452.0,163.0,460.0,163.0,468.5,162.5,477.5,161.5,485.5,160.5,493.5,160.5,501.0,160.5,508.5,160.5,516.0,160.0" stroke="black" stroke-width="2" fill="none" />
<polyline points="516.0,151.5,508.0,152.0,500.0,153.0,491.5,153.5,484.0,154.0,476.0,154.5,468.5,154.5,460.0,154.5,451.5,154.0,444.5,154.5,436.5,154.5,429.0,155.5,422.0,156.0,414.0,156.5,405.5,157.5,397.5,158.0,389.0,158.5,381.0,159.0,373.0,159.5,365.0,161.0,357.5,162.5,349.5,163.5,341.5,164.5,333.5,165.0,325.5,165.5,317.5,166.0,308.5,166.5,299.5,166.5,291.0,167.0,282.5,168.0,274.5,168.0,266.0,168.5,258.0,168.5,250.0,169.0,242.0,169.5,234.5,170.0,227.0,170.5,219.0,171.5,211.0,172.5,203.0,173.0,195.5,173.0,187.5,174.0,179.5,175.0,171.5,175.5" stroke="black" stroke-width="2" fill="none" />
<polyline points="163.5,182.0,171.5,173.0,180.0,170.0,188.5,162.0,194.5,165.5,192.5,173.5,188.5,181.0,183.5,171.5,171.5,175.0,172.0,176.5,173.0,188.0,173.0,196.5" stroke="black" stroke-width="2" fill="none" />
<polyline points="163.0,187.5,170.5,187.0,179.0,187.5,187.0,187.5,195.5,187.5,203.5,187.0,212.0,186.5,219.0,186.0,226.5,185.5,235.0,185.0,243.5,184.5,251.0,184.5,258.5,184.0,266.5,183.5,275.0,183.0,283.0,182.0,291.5,181.5,299.5,181.0,307.5,180.0,316.0,179.5,324.0,179.0,332.0,178.5,340.0,177.5,347.5,176.5,355.0,176.0,363.0,176.0,370.5,175.5,378.5,175.0,386.5,175.0,394.0,174.5,402.0,174.0,410.0,174.0,418.5,173.5,427.5,173.0,436.0,172.5,444.5,172.5,452.5,172.0,461.0,171.5,469.0,171.0,477.0,170.5,485.0,170.0,493.5,169.5,501.5,169.5,508.5,169.0,516.0,169.0" stroke="black" stroke-width="2" fill="none" />
<polyline points="267.0,359.0,255.5,367.5,250.5,375.5,250.5,383.5" stroke="black" stroke-width="2" fill="none" />
<polyline points="25.5,255.5,33.5,252.0,32.0,253.0,28.5,244.5" stroke="black" stroke-width="2" fill="none" />
<polyline points="26.0,242.5,23.0,250.5,20.0,258.0,19.0,266.0" stroke="black" stroke-width="2" fill="none" />
<polyline points="11.5,276.5,3.0,272.5" stroke="black" stroke-width="2" fill="none" />
<polyline points="6.5,274.5,4.0,266.0" stroke="black" stroke-width="2" fill="none" />
</svg>