<svg xmlns="http://www.w3.org/2000/svg" version="1.1"><polyline points="393.5,3.0,384.5,11.0,376.0,18.5,383.5,11.5,391.5,4.5" stroke="black" stroke-width="2" fill="none" />
<polyline points="395.5,3.5,387.5,10.5,380.0,18.0,372.5,25.0" stroke="black" stroke-width="2" fill="none" />
<polyline points="380.5,34.0,388.5,26.0,396.5,18.0,405.5,10.5,413.5,3.0" stroke="black" stroke-width="2" fill="none" />
<polyline points="421.5,2.5,414.0,10.0,406.0,17.0,398.0,25.0,390.0,32.5,382.0,40.5" stroke="black" stroke-width="2" fill="none" />
<polyline points="386.5,42.0,394.5,41.5,403.0,40.5,411.0,40.0,419.5,39.0,428.0,38.5,435.5,38.5,443.0,38.5" stroke="black" stroke-width="2" fill="none" />
<polyline points="438.0,41.5,446.5,35.0,454.0,30.0,462.0,24.5,470.5,19.5,478.5,14.0,486.0,8.0,493.0,3.5,481.5,11.5,470.5,19.0,458.5,27.0,446.5,35.0,438.0,43.0,439.0,50.5,440.0,58.0,441.5,65.5,442.5,73.5,443.5,81.5,444.0,89.5,445.0,97.5,446.0,105.5,447.5,113.5,442.5,121.5,426.5,130.0,426.5,130.0,434.5,125.5,443.0,121.5" stroke="black" stroke-width="2" fill="none" />
<polyline points="443.5,130.5,435.5,137.5,427.0,145.5,419.5,153.5,412.0,161.5,404.0,169.0" stroke="black" stroke-width="2" fill="none" />
<polyline points="403.0,168.0,411.5,167.5,419.5,166.5,427.5,165.5" stroke="black" stroke-width="2" fill="none" />
<polyline points="443.0,162.5,435.0,170.5,427.5,178.5,419.5,186.0,411.5,193.5,404.0,200.5" stroke="black" stroke-width="2" fill="none" />
<polyline points="403.5,205.5,411.5,205.0,420.0,205.0,428.5,204.5,436.5,203.5,445.0,203.0,452.5,202.5,460.5,202.0,468.0,201.0,476.5,200.5,484.5,200.0,493.0,199.5,501.5,198.5,509.5,198.0,517.5,198.0" stroke="black" stroke-width="2" fill="none" />
<polyline points="516.0,243.0,508.5,244.5,500.5,245.5,493.0,246.5" stroke="black" stroke-width="2" fill="none" />
<polyline points="491.5,255.5,499.5,255.0,507.5,254.0,515.5,252.5" stroke="black" stroke-width="2" fill="none" />
<polyline points="514.5,259.5,507.5,267.5,499.5,274.5,491.5,282.0,483.5,289.5,476.0,297.0,467.0,304.0,459.0,310.5,450.5,318.0,442.5,325.5,434.5,333.0" stroke="black" stroke-width="2" fill="none" />
<polyline points="435.0,332.0,427.0,339.5" stroke="black" stroke-width="2" fill="none" />
<polyline points="428.5,338.0,436.5,337.0,444.5,337.0,452.0,336.5,460.0,335.5,467.5,335.5,475.5,335.0,484.5,335.0,492.5,334.5,500.5,334.0,508.0,333.5,516.0,333.0" stroke="black" stroke-width="2" fill="none" />
<polyline points="516.0,330.5,508.0,338.0,499.5,345.5,491.5,353.5,483.5,361.5,475.0,369.0,467.0,376.5,459.5,384.0" stroke="black" stroke-width="2" fill="none" />
<polyline points="452.0,379.0,444.0,386.0" stroke="black" stroke-width="2" fill="none" />
<polyline points="447.5,383.5,456.0,385.5" stroke="black" stroke-width="2" fill="none" />
<polyline points="468.5,384.5,476.5,377.0,484.5,369.5,492.5,362.0,500.5,354.5,508.0,347.0,516.0,339.5" stroke="black" stroke-width="2" fill="none" />
<polyline points="515.5,346.0,507.0,354.0,498.5,361.5,490.5,369.5,483.0,377.5,475.5,385.5" stroke="black" stroke-width="2" fill="none" />
<polyline points="491.5,387.0,499.5,379.5,507.0,372.5,515.0,365.0" stroke="black" stroke-width="2" fill="none" />
<polyline points="515.0,373.5,507.0,380.5,498.0,388.0" stroke="black" stroke-width="2" fill="none" />
<polyline points="506.5,385.5,514.5,385.0" stroke="black" stroke-width="2" fill="none" />
<polyline points="515.0,380.0,507.0,387.5" stroke="black" stroke-width="2" fill="none" />
<polyline points="515.0,376.5,507.5,377.0,499.5,377.5,491.5,378.0" stroke="black" stroke-width="2" fill="none" />
<polyline points="493.5,376.5,499.0,384.5,489.0,383.0,496.5,377.0,504.5,381.5" stroke="black" stroke-width="2" fill="none" />
<polyline points="483.0,385.5,490.5,378.0,498.5,370.0,507.0,362.5,515.0,354.5" stroke="black" stroke-width="2" fill="none" />
<polyline points="515.0,322.0,507.0,329.5,499.0,337.5,491.0,344.5,482.5,351.5,474.5,358.5,466.5,366.5,458.5,374.0,450.5,381.5" stroke="black" stroke-width="2" fill="none" />
<polyline points="459.5,367.5,468.0,360.0,476.5,352.5,484.5,345.0,492.0,337.5,500.0,330.5,508.0,322.5,516.0,315.5" stroke="black" stroke-width="2" fill="none" />
<polyline points="515.5,306.5,507.5,314.0,500.0,321.5,492.5,329.0,484.5,336.5,476.0,344.0,468.0,352.0,459.5,359.5" stroke="black" stroke-width="2" fill="none" />
<polyline points="458.0,355.5,466.0,355.0,474.5,354.5,483.0,353.5,491.0,352.0,499.5,351.0,507.0,350.5,515.0,350.0" stroke="black" stroke-width="2" fill="none" />
<polyline points="516.0,366.0,508.0,366.5,500.0,367.0,492.0,368.0,484.0,369.0,475.5,369.0,467.0,369.5" stroke="black" stroke-width="2" fill="none" />
<polyline points="466.0,362.0,474.0,361.5,482.5,361.5,491.5,361.0,500.0,361.0,508.0,360.5,515.5,359.5" stroke="black" stroke-width="2" fill="none" />
<polyline points="459.0,351.5,467.0,343.5,475.5,336.5,483.5,329.0,491.5,321.5,500.0,314.0,508.5,306.0,516.5,298.0" stroke="black" stroke-width="2" fill="none" />
<polyline points="516.5,290.5,508.5,298.0,500.5,306.0,492.0,314.5,483.5,322.0,474.5,330.0,467.0,337.0,459.0,344.0,451.0,351.0" stroke="black" stroke-width="2" fill="none" />
<polyline points="453.0,351.0,460.5,359.0,469.5,367.0,475.5,372.0,477.0,380.0" stroke="black" stroke-width="2" fill="none" />
<polyline points="450.5,343.5,458.5,336.0,466.5,328.0,474.5,321.0,482.5,314.0,491.0,307.0,499.5,300.0,507.0,292.5,514.5,285.0" stroke="black" stroke-width="2" fill="none" />
<polyline points="515.5,278.0,508.0,285.5,500.5,292.5,493.0,299.5,485.0,306.5,476.5,313.5,468.0,320.0,460.0,327.0,452.0,334.5,444.0,341.5" stroke="black" stroke-width="2" fill="none" />
<polyline points="436.5,346.0,444.0,345.5,451.5,345.0,459.0,344.5,467.0,343.5,475.5,343.0,483.5,343.0,491.5,343.0,500.0,342.5,508.5,342.0,516.5,341.5" stroke="black" stroke-width="2" fill="none" />
<polyline points="515.5,296.5,508.0,297.0,500.5,297.0,492.5,297.0,484.5,297.5,476.5,298.0" stroke="black" stroke-width="2" fill="none" />
<polyline points="476.5,289.5,484.5,289.0,492.5,289.0,500.5,288.5,509.0,288.0,516.5,287.5" stroke="black" stroke-width="2" fill="none" />
<polyline points="515.5,268.0,507.5,275.5,499.0,283.0,490.5,291.0,482.5,298.0,474.5,305.5,466.5,313.0,458.5,320.0,450.0,327.0,442.5,334.0,434.5,341.5" stroke="black" stroke-width="2" fill="none" />
<polyline points="419.0,331.5,427.5,324.0" stroke="black" stroke-width="2" fill="none" />
<polyline points="417.0,328.5,425.0,335.0,433.0,342.5,441.0,345.5,449.0,348.5,457.0,354.5,465.5,363.0,470.5,370.5,469.5,381.0,477.5,377.5,482.0,376.5,495.0,380.0,499.5,384.0" stroke="black" stroke-width="2" fill="none" />
<polyline points="515.0,317.5,507.5,318.5,499.5,319.0,491.0,319.5,482.5,320.0,474.5,320.5,466.0,321.5,458.5,322.0" stroke="black" stroke-width="2" fill="none" />
<polyline points="460.5,314.0,468.0,313.0,476.5,312.0,484.5,312.0,492.5,311.5,500.5,311.5,508.5,311.0,516.0,310.0" stroke="black" stroke-width="2" fill="none" />
<polyline points="516.0,271.5,508.5,272.5,501.0,273.0,493.0,273.0" stroke="black" stroke-width="2" fill="none" />
<polyline points="499.5,267.5,507.5,267.0" stroke="black" stroke-width="2" fill="none" />
<polyline points="506.0,257.0,498.0,265.0,490.0,272.5,482.5,280.0,475.0,288.0,467.0,295.5,458.5,303.0" stroke="black" stroke-width="2" fill="none" />
<polyline points="466.5,307.0,475.0,306.5,483.0,305.5,491.5,304.5,499.5,303.0,508.0,302.0,516.0,301.5" stroke="black" stroke-width="2" fill="none" />
<polyline points="516.5,278.5,508.5,278.5,501.0,278.5,493.0,279.0,485.5,279.5" stroke="black" stroke-width="2" fill="none" />
<polyline points="476.0,281.5,484.0,273.5,492.0,266.0,500.0,259.0,508.0,252.0" stroke="black" stroke-width="2" fill="none" />
<polyline points="516.0,259.5,508.0,260.5,500.0,261.5,492.0,262.0" stroke="black" stroke-width="2" fill="none" />
<polyline points="513.5,265.0,505.5,265.5,498.0,266.0,490.0,267.0,482.5,268.0,474.5,269.0,467.0,269.5" stroke="black" stroke-width="2" fill="none" />
<polyline points="469.0,254.0,476.5,253.0" stroke="black" stroke-width="2" fill="none" />
<polyline points="478.0,245.5,470.0,246.5" stroke="black" stroke-width="2" fill="none" />
<polyline points="476.5,237.0,468.5,238.0,460.5,238.5" stroke="black" stroke-width="2" fill="none" />
<polyline points="461.0,230.5,469.0,230.5,477.0,230.0,485.0,229.0,492.5,228.0,500.0,227.0,507.5,226.0,514.5,225.5" stroke="black" stroke-width="2" fill="none" />
<polyline points="516.5,235.5,509.0,235.5,501.5,236.0,493.0,236.5,485.0,237.0" stroke="black" stroke-width="2" fill="none" />
<polyline points="476.5,221.0,485.0,220.5,493.5,219.5,501.5,219.0,509.5,219.0,517.0,218.5" stroke="black" stroke-width="2" fill="none" />
<polyline points="515.0,210.5,507.5,211.0,499.5,212.0,492.0,212.5,484.0,213.5,475.5,214.5,467.5,215.5" stroke="black" stroke-width="2" fill="none" />
<polyline points="458.0,216.0,458.0,224.0,460.0,232.0,463.0,240.5,465.0,248.5,468.0,257.5,469.5,265.5,469.5,274.0" stroke="black" stroke-width="2" fill="none" />
<polyline points="451.5,283.0,443.5,290.5" stroke="black" stroke-width="2" fill="none" />
<polyline points="442.0,295.5,450.0,295.0,458.5,294.5,467.0,293.0,475.0,291.5,483.5,290.5,491.5,290.0,500.5,289.5,509.0,289.5,517.0,289.5" stroke="black" stroke-width="2" fill="none" />
<polyline points="442.5,275.0,434.5,282.5" stroke="black" stroke-width="2" fill="none" />
<polyline points="437.0,286.0,445.0,285.5,452.5,285.0,460.0,285.0,468.0,284.5,475.5,284.5,483.5,284.0,491.5,283.5,499.5,283.0,507.5,283.0,515.0,282.0" stroke="black" stroke-width="2" fill="none" />
<polyline points="516.0,325.0,508.0,325.5,500.0,326.0,491.5,327.0,484.0,328.0,476.0,329.5,468.0,330.5,460.0,331.0,451.5,331.5" stroke="black" stroke-width="2" fill="none" />
<polyline points="427.0,301.0,435.0,301.0,443.0,300.5,451.5,300.0,459.5,299.0,468.0,298.0,476.5,298.0,485.0,298.5,493.5,298.5,502.5,298.5,510.5,298.0,518.0,297.5" stroke="black" stroke-width="2" fill="none" />
<polyline points="514.5,320.0,506.5,320.0,498.5,320.0,490.5,320.5,482.5,321.0,474.5,321.5,467.0,322.0,460.0,323.0,452.0,324.0,444.0,324.5,435.5,325.0,427.0,326.0,419.0,327.0,410.5,327.5" stroke="black" stroke-width="2" fill="none" />
<polyline points="409.5,318.0,418.0,317.5,426.0,317.0,434.5,316.5,443.0,316.5,451.0,316.5,459.0,315.5,467.0,315.0,475.0,315.0,483.0,315.0,491.5,314.5,499.5,314.0,506.5,313.0,514.5,312.5" stroke="black" stroke-width="2" fill="none" />
<polyline points="516.0,269.5,508.0,270.5,500.0,271.5,492.0,272.5,484.0,273.0,475.5,273.5,467.0,274.0,458.5,274.5,450.5,275.5,442.5,276.5,434.5,277.0,427.0,277.5,419.5,278.0,412.0,278.0,404.0,279.0" stroke="black" stroke-width="2" fill="none" />
<polyline points="402.0,271.5,410.5,271.0,418.5,270.5,426.5,270.0,434.5,270.0,443.0,269.5,450.5,269.0,459.0,268.0" stroke="black" stroke-width="2" fill="none" />
<polyline points="452.5,249.5,444.0,249.5,436.0,250.5,427.5,251.0,419.5,252.0,411.5,253.0,404.0,253.5" stroke="black" stroke-width="2" fill="none" />
<polyline points="404.0,261.5,412.0,261.0,420.5,261.0,428.0,261.0,435.5,260.5,443.5,260.0,451.5,259.0,459.5,258.5,468.0,258.0,476.5,258.0,485.0,257.5" stroke="black" stroke-width="2" fill="none" />
<polyline points="461.0,227.0,469.0,222.0,473.5,223.5,471.5,231.5,465.0,241.0,473.0,237.0,479.5,230.0,484.5,238.0,490.5,244.0,497.5,252.0,494.0,260.0,487.0,267.5,481.5,275.5,476.5,283.5,470.5,292.0,465.0,300.0,459.0,308.0,453.0,316.0,445.5,324.0" stroke="black" stroke-width="2" fill="none" />
<polyline points="419.0,286.0,410.5,286.0" stroke="black" stroke-width="2" fill="none" />
<polyline points="417.0,279.0,425.0,278.0,434.0,279.0,447.0,287.0" stroke="black" stroke-width="2" fill="none" />
<polyline points="442.0,281.5,434.5,276.5" stroke="black" stroke-width="2" fill="none" />
<polyline points="425.5,272.0,417.5,270.5" stroke="black" stroke-width="2" fill="none" />
<polyline points="419.0,275.0,416.5,283.0,415.0,291.5,415.0,299.5,412.5,307.5" stroke="black" stroke-width="2" fill="none" />
<polyline points="396.0,310.5,404.5,309.5,412.5,309.0,420.5,308.0,429.0,307.5,436.5,307.0,444.0,306.5,451.5,306.0,459.0,305.5,466.5,305.5,474.5,305.0,482.0,304.5,490.5,303.5,498.5,303.0,507.0,302.5,515.5,302.0" stroke="black" stroke-width="2" fill="none" />
<polyline points="444.0,243.0,436.0,243.5,428.0,243.5,420.5,244.0,412.5,244.0,405.0,244.5" stroke="black" stroke-width="2" fill="none" />
<polyline points="403.5,236.5,411.0,236.0,419.0,235.5,427.0,235.5" stroke="black" stroke-width="2" fill="none" />
<polyline points="421.0,229.0,413.0,230.0,405.0,230.5,397.0,230.5" stroke="black" stroke-width="2" fill="none" />
<polyline points="404.5,219.5,412.5,219.5" stroke="black" stroke-width="2" fill="none" />
<polyline points="409.0,221.5,417.0,228.5" stroke="black" stroke-width="2" fill="none" />
<polyline points="433.5,228.5,442.0,243.0,450.0,264.0,458.0,277.5,465.5,276.0" stroke="black" stroke-width="2" fill="none" />
<polyline points="474.5,236.5,475.5,232.5,467.5,237.5,459.5,232.0,465.5,221.0,466.0,219.0,457.5,219.0" stroke="black" stroke-width="2" fill="none" />
<polyline points="450.0,211.0,458.0,204.0" stroke="black" stroke-width="2" fill="none" />
<polyline points="459.5,194.5,452.0,202.0,444.0,209.5" stroke="black" stroke-width="2" fill="none" />
<polyline points="435.0,210.0,443.0,202.5,450.5,195.0" stroke="black" stroke-width="2" fill="none" />
<polyline points="454.0,189.0,446.0,196.5,437.5,204.0,429.0,211.5" stroke="black" stroke-width="2" fill="none" />
<polyline points="428.0,210.0,436.5,209.5" stroke="black" stroke-width="2" fill="none" />
<polyline points="444.5,214.5,437.0,215.0,429.0,215.5" stroke="black" stroke-width="2" fill="none" />
<polyline points="421.0,208.5,428.5,201.0,436.5,194.0,444.0,187.5,451.5,180.0" stroke="black" stroke-width="2" fill="none" />
<polyline points="453.0,169.0,444.5,176.5,436.0,185.0,427.5,193.0,418.5,201.0" stroke="black" stroke-width="2" fill="none" />
<polyline points="418.0,207.5,431.0,215.5,434.5,224.5,436.5,232.5,440.0,240.5,443.0,248.5,446.0,256.5,449.5,264.5,452.5,272.5,455.5,277.5" stroke="black" stroke-width="2" fill="none" />
<polyline points="427.5,260.5,423.5,247.5" stroke="black" stroke-width="2" fill="none" />
<polyline points="425.5,259.5,417.5,260.5" stroke="black" stroke-width="2" fill="none" />
<polyline points="386.5,261.0,378.0,261.5,369.5,261.5,361.5,261.5" stroke="black" stroke-width="2" fill="none" />
<polyline points="355.0,253.0,363.0,253.0,371.0,252.5,379.5,252.5" stroke="black" stroke-width="2" fill="none" />
<polyline points="379.5,270.0,371.5,270.5" stroke="black" stroke-width="2" fill="none" />
<polyline points="380.5,273.0,388.5,275.0" stroke="black" stroke-width="2" fill="none" />
<polyline points="387.5,283.0,388.5,275.0,391.5,262.0,388.0,267.0,379.5,268.0,371.5,268.0,363.0,260.0,355.0,252.0,346.5,246.5,339.0,241.5,331.0,236.5,323.0,230.0,315.0,235.5,307.0,244.5" stroke="black" stroke-width="2" fill="none" />
<polyline points="307.5,243.0,299.5,251.0" stroke="black" stroke-width="2" fill="none" />
<polyline points="299.5,258.5,291.5,266.0,283.5,273.5,275.5,281.0,268.0,288.5,260.5,296.5,252.0,303.5" stroke="black" stroke-width="2" fill="none" />
<polyline points="259.0,307.0,266.5,306.5,274.5,306.0" stroke="black" stroke-width="2" fill="none" />
<polyline points="267.0,301.0,274.5,300.5,283.0,299.0" stroke="black" stroke-width="2" fill="none" />
<polyline points="275.0,289.5,282.5,289.0,291.0,288.0" stroke="black" stroke-width="2" fill="none" />
<polyline points="292.5,281.5,300.0,281.0" stroke="black" stroke-width="2" fill="none" />
<polyline points="300.5,276.5,292.5,284.0,284.0,291.5,276.0,298.5,268.0,305.5,260.5,313.0,252.5,320.5,244.5,328.5" stroke="black" stroke-width="2" fill="none" />
<polyline points="242.5,334.5,251.0,334.0,259.5,333.5,268.0,332.5,276.5,332.0,284.5,332.0" stroke="black" stroke-width="2" fill="none" />
<polyline points="291.0,334.5,299.5,333.5,307.0,333.0,314.5,332.5,322.5,331.5,330.5,330.5" stroke="black" stroke-width="2" fill="none" />
<polyline points="323.5,324.0,316.0,331.5" stroke="black" stroke-width="2" fill="none" />
<polyline points="321.5,325.5,332.5,333.5,332.5,341.5" stroke="black" stroke-width="2" fill="none" />
<polyline points="347.0,349.0,355.5,348.0,363.5,347.5,371.5,347.5,380.0,347.5,388.0,347.0,396.0,347.0,403.5,346.5,411.5,346.5,419.0,346.0,427.5,346.0,435.0,345.0,443.0,344.5,451.0,344.0,459.0,343.5,467.5,342.5,475.5,342.0,484.5,341.5,493.0,341.0,501.0,340.5,509.0,340.0,517.0,339.5" stroke="black" stroke-width="2" fill="none" />
<polyline points="422.5,371.5,414.0,379.0,406.0,386.5" stroke="black" stroke-width="2" fill="none" />
<polyline points="418.0,389.0,425.5,381.5" stroke="black" stroke-width="2" fill="none" />
<polyline points="421.5,378.5,413.5,386.0" stroke="black" stroke-width="2" fill="none" />
<polyline points="413.5,371.0,405.5,379.0,397.5,386.5" stroke="black" stroke-width="2" fill="none" />
<polyline points="388.5,387.5,397.0,380.5,405.0,373.5" stroke="black" stroke-width="2" fill="none" />
<polyline points="403.5,363.0,395.5,370.5,387.5,378.0,379.5,385.0" stroke="black" stroke-width="2" fill="none" />
<polyline points="372.0,385.5,379.5,378.0,388.0,370.5,396.0,363.5" stroke="black" stroke-width="2" fill="none" />
<polyline points="397.0,357.0,389.5,364.5,382.0,372.0,374.0,379.0,365.5,386.5" stroke="black" stroke-width="2" fill="none" />
<polyline points="355.0,384.5,363.5,376.5,372.0,368.5,381.0,361.0,389.0,353.5" stroke="black" stroke-width="2" fill="none" />
<polyline points="386.0,346.0,378.5,353.0,371.0,361.0,363.5,369.0,355.5,377.0,347.0,384.5" stroke="black" stroke-width="2" fill="none" />
<polyline points="341.5,386.0,349.5,385.0,357.5,384.5,365.0,383.0,372.0,382.0" stroke="black" stroke-width="2" fill="none" />
<polyline points="372.0,370.5,380.0,370.0,388.5,370.0" stroke="black" stroke-width="2" fill="none" />
<polyline points="382.0,360.5,373.5,361.0" stroke="black" stroke-width="2" fill="none" />
<polyline points="376.5,350.5,382.0,361.5,390.0,372.0" stroke="black" stroke-width="2" fill="none" />
<polyline points="370.0,376.0,362.0,376.0,354.5,376.5,347.0,376.5" stroke="black" stroke-width="2" fill="none" />
<polyline points="338.5,386.0,346.5,378.5,354.5,371.0,362.0,363.5,369.0,355.5,377.0,347.5" stroke="black" stroke-width="2" fill="none" />
<polyline points="378.0,350.0,384.0,358.0,386.5,367.0,389.5,375.5,392.0,374.5,400.0,371.5" stroke="black" stroke-width="2" fill="none" />
<polyline points="369.0,363.0,369.0,358.5,361.0,354.5" stroke="black" stroke-width="2" fill="none" />
<polyline points="356.5,355.0,348.5,363.0" stroke="black" stroke-width="2" fill="none" />
<polyline points="355.0,364.0,359.0,359.0,356.5,367.0,363.5,372.0,365.0,372.5" stroke="black" stroke-width="2" fill="none" />
<polyline points="365.0,368.0,357.5,365.0" stroke="black" stroke-width="2" fill="none" />
<polyline points="341.5,356.0,349.0,355.5,356.5,355.5,364.0,355.0,371.5,354.0,379.0,353.5,387.0,353.0,395.5,352.5,403.5,352.0,411.5,351.0,419.5,350.5,427.5,350.0,435.5,350.5,444.0,350.5,451.5,350.5,460.5,350.5,468.5,351.0,476.5,350.5,484.0,350.5,492.0,350.0,500.0,350.0,508.0,349.0,516.0,348.5" stroke="black" stroke-width="2" fill="none" />
<polyline points="515.0,326.5,507.0,327.5,499.0,327.5,490.5,327.5,482.0,328.0,474.0,328.5,465.5,329.0,457.5,329.5,450.0,330.5,443.0,331.5,435.0,331.5,427.5,331.5,420.5,331.5,412.5,331.0,404.5,331.0,396.0,331.0,388.0,331.5" stroke="black" stroke-width="2" fill="none" />
<polyline points="385.0,340.5,384.0,349.0,388.0,353.5,392.0,366.5,395.0,374.5,397.0,382.5" stroke="black" stroke-width="2" fill="none" />
<polyline points="370.0,348.0,362.5,356.0,355.0,363.0,347.0,370.5,339.5,378.0,331.5,385.5" stroke="black" stroke-width="2" fill="none" />
<polyline points="323.5,366.0,331.5,366.0,339.5,365.5,348.0,364.5,356.5,364.0,364.5,364.0,372.5,363.0,380.5,362.5,388.0,362.0,396.0,361.5,404.0,361.0,411.5,360.0,419.5,359.5,427.5,359.5,435.5,359.0,443.5,358.5,451.5,358.0,460.0,357.0,468.5,356.5,476.5,355.5,485.0,354.5,492.5,354.0,500.5,354.0,508.0,353.5,516.0,353.5" stroke="black" stroke-width="2" fill="none" />
<polyline points="516.5,332.0,508.0,332.0,500.5,332.0,492.5,332.5,484.5,333.5,476.0,334.5,469.0,335.5,461.0,336.0,453.0,337.0,445.0,337.5,437.0,337.5,429.0,338.5,421.0,339.0,413.5,339.5,406.0,340.5,397.5,341.0,389.0,341.5,380.5,342.0,372.0,342.5,363.5,342.5,355.5,343.0" stroke="black" stroke-width="2" fill="none" />
<polyline points="349.5,347.0,349.0,339.0" stroke="black" stroke-width="2" fill="none" />
<polyline points="354.0,335.0,362.5,334.5,370.5,334.0,378.5,333.5" stroke="black" stroke-width="2" fill="none" />
<polyline points="371.0,324.5,363.5,325.0,355.5,325.5,347.5,326.0" stroke="black" stroke-width="2" fill="none" />
<polyline points="346.5,318.5,354.5,318.0,363.5,317.5" stroke="black" stroke-width="2" fill="none" />
<polyline points="365.0,320.0,372.5,326.5,381.0,331.5,389.0,331.5,397.0,328.5" stroke="black" stroke-width="2" fill="none" />
<polyline points="384.5,303.5,392.5,310.5,400.5,315.5,408.5,320.0,416.5,326.0,425.0,328.0,432.5,331.0,440.5,328.0,448.5,321.5,457.0,311.5,465.0,301.0,473.0,288.0,481.0,277.0,489.0,267.0,496.5,255.5,504.5,255.0,510.0,263.0" stroke="black" stroke-width="2" fill="none" />
<polyline points="444.0,171.0,435.5,179.0,427.5,186.0,419.5,193.5,411.5,201.0" stroke="black" stroke-width="2" fill="none" />
<polyline points="412.0,204.0,420.0,203.0,428.0,202.5" stroke="black" stroke-width="2" fill="none" />
<polyline points="428.5,193.0,420.5,194.0,412.5,194.0,404.5,194.5" stroke="black" stroke-width="2" fill="none" />
<polyline points="403.5,193.0,411.0,185.0,419.0,177.5,427.0,170.0,435.5,162.0,444.0,154.5" stroke="black" stroke-width="2" fill="none" />
<polyline points="443.5,146.0,435.5,153.5,427.5,161.0,419.5,169.0,412.0,177.5,404.5,185.5" stroke="black" stroke-width="2" fill="none" />
<polyline points="404.5,187.5,412.5,187.0,420.0,186.5,427.5,186.0" stroke="black" stroke-width="2" fill="none" />
<polyline points="427.5,176.5,419.5,176.5,412.0,177.0,403.5,178.0" stroke="black" stroke-width="2" fill="none" />
<polyline points="402.0,176.5,410.5,168.5,418.5,161.0,427.0,153.5,435.0,146.0,442.5,139.0" stroke="black" stroke-width="2" fill="none" />
<polyline points="451.5,114.5,443.0,122.5,435.5,130.5,427.5,138.5,420.0,146.5,412.0,154.0,404.0,161.0" stroke="black" stroke-width="2" fill="none" />
<polyline points="405.5,159.0,413.5,158.5,421.0,158.0,428.0,158.0" stroke="black" stroke-width="2" fill="none" />
<polyline points="429.0,150.5,421.5,151.5,413.5,152.0,405.5,152.5" stroke="black" stroke-width="2" fill="none" />
<polyline points="403.5,145.0,411.5,144.5,419.5,143.5,427.5,143.0" stroke="black" stroke-width="2" fill="none" />
<polyline points="427.5,137.0,420.0,137.5,412.0,138.0,404.5,138.5" stroke="black" stroke-width="2" fill="none" />
<polyline points="395.5,136.0,403.0,129.0,411.0,122.0,418.5,114.5,426.5,107.5,435.0,100.0,444.0,92.5,452.0,85.5" stroke="black" stroke-width="2" fill="none" />
<polyline points="449.5,93.0,441.5,101.0,433.5,108.5,426.0,116.0,418.0,123.5,410.0,130.0,402.5,137.5,395.0,145.0" stroke="black" stroke-width="2" fill="none" />
<polyline points="394.0,151.0,402.5,143.5,410.5,136.5,418.5,129.5,426.5,122.5,435.0,115.5,443.0,109.0,451.0,101.5" stroke="black" stroke-width="2" fill="none" />
<polyline points="450.5,108.5,442.5,115.5,434.5,122.0,426.5,129.5,418.5,137.5,410.5,145.0,402.0,152.0,394.0,159.0" stroke="black" stroke-width="2" fill="none" />
<polyline points="381.0,174.5,389.0,174.0,397.0,173.5,405.0,173.5,412.5,173.0,420.5,172.5,428.0,171.5,436.0,170.5,443.5,170.0,451.5,169.5,459.5,168.5,467.5,168.0,476.0,168.0,484.5,167.5,492.5,166.5,501.0,166.0,508.5,165.5" stroke="black" stroke-width="2" fill="none" />
<polyline points="516.5,191.0,508.5,192.0,500.5,192.0,492.5,192.0,484.5,193.0,476.5,193.5,469.0,194.0,461.5,194.0,454.0,194.5,445.5,194.0,437.5,195.0,429.5,195.5,421.0,196.5,412.5,197.5,404.5,197.5,397.0,198.0" stroke="black" stroke-width="2" fill="none" />
<polyline points="388.0,188.5,396.0,188.0,403.5,187.5,411.0,187.5,419.0,187.0,426.5,187.0,434.5,187.0,442.5,186.5,450.5,186.0,458.5,185.5,466.5,185.0,475.0,185.0,483.5,185.0,491.5,185.0,499.5,185.0,507.0,184.0,515.0,183.0" stroke="black" stroke-width="2" fill="none" />
<polyline points="436.5,128.0,428.5,129.0,420.0,129.5,412.0,130.5,404.0,131.5,396.0,131.5" stroke="black" stroke-width="2" fill="none" />
<polyline points="395.0,126.5,404.0,119.5,412.5,112.5,421.0,105.0,429.5,97.5,438.0,90.5,445.5,83.5,453.5,76.5" stroke="black" stroke-width="2" fill="none" />
<polyline points="443.0,74.5,435.0,82.0,427.5,89.5,419.5,97.5,411.0,105.5,402.5,113.5,395.0,120.5" stroke="black" stroke-width="2" fill="none" />
<polyline points="396.5,123.0,404.5,122.5,413.0,122.0,421.0,121.5,429.5,120.5,437.5,120.0,445.0,119.5" stroke="black" stroke-width="2" fill="none" />
<polyline points="443.0,112.0,436.0,112.5,428.0,113.0,420.5,113.0,413.0,113.5,406.0,114.0,398.0,114.5" stroke="black" stroke-width="2" fill="none" />
<polyline points="396.5,110.5,404.5,103.5,413.0,96.0,421.0,89.0,429.0,82.5,437.0,75.5,445.0,68.0" stroke="black" stroke-width="2" fill="none" />
<polyline points="445.5,60.0,437.5,67.5,429.5,75.0,421.0,82.0,412.0,89.5,404.0,96.5,395.5,104.5" stroke="black" stroke-width="2" fill="none" />
<polyline points="394.5,105.0,403.5,104.5,411.5,104.0,420.0,103.5,428.5,103.5,436.5,102.5,444.5,102.0" stroke="black" stroke-width="2" fill="none" />
<polyline points="443.5,95.0,435.5,95.5,427.0,96.5,419.0,97.0,411.0,97.5,403.0,98.0,395.5,99.0" stroke="black" stroke-width="2" fill="none" />
<polyline points="387.0,94.0,395.0,87.0,403.0,79.5,411.0,72.0,419.5,64.0,427.5,56.0,435.5,48.0,444.0,40.5,452.0,33.0,460.0,25.5,467.5,18.0,475.5,11.0,483.0,3.5" stroke="black" stroke-width="2" fill="none" />
<polyline points="477.5,3.0,469.0,10.5,460.5,17.5,452.0,25.5,444.0,33.0,435.5,40.5,427.5,48.0,419.0,56.0,411.0,63.0,402.0,70.5,394.0,77.5,386.0,85.0" stroke="black" stroke-width="2" fill="none" />
<polyline points="388.0,79.5,396.0,72.0,403.5,64.5,411.5,57.0,419.5,49.5,428.0,42.0,436.0,34.0,444.0,26.5,452.0,18.5,460.0,10.5,468.0,3.0" stroke="black" stroke-width="2" fill="none" />
<polyline points="461.5,3.0,453.5,10.5,446.0,18.5,437.5,25.5,429.0,32.5,421.5,39.5,413.0,47.0,405.0,55.0,397.0,63.0,388.5,71.0" stroke="black" stroke-width="2" fill="none" />
<polyline points="394.0,66.5,402.5,66.0,410.5,65.5,418.5,65.0,427.0,65.0,435.0,64.5,443.5,64.0" stroke="black" stroke-width="2" fill="none" />
<polyline points="446.5,52.0,438.0,59.5,429.0,66.5,420.0,74.0,412.0,82.5,403.5,90.0,395.5,97.0,387.0,104.0" stroke="black" stroke-width="2" fill="none" />
<polyline points="397.0,89.0,405.0,88.5,413.0,88.0,420.5,88.0,428.5,87.5,436.0,87.5,444.5,87.0" stroke="black" stroke-width="2" fill="none" />
<polyline points="444.0,78.5,436.0,79.0,428.0,79.0,420.5,78.5,413.0,78.5,405.0,79.0,397.5,79.5" stroke="black" stroke-width="2" fill="none" />
<polyline points="395.5,73.5,403.5,72.5,412.0,72.0,420.0,72.0,427.5,72.0,435.5,72.0,443.5,71.0" stroke="black" stroke-width="2" fill="none" />
<polyline points="458.5,33.5,466.0,26.0,473.5,18.0,481.5,10.0,489.5,2.5" stroke="black" stroke-width="2" fill="none" />
<polyline points="498.5,2.0,490.5,10.0,482.0,17.5" stroke="black" stroke-width="2" fill="none" />
<polyline points="508.0,9.5,516.5,2.0" stroke="black" stroke-width="2" fill="none" />
<polyline points="507.0,4.5,499.0,11.5" stroke="black" stroke-width="2" fill="none" />
<polyline points="451.5,4.0,443.5,11.5,435.5,19.5,428.0,27.0,420.5,34.0,412.5,41.0,404.5,48.0,396.5,56.0,388.0,63.5" stroke="black" stroke-width="2" fill="none" />
<polyline points="388.0,57.0,396.0,56.5,404.0,56.0,411.5,55.5,419.5,55.0,427.5,55.0,435.5,55.0" stroke="black" stroke-width="2" fill="none" />
<polyline points="435.0,47.5,427.5,47.0,419.5,47.0,412.5,47.0,405.0,47.5,398.0,48.0,390.0,48.5" stroke="black" stroke-width="2" fill="none" />
<polyline points="387.5,56.0,395.5,49.0,404.0,42.0,412.5,34.5,421.0,26.5,429.0,19.0,437.5,10.5,445.5,2.5" stroke="black" stroke-width="2" fill="none" />
<polyline points="435.0,4.0,427.0,12.0,419.0,20.0,411.5,27.5,404.0,34.0,396.0,41.5,387.5,48.5" stroke="black" stroke-width="2" fill="none" />
<polyline points="378.0,47.0,386.0,39.5,394.5,32.0,402.5,24.0,411.0,16.5,419.5,8.5,427.5,0.5" stroke="black" stroke-width="2" fill="none" />
<polyline points="403.5,1.5,395.0,8.5,387.5,16.0,380.0,24.0" stroke="black" stroke-width="2" fill="none" />
<polyline points="384.5,28.0,384.5,35.5,385.5,43.5,386.5,51.5,388.0,60.0,388.5,68.0,389.0,75.5,390.0,83.5,391.5,91.5,393.0,99.5,394.0,107.5,394.5,115.5,395.5,124.0,396.0,132.0,396.0,140.0,397.0,148.0,398.0,156.0,398.5,164.0,399.5,172.0,400.0,180.0,401.0,187.5,402.0,196.0,402.0,204.5,406.0,214.5,412.0,225.5,417.0,233.5,420.5,242.0,421.5,250.0,418.0,259.0,416.5,267.0,413.5,276.5,413.5,284.0,408.0,292.0,407.0,294.5" stroke="black" stroke-width="2" fill="none" />
<polyline points="384.0,302.0,391.5,310.0,405.5,318.0,415.5,326.0,421.5,334.0,429.0,342.5" stroke="black" stroke-width="2" fill="none" />
<polyline points="514.5,360.0,506.0,360.5,498.5,361.0,490.5,361.5,483.0,361.5,475.0,361.5,467.5,361.0,459.5,361.0,452.5,361.0,445.0,361.5,438.0,362.0,430.0,362.5,422.0,363.0,413.5,363.5,404.5,364.0,396.5,364.5,387.5,365.5,379.0,366.0,371.0,366.0,363.0,367.0,354.5,368.0,346.5,369.0,338.5,369.5,331.5,370.0,323.5,370.5,316.0,371.5,308.5,372.0,300.5,372.5,292.5,373.0,284.5,373.5,276.5,374.0,268.5,374.0" stroke="black" stroke-width="2" fill="none" />
<polyline points="275.0,379.0,283.0,371.0" stroke="black" stroke-width="2" fill="none" />
<polyline points="285.0,365.5,277.5,366.5" stroke="black" stroke-width="2" fill="none" />
<polyline points="278.5,364.5,280.5,372.5,284.0,377.0,295.0,382.5" stroke="black" stroke-width="2" fill="none" />
<polyline points="292.0,378.5,284.0,386.0" stroke="black" stroke-width="2" fill="none" />
<polyline points="283.0,385.5,291.5,385.0" stroke="black" stroke-width="2" fill="none" />
<polyline points="291.0,387.0,299.0,379.5" stroke="black" stroke-width="2" fill="none" />
<polyline points="282.5,378.5,275.0,385.5" stroke="black" stroke-width="2" fill="none" />
<polyline points="268.5,382.5,277.0,381.5,285.0,381.5,292.0,380.5,299.5,379.0,307.0,378.5,315.5,378.0,324.0,377.0,332.5,376.0,340.5,376.0,349.0,375.5,356.5,375.0,364.5,374.5,372.0,374.0,380.0,373.5,387.5,372.5,395.5,372.0,403.5,371.5,411.5,371.5,420.0,371.5,428.0,371.0,436.0,370.5,444.0,370.0,451.5,369.5,459.5,369.0,467.5,369.0,475.5,369.0,483.5,369.0,492.0,368.5,500.0,368.5,508.0,368.0,516.0,367.0" stroke="black" stroke-width="2" fill="none" />
<polyline points="432.0,220.0,419.5,213.0,411.5,214.0,403.5,216.0,396.0,214.5,388.5,212.5,380.5,205.0" stroke="black" stroke-width="2" fill="none" />
<polyline points="378.5,205.5,386.0,213.5,393.5,221.0,395.5,229.0,394.5,239.5,393.5,247.0" stroke="black" stroke-width="2" fill="none" />
<polyline points="395.5,220.0,387.5,221.5,379.5,222.0" stroke="black" stroke-width="2" fill="none" />
<polyline points="385.5,215.0,377.0,215.5,369.0,216.5" stroke="black" stroke-width="2" fill="none" />
<polyline points="361.0,207.0,369.5,206.5,378.0,206.0" stroke="black" stroke-width="2" fill="none" />
<polyline points="371.0,197.0,363.0,197.5,355.5,198.5" stroke="black" stroke-width="2" fill="none" />
<polyline points="346.0,187.0,354.0,187.0,362.0,187.0,369.5,187.5" stroke="black" stroke-width="2" fill="none" />
<polyline points="387.5,179.5,395.5,179.0,403.5,179.5,412.0,179.5,419.5,179.5,428.5,179.5,436.5,180.0,444.5,179.5,452.0,179.5,460.0,179.0,468.0,179.0,476.0,178.0,484.0,177.5,492.0,176.5,500.0,176.0,507.5,175.5,516.0,174.5" stroke="black" stroke-width="2" fill="none" />
<polyline points="499.5,157.5,491.5,157.5,483.5,157.5,476.0,157.0,469.0,157.0,461.5,157.5,453.5,158.0,445.0,159.0,436.5,160.0,428.0,161.0,419.0,162.0,410.5,163.5,402.0,164.0,393.5,165.0,385.5,165.5,377.0,166.0,369.0,166.0" stroke="black" stroke-width="2" fill="none" />
<polyline points="370.5,159.0,378.5,158.5,387.0,157.0,395.0,155.5,403.0,155.0,411.5,154.5,420.0,153.5,429.0,152.5,437.5,152.5,446.0,151.5,453.5,151.5,461.5,151.0,469.5,150.5,477.0,149.5,484.5,148.5,492.5,148.5" stroke="black" stroke-width="2" fill="none" />
<polyline points="492.0,141.5,484.5,142.0,477.0,142.5,468.5,143.0,460.5,144.0,452.5,144.5,444.0,145.5,436.5,146.0,428.0,146.5,420.0,147.5,412.0,149.0,404.0,149.5,395.5,150.0,387.0,150.0,378.5,150.0,370.0,150.5,362.0,150.5" stroke="black" stroke-width="2" fill="none" />
<polyline points="353.5,142.0,361.5,141.5,370.0,140.5,378.5,140.0,387.5,139.5,396.5,139.0,404.5,138.5,413.0,139.0,421.5,139.0,429.5,138.5,438.0,137.5,446.0,137.0,453.0,136.5,460.5,136.0,468.0,136.0,476.0,135.5,483.0,135.0" stroke="black" stroke-width="2" fill="none" />
<polyline points="475.0,126.5,467.5,126.5,460.5,126.5,452.5,126.0,444.5,126.0,436.0,126.0,428.0,126.5,420.0,127.0,412.5,127.5,405.0,129.0,396.5,130.5,389.0,131.5,381.0,132.5,373.0,133.5,365.5,134.0,357.5,134.5,349.5,135.0" stroke="black" stroke-width="2" fill="none" />
<polyline points="338.0,125.5,346.0,125.0,354.0,125.0,362.5,124.5,370.5,124.5,378.5,124.0,386.5,123.0,394.5,122.5,402.5,122.0,410.5,121.0,418.5,121.0,426.5,120.5,435.0,119.5,443.0,119.0,451.5,118.0,460.0,117.5,467.5,117.5,475.0,117.5" stroke="black" stroke-width="2" fill="none" />
<polyline points="475.5,109.0,467.5,110.0,459.5,111.0,451.0,111.5,443.5,112.0,434.5,112.5,426.5,113.0,419.0,113.5,411.0,114.5,403.0,114.5,395.0,114.5,387.0,115.0,378.5,115.0,370.5,115.5,362.5,116.0,354.0,116.0,346.0,116.5,337.5,117.0,329.0,117.5" stroke="black" stroke-width="2" fill="none" />
<polyline points="326.0,108.5,333.5,108.0,341.5,108.0,349.0,107.5,357.0,107.0,364.5,106.5,372.5,106.0,380.5,105.5,389.0,104.5,397.5,104.5,405.5,103.5,413.0,103.5,421.0,103.5,429.0,103.5,437.0,102.5,445.0,101.5,453.0,101.0,460.0,100.0,467.5,99.5,475.5,99.0" stroke="black" stroke-width="2" fill="none" />
<polyline points="483.5,91.0,475.5,91.5,467.5,92.5,459.5,93.0,452.0,93.5,444.0,94.5,436.5,95.5,428.5,96.0,421.0,96.5,413.0,96.5,405.0,97.0,397.0,97.5,389.0,98.0,380.5,98.0,372.0,98.0,364.0,98.0,356.0,98.5,348.0,98.5,340.5,99.0,332.5,100.0,324.5,100.5,316.5,101.0" stroke="black" stroke-width="2" fill="none" />
<polyline points="307.5,91.5,315.5,91.0,323.0,90.5,330.5,90.0,338.5,90.0,346.0,90.0,353.5,90.5,361.0,91.0,369.0,91.0,377.0,91.5,385.0,91.5,393.0,90.5,401.5,90.0,410.0,89.0,418.0,87.5,426.0,86.5,435.0,85.5,443.0,84.5,451.0,83.5,459.0,83.0,467.0,82.0,475.5,81.5,483.5,80.5,491.5,79.5,499.0,79.5" stroke="black" stroke-width="2" fill="none" />
<polyline points="493.0,73.5,484.5,74.0,476.5,75.0,468.5,75.5,460.0,76.5,452.5,77.0,444.0,77.5,436.0,78.5,428.0,80.0,420.0,80.5,411.5,81.0,403.0,81.0,394.5,81.0,386.0,81.5,378.0,81.5,370.5,82.5,362.5,83.0,355.0,82.5,347.0,82.5,339.5,83.0,331.0,82.5,323.0,82.5,314.5,83.0,306.0,83.5,297.5,84.0" stroke="black" stroke-width="2" fill="none" />
<polyline points="291.5,78.5,299.5,78.0,307.5,77.0,315.5,76.5,323.5,76.5,331.5,76.5,339.5,75.0,346.5,74.0,354.5,73.0,363.0,72.5,371.0,71.5,378.5,71.5,386.0,71.0,394.0,71.0,402.0,71.0,410.5,70.5,418.5,70.0,426.5,69.0,435.0,68.0,442.5,67.5,450.5,67.0,459.5,66.5,467.5,66.0,476.0,65.5,484.5,65.5,492.5,64.5" stroke="black" stroke-width="2" fill="none" />
<polyline points="500.5,56.5,492.5,57.0,484.0,57.5,476.5,57.5,468.5,58.0,461.0,58.0,453.0,58.5,445.0,59.0,437.0,60.0,428.0,61.0,419.5,61.5,411.0,62.0,402.5,62.5,395.0,63.5,387.0,63.5,379.5,64.0,371.5,64.5,363.5,65.0,355.5,65.5,347.5,66.0,339.5,66.0,331.5,66.5,323.5,66.5,315.5,67.5,307.0,68.5,299.0,69.0,291.5,70.0,284.0,70.5" stroke="black" stroke-width="2" fill="none" />
<polyline points="277.0,62.0,284.5,61.5,293.0,60.5,301.0,59.5,309.5,58.5,317.5,57.5,325.5,57.5,334.0,58.0,342.0,58.0,349.5,57.5,357.5,57.0,365.5,56.0,373.5,55.5,381.0,54.0,388.0,53.0,395.5,52.0,403.5,52.0,411.5,51.5,420.0,51.5,428.0,51.0,436.0,50.5,444.0,50.0,451.5,49.5,459.0,49.5,467.0,49.0,474.5,49.0,482.5,49.0,490.5,48.5,498.5,48.0,506.5,47.5,514.5,47.0" stroke="black" stroke-width="2" fill="none" />
<polyline points="516.0,41.0,508.0,41.0,500.0,41.5,492.5,41.5,484.5,42.0,476.5,41.5,467.5,41.5,460.0,41.5,451.5,41.5,443.5,41.0,435.5,41.5,427.5,42.0,419.5,43.0,411.5,43.5,403.0,44.0,395.0,44.5,387.5,45.0,380.0,46.0,372.5,46.5,365.0,46.5,357.5,47.0,349.5,47.5,341.5,48.0,333.5,49.0,325.5,50.0,318.0,51.0,309.5,51.5,300.5,52.0,292.5,52.5,285.0,53.0,276.5,54.0" stroke="black" stroke-width="2" fill="none" />
<polyline points="268.5,42.5,276.5,42.5,285.0,42.5,293.5,43.0,301.5,43.0,309.0,43.0,317.5,42.5,326.0,41.5,334.0,41.0,342.0,40.0,350.0,39.5,357.5,39.0,365.5,39.0,373.0,38.5,381.0,38.0,388.5,37.5,396.5,37.0,404.5,36.5,413.0,35.5,421.5,35.5,429.5,34.5,437.0,34.5,445.0,34.5,453.0,34.5,461.0,33.5,469.0,32.5,477.0,32.0,484.0,31.0,491.5,30.5,499.5,30.0,507.5,29.5,515.0,29.0" stroke="black" stroke-width="2" fill="none" />
<polyline points="491.0,5.0,483.0,6.0,474.5,6.5,467.0,6.5,459.5,6.5,452.0,6.5,444.5,6.5,436.5,7.0,428.5,7.0,420.0,7.5,411.5,8.0,403.0,8.5,395.0,9.5" stroke="black" stroke-width="2" fill="none" />
<polyline points="389.5,16.5,397.0,16.5,405.0,16.5,413.0,16.5,421.0,15.5,429.0,14.5,437.0,14.0,444.0,13.0,451.5,12.5,459.5,12.0,467.5,11.5,475.0,11.0" stroke="black" stroke-width="2" fill="none" />
<polyline points="451.5,30.0,443.5,31.0,435.5,32.0,427.0,32.5,419.5,33.0,410.5,33.5,402.5,34.0,395.0,34.5,387.0,35.5" stroke="black" stroke-width="2" fill="none" />
<polyline points="388.0,26.0,395.5,25.0,403.5,24.5,411.5,24.5,419.5,24.0,427.5,23.5,435.5,23.0,444.0,22.0,452.5,21.5,460.5,20.5,469.0,19.5" stroke="black" stroke-width="2" fill="none" />
<polyline points="516.5,20.5,508.5,20.5,500.5,21.5,492.0,22.0,483.5,22.5,475.5,23.0,467.0,23.5,459.0,24.5,451.5,25.5,443.5,26.0,435.5,27.5,427.5,28.0,419.5,28.5,412.0,28.5,404.0,28.5,396.5,28.5,389.0,29.0,380.5,29.0,372.5,29.5,364.5,30.5,357.0,31.5,349.0,32.5,340.5,32.5,332.5,32.5,324.5,33.0,316.0,33.5,308.5,34.0,300.0,35.0,292.5,35.5,284.5,36.0,276.5,36.5,268.5,36.5" stroke="black" stroke-width="2" fill="none" />
<polyline points="262.0,29.5,270.0,29.0,278.0,28.0,286.0,27.5,293.5,27.5,301.5,27.5,309.0,27.5,316.0,27.0,323.5,27.0,331.5,26.5,340.0,26.0,348.0,25.5,356.0,25.0,364.0,24.5,372.0,24.0,379.5,23.5,387.5,23.0,395.0,22.5,403.0,22.0,410.5,21.5,418.5,21.0,426.5,20.5,435.0,19.0,443.0,17.5,451.0,17.0,459.5,16.5,468.0,15.5,477.0,14.5,485.5,14.5,494.0,13.5,501.5,13.5,509.5,13.0,517.5,12.5" stroke="black" stroke-width="2" fill="none" />
<polyline points="517.0,6.0,509.0,7.0,501.0,7.5,493.0,7.5,485.0,8.5,477.0,9.0,469.5,9.5,462.0,10.5,453.5,11.0,445.0,11.5,436.5,12.0,428.0,12.5,419.5,12.5,411.5,13.0,403.0,13.0,395.0,13.0,387.0,13.0,379.0,14.0,371.0,14.0,363.5,14.0,355.5,14.0,348.0,14.5,340.0,15.0,332.5,15.5,324.0,16.0,316.0,16.5,308.0,17.0,300.0,17.5,292.0,18.5,284.5,19.0,276.5,20.0,268.5,21.0,259.5,22.5,251.5,23.5" stroke="black" stroke-width="2" fill="none" />
<polyline points="235.0,14.5,243.5,14.0,251.0,13.0,259.0,12.5,267.5,12.5,275.5,11.5,284.0,10.5,292.5,10.0,300.5,9.0,309.0,8.0,317.0,7.5,324.5,7.0,332.0,7.0,340.0,7.0,347.5,7.0,355.0,7.0,363.0,6.5,371.5,5.5,380.0,4.5,388.0,4.0,396.5,4.0,404.5,3.5,412.0,3.0,419.5,2.5,427.5,1.5,435.5,1.0,443.0,0.5,451.0,0.0,459.0,-0.5,467.5,-1.0,475.5,-1.5,483.5,-2.5,492.0,-3.0,500.0,-3.0,507.5,-3.0,515.5,-3.0" stroke="black" stroke-width="2" fill="none" />
<polyline points="515.5,-16.0,507.5,-14.5,499.5,-14.0,491.5,-13.5,484.0,-13.5,476.0,-13.5,468.5,-13.5,461.0,-13.0,452.5,-13.0,444.5,-12.5,436.5,-11.5,429.0,-10.5,421.0,-9.5,412.5,-9.5,404.5,-9.5,396.5,-9.0,388.0,-8.5,380.5,-8.0,372.0,-7.0,364.5,-6.5,356.5,-6.0,348.5,-5.5,340.5,-5.5,332.5,-4.5,325.0,-4.5,317.0,-4.0,309.0,-3.5,300.5,-3.0,292.5,-2.0,284.0,-2.0,275.5,-1.5,267.5,-0.5,260.0,0.0,251.5,1.0,243.0,1.5,235.0,2.0,227.5,2.5,219.5,3.5,211.0,4.0,202.5,4.0,194.5,4.0,186.0,4.0,178.0,5.0" stroke="black" stroke-width="2" fill="none" />
<polyline points="173.5,38.0,181.5,37.5,189.5,36.5,197.0,35.5,204.0,34.5,211.5,33.0,219.5,32.5" stroke="black" stroke-width="2" fill="none" />
<polyline points="219.5,51.5,211.5,51.5" stroke="black" stroke-width="2" fill="none" />
<polyline points="212.0,59.5,220.0,59.0" stroke="black" stroke-width="2" fill="none" />
<polyline points="220.5,69.0,212.5,69.5" stroke="black" stroke-width="2" fill="none" />
<polyline points="213.5,80.0,221.0,79.0" stroke="black" stroke-width="2" fill="none" />
<polyline points="220.0,102.5,212.0,103.0" stroke="black" stroke-width="2" fill="none" />
<polyline points="213.0,108.0,221.0,105.5,227.5,112.5" stroke="black" stroke-width="2" fill="none" />
<polyline points="228.0,116.0,220.0,123.5,212.0,131.0,204.0,138.0,196.0,144.5,187.5,152.0,179.5,159.5" stroke="black" stroke-width="2" fill="none" />
<polyline points="180.0,160.5,187.5,160.0,196.0,160.5" stroke="black" stroke-width="2" fill="none" />
<polyline points="202.0,155.5,194.0,163.0,186.5,170.0,178.5,177.5" stroke="black" stroke-width="2" fill="none" />
<polyline points="180.5,176.5,188.5,176.0,196.0,176.0" stroke="black" stroke-width="2" fill="none" />
<polyline points="196.5,172.5,188.5,180.0,180.0,188.0" stroke="black" stroke-width="2" fill="none" />
<polyline points="180.5,191.5,188.5,191.5" stroke="black" stroke-width="2" fill="none" />
<polyline points="191.0,188.5,198.0,187.0,206.0,179.5,206.0,173.0,209.0,175.0,216.5,173.0,224.5,173.0,233.0,174.5,241.5,181.5,249.0,179.5" stroke="black" stroke-width="2" fill="none" />
<polyline points="248.5,180.0,256.5,179.5,265.5,179.5,273.5,179.5,281.5,179.0,289.5,178.5,297.5,178.0,305.5,177.5,313.5,177.0,322.5,176.5" stroke="black" stroke-width="2" fill="none" />
<polyline points="323.5,178.0,315.5,185.5,307.0,193.0" stroke="black" stroke-width="2" fill="none" />
<polyline points="307.5,188.5,315.5,188.0,323.5,188.0,332.0,188.0" stroke="black" stroke-width="2" fill="none" />
<polyline points="323.5,186.5,315.0,193.5" stroke="black" stroke-width="2" fill="none" />
<polyline points="315.5,197.5,323.5,202.5" stroke="black" stroke-width="2" fill="none" />
<polyline points="317.0,197.5,325.0,196.5,332.5,195.5" stroke="black" stroke-width="2" fill="none" />
<polyline points="325.0,197.0,325.0,192.5,335.5,184.5,328.5,187.0,320.5,186.0" stroke="black" stroke-width="2" fill="none" />
<polyline points="308.0,184.5,316.0,177.0,324.0,169.5" stroke="black" stroke-width="2" fill="none" />
<polyline points="324.0,168.5,316.0,168.5,308.0,168.5,300.0,169.0" stroke="black" stroke-width="2" fill="none" />
<polyline points="300.0,163.0,308.0,162.5,316.0,162.0" stroke="black" stroke-width="2" fill="none" />
<polyline points="324.5,162.0,316.5,169.5,308.5,177.5,300.5,184.5" stroke="black" stroke-width="2" fill="none" />
<polyline points="296.0,185.5,290.0,193.5,293.5,202.0" stroke="black" stroke-width="2" fill="none" />
<polyline points="292.0,197.0,284.0,197.5,276.0,197.5,268.5,198.0,260.5,198.0" stroke="black" stroke-width="2" fill="none" />
<polyline points="260.0,199.5,267.5,192.0,275.5,185.0,283.5,176.5,292.0,169.0,300.5,161.5,309.5,154.0,317.5,146.5" stroke="black" stroke-width="2" fill="none" />
<polyline points="318.5,152.5,328.5,167.5,334.0,175.5,340.5,183.5,347.0,192.0,354.0,200.0,362.0,208.5,369.5,217.0,377.5,225.5,374.5,236.5" stroke="black" stroke-width="2" fill="none" />
<polyline points="371.5,244.5,364.0,245.0,356.5,245.5,348.5,246.0" stroke="black" stroke-width="2" fill="none" />
<polyline points="341.0,236.5,348.5,236.0,356.5,235.5" stroke="black" stroke-width="2" fill="none" />
<polyline points="317.5,226.0,309.5,233.0,301.0,240.5" stroke="black" stroke-width="2" fill="none" />
<polyline points="308.0,226.0,315.5,218.5" stroke="black" stroke-width="2" fill="none" />
<polyline points="323.5,209.5,315.5,210.0,308.0,210.0,300.0,211.0,292.0,211.5,283.5,213.0,275.5,214.0,267.0,214.5,259.0,215.0" stroke="black" stroke-width="2" fill="none" />
<polyline points="262.0,208.5,269.5,201.0,276.5,193.0,285.0,185.0,293.0,177.0,301.0,169.0,308.5,161.0,316.5,153.5" stroke="black" stroke-width="2" fill="none" />
<polyline points="324.5,155.5,317.0,163.0,308.5,170.5,300.5,178.0,292.5,186.0,285.0,193.5" stroke="black" stroke-width="2" fill="none" />
<polyline points="284.0,193.0,276.0,193.5" stroke="black" stroke-width="2" fill="none" />
<polyline points="276.5,204.0,268.5,211.5" stroke="black" stroke-width="2" fill="none" />
<polyline points="264.5,207.5,272.5,214.0,280.5,216.0,288.5,215.5,297.0,211.5,307.5,217.5,315.5,224.5,320.5,230.0,313.5,238.0,307.5,245.5,306.5,253.5,303.5,261.5,301.5,269.5,303.0,277.0,304.0,285.0,304.5,293.0,312.5,298.0,307.0,301.0,309.0,309.0,318.5,313.5,325.5,319.5" stroke="black" stroke-width="2" fill="none" />
<polyline points="327.0,322.5,322.0,315.0" stroke="black" stroke-width="2" fill="none" />
<polyline points="324.5,309.5,337.5,318.0,344.5,325.5,347.5,333.5,346.5,341.5,345.0,349.5,335.0,358.5,324.0,360.5,331.5,356.5" stroke="black" stroke-width="2" fill="none" />
<polyline points="329.5,345.0,321.5,342.0,313.5,342.0" stroke="black" stroke-width="2" fill="none" />
<polyline points="308.0,339.5,300.0,340.0,292.5,340.5" stroke="black" stroke-width="2" fill="none" />
<polyline points="298.5,334.5,306.5,328.5,314.5,327.5,322.5,329.0,330.5,335.0" stroke="black" stroke-width="2" fill="none" />
<polyline points="318.0,322.5,309.5,330.0,300.5,337.5" stroke="black" stroke-width="2" fill="none" />
<polyline points="304.5,334.0,297.5,342.5,297.5,342.5" stroke="black" stroke-width="2" fill="none" />
<polyline points="308.5,328.0,297.0,336.0,297.0,328.5,305.5,324.5,313.5,323.5,322.0,325.5,330.0,329.5" stroke="black" stroke-width="2" fill="none" />
<polyline points="331.5,319.5,323.5,320.0,315.0,320.5,306.5,321.0,299.0,321.0,291.0,321.5,283.0,322.0,275.0,323.0,267.5,323.5,260.0,324.0,252.5,324.5,244.5,324.5,236.5,325.0,229.0,325.5,221.0,326.5,213.0,327.0" stroke="black" stroke-width="2" fill="none" />
<polyline points="211.5,333.0,219.5,332.5" stroke="black" stroke-width="2" fill="none" />
<polyline points="219.0,332.5,211.5,340.0" stroke="black" stroke-width="2" fill="none" />
<polyline points="204.5,345.5,196.5,347.0,188.5,347.5,180.0,348.5,171.0,349.5,163.0,350.0" stroke="black" stroke-width="2" fill="none" />
<polyline points="160.0,346.5,144.5,354.5,123.0,362.5,107.5,370.5,101.5,380.0,100.5,382.0,109.0,369.5,117.0,365.5,125.0,362.5,133.0,359.5,141.0,356.5,149.0,352.5,157.0,348.5,164.5,346.5,172.0,346.0,180.0,340.0,188.0,324.0,196.5,310.5,204.5,306.5,213.5,302.5" stroke="black" stroke-width="2" fill="none" />
<polyline points="217.5,301.0,226.0,301.0,233.5,301.0,241.5,301.0,250.0,300.0,257.5,300.0,266.0,299.5,275.0,299.5,283.5,299.0,292.0,298.5,300.0,298.5,308.0,297.5,315.5,297.0" stroke="black" stroke-width="2" fill="none" />
<polyline points="310.5,296.5,318.0,303.0,326.0,305.0,334.0,307.5,342.0,311.5,350.0,313.5,358.0,315.5,358.5,323.0,366.5,330.0,376.0,337.5,387.0,340.5,392.5,347.5" stroke="black" stroke-width="2" fill="none" />
<polyline points="398.5,381.5,392.5,384.5,392.5,371.5,388.5,363.5,383.5,355.5,378.0,348.0,373.5,335.0,369.5,331.0,367.5,323.0,359.5,317.5,353.5,321.0,345.0,314.5" stroke="black" stroke-width="2" fill="none" />
<polyline points="345.0,322.5,337.5,314.5,329.5,311.5" stroke="black" stroke-width="2" fill="none" />
<polyline points="323.5,303.5,316.0,304.0,308.0,304.5,300.0,305.5,292.0,305.5,284.0,306.0,276.5,306.0,268.5,306.5,260.5,307.0,252.5,308.0,244.5,308.0,236.0,308.5,227.5,309.0" stroke="black" stroke-width="2" fill="none" />
<polyline points="234.0,306.5,242.0,299.5,250.5,292.5,259.0,285.0" stroke="black" stroke-width="2" fill="none" />
<polyline points="244.0,290.5,236.0,298.0" stroke="black" stroke-width="2" fill="none" />
<polyline points="234.5,290.5,226.5,298.0" stroke="black" stroke-width="2" fill="none" />
<polyline points="218.0,294.5,225.5,294.0,233.5,293.5,241.0,293.0,249.0,293.0,257.0,292.5,265.0,292.5,273.5,291.5,282.0,291.5,290.5,292.0,299.0,292.0,306.5,291.5" stroke="black" stroke-width="2" fill="none" />
<polyline points="306.0,295.0,306.0,305.0,303.0,313.0,286.0,321.0,279.5,329.0,277.0,337.0,275.5,344.5,275.5,350.5,277.0,358.5,278.0,366.5,290.0,362.0" stroke="black" stroke-width="2" fill="none" />
<polyline points="284.5,356.0,277.0,356.5" stroke="black" stroke-width="2" fill="none" />
<polyline points="278.5,353.0,286.5,361.0,294.5,364.5,303.0,365.0,310.5,365.5,319.0,364.5,327.5,361.5,336.0,357.5,344.5,350.5" stroke="black" stroke-width="2" fill="none" />
<polyline points="316.5,312.5,308.5,313.0,300.5,313.0,292.5,313.5,284.5,314.0,276.0,314.5,267.0,315.5,258.5,316.0,250.5,315.5,243.5,315.0,236.0,314.5,228.0,314.5,220.0,315.0" stroke="black" stroke-width="2" fill="none" />
<polyline points="217.0,316.0,216.0,324.0,216.0,332.0,216.0,339.5" stroke="black" stroke-width="2" fill="none" />
<polyline points="224.5,342.5,214.5,350.5,211.5,359.0,215.0,349.5,222.5,345.0,230.5,342.5" stroke="black" stroke-width="2" fill="none" />
<polyline points="228.5,350.0,217.5,358.0,214.0,366.0,216.0,373.5,223.0,381.0" stroke="black" stroke-width="2" fill="none" />
<polyline points="216.5,365.5,224.5,356.0,232.5,352.5,240.5,352.5,249.0,358.5" stroke="black" stroke-width="2" fill="none" />
<polyline points="247.5,355.0,254.5,363.0" stroke="black" stroke-width="2" fill="none" />
<polyline points="244.0,349.0,236.0,349.5,228.0,350.0" stroke="black" stroke-width="2" fill="none" />
<polyline points="233.0,354.0,220.0,361.5,218.0,369.5,218.0,374.5,226.0,382.5" stroke="black" stroke-width="2" fill="none" />
<polyline points="203.0,378.5,194.5,386.0" stroke="black" stroke-width="2" fill="none" />
<polyline points="193.0,379.0,185.0,386.0" stroke="black" stroke-width="2" fill="none" />
<polyline points="179.0,386.0,186.5,378.0,194.0,370.5" stroke="black" stroke-width="2" fill="none" />
<polyline points="195.0,362.5,187.0,370.0,179.0,378.5,171.5,386.5" stroke="black" stroke-width="2" fill="none" />
<polyline points="164.0,384.0,171.5,376.5,179.5,369.0,187.5,361.5,196.0,354.0" stroke="black" stroke-width="2" fill="none" />
<polyline points="194.5,346.5,186.0,354.0" stroke="black" stroke-width="2" fill="none" />
<polyline points="189.5,342.5,197.0,342.5" stroke="black" stroke-width="2" fill="none" />
<polyline points="196.0,335.0,187.5,335.5" stroke="black" stroke-width="2" fill="none" />
<polyline points="188.5,326.5,196.0,326.0,203.5,326.0" stroke="black" stroke-width="2" fill="none" />
<polyline points="197.0,324.0,205.0,310.5" stroke="black" stroke-width="2" fill="none" />
<polyline points="203.5,308.0,211.5,307.5" stroke="black" stroke-width="2" fill="none" />
<polyline points="202.0,315.0,194.0,322.5" stroke="black" stroke-width="2" fill="none" />
<polyline points="194.5,315.0,203.0,315.0" stroke="black" stroke-width="2" fill="none" />
<polyline points="211.5,287.0,219.5,286.0,227.5,285.0,235.5,284.5,244.0,284.0,251.5,284.0,259.5,283.0,267.0,282.5,275.0,282.5,283.0,282.5,291.0,282.0,299.0,281.5,307.5,281.0" stroke="black" stroke-width="2" fill="none" />
<polyline points="300.5,285.5,293.0,293.0,284.5,299.5,276.5,307.0,269.0,314.5,261.5,321.5,253.5,328.5" stroke="black" stroke-width="2" fill="none" />
<polyline points="260.5,330.0,268.5,322.5,276.0,315.5,283.0,308.0,290.0,300.5,297.5,293.0" stroke="black" stroke-width="2" fill="none" />
<polyline points="297.0,299.0,289.5,306.5,281.5,314.0,274.5,322.0,267.5,330.0,261.0,337.5" stroke="black" stroke-width="2" fill="none" />
<polyline points="260.5,342.0,268.5,341.5,276.5,340.5" stroke="black" stroke-width="2" fill="none" />
<polyline points="276.0,340.5,268.5,347.5" stroke="black" stroke-width="2" fill="none" />
<polyline points="268.0,351.5,276.0,350.5" stroke="black" stroke-width="2" fill="none" />
<polyline points="279.5,352.5,286.5,360.5,283.5,373.5,291.5,379.0,298.0,381.0,306.0,382.0,314.0,383.5,322.0,383.0,329.5,381.0,337.5,377.0,345.5,369.0,353.5,355.0,361.5,351.0,370.0,346.5,377.5,341.0,380.0,348.0,388.5,362.5" stroke="black" stroke-width="2" fill="none" />
<polyline points="312.0,380.5,310.0,377.5,338.0,376.5,346.0,368.5,351.0,360.5,358.0,352.5,372.5,344.5,367.0,331.5,359.0,324.0,349.0,316.0,335.0,308.5,324.0,308.0,316.0,310.5,308.5,300.5" stroke="black" stroke-width="2" fill="none" />
<polyline points="308.5,299.0,300.5,306.5,292.5,313.5,284.0,320.5,275.0,328.5,267.0,336.5" stroke="black" stroke-width="2" fill="none" />
<polyline points="276.0,331.0,284.0,320.5,292.0,315.5,300.5,314.0" stroke="black" stroke-width="2" fill="none" />
<polyline points="304.0,324.5,295.0,333.0,293.5,341.0,294.5,349.5,300.0,352.5" stroke="black" stroke-width="2" fill="none" />
<polyline points="274.0,359.5,276.5,367.5,279.0,375.5,278.0,384.0" stroke="black" stroke-width="2" fill="none" />
<polyline points="268.0,373.5,260.0,382.5,252.0,383.5" stroke="black" stroke-width="2" fill="none" />
<polyline points="253.5,358.5,245.5,352.5,237.0,349.0,229.0,349.0,221.0,352.0,212.5,363.0" stroke="black" stroke-width="2" fill="none" />
<polyline points="218.0,358.5,226.5,358.0" stroke="black" stroke-width="2" fill="none" />
<polyline points="242.0,350.5,247.0,358.5,253.5,366.5" stroke="black" stroke-width="2" fill="none" />
<polyline points="266.0,376.5,271.0,368.5,270.5,361.0,269.5,353.0,262.5,345.0,252.0,337.0" stroke="black" stroke-width="2" fill="none" />
<polyline points="243.5,320.5,251.0,313.0,259.0,305.0,266.5,297.0,274.5,289.0,282.5,281.5,290.5,274.0,299.0,266.5" stroke="black" stroke-width="2" fill="none" />
<polyline points="284.0,266.5,276.0,274.0,268.5,281.5,260.5,289.0,252.0,297.0,244.0,305.0" stroke="black" stroke-width="2" fill="none" />
<polyline points="213.5,287.5,213.5,295.0,213.0,303.0,213.0,315.5,213.5,323.5,211.0,332.0,211.0,340.0,203.0,345.0,201.0,353.5,198.5,361.5,197.5,369.0,199.5,377.0,203.5,378.0,204.5,380.0" stroke="black" stroke-width="2" fill="none" />
<polyline points="195.5,374.0,187.0,374.5,178.5,375.5,171.0,376.0" stroke="black" stroke-width="2" fill="none" />
<polyline points="176.0,363.5,165.0,371.5,152.0,379.5" stroke="black" stroke-width="2" fill="none" />
<polyline points="156.0,380.5,148.0,388.0" stroke="black" stroke-width="2" fill="none" />
<polyline points="154.5,387.5,162.5,380.0,171.0,372.5,179.0,365.0" stroke="black" stroke-width="2" fill="none" />
<polyline points="181.5,367.5,189.5,367.0" stroke="black" stroke-width="2" fill="none" />
<polyline points="196.5,362.0,203.5,342.0,208.5,344.0,216.5,339.5,224.0,337.0,231.5,335.0,239.5,334.0,247.5,335.0,255.0,338.0,262.5,344.5,270.5,347.5,276.5,365.5,285.0,364.0,293.0,366.5,301.0,368.5,309.5,369.5,317.5,368.0,326.5,366.5" stroke="black" stroke-width="2" fill="none" />
<polyline points="278.0,257.0,286.5,249.5" stroke="black" stroke-width="2" fill="none" />
<polyline points="284.5,243.5,276.5,251.0,268.5,258.5,260.0,266.5" stroke="black" stroke-width="2" fill="none" />
<polyline points="251.5,264.5,260.0,257.0,268.5,249.0,277.0,241.5" stroke="black" stroke-width="2" fill="none" />
<polyline points="276.0,234.0,267.5,241.5,259.0,250.0" stroke="black" stroke-width="2" fill="none" />
<polyline points="259.0,242.5,267.0,242.0,274.5,242.0" stroke="black" stroke-width="2" fill="none" />
<polyline points="274.5,227.0,267.0,234.5,259.0,242.0" stroke="black" stroke-width="2" fill="none" />
<polyline points="250.5,243.0,258.0,235.0,266.0,227.5" stroke="black" stroke-width="2" fill="none" />
<polyline points="266.5,220.0,259.0,227.5,251.0,235.0,243.5,242.5,236.5,249.5" stroke="black" stroke-width="2" fill="none" />
<polyline points="240.0,250.0,229.0,251.0,234.0,253.0,242.0,250.5,249.5,251.5,257.5,250.5,266.0,253.0,273.5,252.5" stroke="black" stroke-width="2" fill="none" />
<polyline points="267.5,233.0,258.5,233.5,250.0,234.0,242.0,234.5" stroke="black" stroke-width="2" fill="none" />
<polyline points="237.0,229.0,245.0,228.0,253.0,228.0,260.5,228.0,268.5,228.0,276.0,227.0,284.0,227.5,292.0,227.0,300.0,226.5,307.5,226.0,315.5,225.5,323.5,225.0,331.5,224.0,339.5,223.5" stroke="black" stroke-width="2" fill="none" />
<polyline points="307.0,203.0,299.0,204.0,290.0,205.0,282.0,205.5,274.0,206.0,266.5,205.5,258.5,205.5" stroke="black" stroke-width="2" fill="none" />
<polyline points="261.5,203.0,269.5,208.0,278.0,212.0,286.0,213.5,294.0,209.5,295.0,212.0" stroke="black" stroke-width="2" fill="none" />
<polyline points="301.5,210.0,309.5,218.0,317.5,224.0,328.0,235.0,338.5,242.5,350.5,250.5,360.5,258.5,368.5,266.5,376.0,274.5,384.0,282.5" stroke="black" stroke-width="2" fill="none" />
<polyline points="356.0,182.0,348.0,182.0" stroke="black" stroke-width="2" fill="none" />
<polyline points="346.5,173.0,338.5,174.0" stroke="black" stroke-width="2" fill="none" />
<polyline points="327.0,167.0,335.0,176.0,343.0,185.5,351.5,196.0,359.0,204.0,367.5,212.5,375.5,220.0" stroke="black" stroke-width="2" fill="none" />
<polyline points="314.5,185.5,306.5,185.5" stroke="black" stroke-width="2" fill="none" />
<polyline points="307.0,178.5,315.5,178.0,324.0,177.0" stroke="black" stroke-width="2" fill="none" />
<polyline points="315.5,153.0,307.5,152.5,299.5,152.5" stroke="black" stroke-width="2" fill="none" />
<polyline points="298.5,145.5,306.5,145.0" stroke="black" stroke-width="2" fill="none" />
<polyline points="307.0,139.0,299.0,146.5,291.0,154.5,283.0,162.5,274.5,170.0,266.5,177.0,258.5,185.0" stroke="black" stroke-width="2" fill="none" />
<polyline points="261.0,179.0,259.0,187.0,263.5,197.5,267.0,205.5" stroke="black" stroke-width="2" fill="none" />
<polyline points="264.5,195.0,273.0,192.0,281.0,195.0,293.5,188.0,301.5,187.5,310.0,192.5,318.0,193.0,326.5,190.5,334.5,186.5" stroke="black" stroke-width="2" fill="none" />
<polyline points="347.5,158.5,339.0,159.5,331.0,160.0,323.5,161.0,316.0,161.5,307.5,162.0,299.0,162.5,290.5,163.5,282.5,163.5,274.5,164.0,267.0,164.5,259.0,165.5,251.5,166.0,244.5,166.5,236.5,167.0" stroke="black" stroke-width="2" fill="none" />
<polyline points="235.5,163.0,227.5,160.5,219.5,158.0,218.0,154.5,219.5,147.0,224.5,135.0,237.0,124.0,241.0,121.5,229.0,112.5,231.0,104.0,237.0,95.5,239.0,103.0,247.0,101.0,237.0,101.5" stroke="black" stroke-width="2" fill="none" />
<polyline points="235.0,103.5,242.5,103.0,250.0,102.5,258.0,101.5,266.5,100.0,275.0,99.0" stroke="black" stroke-width="2" fill="none" />
<polyline points="276.5,109.0,268.5,116.0" stroke="black" stroke-width="2" fill="none" />
<polyline points="270.5,120.0,262.5,120.0" stroke="black" stroke-width="2" fill="none" />
<polyline points="258.5,123.0,250.0,130.5,242.5,138.0,235.0,145.5" stroke="black" stroke-width="2" fill="none" />
<polyline points="229.0,147.5,231.0,155.5,236.0,145.5,243.0,140.5" stroke="black" stroke-width="2" fill="none" />
<polyline points="244.0,142.5,242.0,150.5,245.5,158.0" stroke="black" stroke-width="2" fill="none" />
<polyline points="244.0,156.5,252.0,163.5,260.0,164.5" stroke="black" stroke-width="2" fill="none" />
<polyline points="267.5,160.0,276.0,153.0,283.5,146.0,291.0,139.0,299.0,132.0" stroke="black" stroke-width="2" fill="none" />
<polyline points="299.0,138.0,291.0,138.5" stroke="black" stroke-width="2" fill="none" />
<polyline points="293.0,142.0,292.0,130.5,291.0,122.5,286.5,126.5,284.5,136.0" stroke="black" stroke-width="2" fill="none" />
<polyline points="284.0,134.0,276.0,141.5,268.0,149.0,260.5,156.0,253.0,163.0" stroke="black" stroke-width="2" fill="none" />
<polyline points="259.0,161.0,267.5,153.5,276.0,145.5,284.0,138.0,292.5,130.5,300.5,123.0" stroke="black" stroke-width="2" fill="none" />
<polyline points="308.0,117.5,299.5,118.5,291.0,119.5,283.0,119.5,274.5,120.0,266.5,120.5,258.0,120.5,250.5,121.5,242.5,122.0,234.5,123.0,226.0,124.0,217.5,124.5,210.5,125.0,203.0,125.0,195.5,125.5,187.5,126.0,179.5,127.0" stroke="black" stroke-width="2" fill="none" />
<polyline points="186.5,121.5,194.5,120.5" stroke="black" stroke-width="2" fill="none" />
<polyline points="196.0,117.5,204.5,117.0,212.5,116.5,220.0,115.5,227.0,115.5,234.5,115.0,242.0,114.5,250.5,114.5,259.0,114.5,268.0,114.5,276.5,114.0,284.5,113.5,291.5,113.0,299.0,112.5,307.0,111.5" stroke="black" stroke-width="2" fill="none" />
<polyline points="303.0,117.5,295.0,111.5,290.5,118.0,283.5,123.0,281.0,120.5,277.0,127.5,271.0,122.5,267.0,125.5,259.0,124.0,246.0,127.0,238.5,128.5,230.5,130.5,222.5,134.5,214.5,138.5,207.5,145.5,205.0,159.5,207.5,151.5,211.5,143.5,214.0,135.5,222.0,127.5,214.0,133.5" stroke="black" stroke-width="2" fill="none" />
<polyline points="213.0,137.5,205.0,138.0" stroke="black" stroke-width="2" fill="none" />
<polyline points="204.0,144.5,195.5,144.5,187.5,144.5" stroke="black" stroke-width="2" fill="none" />
<polyline points="178.5,143.5,186.0,136.5,193.5,129.5,201.0,122.0" stroke="black" stroke-width="2" fill="none" />
<polyline points="210.0,123.5,202.0,131.0,194.5,138.5,187.0,146.0,179.5,154.0" stroke="black" stroke-width="2" fill="none" />
<polyline points="187.5,154.0,195.5,153.5,203.0,153.5" stroke="black" stroke-width="2" fill="none" />
<polyline points="203.0,162.0,194.5,163.0,187.0,164.0,179.0,165.0,171.5,166.0" stroke="black" stroke-width="2" fill="none" />
<polyline points="178.0,169.5,186.5,169.0,195.0,168.5" stroke="black" stroke-width="2" fill="none" />
<polyline points="203.0,172.0,198.5,180.0,197.0,191.0,195.0,199.0,197.5,207.0,203.5,215.5" stroke="black" stroke-width="2" fill="none" />
<polyline points="196.0,221.0,188.0,222.0" stroke="black" stroke-width="2" fill="none" />
<polyline points="185.0,225.0,193.0,231.0" stroke="black" stroke-width="2" fill="none" />
<polyline points="195.5,210.5,187.0,211.0,179.0,212.0,171.0,212.5" stroke="black" stroke-width="2" fill="none" />
<polyline points="170.5,210.5,179.0,202.5,187.5,195.0,196.0,187.5" stroke="black" stroke-width="2" fill="none" />
<polyline points="196.5,180.0,189.0,187.5,181.0,195.5" stroke="black" stroke-width="2" fill="none" />
<polyline points="186.0,203.0,194.0,196.0" stroke="black" stroke-width="2" fill="none" />
<polyline points="195.5,203.0,187.0,204.0,179.0,205.0,171.5,205.5" stroke="black" stroke-width="2" fill="none" />
<polyline points="173.0,204.5,181.0,205.5,186.5,215.5,184.5,223.5,191.5,231.0,187.5,234.5,188.5,244.0,199.5,250.5" stroke="black" stroke-width="2" fill="none" />
<polyline points="218.0,253.5,226.5,253.5,234.5,253.0,243.0,252.5,251.0,252.5,259.5,251.5,268.0,250.5,276.5,249.5,284.5,248.0,292.5,247.0,300.5,245.5,308.5,245.5" stroke="black" stroke-width="2" fill="none" />
<polyline points="252.0,226.0,244.0,233.5,235.5,241.0,227.0,248.5" stroke="black" stroke-width="2" fill="none" />
<polyline points="220.5,247.5,228.5,240.5,234.0,226.5,242.0,224.0" stroke="black" stroke-width="2" fill="none" />
<polyline points="244.5,222.0,252.5,221.0,260.5,220.5,268.5,220.0,276.0,220.0,284.0,219.5,292.0,219.0,299.5,218.5,307.5,218.0,315.5,218.0,323.0,217.5" stroke="black" stroke-width="2" fill="none" />
<polyline points="300.0,176.5,292.0,176.5,284.5,177.0,277.0,177.0" stroke="black" stroke-width="2" fill="none" />
<polyline points="275.5,159.5,283.5,152.0,291.5,145.0,299.5,137.0,308.0,130.0" stroke="black" stroke-width="2" fill="none" />
<polyline points="313.5,131.5,306.0,133.0,299.5,134.0,292.0,135.0,284.5,135.5,276.5,136.5,269.0,137.5,261.0,138.0,253.5,139.0,245.5,139.0,237.0,138.5,229.0,138.5,221.0,139.0,213.0,139.0,204.5,139.0,196.5,139.5,188.5,139.5,180.0,139.5,172.0,140.0" stroke="black" stroke-width="2" fill="none" />
<polyline points="172.5,132.5,181.0,132.0,188.5,131.5,197.0,131.5,204.5,130.5,212.5,130.0,220.5,129.5,228.0,129.5,236.0,129.0,244.5,129.0,252.5,128.5,260.5,128.0,267.5,128.0,275.0,128.0,283.0,127.5,290.5,127.0,299.0,126.5,307.5,126.0,315.5,125.5" stroke="black" stroke-width="2" fill="none" />
<polyline points="316.5,138.0,309.0,146.0,301.0,153.5,293.0,160.5,285.0,168.5,277.0,176.5,268.5,184.0,259.5,191.5" stroke="black" stroke-width="2" fill="none" />
<polyline points="260.0,193.5,261.0,200.5,261.0,201.5,266.0,209.5" stroke="black" stroke-width="2" fill="none" />
<polyline points="261.0,213.5,252.5,202.5" stroke="black" stroke-width="2" fill="none" />
<polyline points="244.0,204.0,235.5,205.0" stroke="black" stroke-width="2" fill="none" />
<polyline points="228.5,195.0,236.0,187.5" stroke="black" stroke-width="2" fill="none" />
<polyline points="235.0,192.5,243.0,184.5" stroke="black" stroke-width="2" fill="none" />
<polyline points="244.0,185.0,244.0,193.0,242.0,201.0,237.5,209.5,235.5,218.0,235.5,227.5,232.5,235.5,222.5,244.0,221.5,252.0,227.5,255.0,235.5,251.0,243.5,247.0,250.0,246.0,257.0,247.5,265.0,248.0,273.0,250.0" stroke="black" stroke-width="2" fill="none" />
<polyline points="280.5,247.0,272.0,244.0,264.0,244.5,255.5,240.5,247.5,242.0,239.5,243.5,231.0,249.0,234.5,246.0,242.5,249.0" stroke="black" stroke-width="2" fill="none" />
<polyline points="246.5,259.0,241.5,267.0,234.5,273.0,243.0,264.0,251.0,259.0,259.0,259.0" stroke="black" stroke-width="2" fill="none" />
<polyline points="258.5,266.5,250.5,266.5,242.5,268.5" stroke="black" stroke-width="2" fill="none" />
<polyline points="218.0,263.0,226.5,262.5,234.5,262.0,242.5,261.5,251.0,260.5,259.5,259.5,267.5,259.0,276.0,258.0,284.0,257.5,291.5,257.0,299.5,256.5,307.0,256.0" stroke="black" stroke-width="2" fill="none" />
<polyline points="291.5,187.5,283.5,188.0,275.5,188.0,267.5,188.0,260.0,188.5,252.0,188.5" stroke="black" stroke-width="2" fill="none" />
<polyline points="247.5,191.5,250.5,199.0,259.0,208.5,266.0,216.0,269.5,230.0,276.5,240.0,284.0,248.0" stroke="black" stroke-width="2" fill="none" />
<polyline points="316.5,232.0,309.0,232.0,300.5,232.5,293.0,232.5,285.0,233.0,276.5,233.5,269.0,234.0,261.0,234.5,252.5,235.0,244.5,235.0,236.5,235.0,229.0,235.5" stroke="black" stroke-width="2" fill="none" />
<polyline points="220.0,245.0,227.5,244.5,235.5,243.5,244.0,243.0,252.5,243.0,260.5,242.0,269.0,241.5,277.0,241.0,285.0,240.5,292.5,240.5,300.5,239.5,308.5,239.5" stroke="black" stroke-width="2" fill="none" />
<polyline points="298.5,272.5,290.5,272.5,282.5,273.5,274.5,274.5,267.0,275.0,259.0,275.0,251.0,275.5,243.0,276.0,235.0,276.5,227.0,277.0,218.5,278.0,210.5,278.5" stroke="black" stroke-width="2" fill="none" />
<polyline points="212.5,278.5,218.0,286.5,225.0,294.5,230.0,299.0" stroke="black" stroke-width="2" fill="none" />
<polyline points="210.5,284.0,210.5,292.0,210.5,300.0,208.5,309.0,202.0,316.5,198.0,324.5,196.0,332.5,195.0,340.5,195.0,348.0,187.5,359.5,190.5,367.5,192.5,376.0" stroke="black" stroke-width="2" fill="none" />
<polyline points="195.5,384.5,187.5,384.5,179.5,385.0,171.5,385.0,163.0,385.0,155.0,385.5" stroke="black" stroke-width="2" fill="none" />
<polyline points="142.0,377.5,144.0,375.5,152.0,380.5,159.5,375.5,167.0,369.0,175.0,364.0,183.0,362.0,191.5,354.5,192.5,368.5" stroke="black" stroke-width="2" fill="none" />
<polyline points="202.5,353.5,194.5,354.0,186.5,354.5,178.0,355.0,170.0,355.5,161.5,356.0,154.0,357.0,146.0,357.5" stroke="black" stroke-width="2" fill="none" />
<polyline points="156.5,353.0,164.5,350.0,172.0,351.0" stroke="black" stroke-width="2" fill="none" />
<polyline points="197.0,362.5,189.0,363.5,180.5,364.0,172.5,364.0,164.5,364.0,155.5,363.5,147.5,363.5,139.5,364.0,132.0,364.5" stroke="black" stroke-width="2" fill="none" />
<polyline points="115.5,372.5,124.0,372.0,132.0,371.5,140.5,371.5,149.0,371.5,157.5,371.5,165.5,371.5,173.0,371.0,180.5,371.0,188.0,371.0,195.5,370.5,204.0,370.0" stroke="black" stroke-width="2" fill="none" />
<polyline points="204.5,376.0,196.0,376.0,188.0,377.0,179.5,377.0,171.5,377.5,163.0,377.5,155.0,378.0,147.0,378.5,139.5,379.0,132.0,379.5,124.5,380.0,116.5,380.0,108.5,380.5" stroke="black" stroke-width="2" fill="none" />
<polyline points="38.5,373.0,30.0,380.5" stroke="black" stroke-width="2" fill="none" />
<polyline points="26.5,375.0,34.5,374.5" stroke="black" stroke-width="2" fill="none" />
<polyline points="29.0,370.0,37.5,362.5" stroke="black" stroke-width="2" fill="none" />
<polyline points="43.0,364.0,35.0,365.0,26.5,365.5,18.5,366.0" stroke="black" stroke-width="2" fill="none" />
<polyline points="20.5,372.0,29.0,372.0,37.0,371.5,44.5,371.0" stroke="black" stroke-width="2" fill="none" />
<polyline points="44.0,356.5,35.5,356.5,27.5,357.0" stroke="black" stroke-width="2" fill="none" />
<polyline points="27.0,360.0,35.5,357.0" stroke="black" stroke-width="2" fill="none" />
<polyline points="34.0,353.5,26.0,361.0" stroke="black" stroke-width="2" fill="none" />
<polyline points="22.5,358.0,23.5,366.0,23.0,374.0,21.0,382.0,29.5,384.0,30.5,381.0" stroke="black" stroke-width="2" fill="none" />
<polyline points="19.0,381.0,27.0,380.5,35.0,379.5,43.0,379.5" stroke="black" stroke-width="2" fill="none" />
<polyline points="38.5,364.0,30.5,363.5" stroke="black" stroke-width="2" fill="none" />
<polyline points="19.5,354.5,28.0,354.0,36.0,354.5,40.5,357.5,30.5,360.5,40.0,365.5,37.5,370.0,38.5,378.5,38.5,382.5" stroke="black" stroke-width="2" fill="none" />
<polyline points="171.5,353.0,168.0,358.0,174.0,345.0,181.0,337.5,183.5,330.0,189.5,322.0,194.5,314.5,206.0,306.5,207.0,298.0,207.0,290.0,207.0,282.0,207.5,274.0,203.5,266.0,199.5,258.0,197.0,254.0,191.5,250.0,188.5,242.0,181.5,234.5,179.5,225.5,174.5,217.5,176.5,209.5,169.0,206.0,169.0,202.5,169.5,194.5,166.5,189.0,164.0,187.0,167.0,185.0,171.5,178.0,157.5,173.0,158.0,165.0,159.0,157.0,165.0,148.5,168.5,140.0,173.0,131.0,178.0,123.0,189.5,112.0,195.5,104.0,189.5,109.0" stroke="black" stroke-width="2" fill="none" />
<polyline points="202.5,112.0,211.0,111.0,220.0,110.0,228.0,109.0,236.0,108.0,244.0,107.0,252.0,106.5,260.5,106.5,268.5,106.0,276.5,105.5,284.0,105.0,292.5,104.5,300.5,103.5,308.5,103.0" stroke="black" stroke-width="2" fill="none" />
<polyline points="302.0,105.5,299.0,113.5,301.0,121.5,300.5,129.5,309.5,132.5,310.5,141.0,317.5,142.0,316.0,149.5,319.5,158.0,324.5,166.0,322.5,174.0,319.5,182.0,319.5,192.0,320.5,194.0,318.0,203.0,325.5,209.0,333.5,214.0,341.5,219.5,350.0,224.5,358.5,231.0,366.5,236.0,374.5,237.0,382.0,232.0,391.0,224.0" stroke="black" stroke-width="2" fill="none" />
<polyline points="389.5,209.0,382.0,200.0,373.5,189.0,365.5,181.0,357.0,174.0,348.5,165.0,340.5,155.0" stroke="black" stroke-width="2" fill="none" />
<polyline points="340.0,151.0,346.0,159.0,353.5,166.5,360.5,174.5,369.5,182.5,377.0,190.5,383.0,199.0,390.5,207.5" stroke="black" stroke-width="2" fill="none" />
<polyline points="341.5,150.5,332.5,151.0,324.5,151.5,317.0,152.0,308.5,153.0,301.0,153.5,292.5,154.0,284.5,154.5,275.5,154.5,267.0,155.0,259.0,155.5,251.0,157.0,243.5,158.0,236.0,158.5,228.0,159.0" stroke="black" stroke-width="2" fill="none" />
<polyline points="221.5,148.5,230.0,148.0,237.5,147.5,245.5,147.0,252.5,146.5,260.0,146.5,268.0,145.5,276.0,145.0,283.5,145.0,292.0,145.0,300.5,145.0,308.5,144.5,316.5,143.5,324.5,142.5" stroke="black" stroke-width="2" fill="none" />
<polyline points="337.5,149.0,345.5,155.0,353.5,164.0,362.0,173.5,369.5,181.0,377.0,190.5,385.0,201.0,392.5,209.0,400.5,212.0,408.0,206.5,416.0,207.5,424.0,211.5,432.5,216.5,440.5,213.5,449.0,212.0,457.0,213.0,465.0,215.5,473.0,223.0,481.0,234.0,489.0,243.0,497.0,249.5,505.0,256.5" stroke="black" stroke-width="2" fill="none" />
<polyline points="503.5,90.5,495.5,89.5,488.0,86.5" stroke="black" stroke-width="2" fill="none" />
<polyline points="484.0,82.5,492.0,84.5,500.0,87.5" stroke="black" stroke-width="2" fill="none" />
<polyline points="494.0,96.5,486.0,100.5,478.0,104.5,470.0,108.5,462.0,113.0,462.5,112.0,477.5,104.0,492.5,96.0,500.5,88.0,484.0,82.0,495.0,74.0,508.0,65.5,507.5,65.0,499.5,70.0,491.5,75.0,484.0,80.0" stroke="black" stroke-width="2" fill="none" />
<polyline points="387.0,206.5,379.0,198.5,374.0,190.0,366.0,182.0,357.0,173.5,349.5,165.5,343.5,157.5,337.5,149.5" stroke="black" stroke-width="2" fill="none" />
<polyline points="322.0,164.5,314.0,165.0,306.5,164.5,298.5,164.5,290.5,165.0,283.0,165.0,275.5,165.5,267.5,165.5,259.5,166.0,251.5,166.5,243.5,167.0,235.5,167.5,227.5,168.0,219.0,169.0,210.0,170.5,202.0,171.5,194.0,172.0,186.5,172.5,178.5,173.0,170.5,174.0,162.5,174.5" stroke="black" stroke-width="2" fill="none" />
<polyline points="165.0,172.5,173.0,175.5" stroke="black" stroke-width="2" fill="none" />
<polyline points="171.0,174.5,179.5,167.0,187.5,160.5,196.0,153.5,204.0,146.0,211.5,138.5,219.0,131.5,226.5,124.0,234.0,116.0" stroke="black" stroke-width="2" fill="none" />
<polyline points="235.0,125.0,226.5,132.0" stroke="black" stroke-width="2" fill="none" />
<polyline points="235.0,130.0,243.0,122.0,251.0,114.5,259.0,107.0" stroke="black" stroke-width="2" fill="none" />
<polyline points="266.0,107.5,258.5,115.0,250.5,122.5,242.0,129.5,234.0,136.5,226.0,144.0" stroke="black" stroke-width="2" fill="none" />
<polyline points="220.5,149.0,228.0,146.0,236.0,141.5,235.5,145.5,226.0,146.0,220.0,145.0,231.0,138.0" stroke="black" stroke-width="2" fill="none" />
<polyline points="233.5,130.5,228.5,139.5,220.5,141.5,220.0,138.5" stroke="black" stroke-width="2" fill="none" />
<polyline points="211.0,146.0,203.0,146.5,194.5,147.0,186.5,148.0,178.0,148.5,169.5,149.0" stroke="black" stroke-width="2" fill="none" />
<polyline points="173.0,154.5,165.0,155.5" stroke="black" stroke-width="2" fill="none" />
<polyline points="163.0,158.0,170.5,157.5,179.0,157.0,187.5,156.0,195.5,155.0,204.0,154.0" stroke="black" stroke-width="2" fill="none" />
<polyline points="207.5,145.5,203.5,153.5,201.5,161.0,198.0,169.0,196.5,176.5,194.0,184.0,193.0,192.0,191.5,199.5,191.5,207.5,192.0,216.0,194.5,224.0,197.5,232.0,195.5,237.0,196.0,245.0,194.0,251.0,198.0,254.0,206.0,265.5,215.0,280.0,222.5,290.5,230.0,300.0,243.0,307.5" stroke="black" stroke-width="2" fill="none" />
<polyline points="211.0,269.0,219.0,269.0,227.0,268.5,235.0,268.0,243.0,267.5,251.0,267.5,259.5,267.0,268.0,266.5,276.0,266.5,284.5,266.0,292.5,265.0,300.5,265.0" stroke="black" stroke-width="2" fill="none" />
<polyline points="235.5,222.0,227.5,222.0" stroke="black" stroke-width="2" fill="none" />
<polyline points="212.0,198.0,220.0,197.0,227.5,196.0,235.5,195.5,244.0,195.0" stroke="black" stroke-width="2" fill="none" />
<polyline points="240.0,193.5,238.5,202.0,234.0,210.0,222.0,220.0,230.0,217.0,235.5,216.5,245.5,221.0,254.0,211.5" stroke="black" stroke-width="2" fill="none" />
<polyline points="234.5,180.0,226.5,187.5,219.0,194.5" stroke="black" stroke-width="2" fill="none" />
<polyline points="220.0,191.5,228.5,190.0,240.5,192.0" stroke="black" stroke-width="2" fill="none" />
<polyline points="242.5,186.0,234.5,187.0,226.5,187.0,219.0,187.5,211.5,187.5,203.0,188.0,194.0,188.5,185.5,188.5,177.0,188.5,169.0,189.0" stroke="black" stroke-width="2" fill="none" />
<polyline points="170.5,185.0,171.5,186.0,176.0,187.0,174.5,198.0,184.0,201.5,177.0,210.0,181.0,216.0,181.5,224.0,182.5,235.0,190.5,236.0" stroke="black" stroke-width="2" fill="none" />
<polyline points="196.5,203.0,204.5,216.0,212.5,220.0,220.5,221.0" stroke="black" stroke-width="2" fill="none" />
<polyline points="222.0,198.0,214.0,190.0" stroke="black" stroke-width="2" fill="none" />
<polyline points="212.0,187.5,205.0,195.5,203.0,211.0,211.0,217.0,219.5,217.5,228.0,215.5,236.0,208.0,244.0,182.5,246.0,184.0,249.0,185.0,257.0,189.0,265.0,170.0,272.5,169.0,280.5,167.5,289.0,167.5,297.0,170.5,305.0,177.5" stroke="black" stroke-width="2" fill="none" />
<polyline points="292.5,168.5,301.0,176.5,305.5,189.0,315.5,197.5,321.5,205.5,330.5,214.0,346.5,222.0,355.0,230.0,368.5,238.0" stroke="black" stroke-width="2" fill="none" />
<polyline points="278.0,237.5,270.0,233.5,264.0,226.0,256.0,222.5,245.0,227.0,245.5,220.0,243.5,214.0,251.0,209.0,255.0,201.0,257.0,193.0,249.0,185.0,241.5,184.0,236.5,179.5,230.0,171.5" stroke="black" stroke-width="2" fill="none" />
<polyline points="245.5,162.5,253.5,155.0,261.5,147.5,269.0,140.0,276.5,132.5" stroke="black" stroke-width="2" fill="none" />
<polyline points="267.5,132.5,259.5,139.5,251.5,146.5,243.5,153.5" stroke="black" stroke-width="2" fill="none" />
<polyline points="242.0,147.5,249.5,140.0,257.5,132.5" stroke="black" stroke-width="2" fill="none" />
<polyline points="259.5,145.5,251.5,146.5" stroke="black" stroke-width="2" fill="none" />
<polyline points="244.0,138.0,252.5,137.5,260.5,136.5" stroke="black" stroke-width="2" fill="none" />
<polyline points="267.5,153.5,275.0,153.0" stroke="black" stroke-width="2" fill="none" />
<polyline points="293.0,130.0,301.0,128.5,304.0,130.5" stroke="black" stroke-width="2" fill="none" />
<polyline points="304.5,135.5,302.5,143.5,305.5,143.5" stroke="black" stroke-width="2" fill="none" />
<polyline points="301.0,103.0,293.0,103.5" stroke="black" stroke-width="2" fill="none" />
<polyline points="293.0,102.5,295.5,110.5,296.5,118.5,284.5,117.0,285.0,124.0,289.5,135.5,296.0,143.5" stroke="black" stroke-width="2" fill="none" />
<polyline points="266.5,136.5,263.5,121.0,268.5,119.0,261.5,113.5,254.0,114.5" stroke="black" stroke-width="2" fill="none" />
<polyline points="255.0,114.0,259.0,122.0,267.0,125.5,265.0,133.5,265.5,141.5,275.5,151.0,278.5,148.5" stroke="black" stroke-width="2" fill="none" />
<polyline points="272.0,138.0,264.0,128.5,255.5,130.5,248.5,122.5" stroke="black" stroke-width="2" fill="none" />
<polyline points="249.0,115.0,246.0,123.0,259.0,127.5,258.0,138.5,268.0,145.5" stroke="black" stroke-width="2" fill="none" />
<polyline points="243.5,176.5,236.0,177.0,228.0,177.5,219.0,178.0,211.0,178.5,202.5,178.5,194.0,178.5,185.5,179.0,177.5,179.5,169.5,180.0" stroke="black" stroke-width="2" fill="none" />
<polyline points="172.0,181.5,169.5,189.0,159.5,189.0,161.0,180.5,160.0,179.5" stroke="black" stroke-width="2" fill="none" />
<polyline points="169.0,194.5,177.0,194.5,178.0,203.0,186.0,202.0" stroke="black" stroke-width="2" fill="none" />
<polyline points="171.5,197.0,179.5,197.0,187.5,196.5,195.0,196.0,202.5,196.0" stroke="black" stroke-width="2" fill="none" />
<polyline points="204.0,192.5,212.0,186.5,220.0,186.0,228.5,186.0" stroke="black" stroke-width="2" fill="none" />
<polyline points="222.5,201.5,215.0,202.5,214.5,198.0,206.5,196.5" stroke="black" stroke-width="2" fill="none" />
<polyline points="203.5,184.0,211.5,180.5,219.0,181.5,228.5,180.0" stroke="black" stroke-width="2" fill="none" />
<polyline points="208.0,179.5,202.0,182.5,197.5,192.5,198.5,200.5,202.0,208.5,212.0,216.5" stroke="black" stroke-width="2" fill="none" />
<polyline points="196.0,183.5,187.5,184.0,179.5,184.0" stroke="black" stroke-width="2" fill="none" />
<polyline points="164.5,199.0,165.0,202.5,167.0,210.5,171.0,216.5,167.0,219.0,172.0,221.0" stroke="black" stroke-width="2" fill="none" />
<polyline points="172.5,215.5,169.5,215.0,166.5,212.0,156.5,210.0,148.0,214.0,146.5,208.0,155.0,201.0,147.0,206.5" stroke="black" stroke-width="2" fill="none" />
<polyline points="147.5,208.5,147.5,210.5,154.0,202.5" stroke="black" stroke-width="2" fill="none" />
<polyline points="139.0,187.5,137.0,184.5,129.0,184.5,124.0,183.5,117.0,185.5,117.0,186.5,111.5,183.5,114.5,175.0,112.5,163.5,115.5,155.0,119.5,161.0,116.0,155.0,116.0,159.0" stroke="black" stroke-width="2" fill="none" />
<polyline points="114.5,164.5,125.5,160.0,125.5,167.5,138.5,170.5,139.5,171.5" stroke="black" stroke-width="2" fill="none" />
<polyline points="139.5,168.0,126.5,166.0,127.5,158.0" stroke="black" stroke-width="2" fill="none" />
<polyline points="119.0,176.0,116.5,173.5,115.0,181.5" stroke="black" stroke-width="2" fill="none" />
<polyline points="112.0,196.0,109.0,207.0,112.5,198.5" stroke="black" stroke-width="2" fill="none" />
<polyline points="111.0,196.5,106.5,204.5,107.5,209.0" stroke="black" stroke-width="2" fill="none" />
<polyline points="117.5,207.0,118.5,199.0" stroke="black" stroke-width="2" fill="none" />
<polyline points="119.5,197.5,119.5,206.0,129.0,204.0,131.0,206.5,133.5,210.5,137.0,206.5" stroke="black" stroke-width="2" fill="none" />
<polyline points="158.5,157.0,166.5,148.0,171.5,144.0,175.0,134.5,182.5,124.0,182.0,119.0,190.5,114.5,198.0,114.5,205.0,104.5,213.0,101.5,221.0,102.5,227.0,99.0,234.0,98.0,242.0,95.5,250.0,98.0,258.0,100.5,266.0,101.5,270.0,97.0,280.5,102.0" stroke="black" stroke-width="2" fill="none" />
<polyline points="272.0,94.0,264.0,93.0" stroke="black" stroke-width="2" fill="none" />
<polyline points="260.5,100.0,259.0,108.0,254.0,114.0,245.0,116.0,231.0,123.0,229.0,129.0,230.5,126.0,238.5,122.0,242.0,124.0,249.0,121.5,257.0,123.5,259.0,117.5,265.0,109.0,271.0,111.0,275.5,114.5,281.0,110.5,288.0,100.0,294.0,100.5,295.0,107.0,304.0,114.0,309.0,128.0,313.0,136.0,316.5,138.0,322.5,138.5,331.0,138.5" stroke="black" stroke-width="2" fill="none" />
<polyline points="299.0,115.0,291.0,115.0,289.5,110.0,280.0,107.5,272.5,103.0,269.0,108.0,263.0,103.5,255.0,102.5,247.0,100.0,239.0,112.0,236.0,109.0,232.5,118.5,242.0,109.5,246.0,101.5" stroke="black" stroke-width="2" fill="none" />
<polyline points="242.5,103.5,235.0,111.5" stroke="black" stroke-width="2" fill="none" />
<polyline points="229.5,117.0,221.5,115.0" stroke="black" stroke-width="2" fill="none" />
<polyline points="214.5,109.5,222.5,107.5,230.0,107.5,238.0,100.5,246.0,101.5,253.5,107.0,257.5,111.0" stroke="black" stroke-width="2" fill="none" />
<polyline points="230.5,122.0,222.5,121.0,222.0,117.5,214.0,118.5,206.0,127.5,197.5,128.0,204.5,128.5,212.0,120.5,204.0,109.5" stroke="black" stroke-width="2" fill="none" />
<polyline points="187.0,144.5,188.0,136.5,183.0,147.0,179.0,143.5,179.0,136.5,173.0,132.0,165.0,134.0" stroke="black" stroke-width="2" fill="none" />
<polyline points="166.0,160.0,165.5,167.5,163.5,168.5,171.5,166.0,173.5,169.5,177.0,170.5" stroke="black" stroke-width="2" fill="none" />
<polyline points="160.5,94.0,158.0,86.0,157.0,82.0" stroke="black" stroke-width="2" fill="none" />
<polyline points="155.0,81.5,156.0,80.5,156.0,88.0,154.0,95.5,157.5,96.5" stroke="black" stroke-width="2" fill="none" />
<polyline points="137.5,95.5,137.5,87.5,138.5,80.0,141.5,79.0,142.5,75.5,142.5,77.5,141.5,81.5" stroke="black" stroke-width="2" fill="none" />
<polyline points="139.0,77.0,146.5,77.0" stroke="black" stroke-width="2" fill="none" />
<polyline points="139.5,86.5,147.5,83.0,139.0,91.0" stroke="black" stroke-width="2" fill="none" />
<polyline points="124.0,98.5,124.0,106.5,121.0,115.0,115.5,123.0,109.5,131.0,99.5,139.0" stroke="black" stroke-width="2" fill="none" />
<polyline points="89.5,139.5,98.0,138.5,106.0,132.0,114.0,121.5,122.0,107.5" stroke="black" stroke-width="2" fill="none" />
<polyline points="119.5,114.0,112.0,126.0,104.0,136.0,96.5,140.5,103.0,134.5,110.5,127.0,115.5,119.0,120.5,111.5,121.5,104.0,121.5,100.5" stroke="black" stroke-width="2" fill="none" />
<polyline points="169.0,56.5,177.0,53.0,185.0,54.0" stroke="black" stroke-width="2" fill="none" />
<polyline points="182.5,51.5,188.5,59.5" stroke="black" stroke-width="2" fill="none" />
<polyline points="189.5,61.0,181.5,64.0,173.5,62.0,169.0,60.0,175.0,51.5" stroke="black" stroke-width="2" fill="none" />
<polyline points="203.5,46.0,211.0,45.5,218.5,45.0" stroke="black" stroke-width="2" fill="none" />
<polyline points="188.0,26.0,180.0,26.5,172.0,27.0,164.0,27.5,155.5,27.5,147.5,28.5,139.0,28.5" stroke="black" stroke-width="2" fill="none" />
<polyline points="117.0,20.0,124.5,19.5,132.0,19.5,139.5,19.5,147.0,19.5,155.0,19.0,163.0,19.0" stroke="black" stroke-width="2" fill="none" />
<polyline points="133.0,13.0,125.0,13.0,116.5,13.5,108.5,14.0,100.5,14.5,92.0,15.0" stroke="black" stroke-width="2" fill="none" />
<polyline points="98.5,3.5,91.0,4.0,83.0,4.5,75.5,4.0,67.5,4.5" stroke="black" stroke-width="2" fill="none" />
<polyline points="62.5,3.0,70.5,4.5,78.5,4.0,86.0,7.0,94.5,9.0,102.5,10.5,111.0,12.5,119.0,14.0,127.5,16.5,135.0,18.0,143.0,20.0,151.0,21.5,158.5,25.0,166.5,27.0,174.5,29.5,182.0,31.5,190.0,35.0,197.5,37.5,205.5,40.0,211.5,42.5,210.5,51.0,210.5,58.5,211.0,66.5,211.0,74.5,210.0,82.0,210.0,89.5,210.5,97.0,211.0,103.0,200.0,110.5,202.0,111.5,202.5,116.5,191.0,122.0,186.0,130.0,172.0,135.5,171.5,144.0,173.5,145.5,177.5,159.0,174.0,163.5,166.5,160.0,174.5,165.0,174.5,159.0" stroke="black" stroke-width="2" fill="none" />
<polyline points="215.0,90.0,214.5,82.0,214.5,74.0,214.5,66.0,214.5,58.0,214.5,49.5,210.5,43.0,203.0,40.5,194.5,38.0,186.5,36.0,178.5,34.0,170.0,32.0,162.0,29.5,154.0,26.5,146.0,24.5,138.0,23.0,130.0,21.0,122.0,18.0,114.0,16.5,106.0,14.5,97.5,12.5,89.5,10.0,81.5,8.0,73.5,6.0" stroke="black" stroke-width="2" fill="none" />
<polyline points="56.0,14.5,55.0,22.5" stroke="black" stroke-width="2" fill="none" />
<polyline points="43.0,11.0,34.5,11.5" stroke="black" stroke-width="2" fill="none" />
<polyline points="36.5,19.0,36.5,14.0,39.5,17.0,39.5,10.0,33.5,18.0,33.5,26.5,32.0,19.5,39.5,11.0,53.0,15.0,52.0,20.0,51.5,28.0" stroke="black" stroke-width="2" fill="none" />
<polyline points="23.0,24.0,22.0,15.5,21.0,12.5,20.5,9.5,12.5,12.5,4.5,12.5,4.5,12.0,10.5,10.0,17.5,12.0,9.5,12.5" stroke="black" stroke-width="2" fill="none" />
<polyline points="10.0,14.5,2.5,15.0" stroke="black" stroke-width="2" fill="none" />
<polyline points="22.5,11.5,24.5,19.5" stroke="black" stroke-width="2" fill="none" />
<polyline points="14.5,79.0,13.5,87.0,12.0,94.5,9.5,105.5,7.5,113.5,4.5,118.5" stroke="black" stroke-width="2" fill="none" />
<polyline points="20.0,127.0,20.0,127.0,24.0,119.0,25.0,111.5,25.0,111.5" stroke="black" stroke-width="2" fill="none" />
<polyline points="21.0,111.5,29.0,108.0,33.5,111.5,28.0,115.0,27.0,123.0,25.5,130.5,27.5,130.5,24.5,133.5,29.5,131.5" stroke="black" stroke-width="2" fill="none" />
<polyline points="25.0,152.5,28.0,160.0,22.0,167.0" stroke="black" stroke-width="2" fill="none" />
<polyline points="29.0,165.0,33.5,163.0,37.5,154.5" stroke="black" stroke-width="2" fill="none" />
<polyline points="39.0,155.5,37.0,164.0,40.0,173.0" stroke="black" stroke-width="2" fill="none" />
<polyline points="39.0,173.5,41.0,166.0" stroke="black" stroke-width="2" fill="none" />
<polyline points="56.0,172.0,60.0,164.5,60.0,156.5" stroke="black" stroke-width="2" fill="none" />
<polyline points="58.0,157.0,58.0,165.0,50.0,166.5" stroke="black" stroke-width="2" fill="none" />
<polyline points="69.0,148.5,77.0,150.5,84.5,153.0,85.5,158.0,85.0,166.0,85.0,175.0,82.0,183.0,76.0,190.5,70.0,193.5,77.5,189.0" stroke="black" stroke-width="2" fill="none" />
<polyline points="80.0,180.5,72.0,190.5,64.0,192.0,79.0,183.0,82.5,175.0,87.5,167.0,88.5,159.0,87.0,151.5,84.0,150.0,76.0,148.0,68.0,146.0" stroke="black" stroke-width="2" fill="none" />
<polyline points="52.5,134.5,53.5,126.5,54.5,118.5,56.5,111.0,56.5,103.0,57.5,98.0,49.5,95.5,48.0,101.5" stroke="black" stroke-width="2" fill="none" />
<polyline points="56.0,114.0,55.5,122.0,54.5,130.0,52.5,137.5" stroke="black" stroke-width="2" fill="none" />
<polyline points="24.0,153.5,23.0,161.0,20.5,169.0,28.5,170.5,33.5,170.5,38.5,166.5,50.5,164.5,53.5,174.0,54.5,171.0,67.0,166.5,70.5,171.5" stroke="black" stroke-width="2" fill="none" />
<polyline points="3.5,114.5,7.5,108.5,9.0,100.0,10.5,91.5,11.0,84.0,11.5,82.5" stroke="black" stroke-width="2" fill="none" />
<polyline points="276.5,152.5,273.0,144.0,267.0,137.0,269.0,134.0,276.0,127.0,281.0,121.0,277.0,119.0,282.5,118.0,289.0,110.5,288.0,100.5,294.0,100.5" stroke="black" stroke-width="2" fill="none" />
</svg>