<svg xmlns="http://www.w3.org/2000/svg" version="1.1"><polyline points="213.0,64.0,216.0,76.0,216.0,88.5,216.0,100.5,217.5,112.5,221.5,124.0,223.0,136.0,221.5,148.0" stroke="black" stroke-width="2" fill="none" />
<polyline points="279.0,141.5,274.5,135.5,271.5,123.5,270.5,112.0,270.5,99.5,269.0,87.0,269.0,74.5,270.0,62.5,268.5,63.5" stroke="black" stroke-width="2" fill="none" />
<polyline points="276.0,64.5,278.0,76.5,277.5,88.5,277.5,100.5,279.0,112.5,280.5,124.5,285.0,136.5" stroke="black" stroke-width="2" fill="none" />
<polyline points="312.0,224.5,324.0,224.5,336.0,228.5,340.5,232.0,342.0,244.5,334.5,256.5,326.0,268.5,313.0,280.5,295.0,292.5,271.0,304.5" stroke="black" stroke-width="2" fill="none" />
<polyline points="313.0,231.0,325.0,234.0" stroke="black" stroke-width="2" fill="none" />
<polyline points="219.5,151.5,212.0,148.5,209.0,136.5,208.5,124.0,208.5,111.5,209.0,99.0,209.5,87.0,208.5,74.5,209.0,62.5,209.0,62.0" stroke="black" stroke-width="2" fill="none" />
<polyline points="166.5,273.0,168.0,285.0,181.0,297.0" stroke="black" stroke-width="2" fill="none" />
<polyline points="162.5,280.0,174.5,288.5,186.0,297.5,198.5,305.0,210.0,308.0,222.0,311.0,234.0,311.0,246.0,311.0,258.0,308.0,270.0,305.5,282.5,301.0,294.5,293.5,306.0,286.0,318.0,276.5,330.5,263.0" stroke="black" stroke-width="2" fill="none" />
<polyline points="284.5,290.0,304.5,277.5,318.0,265.5,328.5,253.5,334.5,241.5,330.0,250.5,318.5,265.5,306.5,276.0,294.5,285.5,282.5,291.5,270.0,297.5,257.5,300.5,245.0,301.5,233.0,303.0,220.5,301.5,208.5,298.5,196.0,294.5,183.5,287.0,171.5,275.5,159.5,276.0" stroke="black" stroke-width="2" fill="none" />
<polyline points="167.0,273.5,180.5,286.0,200.5,298.0" stroke="black" stroke-width="2" fill="none" />
</svg>