<svg xmlns="http://www.w3.org/2000/svg" version="1.1"><polyline points="280.0,5.0,287.5,6.5,280.0,15.5,272.5,27.5,280.0,11.0,263.5,20.0,253.0,28.0,245.5,29.5,242.5,41.5,248.5,40.0,232.0,52.0,230.5,62.5,218.5,64.0,214.0,50.5,226.0,49.0,230.5,58.0,242.5,55.0,255.0,56.5,266.5,62.5" stroke="black" stroke-width="2" fill="none" />
<polyline points="266.5,53.0,253.5,50.0,241.5,49.5,232.0,51.0,222.5,61.5,210.0,66.0,218.5,55.5,222.5,43.5,209.0,42.0" stroke="black" stroke-width="2" fill="none" />
<polyline points="202.0,39.0,202.0,44.5,202.5,44.5,200.0,56.5,203.0,68.0,208.0,69.5,223.0,82.5,235.0,76.0,242.5,80.5,244.0,73.0" stroke="black" stroke-width="2" fill="none" />
<polyline points="244.0,88.5,256.5,81.0,270.5,79.0,282.5,80.5,299.5,74.5,314.5,88.0" stroke="black" stroke-width="2" fill="none" />
<polyline points="317.0,83.5,316.5,78.0" stroke="black" stroke-width="2" fill="none" />
<polyline points="327.5,81.5,316.0,84.5,309.0,72.5,319.5,60.0,316.5,43.5" stroke="black" stroke-width="2" fill="none" />
<polyline points="318.5,52.0,330.5,50.5,349.0,66.5,361.0,66.0" stroke="black" stroke-width="2" fill="none" />
<polyline points="347.5,56.5,359.5,55.5,376.0,67.5,371.5,79.5,374.0,91.5" stroke="black" stroke-width="2" fill="none" />
<polyline points="365.0,79.0,350.0,80.0,340.5,77.0,336.5,64.5,324.5,57.5" stroke="black" stroke-width="2" fill="none" />
<polyline points="312.5,57.5,326.5,55.0,326.5,68.5,328.0,80.5,337.0,83.5,341.5,86.5,357.0,94.0,351.5,102.0,342.5,114.0,353.0,120.0,356.0,136.5,365.5,147.0,365.5,159.0,373.0,170.5,387.0,176.5,388.5,188.5,399.0,208.0,394.0,212.0,386.0,224.0,388.0,235.5,388.0,247.5,392.5,256.5,392.0,269.0,390.5,281.5,402.5,296.5,399.5,308.5,394.5,296.5,412.5,290.5" stroke="black" stroke-width="2" fill="none" />
<polyline points="417.0,258.0,400.5,268.5,402.0,256.5,390.0,261.0" stroke="black" stroke-width="2" fill="none" />
<polyline points="409.5,241.5,421.5,241.5" stroke="black" stroke-width="2" fill="none" />
<polyline points="416.0,224.0,413.5,238.0,410.5,229.0,400.0,241.5,394.0,250.5,374.0,253.0,362.0,254.5,349.5,254.5,346.5,250.0" stroke="black" stroke-width="2" fill="none" />
<polyline points="358.0,233.5,349.0,223.5" stroke="black" stroke-width="2" fill="none" />
<polyline points="335.0,220.0,346.5,227.5,358.5,232.0,364.5,229.0" stroke="black" stroke-width="2" fill="none" />
<polyline points="387.0,230.5,399.0,229.0,394.5,245.5,401.5,252.5,403.5,264.5,396.0,276.5,408.0,273.5,420.0,269.5" stroke="black" stroke-width="2" fill="none" />
<polyline points="376.5,253.0,381.0,241.0,379.5,229.0,383.5,217.0,388.0,204.0,386.5,192.0,386.0,195.0" stroke="black" stroke-width="2" fill="none" />
<polyline points="386.0,183.5,398.0,192.0" stroke="black" stroke-width="2" fill="none" />
<polyline points="407.0,189.5,416.0,189.0,435.5,187.5" stroke="black" stroke-width="2" fill="none" />
<polyline points="424.0,188.0,412.0,184.5" stroke="black" stroke-width="2" fill="none" />
<polyline points="402.5,180.0,414.5,178.5,427.0,182.0,428.5,176.0,431.5,177.5" stroke="black" stroke-width="2" fill="none" />
<polyline points="447.0,164.5,445.5,176.5,434.5,188.0,437.5,198.5,436.0,210.0,428.0,221.5,426.5,230.0,423.5,242.0,422.5,254.0,433.0,235.0,435.0,212.5" stroke="black" stroke-width="2" fill="none" />
<polyline points="429.0,212.5,409.5,223.0,397.5,221.5,387.0,224.5" stroke="black" stroke-width="2" fill="none" />
<polyline points="405.5,212.0,417.5,212.0,430.0,203.0" stroke="black" stroke-width="2" fill="none" />
<polyline points="438.5,204.0,443.5,198.0,436.0,182.5,440.5,170.5,439.0,162.5,436.0,156.5,437.5,138.0,440.5,126.0,436.0,114.5,424.5,111.5,432.0,105.5,424.5,105.5,417.0,93.5,425.5,88.0,418.0,82.5,406.0,72.0,394.0,62.5,382.0,62.5" stroke="black" stroke-width="2" fill="none" />
<polyline points="380.5,66.5,393.0,70.5,404.5,78.0" stroke="black" stroke-width="2" fill="none" />
<polyline points="397.5,65.5,405.0,77.0,416.5,81.5,413.0,93.0,414.0,105.0,411.0,117.0,424.5,118.5,420.0,130.5,439.5,146.0,428.5,158.0,422.5,170.0,430.0,170.0,425.5,182.0,419.5,183.0,412.5,186.0,421.5,198.0,418.5,210.0,403.5,219.0,399.5,231.0,399.5,243.5,404.0,245.0,414.5,255.5" stroke="black" stroke-width="2" fill="none" />
<polyline points="407.5,292.0,397.0,311.5,390.5,305.0,390.5,293.0,401.0,281.5,405.5,277.0,423.5,267.5,416.0,263.0,417.5,251.0,411.5,239.0,414.0,225.5,424.0,221.0,429.5,206.0,410.0,195.5,401.5,184.0,418.0,178.0,404.5,160.0,398.5,149.5,400.0,136.0,394.0,136.0,382.5,120.5,390.5,110.0,401.0,102.0,401.0,90.0,393.0,78.0,381.5,66.5,380.5,54.5,376.0,42.5,368.5,42.5,356.5,42.5,341.5,42.5,331.0,42.5,323.0,29.0,311.0,26.0,305.0,36.5,308.0,38.0,315.5,33.5,305.0,29.0,302.5,12.5,290.5,9.0,278.5,3.0,266.5,7.5,254.0,12.0,242.0,18.0,230.5,26.5" stroke="black" stroke-width="2" fill="none" />
<polyline points="229.0,22.0,241.0,10.5,257.5,7.5,250.0,19.5,260.5,36.5,260.5,38.0,259.0,49.5,261.5,63.0,266.0,63.0,258.5,76.5,243.5,84.5,243.5,93.0,238.5,105.5,248.0,117.5" stroke="black" stroke-width="2" fill="none" />
<polyline points="254.5,117.5,245.5,105.5,236.5,101.0,234.0,104.5" stroke="black" stroke-width="2" fill="none" />
<polyline points="214.5,118.0,213.5,110.5,192.5,111.0,194.5,114.0,202.0,104.5,187.5,104.5,193.5,92.5,184.5,85.0" stroke="black" stroke-width="2" fill="none" />
<polyline points="190.5,90.5,191.0,86.0,192.5,99.0" stroke="black" stroke-width="2" fill="none" />
<polyline points="209.0,109.0,217.0,121.0" stroke="black" stroke-width="2" fill="none" />
<polyline points="180.5,143.0,168.0,132.5" stroke="black" stroke-width="2" fill="none" />
<polyline points="170.0,130.0,182.0,142.0" stroke="black" stroke-width="2" fill="none" />
<polyline points="178.5,135.5,166.5,126.0" stroke="black" stroke-width="2" fill="none" />
<polyline points="167.0,127.0,173.0,139.0,180.5,154.0" stroke="black" stroke-width="2" fill="none" />
<polyline points="176.5,150.0,164.0,144.0" stroke="black" stroke-width="2" fill="none" />
<polyline points="162.5,148.0,164.0,160.0,176.0,159.0" stroke="black" stroke-width="2" fill="none" />
<polyline points="159.0,175.5,146.0,166.5,148.0,154.5,157.5,147.0,153.0,135.0,152.0,132.0" stroke="black" stroke-width="2" fill="none" />
<polyline points="148.0,159.0,149.0,162.0,164.5,164.5" stroke="black" stroke-width="2" fill="none" />
<polyline points="155.0,173.0,143.0,167.0" stroke="black" stroke-width="2" fill="none" />
<polyline points="140.5,157.0,152.5,149.5,161.5,143.5,167.5,156.0,169.0,165.5" stroke="black" stroke-width="2" fill="none" />
<polyline points="137.5,191.5,125.5,181.0" stroke="black" stroke-width="2" fill="none" />
<polyline points="127.0,182.0,140.5,194.0" stroke="black" stroke-width="2" fill="none" />
<polyline points="140.5,214.5,152.5,219.0,164.5,214.5" stroke="black" stroke-width="2" fill="none" />
<polyline points="214.5,228.0,226.5,228.0,238.5,228.0,250.5,223.5,263.0,222.5,275.0,222.5" stroke="black" stroke-width="2" fill="none" />
<polyline points="274.5,214.5,262.5,212.5,250.5,211.0,238.5,215.5" stroke="black" stroke-width="2" fill="none" />
<polyline points="237.5,233.0,210.5,243.5,222.0,239.0,234.0,234.0,246.0,231.0,258.5,231.5,270.5,233.0" stroke="black" stroke-width="2" fill="none" />
<polyline points="291.0,246.0,301.5,243.0,300.5,255.0,297.5,266.5,300.5,278.5,303.5,293.5,311.0,305.0,317.0,324.5,297.5,336.0,291.0,334.5,302.5,334.5,315.0,325.5" stroke="black" stroke-width="2" fill="none" />
<polyline points="340.5,341.0,332.5,332.0,334.5,320.5,329.0,310.0,327.5,298.0,332.0,292.5,320.0,290.5" stroke="black" stroke-width="2" fill="none" />
<polyline points="317.5,287.0,335.0,286.0,346.0,297.5,358.0,297.5" stroke="black" stroke-width="2" fill="none" />
<polyline points="352.5,294.0,341.0,291.0,329.0,285.0" stroke="black" stroke-width="2" fill="none" />
<polyline points="352.0,270.5,340.0,272.0,328.0,266.0,316.0,254.0" stroke="black" stroke-width="2" fill="none" />
<polyline points="321.5,252.5,334.0,252.0,346.0,247.5,358.5,243.0" stroke="black" stroke-width="2" fill="none" />
<polyline points="374.5,231.5,362.5,222.5,350.0,219.5,338.0,215.0,326.0,216.5" stroke="black" stroke-width="2" fill="none" />
<polyline points="335.5,214.5,352.5,226.5,360.0,229.5,372.0,231.0,384.0,213.0,395.5,201.5,406.0,204.5" stroke="black" stroke-width="2" fill="none" />
<polyline points="432.5,220.5,432.5,232.5,424.0,234.0" stroke="black" stroke-width="2" fill="none" />
<polyline points="417.0,160.5,408.0,165.0,403.5,156.0,392.0,149.0" stroke="black" stroke-width="2" fill="none" />
<polyline points="414.5,134.5,426.5,141.0" stroke="black" stroke-width="2" fill="none" />
<polyline points="425.0,106.5,412.5,102.0" stroke="black" stroke-width="2" fill="none" />
<polyline points="434.0,108.0,420.5,102.0,411.5,88.5,399.0,84.0,387.0,71.5" stroke="black" stroke-width="2" fill="none" />
<polyline points="391.5,68.5,401.5,80.5,407.5,95.5,406.0,107.0,404.5,116.0,411.5,128.0,406.5,140.0,409.5,152.0,409.0,167.0,421.0,163.0,433.0,161.5,444.0,160.0" stroke="black" stroke-width="2" fill="none" />
<polyline points="385.0,163.0,386.0,153.0,393.5,151.5,384.5,140.0,369.5,134.0" stroke="black" stroke-width="2" fill="none" />
<polyline points="366.0,113.5,381.5,106.5,371.0,103.5,367.0,102.0,360.5,90.5,362.0,81.5,353.0,68.0,357.0,56.0,357.0,48.0,355.5,43.5,350.5,52.5" stroke="black" stroke-width="2" fill="none" />
<polyline points="370.5,39.5,372.0,52.0,369.0,63.5,356.5,74.5,366.5,70.5,380.0,75.0,382.5,78.0,388.5,82.5,389.5,88.0" stroke="black" stroke-width="2" fill="none" />
<polyline points="391.0,88.5,391.0,100.0" stroke="black" stroke-width="2" fill="none" />
<polyline points="386.0,115.0,386.0,103.0,386.0,90.5,380.0,87.0,378.5,75.0" stroke="black" stroke-width="2" fill="none" />
<polyline points="349.5,107.5,349.5,119.5,350.5,136.5,354.5,139.5,365.0,151.5,369.5,143.0,370.5,149.5,382.5,159.0,390.0,159.0,393.0,144.0,400.5,147.0,409.5,142.5,414.5,151.5,422.0,152.5" stroke="black" stroke-width="2" fill="none" />
<polyline points="380.0,168.5,368.5,161.0,356.5,156.5,342.5,150.5,330.5,147.5" stroke="black" stroke-width="2" fill="none" />
<polyline points="330.5,144.5,335.0,140.0,327.0,152.0,330.0,171.0,324.5,181.0,336.5,164.5" stroke="black" stroke-width="2" fill="none" />
<polyline points="340.0,158.0,352.0,156.0,340.0,158.0,328.0,155.0" stroke="black" stroke-width="2" fill="none" />
<polyline points="319.5,174.0,307.5,163.5" stroke="black" stroke-width="2" fill="none" />
<polyline points="308.0,164.5,306.5,152.5,298.0,157.5" stroke="black" stroke-width="2" fill="none" />
<polyline points="297.5,143.0,297.5,140.5,286.0,137.5,289.0,155.0,277.0,157.0" stroke="black" stroke-width="2" fill="none" />
<polyline points="301.0,118.5,313.0,117.0,324.0,129.0" stroke="black" stroke-width="2" fill="none" />
<polyline points="301.5,120.0,306.5,109.0,304.0,95.0,299.5,87.5,289.0,83.0" stroke="black" stroke-width="2" fill="none" />
<polyline points="273.5,77.5,278.0,89.5,295.5,92.5,300.0,103.5" stroke="black" stroke-width="2" fill="none" />
<polyline points="286.5,30.5,294.0,36.0,286.0,40.5,284.5,52.5,290.0,48.0,285.5,37.5,286.5,25.5,294.0,21.0,306.0,19.0,306.0,28.0" stroke="black" stroke-width="2" fill="none" />
<polyline points="318.5,26.5,317.0,38.5,316.0,40.0,315.5,31.0,335.0,31.0" stroke="black" stroke-width="2" fill="none" />
<polyline points="337.5,37.5,330.0,25.5" stroke="black" stroke-width="2" fill="none" />
<polyline points="332.0,23.0,320.0,20.0,308.0,14.5" stroke="black" stroke-width="2" fill="none" />
<polyline points="325.5,25.5,330.0,37.5,318.0,54.0,309.0,66.0,303.0,77.5,314.0,89.5,323.0,107.5" stroke="black" stroke-width="2" fill="none" />
<polyline points="327.5,22.5,342.5,34.5,331.0,42.0,339.0,54.0,336.0,65.5,342.0,68.5,353.0,73.0,334.5,83.0,339.0,94.5,336.0,108.0,345.0,97.5,352.5,97.5,370.5,100.5,373.0,115.0,370.0,124.0,382.0,124.0,390.5,125.5,396.5,121.0,403.5,136.0,414.0,128.5,417.0,141.5,429.0,148.0" stroke="black" stroke-width="2" fill="none" />
<polyline points="368.0,252.5,355.5,240.5,343.5,237.5,331.5,234.5,319.5,239.0" stroke="black" stroke-width="2" fill="none" />
<polyline points="313.5,241.0,319.5,232.0,313.5,244.5,315.5,256.5,316.0,268.5,331.0,268.5" stroke="black" stroke-width="2" fill="none" />
<polyline points="299.5,286.5,311.5,304.5" stroke="black" stroke-width="2" fill="none" />
<polyline points="301.0,322.0,308.5,310.0,299.5,298.0,296.5,280.0" stroke="black" stroke-width="2" fill="none" />
<polyline points="292.5,292.5,304.5,304.5" stroke="black" stroke-width="2" fill="none" />
<polyline points="333.0,316.0,317.5,315.0,305.5,320.0,293.5,323.0,281.5,312.5,269.5,309.5" stroke="black" stroke-width="2" fill="none" />
<polyline points="265.5,303.0,277.5,292.0,274.0,290.5,265.5,302.0,282.0,313.5" stroke="black" stroke-width="2" fill="none" />
<polyline points="271.0,286.0,259.0,301.0,263.5,293.5,275.0,281.5" stroke="black" stroke-width="2" fill="none" />
<polyline points="239.5,336.0,230.5,347.5,237.0,338.0,249.0,338.0,261.5,339.0,274.0,340.0,286.0,341.5,298.0,341.5,313.0,338.5,325.0,341.5,338.5,339.0" stroke="black" stroke-width="2" fill="none" />
<polyline points="315.0,358.0,302.5,358.5,285.5,360.0,279.5,363.0,268.0,359.5,256.0,353.5" stroke="black" stroke-width="2" fill="none" />
<polyline points="256.0,353.5,280.0,355.0,286.0,353.0,298.0,352.5,310.0,351.0,322.5,349.0,334.5,350.5" stroke="black" stroke-width="2" fill="none" />
<polyline points="310.0,356.0,314.5,368.0,308.5,374.0,304.0,389.5,311.5,404.0,319.0,417.5,311.5,420.5,323.5,414.0,335.5,409.5,347.5,395.5,359.5,383.5" stroke="black" stroke-width="2" fill="none" />
<polyline points="370.5,369.5,361.5,381.5,351.0,394.0,339.0,406.0,331.5,418.0,330.0,430.0,328.5,442.0,325.5,453.5,324.0,465.0,321.0,477.0,319.5,489.0,318.0,501.0,330.0,510.0,335.0,504.0,347.0,503.5,366.5,502.0" stroke="black" stroke-width="2" fill="none" />
<polyline points="366.0,488.5,354.0,465.0" stroke="black" stroke-width="2" fill="none" />
<polyline points="349.5,458.5,346.5,461.5,353.5,473.5,361.0,485.5,369.0,499.5,366.0,511.5" stroke="black" stroke-width="2" fill="none" />
<polyline points="366.5,491.5,362.0,479.5,355.0,467.5,355.0,457.5,343.0,454.5" stroke="black" stroke-width="2" fill="none" />
<polyline points="345.0,456.5,357.0,461.0,358.5,477.5" stroke="black" stroke-width="2" fill="none" />
<polyline points="352.5,483.0,356.0,495.0,359.0,507.0" stroke="black" stroke-width="2" fill="none" />
<polyline points="338.0,501.5,342.5,496.0,340.0,483.5,340.0,471.5,336.5,459.0,335.5,447.0,329.5,430.0" stroke="black" stroke-width="2" fill="none" />
<polyline points="327.0,406.5,318.0,399.0,306.0,400.5" stroke="black" stroke-width="2" fill="none" />
<polyline points="310.5,371.5,298.5,370.0,286.0,369.0,274.0,367.5" stroke="black" stroke-width="2" fill="none" />
<polyline points="261.0,385.5,272.5,382.5,284.5,381.0,296.5,379.0,307.0,380.5,319.0,386.5" stroke="black" stroke-width="2" fill="none" />
<polyline points="374.0,477.5,385.5,478.0,397.5,479.5" stroke="black" stroke-width="2" fill="none" />
<polyline points="389.0,483.0,377.0,480.0" stroke="black" stroke-width="2" fill="none" />
<polyline points="328.5,498.0,327.0,510.0,330.0,502.5" stroke="black" stroke-width="2" fill="none" />
<polyline points="264.0,510.5,262.5,506.0,251.0,510.5,236.5,506.0,228.0,502.5,217.5,496.5" stroke="black" stroke-width="2" fill="none" />
<polyline points="215.5,487.5,227.5,498.5,239.5,509.0" stroke="black" stroke-width="2" fill="none" />
<polyline points="154.0,501.5,146.5,489.5,139.5,477.0,131.0,465.0,125.0,453.0,118.0,441.0,114.0,429.0,129.5,415.5,122.0,424.5" stroke="black" stroke-width="2" fill="none" />
<polyline points="113.5,426.5,125.5,408.5,137.0,384.5,149.0,376.5" stroke="black" stroke-width="2" fill="none" />
<polyline points="155.5,370.0,143.5,363.5" stroke="black" stroke-width="2" fill="none" />
<polyline points="155.5,353.5,143.5,359.0,131.0,353.5" stroke="black" stroke-width="2" fill="none" />
<polyline points="146.0,343.5,146.0,352.5,140.0,348.0,137.5,332.5,125.5,334.0" stroke="black" stroke-width="2" fill="none" />
<polyline points="137.0,331.0,125.0,329.5,113.5,318.5" stroke="black" stroke-width="2" fill="none" />
<polyline points="124.0,298.5,116.5,313.5,116.0,307.0,120.5,296.0" stroke="black" stroke-width="2" fill="none" />
<polyline points="144.0,297.0,139.5,282.0,127.5,258.0" stroke="black" stroke-width="2" fill="none" />
<polyline points="127.5,259.0,132.0,271.0,136.5,283.0,142.5,294.5,145.5,306.0,155.0,318.0,156.5,329.5,158.0,342.0,158.0,354.0,154.0,356.0,158.5,377.0,158.5,389.0,160.0,401.0,163.5,413.0,163.0,413.0" stroke="black" stroke-width="2" fill="none" />
<polyline points="142.0,386.5,137.5,398.5,142.0,386.5" stroke="black" stroke-width="2" fill="none" />
<polyline points="115.0,430.5,127.0,454.5,139.0,474.5,151.0,491.0,163.0,509.0" stroke="black" stroke-width="2" fill="none" />
<polyline points="151.5,507.0,144.0,495.0,136.5,483.0,129.0,471.0,121.5,458.5,114.0,446.5,106.5,438.5,114.0,426.5,121.5,414.5,129.0,403.0,135.0,391.0,142.5,379.0,147.0,367.0,129.0,352.0,132.0,350.5,130.5,339.5,119.5,327.5,112.0,315.0,112.0,303.0,108.5,291.0,100.5,279.0,103.5,266.5,109.5,259.0,105.0,247.0,100.5,238.5,105.0,227.0,102.5,218.5,102.5,208.5,101.5,205.5,103.0,193.5,100.5,187.5,100.0,175.5,92.5,163.0,98.5,158.5,103.0,146.5,109.0,134.5,111.5,128.5,109.5,116.0,107.5,104.0,115.0,92.5,124.0,83.0,122.0,80.0,110.0,89.0" stroke="black" stroke-width="2" fill="none" />
<polyline points="121.5,84.0,133.5,90.0,145.5,87.0" stroke="black" stroke-width="2" fill="none" />
<polyline points="149.5,93.0,137.5,90.0" stroke="black" stroke-width="2" fill="none" />
<polyline points="148.0,81.5,136.0,72.5" stroke="black" stroke-width="2" fill="none" />
<polyline points="143.0,69.0,155.5,77.0" stroke="black" stroke-width="2" fill="none" />
<polyline points="151.5,77.5,142.5,65.5,150.5,70.0" stroke="black" stroke-width="2" fill="none" />
<polyline points="158.0,67.0,157.0,51.5,145.0,59.0" stroke="black" stroke-width="2" fill="none" />
<polyline points="136.5,55.5,144.0,43.5,131.0,55.5,129.5,67.5,120.5,80.0,120.5,86.0,116.0,98.5,120.0,99.5,121.5,106.0,130.5,120.0,142.5,114.0" stroke="black" stroke-width="2" fill="none" />
<polyline points="148.5,108.5,147.0,96.0,140.5,94.5,145.0,88.5,144.0,76.0,136.5,67.0,144.0,55.0,136.5,63.5" stroke="black" stroke-width="2" fill="none" />
<polyline points="130.0,61.0,142.0,46.0,153.5,46.0,164.0,36.5,171.5,44.5" stroke="black" stroke-width="2" fill="none" />
<polyline points="187.0,44.5,187.0,48.0,174.0,60.0,164.5,76.5,173.5,79.5" stroke="black" stroke-width="2" fill="none" />
<polyline points="199.0,73.0,197.5,61.0,192.5,59.0,192.0,47.0,186.0,56.0,196.0,57.5,196.0,48.5" stroke="black" stroke-width="2" fill="none" />
<polyline points="200.0,37.5,212.0,39.0,198.5,33.0,180.5,44.5,167.0,43.0,161.0,51.5,158.0,54.5,157.0,65.0,157.0,74.0,173.5,80.0,169.0,71.0,175.0,56.0,187.0,47.0,190.0,38.0,202.0,31.5,214.0,30.0,224.0,24.0,236.0,7.5,247.5,4.5,259.5,3.0" stroke="black" stroke-width="2" fill="none" />
<polyline points="270.5,10.5,264.0,24.0,252.5,23.0,249.5,20.0,240.5,26.0,230.0,37.0,228.5,44.5,234.0,41.5,230.0,40.0,228.5,28.0,233.0,16.5,249.5,13.5" stroke="black" stroke-width="2" fill="none" />
<polyline points="242.5,9.5,233.5,11.0,226.0,23.0,220.0,35.5,218.0,47.5,206.0,50.5,206.0,62.5,218.5,76.0,215.5,79.0,214.5,76.0,223.5,73.0,235.5,73.0,247.0,71.5,259.0,76.0,271.5,72.0,283.5,72.0,295.5,72.0,309.0,67.5,314.5,75.0,326.5,71.5,338.0,74.5,337.0,78.5,340.0,92.5,352.0,91.0,362.0,86.5,365.0,92.5,374.0,97.0,384.5,112.0,391.5,110.5,396.0,117.0,409.0,123.0,414.0,118.5,420.5,116.5,432.5,128.5" stroke="black" stroke-width="2" fill="none" />
<polyline points="396.5,4.0,384.5,5.5,372.5,4.0,360.5,2.5" stroke="black" stroke-width="2" fill="none" />
<polyline points="278.0,17.5,269.0,35.5,256.5,34.5,259.5,28.5,271.5,16.5" stroke="black" stroke-width="2" fill="none" />
<polyline points="130.5,111.0,118.5,100.5" stroke="black" stroke-width="2" fill="none" />
<polyline points="116.5,110.0,128.5,116.0" stroke="black" stroke-width="2" fill="none" />
<polyline points="124.0,124.5,139.0,133.0,143.0,154.0,140.0,160.0,146.5,172.0,154.0,184.5,159.5,183.0" stroke="black" stroke-width="2" fill="none" />
<polyline points="117.5,194.5,116.0,199.0,104.0,195.0" stroke="black" stroke-width="2" fill="none" />
<polyline points="106.5,173.0,97.5,170.0" stroke="black" stroke-width="2" fill="none" />
<polyline points="100.5,149.5,109.0,146.5,112.0,153.0,105.5,165.5,111.5,180.5,114.5,190.0,104.0,196.0,111.5,206.5,113.0,211.0,126.5,206.0,120.0,218.0,123.5,216.5,140.0,210.5,152.0,215.0" stroke="black" stroke-width="2" fill="none" />
<polyline points="105.5,204.0,102.0,219.0,90.0,237.0" stroke="black" stroke-width="2" fill="none" />
<polyline points="85.5,220.5,94.5,236.0,99.0,248.0,115.0,256.0,119.0,241.5" stroke="black" stroke-width="2" fill="none" />
<polyline points="138.0,266.0,139.5,278.0,144.5,290.0,148.0,306.5" stroke="black" stroke-width="2" fill="none" />
<polyline points="118.0,281.0,117.0,288.5,111.0,281.0,105.5,269.0,102.0,261.0,93.0,249.0,89.5,237.0,97.0,225.0,85.0,217.0" stroke="black" stroke-width="2" fill="none" />
<polyline points="286.0,264.5,291.0,254.0,292.5,242.0,303.0,230.0,294.0,217.5" stroke="black" stroke-width="2" fill="none" />
<polyline points="93.5,447.0,107.0,451.5,113.0,463.0,120.5,474.5,128.5,486.5,135.5,498.5,144.5,510.0" stroke="black" stroke-width="2" fill="none" />
<polyline points="142.0,501.5,130.0,488.0,118.5,468.0,106.5,458.0,94.5,458.0" stroke="black" stroke-width="2" fill="none" />
<polyline points="85.5,456.0,97.5,452.5,93.0,445.5,83.0,458.0,68.0,468.5,38.0,480.5,36.5,501.5" stroke="black" stroke-width="2" fill="none" />
<polyline points="32.5,495.5,44.5,507.5" stroke="black" stroke-width="2" fill="none" />
<polyline points="28.0,482.5,40.0,479.5,52.0,474.0,64.0,465.5,76.0,461.0,88.5,452.0,70.5,451.0,36.5,463.0,11.0,474.5,8.5,476.0,20.0,471.0,32.5,465.5,44.0,461.0,56.0,454.5,68.0,451.5,80.0,447.0,92.0,442.5,104.5,439.5,115.0,445.5,127.5,467.0,139.5,483.5,151.5,502.5" stroke="black" stroke-width="2" fill="none" />
<polyline points="82.0,461.5,84.0,466.0,102.0,467.5,73.5,477.5" stroke="black" stroke-width="2" fill="none" />
<polyline points="13.0,498.5,1.0,500.0" stroke="black" stroke-width="2" fill="none" />
<polyline points="1.5,497.0,13.5,494.0,25.5,491.0,37.5,488.0,49.5,483.5,61.5,479.5,74.0,473.0,86.0,468.5,98.5,463.5,106.0,460.0,73.0,472.0,46.0,484.0" stroke="black" stroke-width="2" fill="none" />
<polyline points="1.5,491.0,13.5,488.0,27.5,494.0,40.0,490.5,52.0,487.0,66.0,481.0,77.5,475.0,89.5,472.0,101.5,467.5,113.5,471.0" stroke="black" stroke-width="2" fill="none" />
<polyline points="459.5,494.5,475.0,507.0" stroke="black" stroke-width="2" fill="none" />
<polyline points="473.0,502.0,461.0,494.0" stroke="black" stroke-width="2" fill="none" />
</svg>