<svg xmlns="http://www.w3.org/2000/svg" version="1.1"><polyline points="214.0,64.5,217.0,76.0,216.5,88.0,216.0,99.5,217.5,111.0,222.5,123.0,224.0,135.0,222.5,147.0" stroke="black" stroke-width="2" fill="none" />
<polyline points="279.0,142.0,274.5,136.0,271.5,124.5,270.5,112.0,270.0,100.0,268.5,87.5,268.5,75.0,270.0,63.0,268.5,64.5" stroke="black" stroke-width="2" fill="none" />
<polyline points="277.0,63.0,278.5,75.5,278.5,87.5,278.0,99.5,279.0,111.5,281.0,123.0,285.5,135.0" stroke="black" stroke-width="2" fill="none" />
<polyline points="312.0,226.5,324.0,226.0,336.5,230.5,341.0,233.5,343.0,245.5,335.5,257.5,326.0,269.5,312.0,282.0,294.0,293.5,269.5,305.5" stroke="black" stroke-width="2" fill="none" />
<polyline points="315.0,231.5,326.5,234.5" stroke="black" stroke-width="2" fill="none" />
<polyline points="219.5,150.5,212.0,147.5,209.0,135.5,209.0,123.0,209.0,111.0,209.0,98.5,208.5,86.5,207.0,75.0,206.5,63.0,206.5,63.0" stroke="black" stroke-width="2" fill="none" />
<polyline points="167.0,272.5,168.5,285.0,182.0,297.0" stroke="black" stroke-width="2" fill="none" />
<polyline points="162.0,279.5,174.0,288.5,186.0,297.5,198.0,305.0,210.5,308.0,222.5,311.0,234.5,311.0,246.5,311.5,258.5,308.0,271.0,305.0,283.0,300.5,294.5,293.0,306.5,285.5,318.0,276.5,330.0,263.0" stroke="black" stroke-width="2" fill="none" />
<polyline points="283.5,290.0,303.5,278.0,317.0,266.0,328.0,254.5,334.0,242.5,329.5,251.5,317.0,266.5,304.5,277.0,292.5,286.0,280.5,292.0,268.5,298.0,256.5,301.0,245.0,302.5,233.5,303.5,222.0,302.0,210.0,299.0,198.0,294.5,186.5,287.0,174.5,275.0,162.5,275.0" stroke="black" stroke-width="2" fill="none" />
<polyline points="169.0,273.5,182.0,285.5,201.5,297.5" stroke="black" stroke-width="2" fill="none" />
</svg>