<svg xmlns="http://www.w3.org/2000/svg" version="1.1"><polyline points="198.0,2.0,198.5,6.5,200.0,10.0,199.5,14.0,198.5,18.5,199.0,22.5,200.0,26.5,200.0,31.0,200.0,34.5,199.5,38.5,200.5,42.5,201.0,46.5,197.0,49.0,200.0,50.5,200.0,53.5,203.5,57.5,201.0,61.5,204.5,64.5,207.5,67.0,209.0,70.0,204.5,73.5,206.5,76.5,209.5,79.5,208.0,82.5,209.5,86.5,211.0,91.0,212.5,91.5,213.0,96.0,215.0,99.0,213.0,103.0,208.0,103.0,206.0,107.0,207.5,108.5,205.5,112.0,205.0,113.5" stroke="black" stroke-width="2" fill="none" />
<polyline points="208.0,105.5,212.0,104.0,219.0,104.5,221.5,108.5,222.5,112.0,226.0,112.5,226.5,116.5,225.5,120.0,226.5,124.5,228.0,126.5,223.5,130.0,221.0,135.0,221.0,140.0,220.0,143.0,219.5,147.5,217.0,150.0,214.5,151.0,215.0,155.0,218.0,158.5,218.0,162.0,219.0,166.0,216.0,167.0,216.5,171.0,214.5,173.0,213.0,177.0,213.5,181.0,213.5,185.0,213.0,189.5,215.0,193.5,210.0,194.5,206.0,196.5,206.0,199.0,205.0,202.5,209.5,203.0,208.5,200.5,209.5,197.5,210.5,199.5,213.0,203.0,216.0,197.0" stroke="black" stroke-width="2" fill="none" />
<polyline points="213.0,211.0,218.0,215.5,218.0,219.5,218.0,223.5,219.0,228.0,218.5,232.0,218.5,236.0,219.0,239.5,220.0,243.0,220.0,247.5,220.0,251.0,219.5,255.0,219.5,259.5,219.5,263.5,220.0,268.0,221.0,272.5,221.0,277.0,218.5,281.0,221.5,282.0,222.0,286.0,219.0,291.0" stroke="black" stroke-width="2" fill="none" />
<polyline points="223.0,294.0,223.5,298.0,223.0,304.0,223.5,308.0,220.5,310.5,220.0,314.5,220.0,316.0" stroke="black" stroke-width="2" fill="none" />
<polyline points="222.0,311.0,224.0,313.5,224.5,317.5,226.0,323.0,224.5,327.0,230.0,332.5,232.5,332.0,239.0,332.0" stroke="black" stroke-width="2" fill="none" />
<polyline points="228.0,331.0,224.5,329.0" stroke="black" stroke-width="2" fill="none" />
<polyline points="223.0,330.0,227.0,332.0" stroke="black" stroke-width="2" fill="none" />
<polyline points="225.5,301.0,222.0,300.0" stroke="black" stroke-width="2" fill="none" />
<polyline points="205.5,298.0,205.5,301.5,205.5,305.5,203.5,309.5,203.5,312.0,205.0,307.5" stroke="black" stroke-width="2" fill="none" />
<polyline points="197.5,316.5,197.5,319.0,202.0,322.0,201.0,327.0,204.0,326.5,204.5,329.0,207.5,325.0,211.5,327.0,215.5,328.5,219.0,329.0,220.5,322.5,225.0,322.0" stroke="black" stroke-width="2" fill="none" />
<polyline points="217.0,331.0,221.0,332.0,223.0,327.5,222.5,325.5,221.0,326.0,222.5,322.0,221.5,320.5,222.5,316.0,222.5,312.0,222.0,308.0,221.5,304.0,221.0,300.0,221.0,295.5,220.0,295.5,221.0,292.0,220.5,288.0,218.0,288.0,220.0,284.0,220.5,280.5,220.5,276.5,220.0,274.5,220.5,270.5,220.0,266.5,219.5,262.5,219.0,259.0,219.0,255.0,217.5,251.0,217.0,247.0,215.0,246.5,216.0,243.5,214.0,239.5,214.5,238.0,214.0,234.0,214.5,230.0,215.5,225.5,214.0,221.5,212.0,219.5,214.5,215.5,214.5,211.5,214.0,207.5,214.0,205.0,211.0,201.0,206.0,199.0,203.5,202.0,204.0,198.0,204.5,194.0,203.5,190.5,204.5,187.0,205.0,184.0,205.0,180.0,207.5,178.5,208.5,174.5,206.5,173.5" stroke="black" stroke-width="2" fill="none" />
<polyline points="207.0,177.5,211.0,176.0,212.0,177.5,215.0,178.0,216.5,174.5" stroke="black" stroke-width="2" fill="none" />
<polyline points="214.5,167.5,212.5,165.5,208.5,162.0" stroke="black" stroke-width="2" fill="none" />
<polyline points="207.5,160.0,210.5,163.5,208.5,167.5,207.5,172.0,205.0,173.5,208.0,177.5,208.5,181.5,205.5,181.0,205.5,185.0,205.0,189.5,205.5,193.0,205.0,197.5" stroke="black" stroke-width="2" fill="none" />
<polyline points="206.5,188.5,207.0,185.0,207.0,181.0,207.0,185.0" stroke="black" stroke-width="2" fill="none" />
<polyline points="208.5,188.5,210.0,192.0,209.0,194.5,208.0,194.5,206.5,190.0,211.0,187.5,210.0,183.5,210.5,179.5,206.5,178.5" stroke="black" stroke-width="2" fill="none" />
<polyline points="201.0,178.5,198.5,182.0,201.0,178.0,202.0,183.5" stroke="black" stroke-width="2" fill="none" />
<polyline points="198.5,176.0,195.0,181.0,191.0,185.0,187.0,187.5,183.0,189.5,178.5,190.5,174.5,191.0,170.5,191.0,166.5,190.5,162.5,189.0,157.0,185.5,157.0,183.5,153.0,182.0" stroke="black" stroke-width="2" fill="none" />
<polyline points="158.0,183.0,154.0,183.0,150.0,181.5,148.0,179.0" stroke="black" stroke-width="2" fill="none" />
<polyline points="147.0,176.5,150.0,179.0,154.0,183.0,156.5,185.0,161.0,189.0,162.5,191.0,166.5,192.0,170.0,192.5,174.0,192.0,178.0,192.0,181.5,190.5,186.0,189.5,191.0,187.0,195.5,183.0,199.0,177.5" stroke="black" stroke-width="2" fill="none" />
<polyline points="197.0,177.0,193.0,182.0,190.5,184.5,185.5,188.5,181.0,189.5,176.5,190.0,172.5,190.0,170.5,188.0,166.5,188.0,162.5,187.5,158.5,189.0,154.5,186.0,151.0,182.0,147.0,176.0" stroke="black" stroke-width="2" fill="none" />
<polyline points="144.5,170.5,148.5,168.5,153.0,169.5,157.0,167.0,158.5,161.5,162.5,162.0,163.0,164.5,169.0,164.0,173.0,164.5,177.0,164.5,181.5,162.5,184.0,160.0,188.0,161.0" stroke="black" stroke-width="2" fill="none" />
<polyline points="185.0,162.0,184.0,163.5,182.0,165.5" stroke="black" stroke-width="2" fill="none" />
<polyline points="178.5,165.0,177.5,169.0" stroke="black" stroke-width="2" fill="none" />
<polyline points="187.5,166.0,187.5,162.5,186.5,160.0,187.0,156.0,185.5,153.0,181.5,154.5" stroke="black" stroke-width="2" fill="none" />
<polyline points="184.0,160.0,183.5,160.0,183.0,164.5,180.5,164.5,180.0,167.5,178.0,171.5" stroke="black" stroke-width="2" fill="none" />
<polyline points="171.5,173.5,167.5,172.5" stroke="black" stroke-width="2" fill="none" />
<polyline points="166.5,169.0,170.5,167.5" stroke="black" stroke-width="2" fill="none" />
<polyline points="167.0,158.0,171.0,158.0,175.0,158.5,176.5,162.0,178.0,159.0" stroke="black" stroke-width="2" fill="none" />
<polyline points="179.5,153.5,175.5,153.5,171.5,152.5,167.5,152.5,161.0,152.5,156.5,153.0" stroke="black" stroke-width="2" fill="none" />
<polyline points="155.0,158.0,159.0,156.5,163.0,157.0,167.0,155.0,168.0,152.5,172.0,153.0,174.0,154.5,178.0,155.5,182.0,157.5,186.0,157.5,190.0,156.0" stroke="black" stroke-width="2" fill="none" />
<polyline points="199.5,159.0,199.0,163.0,199.0,167.5,199.5,171.5,198.5,175.5,195.0,179.5,192.5,182.5,187.5,186.5,184.0,186.5,182.5,188.0,185.5,183.5" stroke="black" stroke-width="2" fill="none" />
<polyline points="188.0,189.5,192.5,185.5" stroke="black" stroke-width="2" fill="none" />
<polyline points="187.5,198.0,191.5,200.5" stroke="black" stroke-width="2" fill="none" />
<polyline points="192.0,201.0,190.0,198.0,189.0,197.0,189.0,191.5,197.5,188.0,196.0,186.5,196.5,183.5,199.0,179.0,202.0,175.0,203.0,171.0,204.5,166.5,203.5,164.0,204.0,160.0,203.5,156.5,202.0,154.0" stroke="black" stroke-width="2" fill="none" />
<polyline points="205.0,157.5,204.5,161.5,207.5,165.5,208.5,167.0,204.0,169.5,204.0,173.5,204.0,176.0,201.0,180.0,202.0,182.0,201.5,186.0,201.5,188.5,202.0,192.5,202.0,196.5,202.0,201.0,205.0,207.5,206.5,210.5,203.5,214.5,201.0,219.0,200.0,223.0,199.0,227.0,199.0,231.0,199.0,235.0,197.5,239.5,198.0,243.5,194.0,244.0,196.5,240.0,198.0,242.0" stroke="black" stroke-width="2" fill="none" />
<polyline points="196.0,243.0,197.0,237.0,196.0,237.0" stroke="black" stroke-width="2" fill="none" />
<polyline points="199.5,226.5,199.5,228.0,199.0,232.0,199.0,236.0,198.5,238.0,197.5,242.0,197.0,244.0,201.0,243.5,200.5,248.0,200.0,251.0,201.0,255.5,201.0,259.5,201.0,263.5,201.5,267.5,200.5,271.5,200.5,275.5,202.0,271.5,202.5,275.0,202.5,278.5,202.5,282.0,204.0,284.5,203.5,289.0,204.0,292.0,204.5,296.0,202.5,300.5,203.0,304.5,205.0,309.5,205.5,313.5,205.5,317.5,205.0,321.5,204.0,328.0,209.0,328.5,209.5,331.5" stroke="black" stroke-width="2" fill="none" />
<polyline points="199.0,327.0,195.0,322.5" stroke="black" stroke-width="2" fill="none" />
<polyline points="212.0,330.5,214.0,330.0,213.0,328.5,207.5,325.5,207.0,323.5,208.0,319.5,208.0,315.5,207.5,311.0,207.5,307.5,207.5,304.0,206.0,300.0,206.0,296.5,205.5,292.0,205.0,288.0,205.0,284.0,204.5,280.0,203.5,276.0,203.5,272.0,203.5,268.0,203.5,263.5,203.0,259.0,203.0,255.0,203.0,251.0,202.5,247.0,202.0,243.0,201.5,238.5,202.0,234.5,202.0,231.0,201.5,227.0,202.5,223.0,203.0,219.5,205.0,215.5,208.0,211.5,204.0,209.0,199.5,211.0,195.5,211.5" stroke="black" stroke-width="2" fill="none" />
<polyline points="196.5,213.0,200.5,214.0,200.5,218.5,199.0,222.5,203.0,218.5,207.0,213.5,210.0,208.0" stroke="black" stroke-width="2" fill="none" />
<polyline points="206.0,206.5,205.5,210.5,201.0,215.0" stroke="black" stroke-width="2" fill="none" />
<polyline points="212.5,221.0,213.0,226.0,213.0,230.0" stroke="black" stroke-width="2" fill="none" />
<polyline points="215.5,246.5,215.0,250.5,216.5,254.5,216.5,259.0,216.5,264.0,216.5,268.0,217.0,272.5,217.5,276.5,217.5,281.0,217.5,284.5" stroke="black" stroke-width="2" fill="none" />
<polyline points="197.0,292.0,192.5,295.0" stroke="black" stroke-width="2" fill="none" />
<polyline points="202.5,291.5,202.5,288.0,198.0,285.5,195.0,286.0,194.0,284.0,194.5,281.0,190.5,278.5" stroke="black" stroke-width="2" fill="none" />
<polyline points="188.5,277.5,192.5,286.0,198.0,291.5" stroke="black" stroke-width="2" fill="none" />
<polyline points="187.5,286.5,186.5,281.5" stroke="black" stroke-width="2" fill="none" />
<polyline points="186.0,279.0,188.5,281.0,191.0,284.5,192.0,288.0,192.0,292.0,192.0,296.0,192.0,300.0,193.0,303.5,194.0,307.5,194.0,311.5,194.0,315.0,194.5,319.0,194.5,323.0,194.5,326.5,193.5,330.5" stroke="black" stroke-width="2" fill="none" />
<polyline points="218.0,329.5,219.0,326.0,219.0,322.5,219.5,318.5,219.5,314.5,219.5,311.0,218.5,307.0,218.5,303.0,218.0,299.0,218.0,295.0,216.5,291.0,216.5,287.0,217.0,283.0,216.5,279.0,216.0,275.0,215.0,271.0,215.0,267.0,215.5,263.0,214.5,259.0,214.5,255.5,214.5,251.5,214.5,247.5,214.5,243.5,213.5,239.0,213.0,235.0,212.0,231.0,212.0,227.0,211.5,223.0,210.5,219.5,210.5,215.5,210.5,212.0,209.5,210.5,212.0,206.5,212.5,203.5,215.0,199.5,215.5,195.0,216.0,191.0,216.0,186.5,218.0,182.0,218.5,178.5,219.0,174.5,218.5,170.5,216.0,164.5,216.0,161.0,216.0,158.5,215.0,158.5,208.0,155.0,206.5,150.5,206.5,148.0,200.0,145.0,199.0,142.0,199.0,138.0,198.5,133.5,198.0,129.5,198.0,125.0,197.5,124.0,193.5,121.5,195.0,117.5,198.5,112.5,192.5,112.0,193.0,111.5" stroke="black" stroke-width="2" fill="none" />
<polyline points="189.5,111.5,187.5,115.0" stroke="black" stroke-width="2" fill="none" />
<polyline points="189.5,114.0,193.5,113.5,197.5,111.0" stroke="black" stroke-width="2" fill="none" />
<polyline points="197.5,121.0,193.5,121.0" stroke="black" stroke-width="2" fill="none" />
<polyline points="186.5,122.0,182.5,121.0" stroke="black" stroke-width="2" fill="none" />
<polyline points="183.0,121.5,183.0,125.5,181.0,131.5,185.0,132.0,189.0,131.5,193.5,132.5,196.0,131.0,199.0,137.0,200.5,139.0" stroke="black" stroke-width="2" fill="none" />
<polyline points="206.5,144.0,210.5,143.5,210.0,144.0,211.0,144.5,211.0,150.0,215.5,150.5,215.5,156.5" stroke="black" stroke-width="2" fill="none" />
<polyline points="211.0,158.0,211.5,162.0,214.5,167.5,215.0,171.5,210.0,173.5,214.5,179.0,215.0,183.0,216.5,182.0" stroke="black" stroke-width="2" fill="none" />
<polyline points="215.5,186.5,217.0,182.5,218.0,178.5,217.0,174.5,215.0,169.5,214.5,165.5,213.5,162.5,213.5,158.5,210.0,157.5,209.5,153.0,209.0,152.0,209.0,148.0,205.0,148.5,201.0,145.5,197.0,141.5,193.0,139.0,189.0,137.0,185.0,138.5,181.0,138.5,181.0,135.0,178.0,136.5,174.0,135.0,169.5,133.0,165.0,134.0,162.0,139.0,159.5,136.0,155.5,135.0,151.5,136.5,147.5,139.5,144.0,141.0,143.5,140.0,138.0,142.5,134.0,140.0,130.5,138.0,126.5,140.0,123.0,140.0,122.5,137.5,118.5,138.5,119.5,142.5,115.5,143.5,112.0,149.5,110.5,146.0,106.5,140.0,102.5,137.5,98.5,138.5,93.0,137.5,90.5,137.0,90.0,139.5,89.0,137.5,87.5,137.0,84.5,134.0,80.5,134.0" stroke="black" stroke-width="2" fill="none" />
<polyline points="79.5,131.5,83.5,131.5,87.0,132.5,90.5,133.5,89.0,139.0,90.5,140.0" stroke="black" stroke-width="2" fill="none" />
<polyline points="93.0,135.0,89.0,133.0" stroke="black" stroke-width="2" fill="none" />
<polyline points="87.5,131.0,92.0,132.5,93.0,134.0,92.5,138.0" stroke="black" stroke-width="2" fill="none" />
<polyline points="94.0,135.5,98.0,134.5" stroke="black" stroke-width="2" fill="none" />
<polyline points="99.5,137.0,98.5,140.5,97.5,142.0,100.5,141.5,101.0,140.5,104.5,141.0,106.5,144.5" stroke="black" stroke-width="2" fill="none" />
<polyline points="105.5,141.0,108.5,145.0,111.0,148.5,111.5,153.0,113.0,153.0,112.0,157.0,108.0,160.0,110.5,163.5,112.0,164.0,106.5,167.5,110.5,167.0,113.0,162.5,116.5,160.0,119.0,159.0" stroke="black" stroke-width="2" fill="none" />
<polyline points="117.0,166.0,115.5,170.5,116.5,174.5,116.5,175.5,118.0,179.5,116.5,182.0,121.5,178.5,125.5,174.5,128.5,178.0,134.5,179.0,141.5,179.5,142.5,180.5,144.5,185.0,147.0,179.5,150.0,184.5,151.5,186.5,154.0,189.5,154.5,195.5,158.5,193.0,162.5,194.0,166.5,194.5" stroke="black" stroke-width="2" fill="none" />
<polyline points="165.0,200.0,163.5,201.5,161.0,199.5,158.5,197.5,155.5,194.0,156.5,194.0,154.5,191.0,153.0,190.0,151.5,186.0,149.5,182.0,147.0,177.5,147.0,174.5,143.0,175.5,138.5,168.0" stroke="black" stroke-width="2" fill="none" />
<polyline points="135.5,167.5,139.5,167.0,140.5,171.0,142.5,175.0,144.5,179.5,140.0,179.0,142.5,183.0,143.5,187.0,144.5,187.5,145.0,190.0,146.0,185.5" stroke="black" stroke-width="2" fill="none" />
<polyline points="146.5,187.5,150.5,187.5,153.0,189.0" stroke="black" stroke-width="2" fill="none" />
<polyline points="159.0,195.0,155.0,197.0,151.5,199.0,148.5,197.0,144.0,198.5,142.5,196.5,140.0,198.5,140.0,201.5,136.0,201.0,133.0,202.0,127.5,198.5,124.0,199.0,122.5,201.0,118.5,200.0,118.5,202.0,113.5,199.0,107.5,199.5,106.0,197.5,104.5,192.0,104.0,187.0,102.5,185.5,100.5,189.0" stroke="black" stroke-width="2" fill="none" />
<polyline points="99.5,189.0,92.0,193.5" stroke="black" stroke-width="2" fill="none" />
<polyline points="99.5,195.0,99.0,199.0,103.0,203.0,101.5,208.0,100.5,212.5,96.0,213.5,103.0,212.0" stroke="black" stroke-width="2" fill="none" />
<polyline points="104.0,205.5,103.0,201.0" stroke="black" stroke-width="2" fill="none" />
<polyline points="105.0,199.5,109.0,201.5,113.0,201.5,117.0,202.0,119.0,201.0" stroke="black" stroke-width="2" fill="none" />
<polyline points="117.5,198.0,111.5,195.0,107.5,196.5,107.0,197.5" stroke="black" stroke-width="2" fill="none" />
<polyline points="106.0,192.0,104.0,193.5,99.5,195.0,95.5,196.5,91.0,200.5,86.0,204.0,82.5,206.0,78.5,204.5" stroke="black" stroke-width="2" fill="none" />
<polyline points="84.0,200.0,88.5,206.0,89.5,205.0" stroke="black" stroke-width="2" fill="none" />
<polyline points="89.5,209.5,93.5,209.5" stroke="black" stroke-width="2" fill="none" />
<polyline points="97.5,211.0,95.5,213.5,91.5,215.5,87.5,214.5" stroke="black" stroke-width="2" fill="none" />
<polyline points="92.5,215.0,87.0,216.0,88.5,220.0,88.0,223.5,83.5,224.0,82.5,228.5,84.0,224.0,86.0,220.0,86.5,223.0,90.5,223.5" stroke="black" stroke-width="2" fill="none" />
<polyline points="94.0,237.0,100.5,237.0,104.5,241.5,106.0,242.0,111.5,241.0,112.0,243.0" stroke="black" stroke-width="2" fill="none" />
<polyline points="108.0,235.0,109.0,234.0,113.0,234.0,117.0,232.5,121.0,233.0,125.0,235.0,126.0,236.0,129.5,234.0,133.5,233.0,137.5,233.0" stroke="black" stroke-width="2" fill="none" />
<polyline points="140.5,237.0,141.0,239.0,144.0,235.0,140.0,237.0,142.5,239.0,141.5,236.0,145.5,236.0,147.0,238.5,151.0,237.5,155.0,237.5,158.5,236.0,162.5,237.5,164.0,238.5,168.5,238.0,172.5,238.0" stroke="black" stroke-width="2" fill="none" />
<polyline points="180.5,237.0,181.0,236.5,180.5,240.5" stroke="black" stroke-width="2" fill="none" />
<polyline points="182.5,227.5,182.0,228.0,183.0,223.5,178.5,226.5" stroke="black" stroke-width="2" fill="none" />
<polyline points="181.0,223.5,179.0,222.0,175.0,219.5,173.5,216.5" stroke="black" stroke-width="2" fill="none" />
<polyline points="172.5,213.0,176.5,212.5,178.0,217.5" stroke="black" stroke-width="2" fill="none" />
<polyline points="173.0,211.0,173.5,209.5,173.0,208.0,173.5,211.5,171.5,212.0,173.5,216.5,177.5,217.0,178.0,220.0,177.0,222.5,179.0,226.0,176.0,228.5,176.0,232.5,174.0,237.0,175.5,238.0" stroke="black" stroke-width="2" fill="none" />
<polyline points="154.5,239.0,151.0,238.5,145.5,240.0,144.5,242.5,145.5,238.5,142.0,237.0" stroke="black" stroke-width="2" fill="none" />
<polyline points="147.0,234.0,142.5,234.0,139.0,235.0,135.0,236.5,131.0,237.5,127.0,237.5" stroke="black" stroke-width="2" fill="none" />
<polyline points="120.5,236.5,116.5,236.0,115.5,239.5,111.5,240.0,107.5,240.0,103.5,237.5,99.0,237.0,95.0,235.5,90.0,234.5,86.0,236.0,82.0,235.0,78.0,233.0,76.5,237.0,76.5,237.0,75.5,233.0,77.0,229.5,78.5,225.5,76.0,223.0,78.5,219.0,79.0,213.0,82.5,208.5,79.5,206.0,79.5,212.5" stroke="black" stroke-width="2" fill="none" />
<polyline points="81.5,222.5,77.0,223.5,77.0,227.5,73.5,227.0,73.0,230.5" stroke="black" stroke-width="2" fill="none" />
<polyline points="70.5,229.0,74.0,226.5,71.5,230.5,74.0,234.5" stroke="black" stroke-width="2" fill="none" />
<polyline points="69.0,226.5,70.5,227.5,70.0,228.5,71.0,232.5,72.5,231.5,78.5,238.5,81.5,236.5,84.0,239.0,86.0,239.5" stroke="black" stroke-width="2" fill="none" />
<polyline points="88.5,239.5,85.0,237.5,83.5,244.0,80.0,244.0" stroke="black" stroke-width="2" fill="none" />
<polyline points="93.5,270.0,98.0,270.5" stroke="black" stroke-width="2" fill="none" />
<polyline points="117.0,255.0,121.0,255.0,125.0,255.0,126.5,255.0,130.5,257.0,135.5,256.5,139.5,254.5" stroke="black" stroke-width="2" fill="none" />
<polyline points="133.5,254.5,135.0,253.5,133.5,258.0" stroke="black" stroke-width="2" fill="none" />
<polyline points="132.5,251.0,137.0,249.0,137.0,250.0" stroke="black" stroke-width="2" fill="none" />
<polyline points="128.5,257.0,124.5,256.5" stroke="black" stroke-width="2" fill="none" />
<polyline points="132.5,273.0,136.5,273.0" stroke="black" stroke-width="2" fill="none" />
<polyline points="146.0,273.0,147.0,274.0" stroke="black" stroke-width="2" fill="none" />
<polyline points="126.5,286.5,123.0,289.5" stroke="black" stroke-width="2" fill="none" />
<polyline points="114.0,291.5,115.0,288.0,115.0,292.5,111.0,291.5" stroke="black" stroke-width="2" fill="none" />
<polyline points="121.5,310.5,120.5,314.0,116.5,314.5" stroke="black" stroke-width="2" fill="none" />
<polyline points="100.5,312.5,104.5,315.5,108.0,317.0,112.0,319.0,112.5,321.0,116.5,322.0,120.5,321.0,125.0,319.0,126.0,320.5,130.5,320.0,134.5,319.0,138.5,318.5,142.0,318.0,146.0,317.0,150.0,315.0,154.5,314.0,158.0,312.0,161.5,308.0,166.0,306.0,168.5,303.0,172.5,302.5" stroke="black" stroke-width="2" fill="none" />
<polyline points="172.5,306.5,170.0,307.0,171.0,306.5,172.5,302.0,172.0,300.5,174.0,297.0,177.0,293.5,179.5,289.5,181.5,286.0,181.5,282.0,181.5,278.0,185.0,275.5,181.0,272.0,181.0,274.0" stroke="black" stroke-width="2" fill="none" />
<polyline points="182.5,274.5,186.5,276.5,186.5,280.5,187.5,281.5,188.5,285.0,189.0,289.0,185.5,292.0,184.5,292.5,188.5,288.5" stroke="black" stroke-width="2" fill="none" />
<polyline points="182.0,289.0,183.0,293.0,179.5,296.0,180.0,292.5" stroke="black" stroke-width="2" fill="none" />
<polyline points="181.0,290.0,178.5,293.0,174.5,298.5,170.5,301.0,166.5,304.5,168.5,307.0,166.0,301.0,167.5,297.0,169.0,293.5,170.5,292.0" stroke="black" stroke-width="2" fill="none" />
<polyline points="170.0,293.5,170.5,290.5,170.0,294.5,169.0,299.0,171.5,298.0,174.0,295.5,177.0,292.0" stroke="black" stroke-width="2" fill="none" />
<polyline points="164.5,298.0,164.5,298.5,163.5,301.0,163.0,305.0,156.5,308.5,152.5,313.5,149.0,317.0,147.0,316.0,149.0,319.0,154.5,319.0" stroke="black" stroke-width="2" fill="none" />
<polyline points="152.5,318.5,155.0,317.5,154.5,314.0,158.5,312.0,162.5,308.5,166.0,307.0,168.5,302.5,170.5,298.0,173.0,296.0,176.0,292.0,178.5,288.0,179.5,284.0,181.0,279.5,181.0,276.0,182.0,275.5,177.5,275.0" stroke="black" stroke-width="2" fill="none" />
<polyline points="178.5,266.0,179.0,269.5,176.0,273.5,173.5,277.5,176.5,275.5,180.0,269.0,182.5,263.5,184.5,263.0" stroke="black" stroke-width="2" fill="none" />
<polyline points="187.5,260.0,187.0,264.0,187.5,268.0,187.0,271.5,189.0,275.5,190.5,276.0,192.5,279.5,193.5,284.0,197.5,286.5,198.5,288.0,195.0,291.0,197.0,292.5,193.5,299.5,195.0,304.5,195.5,307.0,195.0,312.0,197.0,315.5,194.5,317.0,195.0,321.0,197.0,325.0,200.5,329.0,203.5,329.0,207.5,328.5,212.0,328.0" stroke="black" stroke-width="2" fill="none" />
<polyline points="163.0,312.5,159.0,312.5" stroke="black" stroke-width="2" fill="none" />
<polyline points="158.0,312.5,162.0,312.5,162.0,314.0,162.5,316.0" stroke="black" stroke-width="2" fill="none" />
<polyline points="159.5,307.5,155.5,310.5,155.0,311.5,155.5,307.5" stroke="black" stroke-width="2" fill="none" />
<polyline points="146.5,326.0,142.5,326.5" stroke="black" stroke-width="2" fill="none" />
<polyline points="141.5,327.5,145.5,328.0" stroke="black" stroke-width="2" fill="none" />
<polyline points="144.0,327.5,139.5,328.0,134.5,329.0,135.0,328.0,137.5,327.0" stroke="black" stroke-width="2" fill="none" />
<polyline points="138.0,322.5,134.0,323.5,131.0,324.5,130.0,326.0,126.0,327.0,123.5,331.0,124.5,327.5,127.0,329.0" stroke="black" stroke-width="2" fill="none" />
<polyline points="113.0,327.0,111.5,321.5,107.5,319.5,104.0,318.5,99.5,317.0,100.0,317.5,96.0,316.0,92.0,313.5,88.0,313.0,84.0,310.0" stroke="black" stroke-width="2" fill="none" />
<polyline points="86.5,309.0,91.5,314.5,90.5,316.5" stroke="black" stroke-width="2" fill="none" />
<polyline points="92.5,322.0,97.0,321.5,101.0,322.0,103.0,317.5,107.0,319.0,108.5,323.0,113.0,325.5" stroke="black" stroke-width="2" fill="none" />
<polyline points="105.0,321.0,101.5,323.0,97.5,323.0,93.5,323.0" stroke="black" stroke-width="2" fill="none" />
<polyline points="70.5,312.5,67.0,313.0" stroke="black" stroke-width="2" fill="none" />
<polyline points="60.5,314.5,64.5,314.0,68.0,307.5,69.0,306.0,73.0,308.5,76.5,308.0" stroke="black" stroke-width="2" fill="none" />
<polyline points="74.5,309.5,73.0,308.0,72.5,306.0,69.0,304.5,63.0,302.0" stroke="black" stroke-width="2" fill="none" />
<polyline points="63.0,303.0,67.0,302.5,67.5,305.5" stroke="black" stroke-width="2" fill="none" />
<polyline points="60.5,308.5,60.0,303.5,63.5,299.0,64.0,298.0,62.0,296.0,57.5,297.0" stroke="black" stroke-width="2" fill="none" />
<polyline points="52.0,302.5,56.0,303.0,58.5,306.5" stroke="black" stroke-width="2" fill="none" />
<polyline points="51.0,306.0,51.0,304.5,50.0,304.0,51.5,307.0,51.0,311.0,47.5,315.5,49.5,320.0,49.5,324.5,53.5,328.0,54.5,329.5,57.0,326.5,61.0,325.5,61.5,328.0,65.5,327.0,66.5,326.5,60.5,327.5,62.5,330.5" stroke="black" stroke-width="2" fill="none" />
<polyline points="50.0,326.0,48.0,327.0,48.0,323.5,47.0,327.5,47.5,326.0,49.5,319.5" stroke="black" stroke-width="2" fill="none" />
<polyline points="48.0,313.5,51.0,310.0" stroke="black" stroke-width="2" fill="none" />
<polyline points="45.5,301.0,45.0,305.0,45.0,308.5,44.5,312.5,44.0,316.5,44.0,320.5,44.0,324.5,44.0,328.5,43.0,332.5,46.5,332.5" stroke="black" stroke-width="2" fill="none" />
<polyline points="53.5,331.0,50.5,331.5,47.0,331.5,45.5,328.0,46.5,324.0,47.0,320.0,46.0,316.5,46.0,312.5,45.5,308.5,46.0,304.5,46.0,301.0,47.0,297.5,47.0,294.0,45.5,292.5,44.5,288.5,45.5,284.5,48.0,284.0,47.0,280.5,43.5,285.0" stroke="black" stroke-width="2" fill="none" />
<polyline points="48.0,285.5,47.5,289.0,46.5,290.0,48.0,292.5,50.5,296.0,50.0,298.5,55.5,298.5,58.5,301.5,58.5,304.0,63.5,299.5,61.0,297.0,65.0,295.0" stroke="black" stroke-width="2" fill="none" />
<polyline points="74.0,301.0,78.0,305.0,77.0,306.5,74.0,308.0,82.0,310.0,89.0,314.0,88.5,317.5,86.5,318.5" stroke="black" stroke-width="2" fill="none" />
<polyline points="90.5,312.0,86.5,309.5,82.5,309.0,77.5,310.0,74.5,311.5,72.5,313.0,72.0,319.0,71.0,319.0,71.5,315.0,74.0,313.5,71.5,313.0,66.5,311.0,65.5,307.5,65.0,304.0,68.0,299.0,63.5,296.5,58.0,295.5,56.5,291.5,55.5,287.0,54.0,283.0,53.0,279.0,53.0,275.0,53.0,271.0,55.5,265.0,55.5,264.5" stroke="black" stroke-width="2" fill="none" />
<polyline points="57.5,264.0,57.5,263.0" stroke="black" stroke-width="2" fill="none" />
<polyline points="53.0,267.5,53.0,272.5,56.5,270.0" stroke="black" stroke-width="2" fill="none" />
<polyline points="56.0,272.5,52.0,272.0" stroke="black" stroke-width="2" fill="none" />
<polyline points="49.5,275.0,49.5,277.5,49.0,278.0,49.0,281.5,51.5,283.0,53.0,287.0,55.5,291.0,56.5,293.0,60.0,294.0,64.5,297.5,67.0,300.0,71.0,302.5,73.5,307.5,77.5,307.5,81.5,306.5" stroke="black" stroke-width="2" fill="none" />
<polyline points="57.0,280.0,52.5,282.0" stroke="black" stroke-width="2" fill="none" />
<polyline points="49.5,281.0,53.5,288.5" stroke="black" stroke-width="2" fill="none" />
<polyline points="46.0,277.0,50.0,272.0,53.0,273.5,54.0,278.0,55.0,282.0,57.0,286.0,56.5,284.0,59.5,291.5,62.0,294.0,66.0,292.5,68.0,295.0,68.5,298.5,72.5,299.0,75.0,302.5,77.0,303.5" stroke="black" stroke-width="2" fill="none" />
<polyline points="49.5,260.5,46.0,259.5,42.0,255.0" stroke="black" stroke-width="2" fill="none" />
<polyline points="44.0,254.5,47.5,258.5,54.5,263.0,57.5,260.0" stroke="black" stroke-width="2" fill="none" />
<polyline points="51.5,253.5,50.5,249.5,49.0,247.0" stroke="black" stroke-width="2" fill="none" />
<polyline points="44.0,254.5,47.5,256.5" stroke="black" stroke-width="2" fill="none" />
<polyline points="45.0,255.5,49.0,259.0" stroke="black" stroke-width="2" fill="none" />
<polyline points="51.5,251.0,51.0,247.5,49.5,243.5,43.0,240.0,39.0,240.0" stroke="black" stroke-width="2" fill="none" />
<polyline points="40.0,240.5,44.0,241.5,49.0,241.5" stroke="black" stroke-width="2" fill="none" />
<polyline points="50.0,231.5,45.5,231.5" stroke="black" stroke-width="2" fill="none" />
<polyline points="47.0,228.5,48.0,232.5,50.5,236.0,48.0,237.0,47.0,242.0,48.5,246.5,48.5,250.5,49.0,255.0,49.0,261.5,51.5,266.5,55.0,269.0,56.0,273.0,57.0,276.0,55.5,279.0,57.0,276.5" stroke="black" stroke-width="2" fill="none" />
<polyline points="46.0,259.5,42.0,256.0,37.0,256.0" stroke="black" stroke-width="2" fill="none" />
<polyline points="39.0,255.5,40.5,260.0" stroke="black" stroke-width="2" fill="none" />
<polyline points="42.5,262.0,43.0,259.5,40.0,255.5,40.0,252.5,36.0,251.5" stroke="black" stroke-width="2" fill="none" />
<polyline points="35.5,249.5,36.5,248.5,38.5,253.5,42.5,256.0,46.0,260.0" stroke="black" stroke-width="2" fill="none" />
<polyline points="50.5,254.0,46.0,252.0,44.0,249.0,39.0,247.0,38.0,241.0,34.0,239.5" stroke="black" stroke-width="2" fill="none" />
<polyline points="31.0,236.0,34.0,239.5,34.0,243.0,34.5,247.0,35.0,251.0,34.0,255.0,34.5,259.5,34.0,263.5,34.0,267.5,33.5,271.5,32.0,276.0,29.5,280.0,29.5,284.0,29.5,288.5,29.0,292.5,29.0,296.5,29.0,300.5,29.0,304.5,30.0,309.0,28.0,315.0,27.5,317.5,30.5,314.5" stroke="black" stroke-width="2" fill="none" />
<polyline points="32.5,309.0,28.5,311.0,24.5,313.5,19.0,316.0,15.0,319.5,11.0,322.0,6.5,324.0,2.5,326.0,2.5,326.0,9.5,322.0,14.0,318.0,20.5,314.0" stroke="black" stroke-width="2" fill="none" />
<polyline points="23.0,313.5,21.5,317.5,17.5,320.5,12.5,324.5" stroke="black" stroke-width="2" fill="none" />
<polyline points="7.5,325.5,11.5,325.5,15.5,321.0,19.0,318.5,24.5,314.5,28.5,313.0,32.5,310.5,37.0,307.0,41.0,302.0,44.5,298.5" stroke="black" stroke-width="2" fill="none" />
<polyline points="31.5,306.0,31.0,302.0,31.5,298.0,31.5,294.0,32.0,289.5,32.0,285.5,32.0,281.5,32.5,279.0,29.5,283.0,24.5,286.0,25.0,293.0,23.5,291.5,26.0,288.0,28.0,284.0,28.5,280.0,28.5,274.5,29.0,270.5,29.0,266.5,29.5,262.5,29.5,259.0,29.5,254.5,29.5,250.5,29.5,246.0,29.0,242.0,24.5,245.5,25.5,241.5,23.5,237.0,25.5,233.0,26.5,228.5,22.5,231.5" stroke="black" stroke-width="2" fill="none" />
<polyline points="22.5,234.0,26.5,231.0,31.0,228.5,35.5,229.0" stroke="black" stroke-width="2" fill="none" />
<polyline points="33.5,231.0,37.5,229.5,41.5,228.5" stroke="black" stroke-width="2" fill="none" />
<polyline points="40.5,234.0,41.5,236.0,42.5,232.0,39.0,233.5,34.5,234.5" stroke="black" stroke-width="2" fill="none" />
<polyline points="33.0,233.5,37.5,240.0,36.5,244.5,37.0,248.5,37.0,253.0,37.5,257.5,37.5,261.0,42.5,260.0" stroke="black" stroke-width="2" fill="none" />
<polyline points="33.0,270.5,33.0,267.0,33.0,263.0,33.0,259.0,33.5,254.5,33.0,250.5,33.0,246.5,33.0,242.5,33.0,238.5,27.5,237.0" stroke="black" stroke-width="2" fill="none" />
<polyline points="26.5,240.0,27.5,238.0,27.0,242.0" stroke="black" stroke-width="2" fill="none" />
<polyline points="32.0,228.0,36.0,229.0,33.5,231.0,31.5,235.0,31.5,237.0,31.0,241.0,30.5,245.0,30.5,249.0,30.0,253.5,30.0,258.0,30.0,262.0,30.0,266.0,30.0,269.5,29.5,273.0,31.0,273.5" stroke="black" stroke-width="2" fill="none" />
<polyline points="32.0,278.0,33.5,282.5,33.0,286.5,33.0,290.5,33.5,294.0,34.0,298.0,34.0,302.0,34.0,306.0,31.5,310.0" stroke="black" stroke-width="2" fill="none" />
<polyline points="30.0,225.0,34.0,225.0" stroke="black" stroke-width="2" fill="none" />
<polyline points="36.5,219.0,36.5,223.0,37.0,227.0,43.0,228.0,43.5,231.5,44.0,235.0,45.0,237.0,43.5,241.0,41.5,245.0" stroke="black" stroke-width="2" fill="none" />
<polyline points="39.0,211.5,38.5,210.0,37.5,208.5,40.5,207.0,40.0,203.5,39.0,200.0,37.5,199.5,37.0,195.5,38.0,193.5,37.5,191.5,39.0,188.5,35.5,185.5,37.5,182.0,37.5,178.0,37.0,175.0,39.5,171.0,40.0,167.0,41.0,163.5,43.5,159.0,44.5,155.0,48.0,153.5,51.0,150.0,47.0,150.0" stroke="black" stroke-width="2" fill="none" />
<polyline points="44.5,150.5,49.0,149.5,53.0,148.0,53.5,149.5,58.5,143.5,61.0,143.0,63.0,140.5" stroke="black" stroke-width="2" fill="none" />
<polyline points="66.0,141.0,63.5,143.5,65.5,142.5" stroke="black" stroke-width="2" fill="none" />
<polyline points="60.0,146.5,58.0,151.0,59.0,150.5,57.5,148.0,58.5,144.0" stroke="black" stroke-width="2" fill="none" />
<polyline points="55.5,137.5,51.5,137.5,50.0,135.5" stroke="black" stroke-width="2" fill="none" />
<polyline points="49.5,131.5,51.5,129.0,51.5,131.0,55.5,129.5,59.5,129.0,63.5,127.0" stroke="black" stroke-width="2" fill="none" />
<polyline points="64.5,132.5,65.0,133.5,61.5,129.5,60.5,133.5,58.0,134.5,62.0,131.5,63.5,127.5,68.5,124.5,68.0,128.5,72.0,126.5,76.0,127.5" stroke="black" stroke-width="2" fill="none" />
<polyline points="76.5,124.0,80.5,124.0" stroke="black" stroke-width="2" fill="none" />
<polyline points="86.5,125.5,81.5,126.5,76.5,126.5,76.0,130.5,77.5,129.5,82.0,126.0,85.5,126.0,89.5,125.0,93.5,124.5,95.5,127.5" stroke="black" stroke-width="2" fill="none" />
<polyline points="97.0,123.0,101.5,125.0" stroke="black" stroke-width="2" fill="none" />
<polyline points="107.5,133.0,109.5,134.5,111.0,138.5,113.5,142.0,120.0,141.5,126.0,142.5,130.0,142.5,134.0,143.5,138.0,146.5,143.0,149.5" stroke="black" stroke-width="2" fill="none" />
<polyline points="147.0,151.0,150.5,147.0,150.5,147.5,146.5,151.5,147.0,155.5,146.0,158.0,146.0,160.0" stroke="black" stroke-width="2" fill="none" />
<polyline points="145.5,164.0,146.5,163.0,150.5,162.5,156.5,163.5" stroke="black" stroke-width="2" fill="none" />
<polyline points="156.0,168.5,160.0,170.0,164.0,171.0,168.5,171.5,172.5,171.5,176.5,172.0" stroke="black" stroke-width="2" fill="none" />
<polyline points="170.5,169.5,167.0,169.5,163.5,169.0,159.5,167.5,155.0,168.0,156.5,164.5,153.0,159.0,148.0,158.0,148.5,154.5,151.5,152.5,147.5,153.5" stroke="black" stroke-width="2" fill="none" />
<polyline points="140.5,157.0,136.5,158.5" stroke="black" stroke-width="2" fill="none" />
<polyline points="139.5,164.5,135.5,166.5" stroke="black" stroke-width="2" fill="none" />
<polyline points="134.0,169.5,138.5,172.5" stroke="black" stroke-width="2" fill="none" />
<polyline points="133.5,176.0,132.5,180.0,132.5,183.0,128.0,187.0,131.5,188.5" stroke="black" stroke-width="2" fill="none" />
<polyline points="135.5,193.0,129.5,193.0,125.5,192.5" stroke="black" stroke-width="2" fill="none" />
<polyline points="120.0,188.5,120.0,192.5,121.0,188.5,127.0,183.5" stroke="black" stroke-width="2" fill="none" />
<polyline points="121.0,175.5,117.0,173.5" stroke="black" stroke-width="2" fill="none" />
<polyline points="118.0,170.0,117.5,174.0,121.0,177.0,124.0,181.0,124.5,184.0,122.0,185.0,121.0,189.0,121.5,193.0,121.0,197.0,120.5,198.5,119.5,204.0,121.5,205.5,125.5,204.5,130.5,204.5,134.0,205.5,135.0,206.5" stroke="black" stroke-width="2" fill="none" />
<polyline points="131.0,207.5,129.0,203.5" stroke="black" stroke-width="2" fill="none" />
<polyline points="137.5,203.0,140.0,199.0,145.0,198.5" stroke="black" stroke-width="2" fill="none" />
<polyline points="150.0,204.5,154.0,204.5" stroke="black" stroke-width="2" fill="none" />
<polyline points="159.5,210.5,163.5,214.0" stroke="black" stroke-width="2" fill="none" />
<polyline points="162.0,215.5,159.5,211.5,156.0,208.0,154.0,206.0,153.5,204.0,152.0,203.0,156.0,202.0,153.0,200.5,154.0,196.5,152.5,195.0,152.5,191.5,150.0,191.5,149.0,187.0,148.5,183.5,146.5,182.0,146.0,178.0,145.0,174.0,143.0,173.0,141.5,169.0,142.0,166.0,141.5,164.0,143.0,159.5,143.0,155.0,144.0,151.0,143.5,146.5,144.0,145.5,143.5,141.5,142.5,136.0,143.0,132.0,141.5,132.0" stroke="black" stroke-width="2" fill="none" />
<polyline points="141.5,133.5,140.0,137.5,142.0,141.5,136.5,145.0,133.0,148.5,135.5,148.0,141.0,149.0,138.0,150.0,139.5,154.0,140.5,158.0,137.5,161.5,143.0,162.5,147.0,162.0,148.0,160.5" stroke="black" stroke-width="2" fill="none" />
<polyline points="139.0,148.5,135.0,147.5,133.0,144.0,129.0,142.5,125.0,143.0,120.0,144.0,116.0,144.0" stroke="black" stroke-width="2" fill="none" />
<polyline points="117.5,140.0,116.5,143.0,119.0,148.0,121.0,146.5" stroke="black" stroke-width="2" fill="none" />
<polyline points="127.0,141.5,131.0,141.5,135.0,141.5,139.0,143.0,145.5,138.5,150.0,137.0,152.5,131.0,157.0,128.0" stroke="black" stroke-width="2" fill="none" />
<polyline points="161.5,125.0,165.5,124.0,164.0,127.0" stroke="black" stroke-width="2" fill="none" />
<polyline points="165.0,125.5,169.0,125.5,169.0,127.5,173.5,128.5,177.5,127.0,181.5,126.5,182.0,124.0,185.5,126.0,188.5,129.5,189.0,127.0,196.0,124.5" stroke="black" stroke-width="2" fill="none" />
<polyline points="185.5,128.5,184.0,127.0,180.0,128.0" stroke="black" stroke-width="2" fill="none" />
<polyline points="180.5,130.0,186.5,134.0,188.5,134.5,192.5,136.5,195.5,136.0,198.0,140.0,199.5,146.0,197.5,150.0,201.5,150.5,203.0,152.0,203.5,158.0,201.5,160.0,202.0,164.0,200.5,166.0,201.0,170.0,199.5,174.5,196.5,178.5,193.5,182.5,189.0,186.5,182.5,190.5,183.5,193.5,178.0,198.0,178.5,198.0" stroke="black" stroke-width="2" fill="none" />
<polyline points="176.5,197.5,176.5,193.5" stroke="black" stroke-width="2" fill="none" />
<polyline points="172.5,195.0,171.5,199.0,174.0,199.0" stroke="black" stroke-width="2" fill="none" />
<polyline points="159.5,220.5,161.0,224.5,160.5,223.0" stroke="black" stroke-width="2" fill="none" />
<polyline points="137.0,226.0,133.0,224.0,128.5,223.0,123.5,223.5,119.5,224.0,117.0,225.0,115.5,226.5,112.0,229.0,112.0,230.0" stroke="black" stroke-width="2" fill="none" />
<polyline points="126.0,224.5,124.5,228.5,127.5,229.5,129.0,229.0,129.0,229.0,130.0,228.0,132.0,227.5,136.0,226.5" stroke="black" stroke-width="2" fill="none" />
<polyline points="135.5,225.0,136.0,229.5" stroke="black" stroke-width="2" fill="none" />
<polyline points="137.0,227.5,136.5,223.5" stroke="black" stroke-width="2" fill="none" />
<polyline points="156.5,206.5,153.5,202.0,150.5,200.0,147.0,199.5,142.5,202.5,141.0,201.5,138.0,197.0,138.0,193.5" stroke="black" stroke-width="2" fill="none" />
<polyline points="125.5,180.5,120.5,184.5,118.0,185.5,112.0,189.0,108.0,188.0,107.5,187.0,103.0,187.0,99.5,189.5,95.5,191.5,91.5,193.5,87.5,194.0,83.5,193.0,79.5,193.0,75.5,192.0,71.5,190.5,67.5,188.5,62.5,186.0,58.0,186.0,56.5,179.0,53.5,177.5,47.0,181.5,43.0,183.5,40.0,183.5,35.0,185.0,34.5,189.0" stroke="black" stroke-width="2" fill="none" />
<polyline points="35.0,187.0,39.0,194.5,42.0,190.5,43.0,194.5" stroke="black" stroke-width="2" fill="none" />
<polyline points="44.5,198.0,44.5,202.0,49.5,197.5,48.0,199.0,44.0,202.0,41.5,205.5,40.0,199.5,39.5,195.5,43.0,190.0,41.5,185.5,38.0,186.0" stroke="black" stroke-width="2" fill="none" />
<polyline points="32.0,180.0,32.0,181.0,32.5,185.0,32.5,191.5,33.0,196.0,36.5,200.5,36.0,204.5,35.0,207.5,34.0,211.5,33.0,213.0" stroke="black" stroke-width="2" fill="none" />
<polyline points="32.0,205.0,28.0,204.5" stroke="black" stroke-width="2" fill="none" />
<polyline points="25.0,209.5,24.5,207.0,20.5,207.5" stroke="black" stroke-width="2" fill="none" />
<polyline points="18.0,202.0,21.5,209.0,25.5,213.5,29.0,216.5,30.0,217.0,33.5,218.0,37.5,217.5" stroke="black" stroke-width="2" fill="none" />
<polyline points="59.0,204.5,61.5,200.0,65.0,195.5,65.0,191.0,65.5,191.0,61.0,191.0" stroke="black" stroke-width="2" fill="none" />
<polyline points="59.0,192.5,60.0,193.0,59.0,194.5,63.0,199.5" stroke="black" stroke-width="2" fill="none" />
<polyline points="67.5,190.5,70.5,194.0,72.5,195.5" stroke="black" stroke-width="2" fill="none" />
<polyline points="74.0,188.0,78.0,184.5" stroke="black" stroke-width="2" fill="none" />
<polyline points="73.0,170.5,77.0,170.5,81.0,169.5,85.0,169.5,89.0,168.0,93.0,167.0,97.0,164.5,97.0,164.5,97.5,167.5,97.0,171.0" stroke="black" stroke-width="2" fill="none" />
<polyline points="97.5,170.0,98.0,166.0" stroke="black" stroke-width="2" fill="none" />
<polyline points="92.5,166.0,88.5,165.5,84.5,167.5" stroke="black" stroke-width="2" fill="none" />
<polyline points="87.5,167.5,83.5,169.0,79.5,167.5,77.5,169.0,73.0,169.0,72.0,166.5,69.5,164.5,65.5,164.0,63.0,168.5,60.0,173.5,56.0,170.0,52.5,167.5" stroke="black" stroke-width="2" fill="none" />
<polyline points="52.5,169.0,56.5,177.0,60.5,182.5,64.5,186.0,68.5,188.0,72.5,190.0,76.0,191.5,80.0,192.5,84.0,192.5,87.5,192.5,91.5,191.5,95.5,189.5,99.5,187.5,103.5,184.0,107.5,179.5,111.5,172.5,115.5,168.5" stroke="black" stroke-width="2" fill="none" />
<polyline points="112.5,174.5,109.5,179.0,107.5,180.5,108.0,184.0,110.5,178.5,113.0,178.0,118.5,172.5,122.5,172.5,123.5,171.0,130.0,171.0" stroke="black" stroke-width="2" fill="none" />
<polyline points="129.0,170.0,130.5,174.0,130.0,176.5,130.0,181.0,126.5,183.5,127.5,188.0,126.0,193.0,125.0,195.0,127.5,187.5,131.5,186.0,132.0,186.5,134.5,183.5" stroke="black" stroke-width="2" fill="none" />
<polyline points="117.5,188.5,119.0,192.5,115.5,196.5,116.0,196.5,118.0,196.5" stroke="black" stroke-width="2" fill="none" />
<polyline points="113.5,193.0,106.5,189.5" stroke="black" stroke-width="2" fill="none" />
<polyline points="108.5,188.0,105.5,192.0,105.5,196.0,104.5,200.5,106.0,202.0,105.5,206.0,104.0,210.0,102.0,210.5,104.5,205.0" stroke="black" stroke-width="2" fill="none" />
<polyline points="97.5,187.0,93.5,188.5,89.0,189.5,84.5,190.5,80.0,189.5,75.5,189.0,72.0,188.0,68.0,185.5,64.0,182.0,60.5,178.5,56.5,173.5" stroke="black" stroke-width="2" fill="none" />
<polyline points="59.0,175.0,63.0,179.5" stroke="black" stroke-width="2" fill="none" />
<polyline points="69.0,180.0,66.0,173.0,62.0,173.5" stroke="black" stroke-width="2" fill="none" />
<polyline points="65.5,171.5,68.5,175.5" stroke="black" stroke-width="2" fill="none" />
<polyline points="66.5,170.5,70.5,169.5,72.5,168.0,76.5,167.5,79.0,165.5,83.0,166.0,87.0,164.5,89.0,163.0,92.5,161.5,97.5,159.5,99.5,158.0,103.5,157.0,107.5,159.5,108.5,161.5" stroke="black" stroke-width="2" fill="none" />
<polyline points="108.0,152.5,112.0,155.0,121.0,151.5,125.0,150.5,129.0,151.5,133.5,148.5,136.0,145.0,140.0,146.5" stroke="black" stroke-width="2" fill="none" />
<polyline points="133.0,148.5,138.0,149.5,143.0,153.0,146.0,156.5" stroke="black" stroke-width="2" fill="none" />
<polyline points="128.5,150.5,126.0,151.5,121.5,153.0,121.5,156.5,121.5,163.0,120.5,166.0,124.0,165.5,123.0,171.0,121.0,171.0,120.5,169.5,125.5,166.5,127.0,172.5,124.5,176.5,122.0,180.5,120.0,184.5,116.5,188.5,114.0,189.0,115.5,193.5,120.0,195.0,122.5,200.0,123.5,206.0" stroke="black" stroke-width="2" fill="none" />
<polyline points="113.0,182.5,112.5,180.5,113.0,176.5" stroke="black" stroke-width="2" fill="none" />
<polyline points="107.0,159.0,103.5,159.5,99.0,156.5,98.5,154.0,92.5,153.0,88.5,154.0" stroke="black" stroke-width="2" fill="none" />
<polyline points="85.5,161.5,81.5,162.5,78.0,161.5" stroke="black" stroke-width="2" fill="none" />
<polyline points="74.5,158.5,70.0,159.0,66.0,159.5" stroke="black" stroke-width="2" fill="none" />
<polyline points="64.0,158.0,68.0,155.5,71.5,154.0,75.0,155.0" stroke="black" stroke-width="2" fill="none" />
<polyline points="71.5,155.5,67.5,157.5,63.5,158.0" stroke="black" stroke-width="2" fill="none" />
<polyline points="62.0,154.5,66.0,153.5" stroke="black" stroke-width="2" fill="none" />
<polyline points="63.0,164.5,67.0,163.0,67.0,161.0,72.0,162.0,76.0,160.0,80.0,156.5,82.5,158.0,86.5,156.0,90.5,155.5,94.0,154.5,98.0,155.0,98.0,152.0,103.5,156.5,108.0,151.5,110.0,151.5,117.5,152.0,121.5,149.0" stroke="black" stroke-width="2" fill="none" />
<polyline points="114.0,137.5,111.5,140.0,107.5,136.0" stroke="black" stroke-width="2" fill="none" />
<polyline points="106.0,138.5,105.0,138.5,104.0,142.5" stroke="black" stroke-width="2" fill="none" />
<polyline points="109.5,141.5,111.0,146.0,107.0,149.0,104.0,153.0,106.0,155.0,102.0,157.5,106.5,161.5,105.5,166.5,107.0,173.5,108.0,175.0,104.5,176.0,104.0,179.5,101.5,182.5,98.5,184.5,102.0,181.0,103.5,179.0,105.0,171.5,109.0,170.0,114.0,166.5,119.5,163.5,122.5,165.0,126.0,164.0" stroke="black" stroke-width="2" fill="none" />
<polyline points="134.5,140.5,136.5,145.0,139.5,151.0,135.0,151.5,134.0,155.5,135.0,156.0,137.5,160.5,138.0,164.5,135.5,166.0,135.0,170.0,135.0,174.0,136.5,178.0,135.5,182.5,131.5,186.5,133.0,190.5,133.0,191.5,134.5,190.5,137.0,191.0,140.5,195.5" stroke="black" stroke-width="2" fill="none" />
<polyline points="88.0,188.0,84.0,188.0,80.5,188.5,76.5,187.5,72.5,186.0,68.5,184.0,64.5,179.0,64.0,175.0,61.0,174.5,62.5,172.0,65.5,167.5" stroke="black" stroke-width="2" fill="none" />
<polyline points="64.5,165.0,68.5,166.0,69.5,170.0,69.0,174.5,66.0,179.0,64.5,180.5,67.5,178.0,68.5,180.0" stroke="black" stroke-width="2" fill="none" />
<polyline points="60.0,166.0,56.0,165.0" stroke="black" stroke-width="2" fill="none" />
<polyline points="54.0,157.5,54.0,162.0,55.0,165.5,55.5,169.5,57.5,173.0,59.5,177.0,62.5,181.0,66.5,184.5,75.0,183.5,76.0,184.5" stroke="black" stroke-width="2" fill="none" />
<polyline points="84.5,172.0,84.5,170.5,90.0,166.0" stroke="black" stroke-width="2" fill="none" />
<polyline points="79.5,138.5,75.5,138.0,71.5,137.0,67.5,138.5,63.0,136.5,59.0,140.0,55.0,145.0,50.5,145.0,46.5,146.0" stroke="black" stroke-width="2" fill="none" />
<polyline points="43.5,147.5,47.5,144.5,51.5,143.0,55.5,141.5" stroke="black" stroke-width="2" fill="none" />
<polyline points="52.0,151.5,51.5,155.5,52.0,159.5,52.5,163.5,53.5,167.0,55.0,171.5,56.5,175.5,60.0,180.0,63.0,184.0,69.5,188.0,72.0,194.0,76.5,196.0,79.5,197.5" stroke="black" stroke-width="2" fill="none" />
<polyline points="51.5,196.5,49.0,195.0,47.0,198.5,42.5,196.5,44.0,203.5,41.5,201.5,43.5,198.0,45.0,194.5,41.5,192.5,37.5,191.5,39.5,190.0,40.5,188.0,41.5,184.0,41.5,181.5,40.0,181.0,39.0,175.0,42.5,172.5,36.5,173.0" stroke="black" stroke-width="2" fill="none" />
<polyline points="37.5,167.5,41.5,166.0,43.0,162.0" stroke="black" stroke-width="2" fill="none" />
<polyline points="48.5,158.5,49.5,163.0,50.5,163.0,50.5,167.0,51.0,171.0,52.5,175.0,57.5,179.5,57.0,181.5,59.5,184.0,61.0,185.0,67.5,189.5,71.5,194.5,75.5,195.0,79.5,195.0" stroke="black" stroke-width="2" fill="none" />
<polyline points="47.5,156.0,44.0,158.5,42.0,160.5,42.5,154.5,38.5,154.0,38.0,152.5,38.5,152.5,42.5,149.5,45.5,144.5,45.0,143.0,46.5,138.5,47.0,134.5,48.0,130.0,49.0,126.0,49.0,122.5,49.5,118.5,51.0,114.5,51.5,115.0" stroke="black" stroke-width="2" fill="none" />
<polyline points="52.5,118.5,56.0,117.0,59.5,114.0,60.5,115.5,61.0,117.5,61.5,119.0,62.0,115.0,66.0,113.5,68.5,110.0" stroke="black" stroke-width="2" fill="none" />
<polyline points="69.0,110.0,66.5,114.0,70.0,115.0,72.5,117.0,65.5,119.0,67.0,121.0,68.0,126.5,62.5,127.0,58.5,129.5,59.0,132.5,61.0,134.0,61.5,139.0,57.0,143.0,55.5,147.0,52.5,149.0,52.0,153.0,50.5,154.0,52.0,158.0,51.5,162.0,52.5,166.0,53.5,170.0,55.5,174.0,54.0,178.0,50.5,182.5" stroke="black" stroke-width="2" fill="none" />
<polyline points="30.5,182.0,31.0,180.5,30.5,184.5,34.0,189.0,30.5,191.5,25.0,191.0,23.0,193.5" stroke="black" stroke-width="2" fill="none" />
<polyline points="21.0,192.5,12.0,191.5,7.5,192.5" stroke="black" stroke-width="2" fill="none" />
<polyline points="6.5,194.0,10.5,193.5" stroke="black" stroke-width="2" fill="none" />
<polyline points="6.0,199.5,2.0,202.0,1.5,204.5" stroke="black" stroke-width="2" fill="none" />
<polyline points="3.5,206.0,7.5,207.0,10.0,204.0,9.5,208.0" stroke="black" stroke-width="2" fill="none" />
<polyline points="9.0,213.0,5.0,210.5" stroke="black" stroke-width="2" fill="none" />
<polyline points="1.5,208.5,5.5,208.0,5.5,206.5,6.0,210.5,9.5,213.0,13.5,214.5,18.0,213.5" stroke="black" stroke-width="2" fill="none" />
<polyline points="11.0,221.0,7.0,217.5" stroke="black" stroke-width="2" fill="none" />
<polyline points="8.0,223.0,7.5,222.0,5.5,221.5,6.0,218.5,3.5,216.5,4.0,213.5,2.5,210.0,3.0,205.5,5.5,201.5,6.5,199.5,5.0,198.5,3.0,197.5,5.0,193.5,2.0,193.0,3.5,189.0,5.5,184.5,3.5,182.5,2.5,178.5,3.0,174.5,3.5,170.0,4.5,165.5,3.5,162.0,5.0,158.0,3.5,151.5,2.5,147.5,6.5,143.0,8.0,138.5,7.0,134.5,7.5,130.0,8.0,125.5,7.5,126.0" stroke="black" stroke-width="2" fill="none" />
<polyline points="9.5,124.0,8.5,128.5,6.5,132.5,5.5,134.0" stroke="black" stroke-width="2" fill="none" />
<polyline points="2.5,138.0,2.5,135.0,5.0,131.0,3.0,127.0,4.5,123.0" stroke="black" stroke-width="2" fill="none" />
<polyline points="1.0,121.0,1.5,120.5,6.0,119.0" stroke="black" stroke-width="2" fill="none" />
<polyline points="5.0,108.5,9.0,107.5,13.0,107.0,16.0,108.0" stroke="black" stroke-width="2" fill="none" />
<polyline points="16.0,103.0,16.5,107.0,12.5,111.5,14.5,111.5,15.5,113.5,19.5,114.0,23.0,113.5" stroke="black" stroke-width="2" fill="none" />
<polyline points="19.5,103.5,22.5,100.5,20.5,96.0,17.5,95.0,18.0,91.0,24.5,87.0,29.0,83.0,32.0,80.0,30.0,77.0,32.5,73.0,34.0,69.5,35.5,64.5,35.0,58.5,29.0,60.0,23.5,63.5,19.5,64.5,16.0,66.5,12.0,68.0,11.5,72.5,11.5,75.5,7.5,77.0,4.0,75.0,5.0,71.0,10.0,66.5,11.0,64.5,13.5,59.0,15.5,57.0,18.0,55.0,14.5,54.0" stroke="black" stroke-width="2" fill="none" />
<polyline points="21.5,57.0,16.0,56.0,18.0,56.5,21.5,53.5,22.0,55.0,24.0,54.5,28.0,51.0" stroke="black" stroke-width="2" fill="none" />
<polyline points="31.0,53.5,31.5,57.5,23.0,60.0,26.0,61.5,24.5,66.0,17.0,69.0,17.0,73.5,12.0,75.5,8.0,79.5,3.0,81.5,4.5,87.0,6.5,87.0,5.5,91.0,3.0,91.5,6.0,94.0,4.5,98.0" stroke="black" stroke-width="2" fill="none" />
<polyline points="4.5,104.5,8.5,104.5,15.0,104.5,15.5,104.0,19.5,103.0" stroke="black" stroke-width="2" fill="none" />
<polyline points="19.0,102.0,15.0,102.5,11.0,102.0" stroke="black" stroke-width="2" fill="none" />
<polyline points="6.0,108.0,10.0,107.5,14.0,107.0,16.5,111.5,21.0,113.0" stroke="black" stroke-width="2" fill="none" />
<polyline points="18.5,124.5,18.0,128.0" stroke="black" stroke-width="2" fill="none" />
<polyline points="22.0,126.5,27.0,121.0,25.5,122.0,23.5,126.0,23.5,131.0,23.0,135.0,23.0,138.5,23.0,138.5" stroke="black" stroke-width="2" fill="none" />
<polyline points="22.5,136.0,18.5,138.5" stroke="black" stroke-width="2" fill="none" />
<polyline points="17.0,136.5,16.5,135.0,15.0,139.0,14.5,142.5,17.5,145.0,14.5,149.0,18.0,143.5" stroke="black" stroke-width="2" fill="none" />
<polyline points="7.0,146.5,6.0,150.5,7.5,153.5,9.0,159.0,9.0,163.5" stroke="black" stroke-width="2" fill="none" />
<polyline points="11.5,166.5,15.5,165.0,17.5,167.0" stroke="black" stroke-width="2" fill="none" />
<polyline points="13.0,164.0,13.5,168.5,12.0,171.0,8.5,175.5,9.0,177.5,7.5,181.5,10.5,183.5,12.0,185.0,13.0,189.0,14.0,193.5,15.5,197.5,16.5,201.5,18.5,205.0,20.5,209.0,25.0,213.0,29.0,216.5,32.5,219.0,35.0,223.0,39.0,226.0,40.5,230.0,36.0,232.5,39.0,234.0,38.5,240.5,41.0,244.5,42.5,250.5,42.0,253.5,50.0,257.0,55.5,257.5,54.5,261.0,51.0,264.0,51.0,268.0,49.5,272.0,46.5,275.5,46.5,279.5,44.5,283.5,43.5,287.5,44.5,291.5,45.0,295.5,42.5,299.5,38.0,304.0,35.0,308.0" stroke="black" stroke-width="2" fill="none" />
<polyline points="19.5,216.5,22.0,216.0,22.5,214.0,21.0,215.0,17.0,215.5,12.5,216.0,13.0,217.0,9.5,214.5,9.0,212.0,8.5,208.0,7.5,201.0,10.0,200.5,8.5,196.0,6.0,192.0,5.0,188.0,4.5,186.5" stroke="black" stroke-width="2" fill="none" />
<polyline points="5.0,179.0,6.5,175.0,8.5,180.5,13.5,178.0,16.5,180.5,20.0,181.0,20.0,183.5,24.0,183.0" stroke="black" stroke-width="2" fill="none" />
<polyline points="20.0,187.5,21.0,186.0,20.0,190.0,20.5,194.5,21.5,198.0,20.5,201.0,21.5,205.0,28.0,205.0,28.0,208.5,26.5,212.5,30.0,213.5,30.5,209.0,33.5,210.5" stroke="black" stroke-width="2" fill="none" />
<polyline points="12.0,216.0,5.0,215.5,1.0,212.5,1.5,217.5,0.5,219.0" stroke="black" stroke-width="2" fill="none" />
<polyline points="2.5,198.0,6.5,195.0,9.0,189.0" stroke="black" stroke-width="2" fill="none" />
<polyline points="12.0,185.0,10.0,189.0,10.0,191.5,13.0,192.5,14.0,196.0,15.0,200.0,16.5,203.5,18.5,207.5,21.5,211.0,25.5,215.0,29.5,218.5,33.0,223.0,35.0,223.5,37.5,223.0,41.5,226.0,44.5,226.0,46.5,234.5" stroke="black" stroke-width="2" fill="none" />
<polyline points="30.5,211.0,32.5,205.0,26.5,202.0,24.5,194.0,23.5,190.0" stroke="black" stroke-width="2" fill="none" />
<polyline points="17.5,180.5,16.0,184.5,20.0,187.5,18.5,191.5,19.5,195.5,19.0,197.0,20.0,198.5,23.5,198.5,25.0,201.0,29.0,202.5,33.0,202.5,33.5,205.5,37.5,206.0,41.5,204.0,45.5,204.0,49.5,201.0,53.5,204.5,58.0,203.0" stroke="black" stroke-width="2" fill="none" />
<polyline points="36.5,161.0,43.0,155.0" stroke="black" stroke-width="2" fill="none" />
<polyline points="43.0,152.0,42.0,155.5,39.5,159.5,37.5,164.0,36.5,168.0,34.5,172.5,37.0,169.5,38.5,168.0" stroke="black" stroke-width="2" fill="none" />
<polyline points="37.0,154.0,37.0,149.5,37.0,149.5" stroke="black" stroke-width="2" fill="none" />
<polyline points="26.0,132.0,23.5,133.0,29.0,130.0,27.5,129.5,23.5,132.0" stroke="black" stroke-width="2" fill="none" />
<polyline points="49.5,122.5,51.0,118.0,54.5,113.5,58.5,111.5,58.5,114.5,62.5,111.0" stroke="black" stroke-width="2" fill="none" />
<polyline points="59.5,110.0,60.5,108.5,62.0,111.5,60.0,115.0,56.5,119.0,58.0,119.0,60.5,119.5,63.0,122.0" stroke="black" stroke-width="2" fill="none" />
<polyline points="66.5,117.5,64.0,116.0,60.0,117.5,56.0,119.0" stroke="black" stroke-width="2" fill="none" />
<polyline points="50.5,121.0,55.5,125.0" stroke="black" stroke-width="2" fill="none" />
<polyline points="70.0,117.0,73.5,114.0,78.0,110.0" stroke="black" stroke-width="2" fill="none" />
<polyline points="88.5,118.5,90.0,115.0,91.0,117.0,92.0,119.0,93.0,121.5,98.5,120.5,98.5,116.0,103.5,111.5" stroke="black" stroke-width="2" fill="none" />
<polyline points="102.5,111.5,103.0,115.5,104.5,119.0,99.5,123.0,100.5,126.0,104.5,127.5,106.0,128.5,111.0,124.5" stroke="black" stroke-width="2" fill="none" />
<polyline points="112.5,124.0,107.0,126.0,107.0,130.5,106.5,134.0,108.5,138.0,109.0,141.5,108.5,143.5,111.5,144.0,114.5,145.0,113.5,149.0,115.0,149.0,117.0,150.5,114.0,154.5,114.5,159.0,117.5,160.5,115.5,165.0,113.0,169.0,111.5,168.0,106.0,170.5,111.0,170.5,109.0,174.0,106.0,178.5,102.5,182.0,97.0,184.5,90.0,188.5,94.0,187.0,98.0,186.5,102.0,183.0,105.5,179.5,112.0,171.5,110.0,175.5,107.0,179.5,103.5,184.0,96.5,186.5" stroke="black" stroke-width="2" fill="none" />
<polyline points="74.0,139.5,70.0,141.0,72.0,140.5,72.0,138.0" stroke="black" stroke-width="2" fill="none" />
<polyline points="83.0,140.0,80.5,139.5,81.5,140.5,84.0,140.0,83.5,137.0,85.5,133.0" stroke="black" stroke-width="2" fill="none" />
<polyline points="106.0,115.5,106.0,117.0,108.0,114.5,107.5,110.0,105.5,108.0" stroke="black" stroke-width="2" fill="none" />
<polyline points="101.5,109.0,99.5,113.5,101.5,114.0,99.5,118.5,97.0,123.0,95.0,126.5,98.5,130.0" stroke="black" stroke-width="2" fill="none" />
<polyline points="117.5,125.5,117.0,123.0,115.0,118.5,113.5,116.0,111.0,113.5,110.0,109.5" stroke="black" stroke-width="2" fill="none" />
<polyline points="99.5,94.0,95.5,93.0" stroke="black" stroke-width="2" fill="none" />
<polyline points="100.0,96.5,96.0,98.0,92.0,98.0" stroke="black" stroke-width="2" fill="none" />
<polyline points="84.0,97.0,84.5,96.0,88.5,96.0,92.5,96.0,97.0,95.5,101.5,94.5" stroke="black" stroke-width="2" fill="none" />
<polyline points="93.0,80.0,89.5,83.5,87.5,85.0" stroke="black" stroke-width="2" fill="none" />
<polyline points="93.5,78.5,93.5,81.5,91.5,80.5,91.0,84.5,87.0,87.0,84.0,86.0,84.0,82.5,90.0,78.5,94.5,75.0,93.5,71.0,92.5,67.0,96.0,66.5,94.5,64.5,90.5,62.0,91.0,59.5,93.0,55.5,92.0,59.5" stroke="black" stroke-width="2" fill="none" />
<polyline points="96.0,62.0,98.5,64.0,98.0,68.5,95.5,70.0,97.5,73.0,95.0,77.5,93.5,80.5,91.0,84.5" stroke="black" stroke-width="2" fill="none" />
<polyline points="89.0,72.5,85.0,74.5,81.0,74.5,77.0,75.0,73.0,76.0,69.0,77.0,65.0,81.0,65.0,79.5,61.0,80.5,57.0,85.0,56.5,81.0,53.0,80.5,54.0,79.0,50.0,79.0,46.5,79.0,42.0,80.5,39.5,76.5,39.0,82.5,37.0,78.0,32.5,77.5,28.5,76.5,27.5,81.0,24.0,81.5,18.0,84.0,14.0,87.0,12.0,89.0,10.0,93.5,6.0,92.5,4.5,97.5,6.0,95.0,9.0,93.0,12.5,92.5,17.0,88.5,22.0,87.5,24.0,84.0,23.5,77.5,24.0,73.5,29.0,71.0,26.5,70.0,27.5,64.5,30.0,61.5,34.0,60.0,35.5,58.0,32.5,55.5,23.5,54.5,29.5,50.5,31.5,45.5,30.0,45.0,29.0,41.0,31.0,37.0,25.0,37.0" stroke="black" stroke-width="2" fill="none" />
<polyline points="23.0,38.0,27.0,39.0,31.0,41.5,33.5,45.5,36.0,52.0,31.5,54.0,33.0,55.0,36.0,54.5,40.0,56.0,44.0,56.5,48.5,57.5,50.0,56.5,52.5,58.0,55.5,55.5,58.5,58.5" stroke="black" stroke-width="2" fill="none" />
<polyline points="63.0,59.0,58.5,60.0,54.5,66.0,50.0,70.0,46.0,71.5" stroke="black" stroke-width="2" fill="none" />
<polyline points="46.5,69.5,50.5,66.5,50.5,63.0,46.5,67.0,43.5,67.5,46.5,71.0,47.5,74.0,47.5,75.5,51.0,75.5,55.0,76.5,59.0,72.0,64.0,71.0,68.5,75.5,71.0,71.0,75.0,69.0,76.0,71.0,79.0,74.0,84.5,73.0,88.5,72.0,94.0,69.5,95.5,70.0,94.5,64.0" stroke="black" stroke-width="2" fill="none" />
<polyline points="101.0,63.0,101.0,67.0,100.5,68.0" stroke="black" stroke-width="2" fill="none" />
<polyline points="93.0,73.5,90.5,69.5" stroke="black" stroke-width="2" fill="none" />
<polyline points="87.5,68.0,87.5,64.0" stroke="black" stroke-width="2" fill="none" />
<polyline points="88.0,62.0,92.0,57.5,89.0,58.5,86.0,62.5,84.5,66.5,85.0,68.0,90.5,65.0,90.5,66.5,93.0,67.5,94.0,59.0,98.0,57.5,98.5,62.5,102.0,60.5,106.0,62.5,110.0,63.0" stroke="black" stroke-width="2" fill="none" />
<polyline points="120.5,65.5,120.0,61.5,124.0,55.0,125.5,52.0,123.5,47.5,123.0,43.5,120.5,43.0,119.5,41.0,116.5,36.0,117.5,30.0,121.5,26.0,115.5,26.0,114.5,23.5,113.5,21.0,114.5,17.5,113.0,14.0,115.5,10.0,121.0,9.0,117.5,9.0,113.5,11.5,113.5,13.0" stroke="black" stroke-width="2" fill="none" />
<polyline points="116.5,14.5,120.5,12.5,118.5,13.5,117.0,20.5,120.0,21.0,120.0,23.5,122.5,25.0,121.5,23.5,125.5,26.5,125.5,26.0,130.5,27.5,134.0,27.0,136.5,30.5,137.0,27.0,141.0,26.5,145.5,26.0,149.0,30.0,152.0,30.0,156.0,29.0,157.5,33.0,162.0,31.0,166.0,31.0,166.5,33.5,167.5,38.0,171.5,38.5,176.0,41.0,180.0,41.5,183.0,40.5,183.0,45.0,187.5,47.0,187.0,45.5,188.5,48.5,190.0,53.0,194.0,55.0,195.0,58.5,196.0,58.0,200.0,57.5,204.5,57.0,209.5,59.5,213.5,61.0" stroke="black" stroke-width="2" fill="none" />
<polyline points="211.0,62.5,209.0,65.0,205.0,63.0,201.5,60.0" stroke="black" stroke-width="2" fill="none" />
<polyline points="201.5,53.0,202.0,58.0,206.0,59.0,210.0,58.0,214.5,59.5,217.0,62.0,220.0,64.0,223.0,67.5,226.5,70.0,227.0,70.5" stroke="black" stroke-width="2" fill="none" />
<polyline points="222.5,74.5,227.5,78.5,230.0,82.5,231.0,85.0" stroke="black" stroke-width="2" fill="none" />
<polyline points="226.5,80.5,222.5,77.5" stroke="black" stroke-width="2" fill="none" />
<polyline points="226.5,78.5,222.5,75.5,218.5,73.5" stroke="black" stroke-width="2" fill="none" />
<polyline points="212.0,72.5,216.0,74.5,220.0,77.5,226.0,79.5,226.0,82.0,225.0,89.5,224.5,89.5" stroke="black" stroke-width="2" fill="none" />
<polyline points="220.5,100.5,225.0,100.5,229.0,102.5" stroke="black" stroke-width="2" fill="none" />
<polyline points="233.0,103.0,234.5,103.0,233.0,99.5,228.0,100.5,224.0,100.0,220.0,100.0,218.5,98.5,214.5,101.0,210.5,99.5,206.5,102.0,204.0,103.5,202.5,101.0,196.5,100.0,190.5,98.0,186.0,97.5,186.5,93.5,190.0,91.0,186.0,91.5,184.5,87.5,184.5,88.5" stroke="black" stroke-width="2" fill="none" />
<polyline points="186.0,91.0,190.0,99.0,191.0,96.5" stroke="black" stroke-width="2" fill="none" />
<polyline points="194.0,94.5,194.0,93.5,190.5,91.5" stroke="black" stroke-width="2" fill="none" />
<polyline points="192.5,89.5,196.5,93.5,199.5,96.0" stroke="black" stroke-width="2" fill="none" />
<polyline points="207.5,102.0,211.5,101.5" stroke="black" stroke-width="2" fill="none" />
<polyline points="216.5,106.0,220.0,110.5" stroke="black" stroke-width="2" fill="none" />
<polyline points="218.0,113.5,214.0,112.5" stroke="black" stroke-width="2" fill="none" />
<polyline points="215.5,112.0,219.5,116.5,223.0,119.5,224.0,119.5,223.0,122.5,224.0,126.5,225.0,130.0,225.5,134.0,225.5,137.5,224.0,141.5,225.0,145.5,225.0,150.0,224.5,154.0" stroke="black" stroke-width="2" fill="none" />
<polyline points="221.5,157.0,217.5,155.5,222.0,156.0,222.0,154.0,219.0,152.5,221.0,148.5,225.0,145.5,227.0,140.5,232.0,134.5,234.5,134.0,231.0,130.5,231.0,125.5,232.0,122.0,228.5,123.5,227.0,124.5" stroke="black" stroke-width="2" fill="none" />
<polyline points="227.0,128.0,227.0,129.5,231.0,128.5" stroke="black" stroke-width="2" fill="none" />
<polyline points="229.0,134.5,227.5,134.0,231.5,133.5,235.5,135.0" stroke="black" stroke-width="2" fill="none" />
<polyline points="232.0,125.5,231.5,119.0,228.5,115.0,230.5,110.5,227.0,113.0,223.5,109.0,219.5,105.5" stroke="black" stroke-width="2" fill="none" />
<polyline points="219.0,103.0,219.5,105.0,223.5,108.0,225.5,112.5,227.0,116.5,230.5,121.0,234.0,119.5" stroke="black" stroke-width="2" fill="none" />
<polyline points="237.0,112.5,233.0,109.5" stroke="black" stroke-width="2" fill="none" />
<polyline points="234.5,108.0,237.0,112.0" stroke="black" stroke-width="2" fill="none" />
<polyline points="228.5,115.5,226.0,118.0,221.5,120.0" stroke="black" stroke-width="2" fill="none" />
<polyline points="230.5,116.0,226.0,121.0,222.5,120.5,220.0,115.5,220.0,115.0,218.0,109.0,214.0,108.5" stroke="black" stroke-width="2" fill="none" />
<polyline points="238.0,108.5,238.0,105.0,238.0,100.5,237.0,96.5,234.5,92.0,235.5,90.5,231.0,88.0,227.0,83.5,226.5,79.0,222.0,75.0,217.5,71.0,213.0,69.0" stroke="black" stroke-width="2" fill="none" />
<polyline points="211.0,75.0,216.5,79.0,219.0,83.0,218.5,81.0,223.0,77.5,226.5,80.5,230.5,82.0,231.0,86.5" stroke="black" stroke-width="2" fill="none" />
<polyline points="236.5,90.0,238.5,94.0,239.5,98.0,239.0,102.0,239.0,106.5" stroke="black" stroke-width="2" fill="none" />
<polyline points="236.0,129.0,235.0,128.5,232.5,125.0,232.5,121.0,233.0,117.0,235.0,116.0,228.0,112.0,230.0,107.5,228.5,103.5,224.0,103.5,218.0,103.0,216.0,99.0,215.0,92.5,219.0,91.0,221.0,91.0,221.0,87.5,221.0,83.0,221.0,79.0,216.5,75.5,219.0,75.0,215.0,75.0,212.5,75.0,209.0,74.5" stroke="black" stroke-width="2" fill="none" />
<polyline points="211.0,77.5,215.0,81.0,218.0,85.0,220.0,88.5" stroke="black" stroke-width="2" fill="none" />
<polyline points="221.0,91.0,217.0,87.5,215.5,83.5,208.5,81.0" stroke="black" stroke-width="2" fill="none" />
<polyline points="204.0,83.5,208.5,81.5,209.5,86.0,211.0,90.0,210.0,88.0,215.5,88.0" stroke="black" stroke-width="2" fill="none" />
<polyline points="207.0,90.5,203.0,88.0,199.5,85.5,199.5,82.5" stroke="black" stroke-width="2" fill="none" />
<polyline points="195.0,86.0,199.0,89.0,204.0,86.5,206.5,81.0,209.0,79.5" stroke="black" stroke-width="2" fill="none" />
<polyline points="203.0,72.5,202.5,69.0" stroke="black" stroke-width="2" fill="none" />
<polyline points="199.0,61.5,199.5,58.0,198.5,54.0,199.0,53.5,199.0,50.5,195.0,47.5,191.0,44.0" stroke="black" stroke-width="2" fill="none" />
<polyline points="190.0,46.0,190.5,48.0,188.0,51.5,190.5,55.0,191.5,56.0,195.5,58.0,198.5,59.0,198.5,63.0,195.5,65.5,196.5,66.0,198.5,67.0,202.0,68.0,203.5,72.5,205.0,77.0,206.0,76.0,210.0,76.5,214.0,81.0,218.0,88.0,220.5,94.0,222.5,95.5" stroke="black" stroke-width="2" fill="none" />
<polyline points="220.0,97.0,216.5,97.0,213.0,96.0,209.0,94.5,205.5,95.0,203.5,94.0,200.0,90.0,196.5,87.5,199.0,86.0,193.5,82.5" stroke="black" stroke-width="2" fill="none" />
<polyline points="192.5,83.0,194.0,82.5,192.0,82.5,193.5,86.5,194.5,90.5,200.0,92.0,204.5,91.5,207.5,95.5,205.0,97.5,200.5,98.5,200.0,100.5,199.0,99.5,201.0,97.5,203.5,99.5,205.5,98.5,209.5,96.5,212.5,96.5,215.5,91.5,217.5,92.0,221.5,96.0,226.5,100.5,225.5,106.0,226.0,108.5,232.0,110.5,235.0,114.5" stroke="black" stroke-width="2" fill="none" />
<polyline points="221.0,141.5,222.0,145.5" stroke="black" stroke-width="2" fill="none" />
<polyline points="225.0,140.0,221.5,147.5,221.5,150.0,218.0,149.0,217.0,143.5,217.0,139.5" stroke="black" stroke-width="2" fill="none" />
<polyline points="196.5,143.5,192.5,142.5" stroke="black" stroke-width="2" fill="none" />
<polyline points="183.0,147.5,183.5,151.5,179.5,152.5,181.0,153.5,178.0,158.5,172.0,159.0,174.0,162.0,173.0,164.5,171.5,168.0,178.0,168.0,180.5,168.0,182.0,165.0,183.0,169.5,186.0,163.0" stroke="black" stroke-width="2" fill="none" />
<polyline points="205.5,160.5,204.5,165.0,204.5,166.5,207.5,168.5,210.5,169.0,211.5,173.5,214.5,172.0" stroke="black" stroke-width="2" fill="none" />
<polyline points="222.5,176.5,222.0,180.5,220.5,180.0,220.5,175.5,222.0,169.0,220.5,169.0,219.5,165.0,219.5,161.0" stroke="black" stroke-width="2" fill="none" />
<polyline points="198.5,160.5,199.0,156.5,198.0,152.5,196.0,150.5,196.5,146.5,197.0,142.5,194.5,138.5,189.0,135.0,185.0,133.5,181.0,134.0,177.0,134.0,172.5,133.0,168.5,134.0,165.0,134.5,164.0,138.5,160.5,139.0,153.5,138.5,149.5,143.0,145.0,148.5,145.5,143.0,149.5,139.0,152.5,139.0" stroke="black" stroke-width="2" fill="none" />
<polyline points="164.0,137.0,165.0,137.5,164.5,141.5,166.5,143.0,169.0,140.5,175.0,139.5,172.0,139.5" stroke="black" stroke-width="2" fill="none" />
<polyline points="165.5,139.0,165.5,135.0" stroke="black" stroke-width="2" fill="none" />
<polyline points="181.0,133.0,181.0,137.0,182.5,138.5" stroke="black" stroke-width="2" fill="none" />
<polyline points="185.0,110.5,181.0,109.5,181.0,106.5" stroke="black" stroke-width="2" fill="none" />
<polyline points="181.0,101.0,185.0,104.0,189.0,105.5,192.5,105.5" stroke="black" stroke-width="2" fill="none" />
<polyline points="197.5,102.0,193.5,98.5,192.0,98.0,187.0,96.5,186.0,94.5,185.5,96.5" stroke="black" stroke-width="2" fill="none" />
<polyline points="189.5,104.0,185.5,104.0,181.5,101.5,177.5,99.5" stroke="black" stroke-width="2" fill="none" />
<polyline points="173.0,100.5,176.5,104.5,181.0,104.5,184.5,104.0,189.5,104.5,182.0,107.0,185.5,111.0,183.0,114.5,183.5,120.0,185.0,122.0,187.5,125.0,189.5,127.0,185.5,128.5,188.0,131.0,189.5,136.0,191.5,140.5,190.5,140.0,195.0,139.0,199.5,142.5,204.0,146.0,208.0,146.0,209.0,145.0,212.0,141.0" stroke="black" stroke-width="2" fill="none" />
<polyline points="202.5,90.5,198.0,90.0,194.0,89.5,190.0,88.5" stroke="black" stroke-width="2" fill="none" />
<polyline points="177.5,81.5,177.0,79.5,174.0,83.0,177.0,83.0,181.0,79.5,180.0,75.5,180.0,74.0,180.0,76.0" stroke="black" stroke-width="2" fill="none" />
<polyline points="177.0,79.0,174.0,83.0,172.5,82.0,171.0,87.0,170.0,91.0" stroke="black" stroke-width="2" fill="none" />
<polyline points="172.0,86.5,171.0,83.0,169.5,79.5" stroke="black" stroke-width="2" fill="none" />
<polyline points="167.5,74.5,169.5,73.0" stroke="black" stroke-width="2" fill="none" />
<polyline points="173.5,67.0,169.0,66.5,168.5,65.0,169.5,60.5,168.5,57.0,173.0,53.5,171.0,53.0,167.0,51.0,168.5,47.5,166.0,47.0,163.0,43.0,162.0,42.0" stroke="black" stroke-width="2" fill="none" />
<polyline points="167.0,45.0,171.0,46.0" stroke="black" stroke-width="2" fill="none" />
<polyline points="169.0,50.5,173.0,49.0,177.0,50.5,180.5,56.0" stroke="black" stroke-width="2" fill="none" />
<polyline points="183.0,56.5,187.5,60.0" stroke="black" stroke-width="2" fill="none" />
<polyline points="191.5,69.0,191.5,65.0,190.0,69.0,190.0,65.0,187.0,63.0,185.5,58.5,181.0,57.0,183.5,53.0,185.5,52.5,179.5,52.0" stroke="black" stroke-width="2" fill="none" />
<polyline points="178.0,47.0,182.0,48.5,186.0,49.5,189.5,51.0" stroke="black" stroke-width="2" fill="none" />
<polyline points="191.0,48.0,192.0,47.0,195.5,50.0" stroke="black" stroke-width="2" fill="none" />
<polyline points="189.0,38.0,184.5,35.5,180.5,35.0,178.5,29.5,174.0,29.5" stroke="black" stroke-width="2" fill="none" />
<polyline points="170.0,30.5,174.0,34.0,177.5,33.5,181.5,37.0,185.0,38.0,186.5,41.5" stroke="black" stroke-width="2" fill="none" />
<polyline points="177.0,40.5,175.0,37.0,171.0,34.5" stroke="black" stroke-width="2" fill="none" />
<polyline points="170.5,33.0,176.0,34.5,178.5,36.5,179.5,39.5,183.0,41.0,181.5,45.0,177.5,46.5,180.5,46.0,182.5,47.0" stroke="black" stroke-width="2" fill="none" />
<polyline points="193.0,40.0,188.0,39.5,188.0,36.5,185.5,32.0,182.0,29.0,186.0,25.5,188.0,21.0,188.0,17.5,187.5,13.5,186.5,10.0,182.5,10.5,178.5,11.0,174.5,12.5,171.0,13.0,166.5,15.0,162.5,15.5,158.5,17.0,155.0,16.0,151.5,14.0,149.0,17.0,146.5,15.5,148.0,17.5,154.0,15.5,149.5,12.0,152.0,9.5,147.0,7.0,143.0,8.5,137.0,6.5,133.5,9.5,128.0,10.5,127.0,11.0,129.5,11.0,131.0,7.5,127.0,7.5,123.0,8.0" stroke="black" stroke-width="2" fill="none" />
<polyline points="124.0,9.0,124.5,12.5,124.0,16.5,120.5,18.0,128.0,21.0,132.5,22.0,138.5,23.5,142.5,20.5,147.0,21.5,149.5,19.5,153.0,22.0,157.5,20.5,161.5,21.0,164.0,19.0,167.5,20.0,169.5,18.0" stroke="black" stroke-width="2" fill="none" />
<polyline points="169.5,24.0,165.5,24.5,161.5,23.0,157.5,22.0" stroke="black" stroke-width="2" fill="none" />
<polyline points="158.0,23.0,154.0,22.5,150.0,21.0,146.5,23.5,142.5,23.0,138.5,23.5" stroke="black" stroke-width="2" fill="none" />
<polyline points="137.5,21.0,141.5,16.0,139.0,18.5,138.0,22.5,133.0,28.5,130.5,31.5,133.5,35.5,136.0,40.5,137.0,44.5,134.5,46.5,138.0,50.5,139.0,55.0,135.5,57.0,135.0,61.5" stroke="black" stroke-width="2" fill="none" />
<polyline points="137.0,56.5,136.0,54.0,135.5,50.0,133.5,46.0,131.5,44.5,132.5,40.5,129.0,35.0,128.0,38.5,124.0,37.0,120.5,35.5,116.5,39.0,111.5,33.5,110.5,37.5,110.0,36.0,105.5,36.0,102.0,35.0,101.5,32.0,99.5,30.5,99.5,25.5,98.0,21.5,97.0,19.0,92.5,19.0,88.5,19.0,84.5,19.5,83.5,22.5" stroke="black" stroke-width="2" fill="none" />
<polyline points="86.0,26.5,90.0,26.5,93.5,28.5,97.5,28.0" stroke="black" stroke-width="2" fill="none" />
<polyline points="102.0,26.5,104.0,25.5,105.5,29.5" stroke="black" stroke-width="2" fill="none" />
<polyline points="108.5,28.0,110.5,32.0" stroke="black" stroke-width="2" fill="none" />
<polyline points="111.5,27.5,116.0,30.0,118.5,31.5,122.0,30.0,124.5,30.0,128.5,30.0,132.0,28.0,132.5,30.5,136.5,31.5,140.5,31.5,144.5,31.5,148.0,32.0,153.0,36.5,155.5,35.5" stroke="black" stroke-width="2" fill="none" />
<polyline points="152.0,31.5,156.0,33.5,159.0,33.5,162.0,37.5" stroke="black" stroke-width="2" fill="none" />
<polyline points="168.0,32.5,172.0,30.0,176.5,29.0,180.5,29.0,184.5,29.0,188.5,31.0" stroke="black" stroke-width="2" fill="none" />
<polyline points="187.5,31.5,183.0,30.5,181.5,31.0,181.0,32.5" stroke="black" stroke-width="2" fill="none" />
<polyline points="182.0,33.0,185.5,37.5,190.0,40.0,188.5,44.0,195.0,48.0,194.0,51.0,193.5,55.0,191.5,59.0,194.0,59.5,193.5,66.0,195.0,67.0,199.5,69.0,202.0,73.5,203.0,80.0,204.0,84.0,205.5,88.0,208.0,90.5,209.0,94.5,208.5,98.0,207.5,102.0,203.0,106.0,199.5,110.0,202.0,110.0,204.0,110.0,205.0,110.5,206.5,111.5,211.0,109.0,213.5,107.0,214.5,102.0,219.5,102.0,223.5,100.5,227.5,101.5,227.5,104.5,229.0,105.0,233.0,107.5,237.0,111.5" stroke="black" stroke-width="2" fill="none" />
<polyline points="184.0,114.0,183.5,111.5,179.5,110.0,181.5,106.0,176.5,104.0,172.5,101.0" stroke="black" stroke-width="2" fill="none" />
<polyline points="171.0,101.5,175.0,101.0,179.0,104.0,182.5,108.0,184.0,109.5,188.0,111.0,189.0,107.5" stroke="black" stroke-width="2" fill="none" />
<polyline points="185.5,118.5,182.0,119.0,178.0,124.0,174.0,123.5,172.0,123.5,168.0,122.5,164.0,122.5,160.0,126.0,159.0,122.0,154.5,122.5,153.5,127.5,148.5,132.5,146.5,139.5,152.0,135.0,150.5,133.0,152.0,132.0,150.5,127.5,149.5,123.5" stroke="black" stroke-width="2" fill="none" />
<polyline points="147.0,122.5,151.0,125.5,151.5,120.0,156.0,116.5" stroke="black" stroke-width="2" fill="none" />
<polyline points="157.5,109.0,157.0,112.5,153.0,119.5,151.0,123.0,152.0,123.5,152.0,125.5,149.0,127.0,146.5,131.0,149.0,131.5,146.5,134.0,147.5,136.0,147.5,140.0,149.0,144.0,146.5,148.5,145.0,155.0,145.5,159.0,146.0,163.5,151.0,165.0,145.0,167.5,146.0,171.0,146.5,175.0,150.0,179.0,153.5,183.0,158.0,187.0,159.0,191.5,164.0,195.0,166.0,195.5,170.0,196.5,172.5,196.0,174.5,196.5,180.5,195.0,184.0,194.5,186.5,192.5,190.5,190.0,195.0,187.0,197.5,188.5" stroke="black" stroke-width="2" fill="none" />
<polyline points="187.0,259.5,185.5,263.5,183.5,267.0,183.0,270.5,187.0,274.0,187.5,277.5,190.5,281.5,191.5,285.5,191.5,289.0,191.0,291.5,191.0,295.0,191.0,299.0,191.0,302.5,192.0,306.5,191.5,311.0,192.0,315.5,191.0,319.5,191.5,324.0,190.0,328.0,189.0,331.0,186.5,332.0" stroke="black" stroke-width="2" fill="none" />
<polyline points="136.0,318.0,137.0,322.0,132.5,326.5,128.5,327.5" stroke="black" stroke-width="2" fill="none" />
<polyline points="177.0,285.0,179.5,278.5,179.5,274.5,177.5,269.0,177.5,265.0" stroke="black" stroke-width="2" fill="none" />
<polyline points="190.0,266.0,188.0,272.5,190.0,269.5,189.5,265.5,190.5,261.5" stroke="black" stroke-width="2" fill="none" />
<polyline points="149.5,127.5,147.0,127.5,143.0,126.0" stroke="black" stroke-width="2" fill="none" />
<polyline points="142.5,110.5,138.5,108.5,137.5,106.5" stroke="black" stroke-width="2" fill="none" />
<polyline points="137.5,108.5,137.0,113.0,138.0,114.5" stroke="black" stroke-width="2" fill="none" />
<polyline points="133.0,97.0,132.5,101.5,137.0,102.0,139.5,96.0,141.5,98.0,144.5,95.0,151.5,97.0" stroke="black" stroke-width="2" fill="none" />
<polyline points="154.5,92.0,155.0,94.0,157.5,90.5,155.5,89.0,155.5,86.0,158.5,85.0,157.5,87.5" stroke="black" stroke-width="2" fill="none" />
<polyline points="156.0,85.0,160.0,86.5,164.0,87.0" stroke="black" stroke-width="2" fill="none" />
<polyline points="165.0,85.0,161.0,85.0" stroke="black" stroke-width="2" fill="none" />
<polyline points="170.5,79.0,166.5,77.5,162.5,76.5,160.0,74.5,161.0,74.0,159.5,72.5,162.0,66.0,162.5,60.5,164.5,58.5,166.5,54.5,162.0,53.0,158.0,54.0" stroke="black" stroke-width="2" fill="none" />
<polyline points="156.5,49.5,152.5,50.0,148.5,48.5" stroke="black" stroke-width="2" fill="none" />
<polyline points="146.5,50.0,145.5,48.5,144.5,52.0,147.0,56.0,149.5,56.5,152.0,58.5,157.5,58.0,162.0,56.0,167.5,53.0,170.0,55.5,168.0,56.0,167.5,60.0,165.5,66.0,168.0,67.5,172.0,66.0" stroke="black" stroke-width="2" fill="none" />
<polyline points="173.0,67.5,171.5,62.0,174.5,59.5,175.0,57.0,174.0,53.0,175.0,48.5,172.0,44.5,169.5,42.0,165.0,43.5,161.0,46.0,160.5,43.5,155.0,40.5,150.0,35.5,146.0,34.5" stroke="black" stroke-width="2" fill="none" />
<polyline points="148.5,37.0,148.5,35.5,144.5,34.5,144.0,33.5,139.0,33.0,135.0,32.0,129.0,33.5,125.0,31.0" stroke="black" stroke-width="2" fill="none" />
<polyline points="123.0,30.0,125.0,32.5,120.0,37.0,124.5,39.5,131.0,41.5,138.0,41.5,139.5,40.0,142.5,38.0,146.0,41.0,150.5,43.5,154.5,41.5,158.5,38.5,160.0,37.5,163.5,37.5,165.0,35.5,169.5,42.0,173.5,42.0,175.0,45.5,176.0,48.0,180.5,49.5,184.5,50.0,190.0,53.5,194.0,55.0,199.5,52.0,201.5,52.0,205.0,55.0" stroke="black" stroke-width="2" fill="none" />
<polyline points="209.5,59.5,209.0,63.5,213.5,65.0,212.0,67.0,216.5,67.0,221.0,65.5,225.0,67.0,226.5,71.0" stroke="black" stroke-width="2" fill="none" />
<polyline points="236.5,91.5,233.5,85.0,230.5,80.5,226.5,76.0,222.5,73.0,218.5,71.0,219.5,68.5,216.0,67.5,214.5,71.0,210.5,71.0,210.5,70.0,206.0,67.0,202.0,65.5,199.0,62.0,197.5,62.0,194.5,63.0,192.0,63.0,190.5,61.5,184.5,57.5,182.0,55.5,182.0,53.0,178.0,53.5,174.0,53.0,171.0,52.5,169.0,50.5,168.5,50.0,164.5,52.5,160.0,53.5,156.5,55.5,153.0,56.5,149.5,53.5,147.5,52.0,148.5,48.0,149.5,44.5,145.5,40.5" stroke="black" stroke-width="2" fill="none" />
<polyline points="144.5,42.0,146.0,46.0,145.0,44.5,143.5,48.5,143.5,52.5,142.5,56.5,146.0,57.5,147.5,58.5,146.0,64.5" stroke="black" stroke-width="2" fill="none" />
<polyline points="143.5,60.5,144.0,59.0,148.0,60.0,151.5,59.5,156.0,58.0,160.0,59.5" stroke="black" stroke-width="2" fill="none" />
<polyline points="160.5,65.5,157.0,67.5,155.0,72.0,150.5,72.5" stroke="black" stroke-width="2" fill="none" />
<polyline points="156.0,66.5,156.0,70.5,153.0,73.0,157.5,76.5,157.0,78.0,161.5,77.0" stroke="black" stroke-width="2" fill="none" />
<polyline points="176.5,79.0,175.5,83.0" stroke="black" stroke-width="2" fill="none" />
<polyline points="172.5,99.0,173.5,102.5,173.5,108.0,172.5,108.0,173.5,109.5,178.0,110.0,179.5,113.5,181.5,112.5,185.5,113.0,186.5,115.0,190.5,112.5,193.0,115.5,196.5,115.5" stroke="black" stroke-width="2" fill="none" />
<polyline points="164.0,102.0,164.5,98.0" stroke="black" stroke-width="2" fill="none" />
<polyline points="165.5,96.5,163.5,98.0,162.0,102.0,159.0,105.5" stroke="black" stroke-width="2" fill="none" />
<polyline points="153.5,97.0,153.0,94.5,156.0,90.0,152.5,90.0,148.5,88.5,145.0,86.0" stroke="black" stroke-width="2" fill="none" />
<polyline points="144.0,85.0,145.0,89.0,142.5,93.0,146.5,93.5,145.0,94.5,148.0,95.0,146.5,96.5,145.0,98.5" stroke="black" stroke-width="2" fill="none" />
<polyline points="145.5,91.0,142.0,91.5" stroke="black" stroke-width="2" fill="none" />
<polyline points="149.5,93.5,147.0,94.5,144.0,98.0,139.5,99.0,138.5,100.5,136.0,104.0,136.0,101.5,139.5,98.0,134.0,95.0" stroke="black" stroke-width="2" fill="none" />
<polyline points="132.0,91.5,136.0,90.5" stroke="black" stroke-width="2" fill="none" />
<polyline points="132.5,87.0,128.5,90.0" stroke="black" stroke-width="2" fill="none" />
<polyline points="126.5,92.0,126.5,92.0,124.5,98.5,128.5,97.5,131.0,95.5,133.5,93.0" stroke="black" stroke-width="2" fill="none" />
<polyline points="123.5,89.0,125.5,88.0,128.0,91.5,127.5,95.5,129.0,95.5,127.0,99.5,128.0,105.0,131.0,105.5,131.0,101.0,134.0,105.5,137.0,107.0,140.5,104.5,144.5,109.0" stroke="black" stroke-width="2" fill="none" />
<polyline points="144.5,114.0,140.5,112.5,136.5,112.0,139.0,114.0,135.5,112.0,137.0,108.0,133.0,106.0,129.5,105.5,130.0,101.0,132.5,100.0,131.0,96.0,131.0,88.5,133.5,84.5,133.5,80.5,133.5,76.0,126.0,74.5" stroke="black" stroke-width="2" fill="none" />
<polyline points="125.5,73.0,129.5,73.5,128.5,76.0,130.5,76.5,132.5,78.5,131.0,83.0,129.5,89.5,132.5,94.0,134.0,95.0,134.5,101.5,135.5,103.5,138.0,107.5,138.5,109.0,141.5,112.5,144.5,114.5" stroke="black" stroke-width="2" fill="none" />
<polyline points="161.5,103.5,160.5,105.0,156.5,101.5,153.5,101.0,154.5,97.5,152.5,93.5,150.5,89.5" stroke="black" stroke-width="2" fill="none" />
<polyline points="134.5,81.0,133.0,75.5,129.5,78.0" stroke="black" stroke-width="2" fill="none" />
<polyline points="125.5,68.5,122.0,64.0" stroke="black" stroke-width="2" fill="none" />
<polyline points="121.0,62.5,123.5,66.5" stroke="black" stroke-width="2" fill="none" />
<polyline points="127.0,67.0,125.0,66.5,125.5,63.0,122.5,61.0,119.0,62.0,117.0,58.0,114.0,55.0,112.5,51.0,109.5,51.5,107.0,51.5,101.5,51.0,96.0,52.0,91.5,51.0,92.0,45.5,87.5,45.0,83.0,43.5,80.0,48.0,73.5,48.5,69.5,51.5,68.5,57.5,64.5,59.5,62.0,54.0,59.5,52.5,55.5,56.0,51.5,58.0,47.0,58.5,43.5,59.0,39.5,63.0,37.0,64.5,38.0,64.0,38.0,60.0,37.0,54.0,33.0,48.0,39.0,46.0,39.5,44.5,40.5,40.5,44.5,36.5,47.0,36.0,42.0,37.0,38.0,36.5,34.0,37.5" stroke="black" stroke-width="2" fill="none" />
<polyline points="31.0,39.0,34.5,43.5,36.0,39.5,31.5,37.0,31.5,41.0,34.5,44.5,38.5,44.5,42.5,51.0,47.0,50.0,50.5,51.0,52.0,50.0,55.0,50.5,57.0,54.5,51.5,57.0,49.0,58.0,45.5,58.0,44.0,62.0,41.5,66.5,41.5,74.0,40.0,78.0,42.0,81.0,38.0,85.5,35.0,89.0,33.5,93.0,30.5,94.5,35.0,96.0" stroke="black" stroke-width="2" fill="none" />
<polyline points="33.5,100.0,36.0,100.5,36.5,104.5" stroke="black" stroke-width="2" fill="none" />
<polyline points="33.0,86.0,37.5,87.0,41.5,84.0,45.5,83.5" stroke="black" stroke-width="2" fill="none" />
<polyline points="54.5,82.0,54.0,84.5,51.5,83.5,49.0,85.5,44.5,88.0,48.0,84.5,50.0,80.0,53.5,78.0,53.0,70.5,54.0,67.0,56.0,63.5,54.0,61.0,57.5,60.5,62.0,57.0,62.0,54.0,59.5,53.0,59.0,49.0,57.5,48.0,59.0,46.5" stroke="black" stroke-width="2" fill="none" />
<polyline points="56.0,46.0,60.0,49.0,61.5,45.5,65.5,49.0,69.5,49.5" stroke="black" stroke-width="2" fill="none" />
<polyline points="71.5,48.5,67.5,48.0,65.0,43.0,61.0,42.5,56.5,40.0,53.5,37.5,49.5,34.0,45.5,32.5" stroke="black" stroke-width="2" fill="none" />
<polyline points="43.5,30.5,44.5,29.0,48.0,31.5,53.5,31.0,52.0,35.0,54.5,36.0,56.5,39.5,60.5,39.0,64.5,40.5,69.5,39.5,73.5,38.0,74.0,36.5,78.0,35.0,82.0,35.0,86.0,35.0,91.0,34.5,94.5,35.5" stroke="black" stroke-width="2" fill="none" />
<polyline points="94.0,40.0,98.0,39.0,102.0,37.5,104.5,43.0,108.5,44.0,112.5,45.5,116.5,46.0" stroke="black" stroke-width="2" fill="none" />
<polyline points="119.0,47.5,121.0,51.5" stroke="black" stroke-width="2" fill="none" />
<polyline points="118.5,49.5,120.5,53.5,122.5,57.5" stroke="black" stroke-width="2" fill="none" />
<polyline points="124.5,54.0,121.0,52.0,121.0,45.5,117.0,48.0,110.5,47.5,110.0,47.5,107.0,47.5,105.5,45.5" stroke="black" stroke-width="2" fill="none" />
<polyline points="113.0,39.0,117.0,40.0,118.5,40.0,121.0,41.5,123.5,44.5,128.5,46.0,132.5,43.5,136.5,46.5" stroke="black" stroke-width="2" fill="none" />
<polyline points="139.5,46.5,135.5,47.5,131.5,45.0" stroke="black" stroke-width="2" fill="none" />
<polyline points="131.5,35.0,135.5,36.5,140.0,37.0,144.5,37.0,148.5,40.5,152.5,36.0,152.5,36.5,154.5,36.5,159.0,35.5" stroke="black" stroke-width="2" fill="none" />
<polyline points="156.0,30.0,159.5,30.0,166.5,28.5,167.5,28.5,171.5,26.0,177.0,27.0,181.0,26.5,185.0,27.0,187.5,27.5" stroke="black" stroke-width="2" fill="none" />
<polyline points="185.5,18.0,186.0,14.5,183.0,14.0,179.0,14.5" stroke="black" stroke-width="2" fill="none" />
<polyline points="182.5,15.0,181.5,19.0" stroke="black" stroke-width="2" fill="none" />
<polyline points="178.0,24.5,182.0,25.0,185.5,25.0" stroke="black" stroke-width="2" fill="none" />
<polyline points="185.0,12.5,181.0,13.5,176.5,14.5,172.5,15.0,168.5,16.0,164.0,17.5,163.0,17.5,158.0,17.0,153.0,17.0" stroke="black" stroke-width="2" fill="none" />
<polyline points="158.5,10.5,156.0,10.5,152.5,8.0,152.0,7.0,148.0,6.0,145.5,5.0,142.5,4.0,138.5,4.0,136.0,6.5,129.5,6.5,126.0,6.5,121.5,3.0,117.5,3.5,113.0,7.0,108.5,12.0,109.5,9.5,112.0,5.5,113.5,3.0,109.5,5.5,109.0,8.0" stroke="black" stroke-width="2" fill="none" />
<polyline points="112.5,6.5,116.5,6.0,120.5,5.0,124.5,4.5,128.5,4.0,132.5,4.0,137.0,5.5,141.0,8.5" stroke="black" stroke-width="2" fill="none" />
<polyline points="138.0,8.5,137.5,11.0,135.5,10.0,131.0,11.0,127.0,15.5,124.5,16.5,121.5,18.0,118.5,15.5,122.5,15.0,117.5,11.0" stroke="black" stroke-width="2" fill="none" />
<polyline points="110.0,12.0,114.0,8.5,118.5,7.0,122.0,7.0,115.0,8.0,110.0,12.0,109.0,16.0,106.5,20.0,111.0,20.5,110.0,25.0,111.5,26.0,111.5,25.0,115.5,24.5,114.5,22.5,118.0,22.5,122.5,20.5,126.5,22.0,127.5,18.5,128.5,20.5,131.5,18.5,133.5,22.0,136.0,23.0,140.0,16.5,142.0,12.5,146.0,14.0,152.5,13.0,156.5,13.5,160.5,19.5,164.0,21.0,169.0,23.0,174.5,20.5,174.5,25.5,178.5,24.5,179.0,23.0,183.0,21.5,184.0,19.0,183.0,23.5" stroke="black" stroke-width="2" fill="none" />
<polyline points="180.0,11.0,173.5,17.0,171.5,21.5,166.5,20.5,168.0,21.5,171.0,24.5,171.0,28.5,167.5,27.5,169.0,31.0,169.5,34.5,176.0,38.0,173.0,41.0,175.5,45.0,178.0,47.5,175.0,55.0,177.0,57.0,177.5,57.5,181.0,60.0,177.0,63.5,180.0,68.0,178.0,72.0,181.5,70.0" stroke="black" stroke-width="2" fill="none" />
<polyline points="177.0,68.0,177.0,64.0,175.0,60.5" stroke="black" stroke-width="2" fill="none" />
<polyline points="153.0,48.0,149.0,46.5,144.5,50.5" stroke="black" stroke-width="2" fill="none" />
<polyline points="144.5,54.5,148.5,54.0,151.0,53.0,155.0,53.0" stroke="black" stroke-width="2" fill="none" />
<polyline points="149.5,41.0,151.0,36.5,147.5,37.5,142.0,34.0,143.0,30.0,145.5,30.0,141.5,28.5" stroke="black" stroke-width="2" fill="none" />
<polyline points="137.0,26.5,141.0,27.0,145.0,27.5,148.5,26.5,153.0,26.5,159.5,26.0" stroke="black" stroke-width="2" fill="none" />
<polyline points="159.5,24.5,154.5,25.5,156.5,26.0,153.0,30.0,154.0,33.5,157.0,36.0,158.0,38.5,156.0,42.5,158.0,47.5,154.0,50.0,156.0,57.0,153.0,62.5,150.0,64.0,146.0,66.0,149.0,60.5,150.5,62.5,153.5,65.5,156.0,65.0,158.0,66.0,162.5,63.5,166.5,63.0,169.5,62.5,173.0,63.0,173.0,61.0,175.0,60.0,178.0,66.0" stroke="black" stroke-width="2" fill="none" />
<polyline points="141.0,51.0,138.5,51.5,134.5,51.0,132.5,49.5,129.0,52.0,125.0,51.0,127.0,48.5,129.0,47.5,127.5,44.0,122.5,40.0,119.5,36.5,119.5,35.0,117.5,31.0,122.5,27.5,128.0,25.5,133.0,22.5,136.5,21.5,138.0,18.0,134.5,17.0,135.5,15.0,140.5,11.0,140.0,6.5,140.0,3.0,137.5,3.0" stroke="black" stroke-width="2" fill="none" />
<polyline points="129.5,3.5,130.5,7.5,133.0,10.0,132.0,11.5,128.5,15.0,131.5,17.5,134.5,20.0,131.5,21.0,130.0,22.5,131.5,26.5,129.5,30.5,133.0,33.0,135.0,39.5,129.5,41.0,132.0,45.5,131.5,50.0,127.5,53.5" stroke="black" stroke-width="2" fill="none" />
<polyline points="128.0,41.5,124.0,38.0" stroke="black" stroke-width="2" fill="none" />
<polyline points="123.5,37.5,127.5,38.5,131.0,38.5,135.5,38.0,139.0,39.5,143.0,40.5" stroke="black" stroke-width="2" fill="none" />
<polyline points="139.5,38.0,142.5,38.5,140.5,42.5,139.0,45.5,142.0,48.5,140.0,50.5" stroke="black" stroke-width="2" fill="none" />
<polyline points="136.5,35.0,132.5,33.5" stroke="black" stroke-width="2" fill="none" />
<polyline points="130.0,37.0,123.5,33.0" stroke="black" stroke-width="2" fill="none" />
<polyline points="118.0,28.5,119.0,23.0" stroke="black" stroke-width="2" fill="none" />
<polyline points="122.5,17.5,126.5,15.5,132.5,14.5" stroke="black" stroke-width="2" fill="none" />
<polyline points="135.5,11.5,132.0,13.0,136.0,12.5,135.5,17.0,138.5,13.5,142.5,11.0,146.5,12.0" stroke="black" stroke-width="2" fill="none" />
<polyline points="159.5,6.5,160.0,5.0,159.5,6.5,160.5,10.0" stroke="black" stroke-width="2" fill="none" />
<polyline points="163.0,24.5,164.0,28.5,164.0,32.5,165.0,34.0,167.5,37.0,158.5,41.5,156.5,45.5,152.5,49.0,151.0,55.0,154.5,56.0,151.5,58.0,149.5,62.0,148.0,66.0,150.0,68.0,155.0,71.5,156.5,75.5,160.0,79.0,160.0,83.5,157.5,86.0,162.5,90.0,162.0,94.5,159.5,95.5,162.5,90.5,166.5,91.5" stroke="black" stroke-width="2" fill="none" />
<polyline points="132.5,69.5,132.5,72.5,133.0,68.0" stroke="black" stroke-width="2" fill="none" />
<polyline points="162.0,49.0,162.0,47.0,158.5,46.0,156.0,45.5,151.5,42.5,146.0,45.5,143.5,45.0,142.0,44.0,137.5,44.5,136.0,39.5,133.0,39.0,128.5,36.5,124.5,34.5,120.5,35.5,117.0,33.0,114.5,34.5,115.0,32.0,112.0,28.0,116.5,28.5,111.5,23.0,112.5,20.5,111.5,16.5,111.5,17.0" stroke="black" stroke-width="2" fill="none" />
<polyline points="104.5,6.0,108.5,2.5,105.0,4.0,104.5,8.0,100.5,12.0,100.0,12.0,101.5,16.0,98.5,17.0,92.0,19.0,84.0,21.5,84.5,26.0,86.5,26.0,89.0,29.5,89.5,29.5,93.5,31.5,97.5,33.0,101.5,35.0,104.5,33.5" stroke="black" stroke-width="2" fill="none" />
<polyline points="95.5,42.0,99.5,42.0,105.5,41.5,106.5,40.0,109.5,40.5,114.0,43.5,118.0,44.0,121.5,46.0,126.0,46.5" stroke="black" stroke-width="2" fill="none" />
<polyline points="111.0,68.0,107.5,61.5,106.0,57.5,103.5,55.5,104.0,51.5,100.5,50.5,100.0,47.5,98.0,53.0,91.5,51.0,90.5,54.5,86.5,59.5,82.0,59.5,87.0,57.5,85.5,56.5,86.0,55.5,87.5,51.0,89.0,51.0,92.5,49.5,92.0,45.5,90.5,41.0,90.5,39.0,86.5,40.0,83.0,39.5,79.5,39.0" stroke="black" stroke-width="2" fill="none" />
<polyline points="76.0,39.0,76.5,37.5,80.5,38.5,84.5,38.0,88.0,38.0,92.0,37.5,95.5,36.5,99.5,36.5" stroke="black" stroke-width="2" fill="none" />
<polyline points="97.0,34.5,98.0,31.5,95.0,29.0,90.5,28.0,88.0,27.5,88.0,26.5" stroke="black" stroke-width="2" fill="none" />
<polyline points="91.0,21.5,95.0,21.5,101.0,23.5,105.0,23.5" stroke="black" stroke-width="2" fill="none" />
<polyline points="93.5,15.0,97.0,10.0,99.5,6.0,99.5,5.5" stroke="black" stroke-width="2" fill="none" />
<polyline points="101.5,4.5,101.5,8.5" stroke="black" stroke-width="2" fill="none" />
<polyline points="106.5,4.5,105.5,8.5,105.0,12.5,102.0,16.5,103.5,20.5,101.0,21.5,102.5,26.0,103.5,27.0,103.5,31.0,103.5,35.5,102.0,37.0,104.0,39.0,100.0,42.5,103.0,45.0,100.0,46.5,103.5,47.5,101.0,51.5,100.5,56.5,104.5,57.5,102.5,59.0,104.5,59.0,107.0,61.5,107.5,63.0,110.0,67.5,111.5,68.0" stroke="black" stroke-width="2" fill="none" />
<polyline points="113.0,56.0,108.5,58.5,105.5,56.5,103.5,57.5,100.0,56.0,93.5,57.5,90.0,59.0,85.5,63.0,81.0,65.5,76.0,66.5,71.5,69.0,67.0,74.0,63.0,76.0,58.5,77.5,58.5,76.0,58.0,71.5,60.5,71.0,62.5,67.0,62.0,63.0" stroke="black" stroke-width="2" fill="none" />
<polyline points="68.0,65.5,70.5,68.0,69.5,71.5,62.0,74.5" stroke="black" stroke-width="2" fill="none" />
<polyline points="63.0,78.0,59.0,78.5" stroke="black" stroke-width="2" fill="none" />
<polyline points="60.5,87.0,56.0,86.5,56.0,85.0,60.0,87.0,60.0,83.0,59.5,80.5,64.5,79.0,67.0,75.0,72.0,73.5,74.0,69.0,75.5,65.0,77.0,61.0,79.0,61.5,73.0,59.0,74.0,55.0,74.5,50.5,77.5,49.5,74.0,47.5,72.5,45.0,67.0,42.0,69.0,39.0,67.5,37.0,71.5,33.5,71.0,30.5,75.0,27.0,80.0,26.0,79.5,20.5,83.0,17.0,79.5,14.5" stroke="black" stroke-width="2" fill="none" />
<polyline points="80.0,13.5,83.5,14.5,87.5,15.5" stroke="black" stroke-width="2" fill="none" />
<polyline points="78.0,17.0,79.5,15.5,82.0,19.5,82.0,17.0,86.0,15.0,90.0,14.5,94.0,13.5,98.0,15.0,99.0,18.0" stroke="black" stroke-width="2" fill="none" />
<polyline points="102.5,18.0,96.5,13.5,90.0,11.5,86.0,10.5,79.5,10.5,77.0,12.5,73.5,14.5,69.5,16.0" stroke="black" stroke-width="2" fill="none" />
<polyline points="65.5,25.0,61.5,29.0,60.0,33.5,65.0,34.0,61.0,41.0,65.0,46.0,73.5,43.5,77.5,44.0" stroke="black" stroke-width="2" fill="none" />
<polyline points="82.0,42.5,84.0,46.5,85.0,51.5,91.5,46.0" stroke="black" stroke-width="2" fill="none" />
<polyline points="96.0,46.0,92.0,44.5,87.5,44.0,83.5,45.0,79.5,42.5,75.5,41.5,71.5,42.5,69.0,43.0,65.0,43.0,61.0,42.0,57.0,43.0,53.5,44.5,49.0,43.5,44.5,44.0,40.0,45.5,42.0,42.5,41.0,41.0,37.0,40.5" stroke="black" stroke-width="2" fill="none" />
<polyline points="36.0,41.0,39.5,40.5,43.5,41.0" stroke="black" stroke-width="2" fill="none" />
<polyline points="47.0,43.0,51.0,43.5" stroke="black" stroke-width="2" fill="none" />
<polyline points="54.5,51.0,50.0,51.0,46.0,52.5,42.0,51.5,38.0,52.0,33.5,50.5,32.0,48.0,28.0,47.5,23.5,47.0,19.5,48.0,22.0,44.0,24.0,43.5,20.0,45.0" stroke="black" stroke-width="2" fill="none" />
<polyline points="20.0,48.0,24.5,49.0,21.5,52.5,19.5,52.5,12.0,57.0,12.0,60.5,14.5,63.5,14.5,62.5,18.5,61.0,22.0,60.0,26.0,58.0,30.5,57.5,31.5,54.0" stroke="black" stroke-width="2" fill="none" />
<polyline points="30.0,43.5,34.0,47.5,37.0,51.5,41.5,51.5,44.0,50.0,49.0,47.0,51.5,47.5,55.0,46.0,58.5,43.5,62.5,44.5,66.5,44.5,71.0,44.5,74.5,41.5,78.0,42.5,84.0,41.0,88.0,42.0,92.0,41.5,97.0,38.0" stroke="black" stroke-width="2" fill="none" />
<polyline points="95.5,42.5,94.5,46.5,96.5,47.5,98.5,51.0,98.5,53.0,102.5,52.5,107.0,56.0,111.0,58.0" stroke="black" stroke-width="2" fill="none" />
<polyline points="95.5,55.0,94.0,59.0,93.0,63.0,90.0,64.5,88.0,68.5,92.5,73.5,90.0,77.5,84.0,81.5,81.5,86.0,82.5,85.5,87.0,82.5,91.0,80.0,94.5,77.0,97.5,73.5,100.0,71.0" stroke="black" stroke-width="2" fill="none" />
<polyline points="83.0,70.5,79.0,67.0,77.0,71.5,73.0,75.5,71.0,74.5,69.5,73.5" stroke="black" stroke-width="2" fill="none" />
<polyline points="70.0,73.0,77.0,69.0" stroke="black" stroke-width="2" fill="none" />
<polyline points="80.0,65.5,81.0,69.5,76.5,73.0,75.0,77.0,68.5,80.5,71.0,82.5,69.5,84.5,71.5,85.5,75.5,85.5" stroke="black" stroke-width="2" fill="none" />
<polyline points="78.5,77.0,78.0,81.0,73.5,85.0,76.0,86.0,76.5,83.0,80.0,83.5,84.0,81.5,88.0,78.5" stroke="black" stroke-width="2" fill="none" />
<polyline points="83.0,77.5,81.5,73.5" stroke="black" stroke-width="2" fill="none" />
<polyline points="76.0,59.5,74.0,62.5,69.5,67.0,65.0,70.0,60.5,72.0,60.0,70.0,59.0,66.5,57.5,65.0,61.0,63.0,60.0,59.0,66.5,55.5,69.5,51.5,74.0,49.5,67.5,47.0,63.5,45.5" stroke="black" stroke-width="2" fill="none" />
<polyline points="67.0,38.0,63.0,37.5,57.5,34.5,54.5,34.5,50.5,38.5,46.5,35.5,42.5,36.0,40.5,34.0,37.0,35.0,34.5,36.0,30.5,38.5" stroke="black" stroke-width="2" fill="none" />
<polyline points="46.5,27.5,50.5,25.0,55.5,28.5" stroke="black" stroke-width="2" fill="none" />
<polyline points="49.0,32.5,51.0,36.5,50.0,39.0,53.5,39.0,57.5,37.0,61.5,35.0,62.0,33.0,62.5,30.0,65.5,35.0,69.5,36.5,74.5,31.5,78.5,28.5,79.5,30.5,84.0,32.5,88.0,32.5,93.5,31.0,96.0,30.0,100.5,31.5,103.5,33.0,107.5,33.0" stroke="black" stroke-width="2" fill="none" />
<polyline points="97.0,17.5,94.0,19.5,89.5,19.0,85.5,22.0,81.5,24.5,77.5,26.0,74.0,28.0,73.5,27.5,73.5,29.5,69.5,33.0,69.0,31.5,69.5,27.5,66.5,25.5" stroke="black" stroke-width="2" fill="none" />
<polyline points="71.0,27.0,67.0,29.5,67.0,31.5,66.5,30.5" stroke="black" stroke-width="2" fill="none" />
<polyline points="64.0,30.0,68.0,32.0,74.0,34.0,78.5,31.5,85.0,33.0,89.0,33.0" stroke="black" stroke-width="2" fill="none" />
<polyline points="83.0,45.5,79.5,49.5,82.0,49.5,79.5,54.5,81.0,57.0,77.5,58.0,73.5,62.5,66.5,67.5,64.5,72.0,58.5,76.0,59.5,80.0,53.0,83.0,59.5,86.0,62.5,84.5,66.0,83.5,70.5,83.0,74.5,81.0,79.0,80.0,83.5,78.0" stroke="black" stroke-width="2" fill="none" />
<polyline points="60.0,69.5,55.5,71.0,51.5,72.0,47.0,72.0,43.0,72.0,39.0,72.0,35.0,75.0,33.5,73.5,35.0,69.5,32.0,70.0" stroke="black" stroke-width="2" fill="none" />
<polyline points="29.5,69.5,27.5,73.5,29.5,78.5,35.0,80.0,41.0,83.0" stroke="black" stroke-width="2" fill="none" />
<polyline points="42.0,75.0,46.0,76.5,49.5,77.0" stroke="black" stroke-width="2" fill="none" />
<polyline points="51.5,72.5,55.5,71.5" stroke="black" stroke-width="2" fill="none" />
<polyline points="50.5,67.5,44.5,70.5,48.0,67.0" stroke="black" stroke-width="2" fill="none" />
<polyline points="46.5,64.0,50.5,62.0,54.5,61.0" stroke="black" stroke-width="2" fill="none" />
<polyline points="50.5,59.5,47.0,61.0,43.0,62.5,43.5,64.0" stroke="black" stroke-width="2" fill="none" />
<polyline points="42.5,54.0,47.0,53.5,51.0,53.5,54.5,53.5,58.0,53.0,62.0,54.0,66.0,53.5,72.5,53.0,76.5,50.5,81.0,51.5" stroke="black" stroke-width="2" fill="none" />
<polyline points="78.0,52.0,77.0,56.0,78.5,57.5,83.0,57.5" stroke="black" stroke-width="2" fill="none" />
<polyline points="91.0,52.5,90.0,56.0,86.5,60.0,82.5,65.0,82.5,66.5,86.5,71.0,89.5,73.5" stroke="black" stroke-width="2" fill="none" />
<polyline points="73.5,55.0,75.5,55.5,74.5,51.5" stroke="black" stroke-width="2" fill="none" />
<polyline points="62.5,62.5,61.5,63.5,57.0,64.5,52.0,64.5,48.0,65.5,44.5,67.0,41.0,70.0,39.0,73.5,35.0,75.0,29.5,74.5,27.0,72.5,26.0,73.5,22.5,73.5,20.5,77.0,16.0,76.5,11.5,78.0,9.0,78.5,3.5,80.0,1.5,82.0" stroke="black" stroke-width="2" fill="none" />
<polyline points="4.5,83.0,8.5,82.0" stroke="black" stroke-width="2" fill="none" />
<polyline points="12.0,78.5,11.5,83.0,10.0,83.5,9.5,90.5,5.0,95.5,6.5,92.5,10.5,88.0,10.5,88.5,14.0,86.0,14.0,83.5" stroke="black" stroke-width="2" fill="none" />
<polyline points="13.5,80.5,17.5,77.5,13.5,80.5,13.0,84.5,13.0,86.0,12.5,90.5,14.0,93.0,18.0,89.0,20.5,89.0,24.5,88.5,28.5,85.5" stroke="black" stroke-width="2" fill="none" />
<polyline points="23.0,90.0,27.0,89.0,21.0,93.0,24.5,91.5" stroke="black" stroke-width="2" fill="none" />
<polyline points="15.0,89.0,14.0,90.0,15.5,87.5,21.0,82.5,19.0,78.5" stroke="black" stroke-width="2" fill="none" />
<polyline points="17.0,78.5,16.5,82.0,19.5,80.0,26.5,83.0,31.0,83.0,36.0,83.0" stroke="black" stroke-width="2" fill="none" />
<polyline points="26.5,76.0,25.0,74.5,21.0,76.0" stroke="black" stroke-width="2" fill="none" />
<polyline points="21.5,72.5,24.5,70.5,20.5,71.0,19.5,75.0,23.0,78.5,23.0,82.5,26.0,84.5,26.5,87.0,30.5,89.5,32.5,92.0,35.0,90.5,38.5,88.0,42.5,86.5" stroke="black" stroke-width="2" fill="none" />
<polyline points="24.0,66.0,20.5,68.0,18.0,67.5,13.0,67.0,8.5,67.5" stroke="black" stroke-width="2" fill="none" />
<polyline points="12.0,63.5,9.5,64.5,7.0,69.5,2.5,71.5,4.0,70.5,4.0,66.5,5.0,65.5,1.0,67.0" stroke="black" stroke-width="2" fill="none" />
<polyline points="2.0,72.5,6.0,70.0,13.0,74.5,16.5,72.0,22.0,69.0,26.5,68.0,30.5,66.0" stroke="black" stroke-width="2" fill="none" />
<polyline points="21.0,63.5,14.5,67.5,15.5,70.5,12.0,71.5,10.0,68.0,10.5,70.5" stroke="black" stroke-width="2" fill="none" />
<polyline points="8.5,61.5,3.0,64.0,6.5,62.5,11.0,61.5,17.5,63.0,21.5,62.5,26.0,64.0" stroke="black" stroke-width="2" fill="none" />
<polyline points="23.5,57.5,19.5,58.5,15.0,60.0,10.0,59.5,6.5,59.5,3.0,62.0,6.0,59.5" stroke="black" stroke-width="2" fill="none" />
<polyline points="5.0,87.0,1.0,88.0" stroke="black" stroke-width="2" fill="none" />
<polyline points="4.0,107.0,8.0,107.5" stroke="black" stroke-width="2" fill="none" />
<polyline points="5.0,153.5,1.0,154.0" stroke="black" stroke-width="2" fill="none" />
<polyline points="6.5,157.5,6.5,161.5" stroke="black" stroke-width="2" fill="none" />
<polyline points="8.0,158.5,9.5,157.5" stroke="black" stroke-width="2" fill="none" />
<polyline points="3.0,161.5,2.0,163.5" stroke="black" stroke-width="2" fill="none" />
<polyline points="9.0,177.5,9.0,172.5,10.5,174.5,15.0,173.5,15.5,174.5" stroke="black" stroke-width="2" fill="none" />
<polyline points="47.0,28.0,51.0,30.0,51.5,28.0,52.5,28.5,56.0,30.5,59.5,30.0,64.0,25.0,66.5,22.0,70.5,20.0,71.5,23.0,75.5,23.0,81.0,27.0,82.5,25.5,85.0,24.0,89.0,24.0,92.5,24.5,94.0,23.0,98.5,25.0,99.0,27.0,102.0,26.5,106.0,24.5,110.0,25.0,111.5,20.0,113.0,20.0,114.5,19.5,118.0,18.5,122.5,16.0" stroke="black" stroke-width="2" fill="none" />
<polyline points="126.5,7.5,130.0,8.0" stroke="black" stroke-width="2" fill="none" />
<polyline points="110.5,3.0,108.5,7.0,107.5,10.5,106.5,12.5,108.0,16.0,106.5,15.5,105.5,19.0,107.5,21.5,111.0,24.0,110.5,28.5,113.5,32.5,108.5,35.0,109.5,36.5,114.0,37.0,117.0,41.0,116.5,45.5,118.0,45.5,117.0,49.5,112.5,49.0,113.0,53.5,115.0,53.5,116.0,56.0,110.5,59.5,113.5,61.0,114.5,60.0,118.0,58.0,119.5,61.5,120.0,63.5,122.0,68.5" stroke="black" stroke-width="2" fill="none" />
<polyline points="114.5,52.5,110.5,50.0,106.5,47.0,105.0,51.5,103.0,48.5,101.5,44.5,98.5,44.5,98.0,46.5,94.0,50.0,90.0,50.0,86.0,48.5,83.5,51.0,79.0,47.5,75.0,48.5,73.5,46.0,75.0,39.5,75.0,36.5,73.5,33.0" stroke="black" stroke-width="2" fill="none" />
<polyline points="51.0,19.5,47.0,20.5" stroke="black" stroke-width="2" fill="none" />
<polyline points="47.5,23.0,44.0,23.0,40.0,25.0,36.5,20.0" stroke="black" stroke-width="2" fill="none" />
<polyline points="36.0,18.5,37.0,22.5,44.5,25.0,41.0,27.5,43.0,31.0,46.5,32.0,51.5,36.0,52.0,40.0,50.5,42.0,43.5,46.0,40.5,48.5,41.0,50.5,42.0,54.5,42.0,61.5,39.0,65.0,40.5,69.0,39.0,74.0,38.0,74.5,36.0,79.5,33.0,83.5,29.5,88.0,30.5,92.5,31.0,94.5,34.5,97.5,36.5,99.0,36.0,103.5,34.5,105.0,38.5,104.5" stroke="black" stroke-width="2" fill="none" />
<polyline points="36.5,24.5,34.5,20.5,36.0,16.5" stroke="black" stroke-width="2" fill="none" />
<polyline points="201.5,1.5,201.0,5.5,200.5,10.0,200.0,14.0,200.0,18.5,201.5,19.5,202.0,22.5,201.5,28.5,203.0,32.5,204.0,36.5,204.0,40.5,204.0,44.5,205.0,48.0,204.5,51.5,206.0,56.0,203.5,61.0,207.5,64.0,202.5,67.5,206.0,70.5,208.0,72.5,209.5,70.5,212.5,66.5,216.5,66.0,217.0,62.0,221.0,64.5,225.0,66.0" stroke="black" stroke-width="2" fill="none" />
<polyline points="201.5,37.0,202.0,33.0" stroke="black" stroke-width="2" fill="none" />
</svg>