<svg xmlns="http://www.w3.org/2000/svg" version="1.1"><polyline points="142.5,3.5,141.0,15.0,141.5,27.0,141.5,39.5,142.0,51.5,142.0,63.5,142.0,75.5,141.5,88.0,141.5,100.0,142.0,112.0,142.0,124.5,142.0,136.5,142.0,148.0,142.0,159.0,142.0,171.0,142.0,182.5,142.0,194.5,142.0,207.0,141.5,219.0,141.5,231.0,141.5,243.0,141.5,255.0,141.5,267.0,141.5,279.0,147.5,282.0,160.0,277.5,172.0,277.5,184.5,278.0,196.5,278.0,209.0,278.0,227.0,264.5,239.0,257.0,250.5,248.5" stroke="black" stroke-width="2" fill="none" />
<polyline points="258.5,241.5,240.5,253.5,224.0,265.5" stroke="black" stroke-width="2" fill="none" />
<polyline points="221.0,257.5,221.0,245.5,218.0,233.5,210.5,221.5,203.5,209.5,197.5,198.0,190.5,185.5,192.0,173.5,192.0,167.5,180.0,169.5,168.0,166.5" stroke="black" stroke-width="2" fill="none" />
<polyline points="166.0,161.0,178.0,155.0,190.0,147.5,202.5,141.5,214.5,132.5,227.0,129.5,239.0,127.0,250.5,124.5,262.5,122.0,274.0,119.0,286.0,117.5" stroke="black" stroke-width="2" fill="none" />
<polyline points="307.0,118.0,295.0,111.0,283.0,90.5,271.0,71.0,259.5,51.5" stroke="black" stroke-width="2" fill="none" />
<polyline points="255.0,53.0,267.0,72.0,279.0,91.5,291.0,112.5,303.0,122.0,315.0,125.5" stroke="black" stroke-width="2" fill="none" />
<polyline points="312.0,137.0,292.0,146.0,279.5,153.5,270.5,158.0,291.5,146.0,286.5,144.0,274.5,148.5" stroke="black" stroke-width="2" fill="none" />
<polyline points="279.0,130.5,267.0,136.5,255.0,135.0,243.5,139.5" stroke="black" stroke-width="2" fill="none" />
<polyline points="253.5,159.0,236.5,171.0,223.0,182.5,235.0,172.0,247.0,163.0,259.0,157.0" stroke="black" stroke-width="2" fill="none" />
<polyline points="278.5,176.5,290.5,172.0,303.0,160.0,315.0,155.5,311.5,175.0" stroke="black" stroke-width="2" fill="none" />
<polyline points="307.5,175.0,303.0,163.0" stroke="black" stroke-width="2" fill="none" />
<polyline points="310.5,162.0,292.0,159.0,280.0,169.5,268.0,182.0,256.5,197.0,247.5,209.0,256.5,197.5,265.5,185.5,279.5,172.0,291.5,160.5" stroke="black" stroke-width="2" fill="none" />
<polyline points="292.5,154.5,277.5,166.5,265.5,178.0,255.0,190.0,248.0,202.0,245.0,204.5,257.0,188.0,272.0,171.5,283.5,159.5" stroke="black" stroke-width="2" fill="none" />
<polyline points="290.5,152.0,279.0,158.0,267.0,173.0,255.0,173.5,243.0,184.0,233.5,193.0,245.5,181.5,269.5,172.5,274.0,160.5,295.5,148.5" stroke="black" stroke-width="2" fill="none" />
<polyline points="307.0,134.5,283.0,146.5,268.0,159.0,259.0,166.5,245.5,178.0,233.0,190.0,235.0,188.5,247.0,176.0,259.0,165.5,275.0,144.5,286.5,135.5,298.5,129.0,310.5,129.0,330.0,130.5,342.0,140.0,354.0,143.5,366.0,151.0" stroke="black" stroke-width="2" fill="none" />
<polyline points="356.5,171.5,353.5,159.5,351.5,152.0,340.0,147.5" stroke="black" stroke-width="2" fill="none" />
<polyline points="338.0,144.0,350.0,147.0,362.0,153.0" stroke="black" stroke-width="2" fill="none" />
<polyline points="355.5,177.5,344.0,165.5,329.0,188.0" stroke="black" stroke-width="2" fill="none" />
<polyline points="330.5,164.0,330.5,169.5,326.0,170.0,323.0,156.5,320.0,144.5,321.0,125.0,321.0,113.0,321.0,100.5,321.0,88.0,321.0,76.0,321.0,64.0,321.0,52.5,321.0,40.5,321.0,28.5,321.0,16.5,306.0,15.5,294.0,15.5,282.5,15.5,270.5,15.0,258.0,15.0" stroke="black" stroke-width="2" fill="none" />
<polyline points="259.0,14.5,259.5,26.5,259.0,38.5,260.5,50.0,266.5,62.0,274.0,74.5,281.5,86.5,288.5,98.5,294.5,110.5" stroke="black" stroke-width="2" fill="none" />
<polyline points="276.0,94.0,264.0,74.0,252.0,51.0" stroke="black" stroke-width="2" fill="none" />
<polyline points="248.5,56.0,260.5,76.5,272.0,96.0" stroke="black" stroke-width="2" fill="none" />
<polyline points="316.5,114.0,316.5,102.0,316.5,89.5,317.0,77.5,317.0,65.0,317.0,53.0,317.0,40.5,317.0,29.0,317.0,17.0,327.5,5.0,318.5,3.5,306.5,3.5,294.5,3.5,283.0,4.0,271.0,4.0,259.0,4.5,247.0,6.0" stroke="black" stroke-width="2" fill="none" />
<polyline points="247.0,3.5,246.0,15.5,246.0,27.0,246.0,39.0,246.0,51.0,252.0,63.0,260.0,75.0,266.0,87.5,273.5,99.5,278.0,112.0,290.5,122.5" stroke="black" stroke-width="2" fill="none" />
<polyline points="276.5,114.5,265.0,114.5,253.0,98.0,241.0,77.0,229.0,57.0,217.0,36.0,205.0,15.5,193.0,6.5,181.0,6.5,168.5,6.5,157.0,6.5,145.0,8.5" stroke="black" stroke-width="2" fill="none" />
<polyline points="146.0,5.5,145.0,17.5,145.0,29.5,144.5,41.5,144.5,53.5,144.5,66.0,144.5,78.0,145.0,90.5,145.0,102.5,145.5,114.5,145.5,126.5,145.0,138.5,145.0,150.5,145.0,162.5,144.5,174.5,145.0,186.5,145.5,198.5,145.5,211.0,145.5,223.0,145.5,235.0,145.5,247.0,145.5,259.0,145.5,271.0,147.0,283.0,157.5,285.5,169.0,285.5,181.0,285.5,192.5,286.0,204.5,286.0,216.5,286.5,228.5,274.5,240.5,266.5,253.0,258.5,265.0,276.5,276.5,285.5,289.0,285.5,301.0,285.0,313.0,285.0,325.0,284.5" stroke="black" stroke-width="2" fill="none" />
<polyline points="329.0,276.5,329.0,264.5,333.5,252.5,335.0,240.0,338.0,228.5,335.0,216.5,333.5,204.5,328.5,192.5,334.0,180.5,338.5,168.0,353.5,156.0,338.5,155.5,332.5,154.0,320.5,154.0" stroke="black" stroke-width="2" fill="none" />
<polyline points="313.5,139.0,315.0,151.0,298.5,163.5,284.0,175.0,275.0,191.5,279.5,203.0,293.0,215.0" stroke="black" stroke-width="2" fill="none" />
<polyline points="302.5,208.5,306.5,216.0,303.5,204.0" stroke="black" stroke-width="2" fill="none" />
<polyline points="275.5,191.5,287.5,210.5,299.0,216.5,311.0,219.5,323.5,218.0,335.5,227.0,331.0,239.0,329.5,251.0,326.5,263.0,326.5,275.0" stroke="black" stroke-width="2" fill="none" />
<polyline points="309.0,274.0,297.0,274.0,285.5,274.0,273.0,268.0" stroke="black" stroke-width="2" fill="none" />
<polyline points="268.5,265.5,280.5,277.5,292.0,278.0,303.5,278.5,315.0,278.5" stroke="black" stroke-width="2" fill="none" />
<polyline points="321.5,271.5,321.5,259.5,320.0,247.5,328.0,234.0,331.0,222.0,331.0,210.0,328.0,208.5,330.0,200.0,324.0,209.0,327.0,197.0,327.0,184.5,335.0,172.5,339.0,160.5,333.0,154.5,331.5,142.5,329.5,135.5,326.5,123.0,326.5,111.5,326.5,100.0,326.0,88.0,325.5,76.0,326.0,64.5,326.0,52.5,326.0,40.0,326.0,28.0,325.5,16.5,314.0,12.0,302.0,11.5,290.5,11.5,278.5,11.0,266.5,11.0,254.5,11.0" stroke="black" stroke-width="2" fill="none" />
<polyline points="253.5,10.5,254.0,22.5,254.0,35.0,254.0,47.0,259.0,59.0,265.0,71.5,272.5,83.0,280.0,95.0,287.5,107.0,293.5,119.0,283.0,137.0,277.0,137.0,263.5,149.0,241.5,161.0,228.0,173.0,224.0,177.5,236.0,166.0,247.5,159.0,259.5,153.5,271.0,143.0,283.0,135.5,290.5,141.5,305.5,136.5,320.5,139.5,332.0,143.5,339.5,142.0,335.0,167.5,347.5,159.5,349.0,155.0,350.5,168.5,357.5,167.5" stroke="black" stroke-width="2" fill="none" />
<polyline points="329.0,230.5,317.0,241.0,305.0,242.5,293.0,245.0" stroke="black" stroke-width="2" fill="none" />
<polyline points="305.5,244.5,292.5,256.5,291.0,262.5,286.5,261.5,299.0,256.0,311.0,248.5,330.5,257.5" stroke="black" stroke-width="2" fill="none" />
<polyline points="315.0,272.5,316.5,260.5,310.0,248.0" stroke="black" stroke-width="2" fill="none" />
<polyline points="311.0,244.5,299.0,250.5,284.5,253.5,272.5,261.0" stroke="black" stroke-width="2" fill="none" />
<polyline points="265.5,263.0,277.5,252.5,280.5,250.0,267.0,262.0,261.5,273.5,270.0,285.5" stroke="black" stroke-width="2" fill="none" />
<polyline points="273.0,277.5,275.0,271.5,275.0,260.0,288.5,254.0,294.0,242.0,285.0,240.5,273.0,249.5,261.0,258.5" stroke="black" stroke-width="2" fill="none" />
<polyline points="252.5,260.0,255.5,272.0" stroke="black" stroke-width="2" fill="none" />
<polyline points="226.0,270.5,243.5,258.0,259.5,253.5,261.0,241.5" stroke="black" stroke-width="2" fill="none" />
<polyline points="308.0,241.0,282.0,242.5,267.0,254.5,256.0,263.5,241.0,265.0,225.0,276.5" stroke="black" stroke-width="2" fill="none" />
<polyline points="214.0,222.0,202.0,202.5,190.0,183.0" stroke="black" stroke-width="2" fill="none" />
<polyline points="164.0,174.0,176.0,178.5,188.5,198.0,200.5,218.0,212.5,241.0" stroke="black" stroke-width="2" fill="none" />
<polyline points="161.5,159.5,173.5,152.0" stroke="black" stroke-width="2" fill="none" />
<polyline points="169.5,150.0,157.5,159.0" stroke="black" stroke-width="2" fill="none" />
<polyline points="193.0,137.5,181.0,118.0" stroke="black" stroke-width="2" fill="none" />
<polyline points="181.0,120.0,187.0,132.0" stroke="black" stroke-width="2" fill="none" />
<polyline points="178.5,118.0,178.5,130.5,178.5,142.5,171.0,154.5,163.5,166.5,181.5,178.5,187.5,191.0,195.0,203.0,202.0,215.0,210.0,226.5,215.5,239.0,217.0,250.5,216.5,262.5,216.5,274.0" stroke="black" stroke-width="2" fill="none" />
<polyline points="217.0,239.0,205.0,216.5,193.0,197.5,181.0,176.5,168.5,172.0,165.5,166.0,178.5,154.0,199.5,141.5,222.0,129.5" stroke="black" stroke-width="2" fill="none" />
<polyline points="210.5,123.5,206.0,131.0" stroke="black" stroke-width="2" fill="none" />
<polyline points="176.5,103.0,182.5,115.0,190.0,127.0,182.0,139.0,186.5,140.5,197.0,135.5,209.5,128.0,221.5,125.0,233.5,122.5,245.5,119.5" stroke="black" stroke-width="2" fill="none" />
<polyline points="245.0,115.5,233.0,118.5,221.0,121.5,209.0,126.0,197.5,132.0,185.5,118.0,173.5,101.5" stroke="black" stroke-width="2" fill="none" />
<polyline points="172.5,102.5,172.5,114.5,172.5,126.0,172.5,137.5,168.0,149.5,156.0,161.0,158.0,173.0,179.5,185.0,185.5,197.0,193.5,208.5,201.5,220.5,208.5,232.5,213.0,244.5,213.0,256.5,212.5,268.5" stroke="black" stroke-width="2" fill="none" />
<polyline points="364.5,160.5,361.0,148.5,332.0,135.0,329.5,123.0,329.5,111.0,329.0,99.0,328.5,87.0,328.5,75.0,328.5,63.0,328.5,50.5,328.5,38.5,328.5,26.5,329.0,15.0,322.0,7.5,310.0,7.5,298.5,7.5,286.5,7.0,274.5,7.0,263.0,7.0,250.5,8.5" stroke="black" stroke-width="2" fill="none" />
<polyline points="252.0,6.0,250.5,18.0,250.5,30.0,250.5,42.0,252.5,54.0,260.0,66.0,267.0,78.5,274.5,91.0,280.5,103.5" stroke="black" stroke-width="2" fill="none" />
<polyline points="250.5,109.0,238.5,89.5,226.5,68.0,214.0,47.0,201.5,27.5,190.0,15.5,178.0,15.5,166.0,15.5,154.5,15.5" stroke="black" stroke-width="2" fill="none" />
<polyline points="153.5,15.0,153.5,27.0,153.5,39.0,153.5,51.0,153.5,63.0,153.5,75.5,153.5,87.5,154.0,100.0,154.5,112.0,154.0,124.0,154.0,136.0,154.0,148.0,154.0,160.5,153.5,172.5,153.5,184.5,153.5,196.5,153.5,208.5,153.0,220.5,152.5,232.5,152.5,244.5,152.5,256.5,152.5,268.5,158.5,274.5,171.0,274.0,183.0,274.0,195.5,273.5,207.5,273.5" stroke="black" stroke-width="2" fill="none" />
<polyline points="258.0,112.0,245.5,92.0,233.5,70.5,221.0,51.0,209.0,30.0,197.0,10.5,185.5,10.5,173.5,10.5,161.0,10.5,149.0,10.5" stroke="black" stroke-width="2" fill="none" />
<polyline points="149.0,10.5,149.0,22.5,148.5,35.0,148.5,47.0,148.5,59.0,148.5,71.0,148.5,83.0,148.5,94.5,148.5,106.5,149.0,118.5,149.0,130.5,149.0,142.5,149.5,154.5,149.5,167.0,149.5,179.5,149.5,191.5,149.5,204.0,150.0,216.5,150.0,228.5,150.5,240.5,150.0,252.5,150.0,264.5,150.0,276.0,159.0,283.5,170.5,283.0,182.5,283.0,194.5,282.5,206.5,282.0,218.5,282.0,231.0,267.5,243.0,260.0,255.0,253.0,267.0,272.5,278.5,283.0,290.0,283.0,302.0,283.0,313.5,283.0" stroke="black" stroke-width="2" fill="none" />
<polyline points="273.5,109.5,261.5,105.0,249.5,84.0,237.5,64.5,226.0,43.5,214.0,23.5,202.0,4.0,190.0,3.0,178.0,3.0,166.0,4.0,154.0,4.5,142.0,6.0" stroke="black" stroke-width="2" fill="none" />
<polyline points="199.5,4.0,193.5,16.0,201.0,28.0,208.5,40.5,215.0,52.5,222.5,64.5,230.0,76.0,236.0,88.5,243.5,100.5,248.0,112.5" stroke="black" stroke-width="2" fill="none" />
<polyline points="257.5,112.0,250.0,100.0,242.5,88.0,235.0,76.0,228.5,64.5,221.0,52.0,213.5,40.0,207.5,28.5,200.0,16.5" stroke="black" stroke-width="2" fill="none" />
<polyline points="200.5,12.0,208.0,24.0,216.0,36.5,222.5,48.5,229.5,60.5,237.5,73.0,245.5,85.0,251.5,97.0,259.5,109.5,255.0,130.5,241.5,136.5,253.5,132.0,265.5,125.5,277.5,125.5,289.5,125.5" stroke="black" stroke-width="2" fill="none" />
<polyline points="260.0,104.0,252.5,92.0,246.0,80.0,239.0,68.0,231.0,56.0,223.5,43.5,217.5,31.5,210.0,20.0,203.0,8.0" stroke="black" stroke-width="2" fill="none" />
</svg>