<svg xmlns="http://www.w3.org/2000/svg" version="1.1"><polyline points="217.0,58.0,221.5,62.0,221.5,66.0,220.0,70.0" stroke="black" stroke-width="2" fill="none" />
<polyline points="221.5,69.5,217.5,71.0,213.5,69.0" stroke="black" stroke-width="2" fill="none" />
<polyline points="216.5,58.5,220.5,59.5" stroke="black" stroke-width="2" fill="none" />
<polyline points="170.0,79.0,169.5,75.0,168.0,74.0" stroke="black" stroke-width="2" fill="none" />
<polyline points="169.5,81.0,165.5,82.5,161.5,82.5,159.5,81.5,159.5,78.0" stroke="black" stroke-width="2" fill="none" />
<polyline points="138.5,79.0,134.5,75.0" stroke="black" stroke-width="2" fill="none" />
<polyline points="137.5,76.5,141.5,80.5,142.5,84.0" stroke="black" stroke-width="2" fill="none" />
<polyline points="138.0,83.5,133.5,81.0,129.5,76.5,125.5,73.5" stroke="black" stroke-width="2" fill="none" />
<polyline points="127.0,71.0,127.0,74.5,133.5,78.5,136.0,82.5" stroke="black" stroke-width="2" fill="none" />
<polyline points="58.0,173.5,60.0,166.0,59.5,167.5,58.5,171.5,57.0,176.0,56.5,180.0,57.0,184.0,56.0,188.0,51.5,191.5,51.5,195.5,48.5,199.0,50.5,203.5,51.0,207.5,49.0,211.5,47.0,216.5,45.5,220.5,44.0,224.5,44.0,228.5,44.0,232.0,44.5,236.5,43.5,240.5,45.5,244.5,46.0,248.5,46.0,252.5,46.0,257.0,46.0,261.0,46.0,265.0,48.0,269.0,50.5,273.0,50.0,276.5,51.0,280.5,52.5,284.5,52.5,288.5,56.5,292.5,62.0,296.5,64.0,300.5,64.5,305.0,62.0,308.0,62.5,308.5,65.5,307.0" stroke="black" stroke-width="2" fill="none" />
<polyline points="75.5,305.0,79.5,306.5,83.5,308.0" stroke="black" stroke-width="2" fill="none" />
<polyline points="95.0,329.5,98.5,329.5,102.5,334.5" stroke="black" stroke-width="2" fill="none" />
<polyline points="104.5,339.0,102.0,335.0,98.5,331.0" stroke="black" stroke-width="2" fill="none" />
<polyline points="119.0,374.5,123.0,381.5" stroke="black" stroke-width="2" fill="none" />
<polyline points="123.5,386.0,124.5,384.0,123.5,380.0,120.0,376.0" stroke="black" stroke-width="2" fill="none" />
<polyline points="92.5,431.5,96.5,434.0" stroke="black" stroke-width="2" fill="none" />
<polyline points="90.5,431.0,94.5,435.5,96.5,439.0,96.5,443.0,97.0,447.5,97.5,451.5,99.0,456.0,95.0,460.5" stroke="black" stroke-width="2" fill="none" />
<polyline points="65.0,502.0,61.5,502.5,57.0,502.0,53.0,502.0,49.0,502.5,45.0,503.5,40.5,506.5,36.5,507.0" stroke="black" stroke-width="2" fill="none" />
<polyline points="46.0,501.5,41.0,505.5,40.0,507.5,46.0,508.5,50.0,508.5,54.0,508.5,58.0,508.0" stroke="black" stroke-width="2" fill="none" />
<polyline points="78.5,536.5,82.5,536.0,86.5,536.5,90.5,536.5,94.5,536.0,98.5,536.0,103.0,536.0" stroke="black" stroke-width="2" fill="none" />
<polyline points="79.5,624.5,83.5,619.0,84.0,619.0,82.0,623.5,80.0,627.0,80.0,631.0,82.0,634.5,82.5,638.5,85.0,642.5" stroke="black" stroke-width="2" fill="none" />
<polyline points="75.5,618.5,82.0,614.5,90.5,612.0,86.5,613.5,83.0,614.0,78.5,616.5,74.5,618.5,70.5,618.5,66.5,619.0,62.5,619.0,58.5,619.0,54.5,618.5,50.5,618.5,46.0,618.0,42.0,618.0,38.5,618.0,34.5,618.5,30.5,619.0,27.0,619.5,23.0,619.5,18.5,620.0,14.0,619.5,10.0,619.5,5.5,619.5,1.5,619.5" stroke="black" stroke-width="2" fill="none" />
<polyline points="1.0,491.0,5.5,491.0,9.5,491.5,14.0,491.5,18.0,491.5,22.0,491.0,26.5,491.0,30.5,491.5,34.5,491.5,38.5,491.5,43.0,491.5,47.0,492.0,51.0,493.5,55.0,493.5,58.5,493.0,62.0,493.0,66.0,493.0,70.0,493.5,74.0,493.5,78.0,494.0,81.5,494.0,85.5,494.0,90.0,493.5,94.0,493.5,98.0,494.0,101.5,494.0,106.0,497.0,104.5,498.0,105.0,502.0,105.5,506.0,105.5,510.5,105.5,514.0,104.0,518.0,105.0,522.5,104.5,526.5,103.5,530.5,103.5,535.0" stroke="black" stroke-width="2" fill="none" />
<polyline points="96.5,458.5,92.5,459.0,89.0,460.0,85.0,460.5,81.0,460.5,77.0,461.0,72.5,461.0,69.0,461.0,65.0,460.5,60.5,461.0,57.0,461.0,53.0,461.0,49.0,460.0,45.0,460.0,41.0,460.0,37.0,460.0,33.0,460.5,29.5,460.5,25.5,461.0" stroke="black" stroke-width="2" fill="none" />
<polyline points="30.5,423.0,34.5,423.5,38.5,423.5,42.0,422.5,45.5,423.0" stroke="black" stroke-width="2" fill="none" />
<polyline points="56.0,395.5,53.5,391.5,53.5,387.5,51.5,384.0,51.0,379.5,51.0,375.5,48.5,374.0,44.0,373.5,40.0,373.0" stroke="black" stroke-width="2" fill="none" />
<polyline points="42.5,371.0,41.5,375.0,43.0,379.0" stroke="black" stroke-width="2" fill="none" />
<polyline points="33.5,382.0,34.0,378.0,33.5,374.0" stroke="black" stroke-width="2" fill="none" />
<polyline points="32.0,375.5,32.0,375.5,31.5,379.0,31.0,383.0" stroke="black" stroke-width="2" fill="none" />
<polyline points="28.5,385.0,24.5,385.0,21.0,386.0,17.0,387.5,13.0,388.5" stroke="black" stroke-width="2" fill="none" />
<polyline points="17.5,386.0,11.5,391.5,13.5,393.5,17.5,391.0,21.5,390.5,25.0,389.0,29.0,389.0,33.0,389.0,37.0,389.0" stroke="black" stroke-width="2" fill="none" />
<polyline points="23.5,360.0,19.5,357.0" stroke="black" stroke-width="2" fill="none" />
<polyline points="19.0,356.0,23.0,351.5,22.5,352.0,19.5,355.5,22.5,359.5" stroke="black" stroke-width="2" fill="none" />
<polyline points="26.5,352.5,30.5,350.5,34.5,348.5,38.5,347.5,42.5,347.0" stroke="black" stroke-width="2" fill="none" />
<polyline points="40.5,350.0,36.5,347.5" stroke="black" stroke-width="2" fill="none" />
<polyline points="40.0,353.5,40.5,349.5,41.5,345.0,41.5,342.5" stroke="black" stroke-width="2" fill="none" />
<polyline points="55.0,308.0,52.0,312.0,45.5,314.5,49.0,316.0,53.0,310.0,56.5,309.5,61.0,308.0" stroke="black" stroke-width="2" fill="none" />
<polyline points="63.5,298.0,59.5,293.0,55.5,290.0" stroke="black" stroke-width="2" fill="none" />
<polyline points="50.5,270.5,46.5,264.5" stroke="black" stroke-width="2" fill="none" />
<polyline points="43.5,223.0,47.5,214.5,49.5,210.0" stroke="black" stroke-width="2" fill="none" />
<polyline points="51.0,190.0,54.5,187.5" stroke="black" stroke-width="2" fill="none" />
<polyline points="294.0,54.0,296.0,55.5,296.0,59.5,299.5,63.0" stroke="black" stroke-width="2" fill="none" />
<polyline points="297.0,59.5,300.5,63.0,305.0,65.0,309.0,63.0" stroke="black" stroke-width="2" fill="none" />
<polyline points="309.5,62.5,309.5,58.5,308.0,56.5" stroke="black" stroke-width="2" fill="none" />
<polyline points="350.5,49.0,353.0,45.0,350.0,49.5,349.5,53.5,352.0,56.0" stroke="black" stroke-width="2" fill="none" />
<polyline points="355.5,53.0,355.5,49.5,358.5,45.5,355.5,49.0" stroke="black" stroke-width="2" fill="none" />
<polyline points="436.5,150.5,439.0,155.0,442.0,159.0,444.5,163.5,443.0,167.5,442.0,172.0,444.5,175.5,448.0,179.0,450.0,183.0,452.0,187.0,454.0,190.5" stroke="black" stroke-width="2" fill="none" />
<polyline points="455.5,192.5,451.5,183.5,448.0,176.5,444.0,173.0" stroke="black" stroke-width="2" fill="none" />
<polyline points="442.0,157.0,437.5,152.5" stroke="black" stroke-width="2" fill="none" />
<polyline points="441.0,241.5,441.0,245.5,441.0,249.5,441.5,253.5,440.0,258.0,440.0,262.0,440.0,266.0,440.5,270.0" stroke="black" stroke-width="2" fill="none" />
<polyline points="446.0,272.5,446.0,272.0,446.5,275.5" stroke="black" stroke-width="2" fill="none" />
<polyline points="443.0,290.5,439.0,294.5,442.5,291.0" stroke="black" stroke-width="2" fill="none" />
<polyline points="433.5,298.0,437.5,296.0,434.0,297.0,433.0,301.0,433.0,305.0,431.0,309.0,432.5,313.0,436.5,317.0,438.5,320.5,439.0,324.5" stroke="black" stroke-width="2" fill="none" />
<polyline points="440.0,331.5,440.5,335.5,440.0,339.5,440.0,343.5,440.5,348.0" stroke="black" stroke-width="2" fill="none" />
<polyline points="436.5,374.5,436.0,378.5,435.5,382.5,435.5,386.0,433.0,390.0,433.0,393.5,432.5,397.5,430.5,401.5,430.0,405.5,428.0,409.0,426.5,413.5" stroke="black" stroke-width="2" fill="none" />
<polyline points="411.0,435.0,415.0,432.0,419.5,427.0,419.5,427.0,418.0,431.5,412.0,436.0,411.5,440.0,409.5,444.0,409.0,448.0,409.0,452.0,409.5,456.5,409.5,460.5,409.5,464.5,412.0,465.5" stroke="black" stroke-width="2" fill="none" />
<polyline points="417.5,476.0,414.0,480.5,412.5,484.5,414.0,480.5,417.5,476.5" stroke="black" stroke-width="2" fill="none" />
<polyline points="414.5,486.5,419.0,487.0,423.0,487.0,426.5,487.0,430.0,487.0,434.0,486.5,438.0,486.5,441.5,486.5,445.5,486.0,449.0,485.5,453.0,485.5,457.0,485.0,461.0,485.0,465.5,485.0,470.0,485.5,474.5,486.0,478.5,486.0,482.5,485.5,486.5,485.5,490.5,486.0" stroke="black" stroke-width="2" fill="none" />
<polyline points="387.5,565.0,388.0,568.5,387.5,572.0,390.0,576.0,389.5,579.5,389.5,583.0,390.0,583.5" stroke="black" stroke-width="2" fill="none" />
<polyline points="398.0,577.5,399.0,581.5,399.0,585.5,399.0,589.0,400.5,593.0,402.0,596.5,408.5,600.5,415.5,604.0,423.5,608.0,428.0,610.0,432.5,610.5,436.5,610.5,440.0,611.0,443.5,613.0,447.5,614.5,451.0,616.0,455.0,617.0,459.5,615.0,463.5,617.0,467.5,617.5,471.0,619.5,475.5,619.5,479.5,621.5,484.0,624.0,488.0,623.5,492.5,623.5,496.5,623.5,500.5,623.5,504.0,623.5,508.0,624.0,511.5,624.5" stroke="black" stroke-width="2" fill="none" />
<polyline points="425.5,609.0,421.5,607.0,417.5,605.0,413.5,602.5,409.5,600.5,405.0,598.0,401.0,593.0" stroke="black" stroke-width="2" fill="none" />
<polyline points="387.0,590.0,384.5,586.0,384.5,582.0,384.5,578.0,384.5,574.5,384.5,570.5,384.0,566.5,384.5,562.0" stroke="black" stroke-width="2" fill="none" />
<polyline points="405.0,368.0,401.5,374.0,401.5,375.5,404.0,371.5,406.0,367.5,407.5,363.5,408.0,359.5,409.0,355.0,411.0,351.0,413.0,347.0,413.0,343.0,415.5,339.0,418.0,337.5,414.5,341.0" stroke="black" stroke-width="2" fill="none" />
<polyline points="435.0,316.5,431.0,311.0" stroke="black" stroke-width="2" fill="none" />
</svg>