<svg xmlns="http://www.w3.org/2000/svg" version="1.1"><polyline points="214.0,64.0,217.5,76.0,217.0,88.5,217.0,100.5,218.5,112.0,223.0,124.0,224.0,136.0,222.0,148.0" stroke="black" stroke-width="2" fill="none" />
<polyline points="280.0,141.5,275.5,135.5,272.5,124.0,271.0,112.0,271.0,100.0,269.5,88.0,269.0,76.0,270.5,64.5,269.0,66.0" stroke="black" stroke-width="2" fill="none" />
<polyline points="276.5,64.5,278.0,76.5,278.0,88.5,278.0,100.5,280.0,112.0,281.5,124.5,285.5,136.5" stroke="black" stroke-width="2" fill="none" />
<polyline points="313.0,226.0,325.0,225.5,337.5,230.5,342.0,233.5,343.5,245.5,336.0,257.5,327.0,270.0,313.5,282.0,295.0,294.0,270.5,305.5" stroke="black" stroke-width="2" fill="none" />
<polyline points="313.5,232.0,326.0,234.5" stroke="black" stroke-width="2" fill="none" />
<polyline points="220.5,150.0,213.0,147.0,210.0,135.0,210.0,123.5,209.5,111.5,209.5,99.5,209.5,88.0,208.0,76.0,208.0,63.5,208.0,64.0" stroke="black" stroke-width="2" fill="none" />
<polyline points="166.5,272.0,168.0,284.0,181.5,296.0" stroke="black" stroke-width="2" fill="none" />
<polyline points="163.0,279.5,174.5,288.5,186.5,297.5,198.5,305.5,211.0,308.5,223.0,311.5,235.0,311.5,246.5,311.5,258.5,308.5,270.5,305.5,282.5,301.0,294.5,293.5,306.5,285.5,318.0,276.5,330.0,263.0" stroke="black" stroke-width="2" fill="none" />
<polyline points="284.5,289.5,304.0,277.5,317.5,265.5,328.0,253.5,334.0,242.0,329.0,251.0,317.0,266.0,304.5,276.5,292.5,285.5,280.0,291.5,268.5,297.5,256.5,301.0,245.0,302.5,233.0,303.5,221.0,302.0,209.5,299.0,197.5,294.0,185.5,286.0,173.5,274.0,161.5,273.5" stroke="black" stroke-width="2" fill="none" />
<polyline points="169.0,273.0,182.0,285.0,201.5,297.5" stroke="black" stroke-width="2" fill="none" />
</svg>