<svg xmlns="http://www.w3.org/2000/svg" version="1.1"><polyline points="233.0,12.0,227.0,24.0,229.0,36.0,234.0,37.5,227.0,40.5,227.5,52.5,219.0,63.5,222.0,64.0,229.0,75.0,241.0,72.0,253.5,74.0,265.5,77.0,277.5,71.0,289.5,73.5,303.0,70.5,315.5,58.0,327.0,48.5,328.0,60.5,335.0,66.5,342.5,60.5,354.5,72.5,359.0,76.0" stroke="black" stroke-width="2" fill="none" />
<polyline points="368.5,78.5,380.5,75.5,378.0,84.5,389.0,89.0,391.0,101.5,385.0,113.5,400.0,118.0,407.5,122.5,417.5,111.0,420.5,122.0,418.0,116.0,429.5,123.5" stroke="black" stroke-width="2" fill="none" />
<polyline points="430.5,149.0,418.5,143.0,412.5,144.5" stroke="black" stroke-width="2" fill="none" />
<polyline points="426.5,152.0,424.5,148.0,413.5,146.5,395.5,143.5" stroke="black" stroke-width="2" fill="none" />
<polyline points="381.5,136.5,393.5,139.5,393.5,151.5,405.5,157.0" stroke="black" stroke-width="2" fill="none" />
<polyline points="419.0,181.0,423.0,175.0,435.0,173.5" stroke="black" stroke-width="2" fill="none" />
<polyline points="421.5,188.5,415.5,177.5,412.5,186.5" stroke="black" stroke-width="2" fill="none" />
<polyline points="405.5,190.0,417.5,201.0" stroke="black" stroke-width="2" fill="none" />
<polyline points="415.5,206.5,403.5,212.5" stroke="black" stroke-width="2" fill="none" />
<polyline points="401.5,202.0,401.0,214.0,401.0,226.0,391.5,226.5,393.0,236.0,391.0,248.5,401.5,268.0,394.0,283.0,394.0,295.0,394.0,307.0,391.0,319.0,388.0,331.0,385.0,343.0,380.5,354.5,375.5,366.5,368.0,378.5,359.5,390.5,340.0,397.5,321.0,417.0" stroke="black" stroke-width="2" fill="none" />
<polyline points="314.0,416.0,302.0,417.5,290.5,419.0,278.5,417.5,267.0,413.0,255.5,414.5,243.5,407.0,229.0,393.5,217.0,383.0,205.0,372.5,193.0,364.0,181.0,358.0" stroke="black" stroke-width="2" fill="none" />
<polyline points="182.5,357.0,198.0,369.0,211.5,381.5,228.5,394.0,248.0,412.5,251.0,417.0,262.5,421.5,274.5,423.5,286.5,424.5,298.0,425.5,310.0,422.5,322.5,415.0,337.5,400.0,356.0,393.0,368.0,379.5,380.0,358.5" stroke="black" stroke-width="2" fill="none" />
<polyline points="344.0,323.5,332.0,308.0" stroke="black" stroke-width="2" fill="none" />
<polyline points="316.5,318.5,309.0,330.5,299.5,341.0,299.5,348.5" stroke="black" stroke-width="2" fill="none" />
<polyline points="278.5,352.5,291.0,353.0,303.0,353.0,315.0,350.0,326.5,349.0,339.0,350.5" stroke="black" stroke-width="2" fill="none" />
<polyline points="338.0,359.5,331.5,352.0,331.5,335.5,333.0,323.5,321.5,313.0,326.0,301.0,321.5,289.0,317.0,277.0,316.0,264.5,316.0,252.0,316.5,240.0,325.5,235.5,315.0,241.5" stroke="black" stroke-width="2" fill="none" />
<polyline points="321.0,238.5,332.5,233.5,344.5,237.0,356.5,240.5,368.5,253.0" stroke="black" stroke-width="2" fill="none" />
<polyline points="388.0,249.5,399.5,249.5,401.5,248.0,400.0,249.5,394.5,259.0,407.0,256.0" stroke="black" stroke-width="2" fill="none" />
<polyline points="397.0,271.0,401.5,277.0" stroke="black" stroke-width="2" fill="none" />
<polyline points="411.5,287.0,399.5,297.0,398.0,298.5,394.5,294.0" stroke="black" stroke-width="2" fill="none" />
<polyline points="389.5,228.0,406.0,222.0,413.5,237.0,415.5,225.5" stroke="black" stroke-width="2" fill="none" />
<polyline points="426.0,231.5,415.5,246.5,406.5,248.0,392.5,234.5,379.0,228.5,382.5,216.5,379.5,222.5" stroke="black" stroke-width="2" fill="none" />
<polyline points="385.5,224.0,391.5,208.0,395.0,200.5,407.0,205.0,425.0,208.0" stroke="black" stroke-width="2" fill="none" />
<polyline points="430.5,193.5,420.5,207.0,416.0,222.0,404.0,219.0,392.0,217.5" stroke="black" stroke-width="2" fill="none" />
<polyline points="389.5,182.0,391.5,189.5,409.5,194.5,423.0,196.5,428.0,186.0,436.0,188.5" stroke="black" stroke-width="2" fill="none" />
<polyline points="442.0,199.5,440.5,202.5,436.0,201.0,440.5,184.0,445.0,172.5,439.5,163.5,435.0,145.0,426.0,133.5,436.5,127.5,437.0,115.5,426.0,114.0,433.0,108.0,416.5,94.5,419.5,87.0,407.0,79.0,401.0,74.5,400.5,69.0,388.5,67.5" stroke="black" stroke-width="2" fill="none" />
<polyline points="392.5,60.0,394.0,72.0,408.5,74.0,413.0,86.0,406.5,98.0,411.0,101.0,403.5,119.0,410.0,131.0,401.0,135.5,402.5,147.5,410.0,151.5,417.5,162.5,423.5,162.5" stroke="black" stroke-width="2" fill="none" />
<polyline points="421.0,110.5,409.0,107.5" stroke="black" stroke-width="2" fill="none" />
<polyline points="387.5,87.5,375.5,81.5" stroke="black" stroke-width="2" fill="none" />
<polyline points="374.0,64.0,374.5,75.5,367.0,87.0,374.5,91.5,380.0,94.5,385.5,100.0,381.0,109.0,382.5,121.0,394.5,136.0,394.5,148.5,402.0,165.0" stroke="black" stroke-width="2" fill="none" />
<polyline points="385.0,157.5,385.0,150.0,373.0,141.0,361.0,142.5,352.0,141.5,352.5,137.0,340.5,141.5,328.5,144.5" stroke="black" stroke-width="2" fill="none" />
<polyline points="325.5,153.0,337.5,147.5,349.5,149.0,353.0,151.0,366.5,153.0,369.5,157.5,378.5,168.0" stroke="black" stroke-width="2" fill="none" />
<polyline points="349.0,166.5,350.5,155.0,339.5,153.5,327.5,155.0" stroke="black" stroke-width="2" fill="none" />
<polyline points="319.5,169.0,307.5,166.0" stroke="black" stroke-width="2" fill="none" />
<polyline points="295.0,167.0,299.0,155.0,299.0,155.0,291.5,162.5,290.0,175.0,288.5,170.0,282.5,157.5,278.0,148.5,286.5,136.5,293.0,109.0,281.0,101.5,275.5,100.5,267.0,93.0,267.5,96.0" stroke="black" stroke-width="2" fill="none" />
<polyline points="283.0,95.5,295.5,104.5,307.5,103.5,306.0,115.5" stroke="black" stroke-width="2" fill="none" />
<polyline points="307.5,122.5,295.5,118.0" stroke="black" stroke-width="2" fill="none" />
<polyline points="291.0,138.0,278.5,145.0" stroke="black" stroke-width="2" fill="none" />
<polyline points="288.0,145.0,280.5,154.5,268.5,156.0,258.0,163.5,246.0,167.0,231.0,141.5" stroke="black" stroke-width="2" fill="none" />
<polyline points="216.5,125.5,218.5,113.0,197.5,114.0,193.5,106.5,193.5,109.5,198.0,108.0,211.5,88.5,219.0,76.5,215.5,76.5,213.0,59.0,219.0,47.0,214.0,41.0,224.5,29.0,227.5,17.5,236.5,8.5,224.0,25.0" stroke="black" stroke-width="2" fill="none" />
<polyline points="231.0,26.0,243.0,25.0,244.5,16.0,256.5,11.5,271.5,11.5,276.0,6.0,287.5,4.5,299.0,12.0,303.0,22.5,314.5,19.5,326.5,19.5,326.5,28.5" stroke="black" stroke-width="2" fill="none" />
<polyline points="325.0,24.0,337.0,30.0,343.0,31.0,334.0,43.0,341.5,55.0,335.5,67.0,349.0,67.0,359.0,76.0,351.5,91.0,345.5,103.0,344.0,115.0,357.0,127.0,364.5,130.0,366.0,127.5,378.0,129.0,379.5,125.0,386.5,128.5" stroke="black" stroke-width="2" fill="none" />
<polyline points="382.5,129.5,385.5,142.0,394.5,154.0,384.0,166.0,393.0,168.0,387.0,177.0,390.5,189.0,389.0,201.0,392.5,212.5,386.5,224.5,388.5,236.5,388.0,248.0,392.0,260.0,390.0,272.5,390.0,284.5,390.0,296.5,389.5,309.0,386.5,321.0,384.0,333.5,381.0,345.5,375.5,357.0,368.0,369.0,358.5,381.5,348.0,394.0,338.0,406.5,329.0,406.5,317.0,416.0,303.5,427.5,313.0,435.0,325.5,424.0,334.5,410.5,346.5,400.0,358.5,385.0,370.0,367.0,382.0,343.0" stroke="black" stroke-width="2" fill="none" />
<polyline points="345.0,327.5,333.0,319.0,322.0,312.0,310.0,315.5,297.5,320.0,286.0,311.5,274.0,311.5,256.5,316.0,244.5,317.5,232.5,335.5" stroke="black" stroke-width="2" fill="none" />
<polyline points="229.5,328.5,241.5,313.5,253.5,310.5,270.0,293.0,281.5,284.0,300.5,300.5" stroke="black" stroke-width="2" fill="none" />
<polyline points="305.5,311.0,298.5,299.5,290.0,287.5,293.0,275.5,291.5,260.5,277.0,281.0,265.0,290.0,269.5,276.5,274.0,259.5,291.5,252.0,277.0,258.0,265.0,260.5,257.5,263.5,245.5,263.5,233.5,261.5,221.0,268.0,216.0,262.0,203.5,253.0,205.5,250.0,201.0,244.0" stroke="black" stroke-width="2" fill="none" />
<polyline points="212.5,249.0,225.0,250.5,237.0,252.0,249.0,253.5,261.0,253.5" stroke="black" stroke-width="2" fill="none" />
<polyline points="257.0,266.0,250.0,264.5,250.0,269.0" stroke="black" stroke-width="2" fill="none" />
<polyline points="281.5,266.0,280.0,278.5,265.0,290.5,262.0,302.5,261.0,314.5,249.0,328.0,260.5,328.0,278.5,335.5,290.0,335.0,302.0,334.5,314.0,325.5" stroke="black" stroke-width="2" fill="none" />
<polyline points="308.0,321.5,295.5,324.5,283.0,315.5,277.0,302.0,262.0,317.0,250.0,320.0" stroke="black" stroke-width="2" fill="none" />
<polyline points="244.5,312.5,232.5,324.5,228.0,336.5,231.0,348.0,238.5,358.5,248.0,350.5,259.5,353.0,271.0,360.5,282.5,357.5,296.0,356.0,308.0,359.0" stroke="black" stroke-width="2" fill="none" />
<polyline points="275.0,384.5,286.5,400.0,300.0,402.0,312.0,402.0" stroke="black" stroke-width="2" fill="none" />
<polyline points="307.0,377.0,295.0,378.0,283.5,378.0,272.0,381.5,260.0,384.5,245.0,386.0,240.0,374.5,223.0,373.0,230.5,365.5,232.0,353.5,235.0,343.5,230.5,340.5,234.0,328.5,246.0,316.5,268.5,312.0,267.0,300.0,278.5,288.0,285.0,276.0,289.0,264.0,292.0,252.0,292.0,240.0,298.0,227.5,290.5,215.0,273.0,213.5,261.5,211.5,249.5,211.5,238.0,213.0,226.0,216.0,214.0,224.0" stroke="black" stroke-width="2" fill="none" />
<polyline points="214.5,229.0,226.5,229.0,238.5,229.0,250.5,223.0,263.0,223.0,275.0,223.0" stroke="black" stroke-width="2" fill="none" />
<polyline points="275.0,224.5,270.5,212.5" stroke="black" stroke-width="2" fill="none" />
<polyline points="294.5,240.5,286.0,230.0,274.0,228.5,262.0,230.0,250.0,231.5,237.5,233.0,225.0,238.0,213.0,244.5,211.5,246.0,237.0,234.0" stroke="black" stroke-width="2" fill="none" />
<polyline points="202.5,215.0,201.0,202.5,205.5,190.5,214.5,178.5,203.5,192.0" stroke="black" stroke-width="2" fill="none" />
<polyline points="190.0,216.5,184.0,228.5,182.5,241.0,173.5,244.0,172.5,256.0,170.5,268.5,175.5,267.0" stroke="black" stroke-width="2" fill="none" />
<polyline points="174.5,247.5,178.0,259.5,169.0,271.5,170.5,283.5,162.0,293.0,163.5,285.5" stroke="black" stroke-width="2" fill="none" />
<polyline points="160.0,284.0,157.0,281.0,157.0,265.0,153.5,265.0,143.0,265.0,146.0,258.5,151.5,246.5,139.5,246.0,136.5,252.0" stroke="black" stroke-width="2" fill="none" />
<polyline points="113.5,234.5,113.5,241.0,131.5,244.0,136.5,249.0,138.0,252.5,133.5,270.5,147.0,278.5,156.5,277.0" stroke="black" stroke-width="2" fill="none" />
<polyline points="127.5,316.0,127.0,321.0,115.0,313.5" stroke="black" stroke-width="2" fill="none" />
<polyline points="111.5,310.0,124.0,301.0" stroke="black" stroke-width="2" fill="none" />
<polyline points="125.0,335.0,137.0,335.0" stroke="black" stroke-width="2" fill="none" />
<polyline points="153.0,358.0,145.5,357.5,133.5,354.5,124.0,347.5,133.0,345.0,122.0,334.5,113.0,323.0,110.0,311.0,109.0,299.0,109.0,287.0,107.5,275.0,100.0,262.5,110.5,256.5,106.0,244.5,99.0,232.5,104.0,229.5,97.0,214.5,100.5,202.5,105.0,190.0,103.5,178.0,97.5,166.0,100.5,154.0,108.0,141.5,111.0,130.0,111.5,118.0,111.0,106.5,114.0,95.0,118.5,83.5,130.0,77.5,131.5,65.5,134.0,53.5,143.0,53.5,131.0,64.0" stroke="black" stroke-width="2" fill="none" />
<polyline points="137.0,63.0,142.5,54.0,137.0,66.5,132.5,83.5,130.0,85.5,119.5,91.5,115.0,104.0,126.0,111.0,136.5,120.0,149.0,111.0,164.0,109.0,175.5,115.0" stroke="black" stroke-width="2" fill="none" />
<polyline points="167.5,126.5,169.0,138.5,163.0,150.5,170.5,162.5,170.5,173.0,159.5,184.5" stroke="black" stroke-width="2" fill="none" />
<polyline points="163.0,170.5,164.5,162.0,161.5,145.5" stroke="black" stroke-width="2" fill="none" />
<polyline points="152.0,154.0,164.0,160.0" stroke="black" stroke-width="2" fill="none" />
<polyline points="181.0,152.0,169.0,146.0,169.0,141.5,157.0,143.0,145.0,153.5,131.0,167.0,140.5,159.0" stroke="black" stroke-width="2" fill="none" />
<polyline points="126.0,179.0,130.0,185.5" stroke="black" stroke-width="2" fill="none" />
<polyline points="134.0,186.0,146.0,193.5" stroke="black" stroke-width="2" fill="none" />
<polyline points="131.5,206.5,128.5,218.5,129.5,212.0,140.0,213.5,152.0,219.5,164.0,216.0" stroke="black" stroke-width="2" fill="none" />
<polyline points="187.0,221.0,199.0,221.0" stroke="black" stroke-width="2" fill="none" />
<polyline points="205.0,151.0,217.0,148.5,224.5,151.0,233.5,151.0,233.5,158.0,245.5,146.0,250.5,149.0,254.0,135.5" stroke="black" stroke-width="2" fill="none" />
<polyline points="257.0,111.0,245.0,103.0" stroke="black" stroke-width="2" fill="none" />
<polyline points="236.0,104.5,238.5,101.5,253.5,117.0" stroke="black" stroke-width="2" fill="none" />
<polyline points="239.0,93.5,251.0,84.5" stroke="black" stroke-width="2" fill="none" />
<polyline points="242.0,79.5,240.5,91.5,244.0,94.0,242.5,107.5,250.5,119.5,256.5,131.0,246.0,151.0,240.0,161.0,246.0,168.5" stroke="black" stroke-width="2" fill="none" />
<polyline points="277.5,158.5,267.5,171.0,275.5,164.0,290.5,141.5" stroke="black" stroke-width="2" fill="none" />
<polyline points="303.0,76.0,314.5,73.0,319.5,68.5,333.5,70.0" stroke="black" stroke-width="2" fill="none" />
<polyline points="338.5,75.5,334.0,87.5,340.0,99.5" stroke="black" stroke-width="2" fill="none" />
<polyline points="343.5,84.5,341.5,90.5,350.5,111.5,350.0,123.5,355.0,123.5" stroke="black" stroke-width="2" fill="none" />
<polyline points="406.0,88.5,394.5,78.0,382.5,67.0,379.5,47.5,367.5,43.5" stroke="black" stroke-width="2" fill="none" />
<polyline points="369.0,42.0,370.5,54.5,367.5,66.0,366.0,77.5,360.0,89.0,364.5,101.0,372.0,102.0,375.0,109.5,369.0,118.5,357.0,122.0" stroke="black" stroke-width="2" fill="none" />
<polyline points="346.5,85.5,337.0,91.5,319.5,88.5,307.0,76.5" stroke="black" stroke-width="2" fill="none" />
<polyline points="320.0,55.0,317.0,67.0,311.0,78.5,324.5,90.5,332.5,101.5,344.5,107.5,358.0,104.5" stroke="black" stroke-width="2" fill="none" />
<polyline points="352.0,61.0,359.5,56.5,356.5,52.5,356.5,43.5,341.5,42.5,338.5,38.0,326.0,39.0,320.0,37.5,314.5,36.5,302.5,38.0,287.5,55.0,284.5,46.0,285.5,34.0,269.0,35.5,275.0,23.5,279.5,11.5,282.5,13.0,270.5,23.5,258.5,29.5,247.0,26.5" stroke="black" stroke-width="2" fill="none" />
<polyline points="251.0,28.0,263.0,36.5,274.5,30.5,262.0,32.0,250.0,35.0,260.5,38.5,258.5,44.5,261.5,58.0,276.5,70.5,284.0,82.5,287.0,91.5,293.0,97.0,302.0,107.5,305.0,124.0,309.5,124.0,324.5,126.5,338.0,120.5,349.5,122.0,351.0,113.0,357.5,114.5,364.0,108.5,366.5,113.0,373.5,108.5,391.5,116.0,394.5,112.0,396.5,122.5,404.0,137.5,415.5,130.0,419.0,139.0,427.0,142.0,433.0,145.0" stroke="black" stroke-width="2" fill="none" />
<polyline points="436.5,117.5,420.0,102.5,404.0,102.5,386.0,83.0,385.5,99.5,373.5,96.0,367.5,91.5,361.5,90.5,352.0,82.5,340.0,76.5,329.5,76.5,319.0,76.5,326.5,76.5,311.5,70.5,325.0,71.5,326.5,59.5,335.5,58.5,342.0,39.0,325.5,28.5,308.0,30.5,296.0,29.0" stroke="black" stroke-width="2" fill="none" />
<polyline points="285.5,30.0,307.0,30.0" stroke="black" stroke-width="2" fill="none" />
<polyline points="309.5,24.5,321.5,26.0,323.0,33.5,316.0,35.0,306.0,47.5,325.5,44.5,331.5,53.5,319.5,52.5,313.5,64.5,299.0,66.0,293.0,77.5,311.0,85.5,322.5,105.0,333.0,115.5,340.5,127.0,335.0,140.5,326.5,153.5,327.5,173.0,320.0,174.0,331.5,165.0,343.5,167.0,355.5,156.5,368.0,161.0,380.0,168.5,391.0,156.5,394.0,162.5,406.0,165.5,411.5,167.0,423.5,167.0,424.5,169.5,436.5,178.5,442.5,165.0,438.0,177.5,431.5,181.5,427.0,189.0,428.5,196.0,430.5,205.0,432.0,215.5,427.5,227.5,421.0,236.5,409.0,248.5,407.5,253.5,408.0,265.5" stroke="black" stroke-width="2" fill="none" />
<polyline points="362.0,258.0,350.0,252.0,346.0,250.0,364.0,251.5,349.0,239.0" stroke="black" stroke-width="2" fill="none" />
<polyline points="354.0,227.0,342.0,218.0,330.0,218.0" stroke="black" stroke-width="2" fill="none" />
<polyline points="338.0,217.5,351.5,219.0,360.0,231.0,371.0,231.0,359.0,235.5,369.5,227.5" stroke="black" stroke-width="2" fill="none" />
<polyline points="365.0,232.5,353.0,232.5,341.0,228.5,329.0,228.5" stroke="black" stroke-width="2" fill="none" />
<polyline points="322.0,255.0,334.0,255.0,346.0,258.5,358.0,252.5" stroke="black" stroke-width="2" fill="none" />
<polyline points="339.5,264.5,327.5,258.5" stroke="black" stroke-width="2" fill="none" />
<polyline points="321.0,260.5,322.5,273.0,325.5,285.0,331.5,297.0,333.0,309.0,342.0,321.5,352.5,333.0,349.0,344.5" stroke="black" stroke-width="2" fill="none" />
<polyline points="345.0,338.0,336.0,326.5" stroke="black" stroke-width="2" fill="none" />
<polyline points="295.0,346.0,283.5,343.0,271.5,341.5,260.0,341.5,248.0,335.5,235.5,344.0" stroke="black" stroke-width="2" fill="none" />
<polyline points="254.5,352.5,268.0,365.5,280.0,368.5,292.0,368.5,304.0,365.5" stroke="black" stroke-width="2" fill="none" />
<polyline points="287.0,363.5,276.5,372.5,264.5,377.0" stroke="black" stroke-width="2" fill="none" />
<polyline points="275.5,387.0,283.0,399.0,308.5,409.5,325.0,409.0" stroke="black" stroke-width="2" fill="none" />
<polyline points="333.0,416.5,318.0,429.0" stroke="black" stroke-width="2" fill="none" />
<polyline points="327.5,444.5,327.5,444.5,326.0,456.5,324.5,468.5,321.5,480.5,320.0,492.5,319.0,504.5,328.0,502.5" stroke="black" stroke-width="2" fill="none" />
<polyline points="335.5,493.0,341.5,494.5,342.5,506.5" stroke="black" stroke-width="2" fill="none" />
<polyline points="366.5,490.0,354.5,466.0" stroke="black" stroke-width="2" fill="none" />
<polyline points="349.5,457.0,356.5,468.5,362.0,480.5,367.5,493.0,366.0,505.0" stroke="black" stroke-width="2" fill="none" />
<polyline points="357.5,479.5,345.5,459.0" stroke="black" stroke-width="2" fill="none" />
<polyline points="344.5,458.0,356.5,459.5,350.0,465.0,356.0,477.0,362.5,489.5,358.0,495.5,370.0,502.5" stroke="black" stroke-width="2" fill="none" />
<polyline points="334.5,506.0,328.5,502.0,331.5,502.0,337.5,489.5,337.5,477.0,338.0,465.0,335.0,453.0,332.0,441.0" stroke="black" stroke-width="2" fill="none" />
<polyline points="256.0,392.0,244.0,383.0" stroke="black" stroke-width="2" fill="none" />
<polyline points="228.5,409.0,240.5,416.5,253.0,424.0,264.5,429.5" stroke="black" stroke-width="2" fill="none" />
<polyline points="244.5,418.5,230.0,399.5,218.0,390.5,206.5,380.5,194.5,372.0,182.5,361.5" stroke="black" stroke-width="2" fill="none" />
<polyline points="181.5,355.5,189.0,368.0,204.0,380.0,218.0,392.0,236.0,404.5,249.0,417.0" stroke="black" stroke-width="2" fill="none" />
<polyline points="199.5,456.0,187.5,445.5,175.5,431.5,163.0,415.0" stroke="black" stroke-width="2" fill="none" />
<polyline points="154.5,415.0,158.5,427.0,159.0,431.5,172.5,439.0,181.5,451.0,188.5,457.0,194.5,469.0,199.0,479.0,200.5,486.5,211.5,485.0,213.0,489.5,215.5,496.0,219.5,497.5,227.0,509.5" stroke="black" stroke-width="2" fill="none" />
<polyline points="224.5,501.5,210.5,502.5,206.0,498.0,188.5,506.0,179.5,498.5,170.5,488.5,155.5,481.0,153.5,472.0,149.0,460.0,153.5,443.5,149.0,436.0,167.0,427.0,162.5,415.0,159.5,403.0,158.5,391.0,158.0,379.0,155.5,367.0,148.0,358.0,159.5,352.0,158.0,340.0,154.5,328.0,153.0,316.0,144.0,304.0,140.0,292.0,135.5,280.0,130.5,267.5,128.0,255.5,126.5,243.5,129.5,235.0,116.0,249.5,111.5,255.5,96.5,246.5,97.0,234.5,102.5,228.5,90.5,235.5" stroke="black" stroke-width="2" fill="none" />
<polyline points="102.5,223.5,104.0,240.0,122.0,245.0,132.5,262.0,137.0,271.0,146.5,283.5,148.0,295.5,152.5,307.5,158.5,319.5,161.5,331.5" stroke="black" stroke-width="2" fill="none" />
<polyline points="149.5,347.0,143.5,333.5,131.0,330.5,119.5,326.0,124.0,315.5,116.5,312.5,116.5,307.5,115.0,303.5,118.0,288.5,122.5,279.5,109.0,272.5,107.5,262.0,97.0,245.5,92.5,247.5,92.5,235.5,100.0,223.0,104.5,211.0,106.0,206.5,113.5,202.0,115.0,191.5,112.0,182.5,107.5,170.5,112.0,158.5,108.5,146.0,99.5,152.0" stroke="black" stroke-width="2" fill="none" />
<polyline points="103.5,152.0,106.5,163.5,99.0,172.5,112.5,192.0,123.0,192.0,130.0,181.5,138.0,170.5,149.0,161.5,159.5,174.0,170.5,172.5" stroke="black" stroke-width="2" fill="none" />
<polyline points="158.0,213.0,146.0,213.5,126.5,206.0,120.5,216.5,128.0,204.0" stroke="black" stroke-width="2" fill="none" />
<polyline points="114.5,199.5,102.5,196.5" stroke="black" stroke-width="2" fill="none" />
<polyline points="104.0,152.0,111.5,152.5" stroke="black" stroke-width="2" fill="none" />
<polyline points="127.5,125.0,114.5,124.0,114.5,115.0" stroke="black" stroke-width="2" fill="none" />
<polyline points="117.0,110.0,117.0,122.0,121.5,122.0,135.0,138.5,133.5,139.5,147.0,130.5,160.5,125.0,169.0,134.0,180.5,145.0" stroke="black" stroke-width="2" fill="none" />
<polyline points="174.0,158.0,177.0,152.0,181.5,142.0,169.0,130.0" stroke="black" stroke-width="2" fill="none" />
<polyline points="160.0,124.0,151.0,136.0,167.0,127.0,179.0,136.0" stroke="black" stroke-width="2" fill="none" />
<polyline points="191.0,99.5,202.5,102.5,216.0,120.0,223.5,124.0" stroke="black" stroke-width="2" fill="none" />
<polyline points="255.0,67.5,252.0,80.0,240.0,75.5,228.0,78.5,225.5,80.0,230.0,60.5,238.0,47.0,246.0,34.5,253.5,22.5,242.5,9.0" stroke="black" stroke-width="2" fill="none" />
<polyline points="242.0,6.5,254.0,6.5" stroke="black" stroke-width="2" fill="none" />
<polyline points="240.5,22.5,252.0,16.5,246.0,15.0,238.5,35.0,245.5,46.0,239.5,51.0,252.0,49.5,252.0,40.5,255.5,45.5,263.0,44.0,270.5,56.0,278.0,42.5,270.5,52.5,275.0,54.0" stroke="black" stroke-width="2" fill="none" />
<polyline points="291.0,46.0,294.0,34.0,296.0,29.5,285.5,16.0,285.5,13.0" stroke="black" stroke-width="2" fill="none" />
<polyline points="262.0,59.5,250.5,55.0,238.5,55.0,226.5,58.0,226.5,53.5,217.5,58.0,206.0,62.5,224.0,49.0,213.5,41.0,210.5,50.0" stroke="black" stroke-width="2" fill="none" />
<polyline points="208.0,58.5,205.0,47.0,194.0,39.5" stroke="black" stroke-width="2" fill="none" />
<polyline points="198.5,32.5,180.0,44.5,166.5,58.0,152.5,64.0,141.0,68.5,145.5,80.5,150.0,98.5,141.5,107.0,137.0,128.0,139.5,140.0,142.0,140.0,154.5,152.0,137.0,159.5,137.0,170.5,136.0,184.0,142.0,196.0,143.5,196.0" stroke="black" stroke-width="2" fill="none" />
<polyline points="133.0,106.5,121.0,103.5" stroke="black" stroke-width="2" fill="none" />
<polyline points="115.5,109.5,127.0,117.0,135.0,113.5" stroke="black" stroke-width="2" fill="none" />
<polyline points="128.0,94.0,140.0,85.0" stroke="black" stroke-width="2" fill="none" />
<polyline points="136.0,90.5,148.5,93.5" stroke="black" stroke-width="2" fill="none" />
<polyline points="159.5,81.0,147.0,71.5" stroke="black" stroke-width="2" fill="none" />
<polyline points="143.0,76.5,155.0,86.5" stroke="black" stroke-width="2" fill="none" />
<polyline points="160.0,74.0,158.5,77.5,144.5,65.5" stroke="black" stroke-width="2" fill="none" />
<polyline points="142.0,66.5,154.0,53.0,166.0,63.5,177.5,53.5,189.5,45.5,188.0,45.5,191.0,51.5,183.5,59.0,183.5,71.0,188.0,71.0,189.5,83.0,185.0,84.5,201.0,74.0,213.0,75.5" stroke="black" stroke-width="2" fill="none" />
<polyline points="192.0,56.5,204.0,64.0,205.5,68.0,217.5,72.5,229.0,66.0,245.0,58.0" stroke="black" stroke-width="2" fill="none" />
<polyline points="254.0,55.0,270.0,70.0,259.5,83.5,270.0,77.5,270.0,83.5,283.5,90.0,295.5,90.0,297.5,82.5,306.0,80.0,318.0,91.5,327.0,99.0,336.0,102.5,342.0,93.5,348.5,90.5,360.5,97.0" stroke="black" stroke-width="2" fill="none" />
<polyline points="370.0,43.5,379.0,55.5,377.5,66.0,388.0,76.0,398.5,87.5,400.0,99.0,405.0,105.5,412.5,111.5,415.5,113.0,417.0,119.5,420.0,131.5,438.0,144.5,430.5,156.0,429.0,165.0,424.5,171.5,429.5,180.5,422.0,180.5,413.0,183.5,418.5,195.5,420.5,207.5,425.0,218.5,417.5,221.5,406.5,234.5,412.5,245.0,417.0,256.5,413.0,265.5,409.5,268.5" stroke="black" stroke-width="2" fill="none" />
<polyline points="427.5,237.5,433.5,233.0,433.5,221.0" stroke="black" stroke-width="2" fill="none" />
<polyline points="343.5,270.0,332.0,266.5,320.0,260.5" stroke="black" stroke-width="2" fill="none" />
<polyline points="286.0,317.0,282.0,318.5,290.0,330.5,294.5,329.5,305.5,338.5,317.5,343.0,329.5,340.0,341.0,342.5,341.0,348.0" stroke="black" stroke-width="2" fill="none" />
<polyline points="270.0,511.5,258.0,508.5,245.5,510.0,233.5,505.0,222.0,494.0,207.0,489.0,201.0,475.5,192.5,465.0,183.0,453.0,173.5,455.0,172.0,438.5,159.0,423.5,147.5,407.0,143.0,423.0,143.0,422.5,154.0,410.5,145.0,398.5,141.0,388.0" stroke="black" stroke-width="2" fill="none" />
<polyline points="141.0,385.5,136.5,397.5,134.0,409.5,127.0,419.5,119.5,417.5,131.0,396.5,143.0,377.0,155.0,374.0" stroke="black" stroke-width="2" fill="none" />
<polyline points="147.5,375.0,135.5,387.5,129.5,399.5,123.5,412.0,115.5,424.0,115.0,436.0,121.0,448.0,127.0,460.0,135.0,472.0,145.5,484.0,151.5,496.5,159.0,508.0" stroke="black" stroke-width="2" fill="none" />
<polyline points="173.0,489.5,160.5,482.0,167.5,484.0,164.5,475.0,164.0,475.0,152.5,478.0" stroke="black" stroke-width="2" fill="none" />
<polyline points="156.5,502.5,152.0,475.5,139.5,476.5,127.5,457.0,115.0,434.5" stroke="black" stroke-width="2" fill="none" />
<polyline points="110.0,440.0,116.0,452.0,123.5,464.0,130.5,476.0,139.5,487.5,141.5,499.0,148.5,504.0" stroke="black" stroke-width="2" fill="none" />
<polyline points="121.5,507.0,120.0,499.5,117.0,487.5,107.5,486.0,113.5,473.5,101.5,470.5" stroke="black" stroke-width="2" fill="none" />
<polyline points="100.0,469.0,112.5,468.5,82.5,475.0,72.0,488.5,75.0,490.0,90.5,490.0" stroke="black" stroke-width="2" fill="none" />
<polyline points="81.5,478.5,83.0,469.5,54.0,481.5,64.0,483.0,66.5,469.0,78.5,462.0,82.5,460.5,95.0,458.0,107.0,451.0,119.0,471.0,131.0,492.0" stroke="black" stroke-width="2" fill="none" />
<polyline points="94.0,510.0,99.5,505.5,108.0,497.5,96.0,488.5,92.5,473.5" stroke="black" stroke-width="2" fill="none" />
<polyline points="87.0,457.5,98.5,454.5,110.5,457.0,116.0,469.0,124.5,480.5,130.0,492.5,138.0,502.5,144.0,508.0" stroke="black" stroke-width="2" fill="none" />
<polyline points="109.0,504.5,96.5,506.0,84.5,507.5" stroke="black" stroke-width="2" fill="none" />
<polyline points="29.5,484.0,41.5,479.5,53.5,473.5,65.5,465.5,78.5,456.5,89.0,464.0,95.5,446.0" stroke="black" stroke-width="2" fill="none" />
<polyline points="96.5,447.0,89.0,459.0,70.5,459.0,58.5,471.0,30.0,483.0,34.5,498.0,27.0,510.5,37.0,497.0,41.5,508.0,51.0,503.5,63.0,502.5,69.0,495.0,73.5,487.5,78.5,476.5,90.5,472.0,97.0,484.0,109.0,486.5" stroke="black" stroke-width="2" fill="none" />
<polyline points="149.5,501.0,137.5,482.0,125.0,464.0,113.0,444.5,101.0,442.0,89.0,445.0,77.0,449.0,65.5,453.5,53.0,458.0,41.5,462.5" stroke="black" stroke-width="2" fill="none" />
<polyline points="37.5,490.5,25.5,494.0,14.0,498.5,2.0,500.0" stroke="black" stroke-width="2" fill="none" />
<polyline points="1.5,497.0,13.5,494.0,25.5,490.5,37.0,487.0,49.5,482.5,61.5,478.0,73.5,472.0,85.5,468.0,97.5,463.5,105.0,461.0,73.0,476.0,58.5,488.0,65.0,500.0,74.0,510.5,77.0,498.5,89.0,502.0,101.5,494.5,109.5,499.0,122.0,506.5,128.0,503.0,141.0,504.5" stroke="black" stroke-width="2" fill="none" />
<polyline points="220.0,492.0,233.0,504.0" stroke="black" stroke-width="2" fill="none" />
<polyline points="192.5,453.5,182.0,441.5,171.5,429.5" stroke="black" stroke-width="2" fill="none" />
<polyline points="199.5,107.5,186.5,100.0,195.5,88.5,197.5,76.5,199.0,67.5,200.5,55.5,204.0,44.0,197.5,44.5,184.0,57.0" stroke="black" stroke-width="2" fill="none" />
<polyline points="179.0,51.0,164.0,62.0,162.0,71.0,169.5,83.0,160.5,95.0,157.5,107.0,169.5,117.5,154.5,134.0,157.5,141.5,146.5,155.5,145.0,168.0,142.0,169.0,149.5,181.0,154.0,187.0,161.5,181.0" stroke="black" stroke-width="2" fill="none" />
<polyline points="141.5,96.5,123.5,89.0" stroke="black" stroke-width="2" fill="none" />
<polyline points="120.0,85.5,121.5,80.5,123.0,91.0,124.5,100.0,133.5,104.5,139.0,103.0,151.0,97.0,164.5,100.0,177.0,92.0,188.0,89.0,194.0,87.5,204.5,92.0" stroke="black" stroke-width="2" fill="none" />
<polyline points="170.5,77.5,167.0,86.5,159.5,86.5,154.5,79.5,145.5,67.5,130.5,78.0" stroke="black" stroke-width="2" fill="none" />
<polyline points="131.0,57.0,143.0,45.0,155.0,46.5,168.5,52.5,183.5,42.5,196.0,35.0,208.0,32.0,219.0,37.5,229.5,43.5" stroke="black" stroke-width="2" fill="none" />
</svg>