<svg xmlns="http://www.w3.org/2000/svg" version="1.1"><polyline points="38.5,4.0,37.0,8.0,35.0,13.0,34.0,16.5" stroke="black" stroke-width="2" fill="none" />
<polyline points="33.5,9.0,35.5,4.0,34.0,8.0,32.5,12.0,32.5,15.5,31.5,19.5,31.0,24.0,30.5,28.0,30.0,32.5,29.5,36.0,29.0,40.0,29.0,44.0,29.5,48.0,30.0,52.0,31.0,56.0,31.0,59.5,31.5,63.5,31.5,67.0,32.5,71.0,32.5,74.5,33.5,78.5,34.5,82.5,35.0,87.0,36.5,91.0,38.0,95.5,39.5,99.5,39.0,103.0,43.0,111.5,47.5,109.5" stroke="black" stroke-width="2" fill="none" />
<polyline points="45.0,124.0,49.0,119.0,53.0,114.0,52.5,114.0,48.5,118.0,44.5,122.0,45.5,128.0,46.0,127.0,50.0,124.5,49.0,125.5" stroke="black" stroke-width="2" fill="none" />
<polyline points="42.5,116.5,38.5,120.0,35.0,124.0,31.5,126.0" stroke="black" stroke-width="2" fill="none" />
<polyline points="29.5,137.5,34.0,132.0,29.0,136.0,26.5,139.5,27.5,140.5,23.0,145.0,20.0,149.0,17.5,153.5,19.0,154.5,15.5,159.0,12.5,163.0,11.5,166.5,10.0,168.5,7.5,172.5,6.0,176.0,3.5,180.0,3.5,184.5" stroke="black" stroke-width="2" fill="none" />
<polyline points="3.0,179.0,7.0,173.0,11.5,164.0,16.0,159.0,19.0,149.5,22.5,142.0,26.0,137.0" stroke="black" stroke-width="2" fill="none" />
<polyline points="30.5,139.5,29.0,137.5,29.5,135.0,31.5,131.0,31.0,129.0,34.0,125.5,37.5,122.0,41.5,118.0,45.5,113.5,49.5,109.5,54.0,105.5,58.5,101.5,62.5,98.0,67.0,94.5,71.0,90.5,76.5,86.5,82.0,82.5,88.0,79.0,93.5,74.5,100.0,70.5,105.5,66.0,112.5,61.5,119.5,57.5,126.0,54.0,132.5,50.5,140.5,46.5,149.0,43.0,156.0,39.0,164.5,35.0,173.5,31.5,182.0,27.5,184.5,28.5" stroke="black" stroke-width="2" fill="none" />
<polyline points="189.5,30.5,193.5,29.5" stroke="black" stroke-width="2" fill="none" />
<polyline points="193.0,23.5,189.0,24.5" stroke="black" stroke-width="2" fill="none" />
<polyline points="188.0,39.5,181.5,41.5" stroke="black" stroke-width="2" fill="none" />
<polyline points="184.0,44.5,188.0,41.0,191.5,39.0,195.5,37.0,199.5,34.5,204.0,32.5,208.0,29.5,212.5,27.0,216.5,24.5,221.0,22.5,225.0,20.5,229.0,18.5,232.5,17.0,236.5,16.0,240.5,14.0,244.5,12.5,248.5,11.0,252.5,9.0,259.5,7.5" stroke="black" stroke-width="2" fill="none" />
<polyline points="260.5,5.5,255.5,7.0,253.0,12.5,250.0,16.5,253.0,15.0,257.5,12.5,261.0,8.5,265.0,5.0,269.0,3.0,265.5,7.5,267.5,6.5,271.0,6.5,275.0,6.5,279.0,5.5,283.5,4.0,287.5,3.0,291.0,4.5,294.5,4.5,298.5,3.5,302.5,3.0" stroke="black" stroke-width="2" fill="none" />
<polyline points="308.5,9.5,312.5,10.0,317.0,11.0,321.5,11.5,325.5,12.5,329.5,14.0" stroke="black" stroke-width="2" fill="none" />
<polyline points="325.5,13.0,333.5,18.0,336.0,18.0,340.0,19.5" stroke="black" stroke-width="2" fill="none" />
<polyline points="340.0,15.5,336.0,14.0" stroke="black" stroke-width="2" fill="none" />
<polyline points="341.0,14.5,337.0,13.0,331.5,16.0,328.0,15.0,323.5,13.5,319.5,13.0,315.5,12.0,311.5,11.5,307.5,13.0,303.5,11.5,299.5,10.5,295.0,9.5,291.0,10.0,287.0,9.5,282.5,9.0,278.5,8.5,275.5,8.0,272.0,8.5,268.0,7.0" stroke="black" stroke-width="2" fill="none" />
<polyline points="262.0,6.0,258.5,7.5,255.0,11.0,251.0,14.5,255.5,13.5,260.5,9.0,265.0,5.0,270.5,1.0" stroke="black" stroke-width="2" fill="none" />
<polyline points="251.5,7.0,245.5,11.0,249.5,9.5" stroke="black" stroke-width="2" fill="none" />
<polyline points="244.5,4.0,241.0,5.5,236.5,7.0,232.5,8.5,228.5,9.5,224.5,11.0,220.5,12.5,216.5,14.5,212.5,16.5,208.5,20.0,204.5,23.0,200.5,25.5,202.5,24.0,208.5,20.5,214.0,16.0,223.0,12.0,233.5,8.5" stroke="black" stroke-width="2" fill="none" />
<polyline points="232.5,9.0,223.5,13.5,214.5,17.5,209.5,21.5,204.5,25.5,206.0,24.5,210.0,22.5,214.5,19.5,218.5,17.5,222.5,16.0,226.5,14.0,230.5,12.5,234.5,10.0" stroke="black" stroke-width="2" fill="none" />
<polyline points="239.5,13.5,246.0,13.5,256.0,9.0,259.5,8.5,263.5,4.5,262.5,4.0,258.5,5.5,256.0,4.5,248.5,5.5,244.5,7.0,242.5,3.5,238.5,5.0,234.0,6.5,230.0,7.5,226.5,9.0,222.5,10.5,218.5,12.0,214.0,14.5,210.0,16.0,206.0,17.5,202.0,19.5,198.0,21.0,194.5,22.0,190.5,24.0,187.0,26.5,183.0,28.0,179.0,30.0,175.0,32.0,171.0,33.5,167.5,35.0,163.5,37.0,159.0,39.0,155.0,41.0,151.0,42.5,147.0,44.0,143.5,46.5,139.5,48.0,135.5,50.5,131.0,52.5,127.0,55.0,122.5,57.5,118.5,60.0,114.5,62.5,110.0,65.0,105.5,67.5,101.5,70.0,97.5,73.0,94.0,75.0,90.0,77.5,86.0,80.5,82.5,83.0,78.5,86.0,74.5,88.5,70.5,92.0,67.0,94.5,62.5,97.5,59.0,101.5,55.0,105.5,51.0,109.0,47.0,113.5,43.5,118.0,39.5,122.0,36.0,125.0,32.0,129.5,30.0,129.5,26.0,135.5,22.0,142.0,17.5,148.0,13.0,155.5,8.5,162.0,4.5,171.0,3.0,174.5,5.0,170.5,6.5,166.5,8.5,162.0,10.5,158.0,13.5,154.0,15.0,150.0,18.0,146.5,20.5,142.5,22.5,138.5,25.0,134.5,28.0,130.5,29.5,126.0,34.0,123.0,37.5,119.0,42.0,115.0,43.0,111.5,41.0,107.5,39.0,104.0,37.5,100.5,36.0,96.5,35.0,92.5,33.5,88.5,32.0,84.5,31.0,81.0,30.0,77.0,29.0,73.0,28.5,69.0,29.0,65.0,28.0,61.0,28.0,57.0,28.0,53.0,28.0,48.5,27.5,45.0,27.5,41.0,27.5,36.5,28.0,32.5,28.0,28.5,28.5,24.5,29.0,20.5,30.0,16.0,31.5,12.5,32.5,8.0,33.5,4.0,32.5,5.5" stroke="black" stroke-width="2" fill="none" />
<polyline points="50.0,3.0,50.0,7.0,52.0,11.0,55.0,13.5" stroke="black" stroke-width="2" fill="none" />
<polyline points="54.5,13.5,50.5,8.5" stroke="black" stroke-width="2" fill="none" />
<polyline points="55.0,12.0,53.5,8.0,54.0,4.5,56.0,2.0" stroke="black" stroke-width="2" fill="none" />
<polyline points="63.0,3.5,63.5,5.5,65.0,9.0,67.5,12.5,70.5,16.5,75.0,21.0,75.5,25.5,78.0,29.5,80.5,33.0" stroke="black" stroke-width="2" fill="none" />
<polyline points="80.5,31.5,76.0,28.5,72.0,20.0,67.5,15.5,63.5,10.0" stroke="black" stroke-width="2" fill="none" />
<polyline points="66.5,8.0,70.5,13.0,74.0,16.5" stroke="black" stroke-width="2" fill="none" />
<polyline points="77.0,5.5,78.0,6.5,81.0,10.0,87.0,13.0" stroke="black" stroke-width="2" fill="none" />
<polyline points="95.5,23.5,97.0,24.5,99.5,29.0,102.0,33.0" stroke="black" stroke-width="2" fill="none" />
<polyline points="102.0,33.0,98.0,26.5" stroke="black" stroke-width="2" fill="none" />
<polyline points="99.0,25.5,101.5,29.5,105.5,34.0" stroke="black" stroke-width="2" fill="none" />
<polyline points="105.5,34.0,101.5,29.5,97.0,23.0" stroke="black" stroke-width="2" fill="none" />
<polyline points="90.0,28.0,94.0,34.5,98.0,37.5,99.5,44.0" stroke="black" stroke-width="2" fill="none" />
<polyline points="97.5,45.0,93.5,38.5,89.5,34.0,88.5,36.5" stroke="black" stroke-width="2" fill="none" />
<polyline points="88.5,29.0,88.5,33.0,87.5,37.0,91.0,37.5,93.0,41.0,96.0,45.0,94.5,48.5,90.5,51.0,90.5,53.0,94.5,50.0,98.5,47.0,102.5,44.5,106.5,41.5" stroke="black" stroke-width="2" fill="none" />
<polyline points="107.5,40.0,103.5,44.0,105.0,40.0,109.0,41.0,113.0,38.5,117.5,36.0,121.5,33.5,125.5,31.5,130.0,29.0,134.0,27.0,138.0,24.5,142.0,22.5,146.0,21.5,150.0,20.0,154.0,17.5,158.0,16.0,161.5,14.0,165.5,12.5,169.5,11.0,173.5,10.0,178.0,8.5,182.0,7.5,186.0,6.5,189.5,5.0,193.0,4.0,197.0,3.5" stroke="black" stroke-width="2" fill="none" />
<polyline points="195.0,8.0,199.0,8.0,203.0,6.0,207.0,5.0,210.5,4.0,214.5,2.5,218.5,2.5" stroke="black" stroke-width="2" fill="none" />
<polyline points="224.0,6.0,220.0,8.0,216.5,9.0,212.5,11.5,209.0,13.5,205.0,16.0,201.0,17.5,197.0,19.5,193.0,21.5,190.5,20.5,188.5,22.5,184.5,24.5,180.0,26.5,176.0,28.5,171.5,30.0,167.5,32.0,163.5,33.5,159.5,35.5,155.5,37.5,152.0,39.0,148.0,41.0,144.0,43.5,140.0,45.0,136.0,47.0,132.0,48.5,128.0,51.0,124.0,53.5,120.5,56.0,116.5,58.5,112.5,61.5,109.0,64.0,104.5,66.0,100.5,69.0,96.5,71.5,92.5,74.5,88.5,77.0,84.5,79.0,80.5,82.0,76.0,85.0,72.5,87.0,68.5,90.5,65.0,93.5,61.0,98.0,56.5,99.0,52.5,100.5,49.5,101.5,45.5,103.5,52.0,100.0,58.0,96.0,64.0,92.5,70.0,88.0,74.5,84.0,80.0,80.5,86.0,77.0,91.5,73.5,97.5,69.5,104.0,66.0,109.5,62.5,116.5,59.0,121.5,56.0,127.5,52.0,135.5,47.5,144.0,43.5,151.5,38.5,160.5,34.5,170.0,30.0,177.5,26.0,187.0,22.0,195.5,18.0,204.5,14.0" stroke="black" stroke-width="2" fill="none" />
<polyline points="205.0,16.5,196.5,20.5" stroke="black" stroke-width="2" fill="none" />
<polyline points="190.5,7.5,191.5,9.0,193.5,7.5,198.0,6.5,202.5,4.5,206.5,3.5" stroke="black" stroke-width="2" fill="none" />
<polyline points="182.0,3.5,176.5,5.5,173.0,3.0,169.0,2.5" stroke="black" stroke-width="2" fill="none" />
<polyline points="165.0,10.0,169.0,8.5,173.0,7.0,171.0,10.5,161.5,14.5" stroke="black" stroke-width="2" fill="none" />
<polyline points="155.0,17.5,146.5,21.0,137.5,25.0,129.5,29.0,123.0,33.0,116.0,36.5,108.0,39.5,101.0,43.5,98.0,47.5,93.5,51.5,88.0,55.0,85.0,57.0,79.5,61.0,74.5,65.0,70.0,69.0,65.5,70.0,65.5,74.0,61.5,78.0,59.5,80.0,56.0,84.0,51.5,88.0,47.5,92.0,43.5,96.0,39.5,98.0,43.5,95.5,47.5,91.5,51.0,87.0,54.5,84.5,57.5,80.0,59.5,80.0,63.5,76.5,64.0,72.5" stroke="black" stroke-width="2" fill="none" />
<polyline points="62.5,70.5,64.0,74.5,65.0,72.0,69.0,71.0,73.0,67.0,77.5,64.0,81.5,60.5,85.5,57.5,89.5,53.5,95.0,48.5,99.0,45.5" stroke="black" stroke-width="2" fill="none" />
<polyline points="89.0,47.5,85.0,46.0" stroke="black" stroke-width="2" fill="none" />
<polyline points="86.5,45.5,87.5,49.5,89.0,53.5" stroke="black" stroke-width="2" fill="none" />
<polyline points="79.5,45.5,75.5,40.0" stroke="black" stroke-width="2" fill="none" />
<polyline points="74.5,39.0,78.5,41.0,83.0,48.5,87.0,48.0" stroke="black" stroke-width="2" fill="none" />
<polyline points="71.5,47.0,70.5,51.0,72.0,55.0,73.5,58.5,75.5,61.5" stroke="black" stroke-width="2" fill="none" />
<polyline points="74.5,60.0,74.5,55.5,73.5,54.5,69.5,51.5" stroke="black" stroke-width="2" fill="none" />
<polyline points="66.0,54.0,62.0,49.5" stroke="black" stroke-width="2" fill="none" />
<polyline points="62.0,49.0,62.0,53.0,66.0,57.5,73.0,59.0" stroke="black" stroke-width="2" fill="none" />
<polyline points="66.5,64.5,62.5,59.5" stroke="black" stroke-width="2" fill="none" />
<polyline points="62.5,58.0,63.5,62.0,66.0,66.0,66.0,68.5" stroke="black" stroke-width="2" fill="none" />
<polyline points="66.5,60.0,62.5,57.0" stroke="black" stroke-width="2" fill="none" />
<polyline points="63.5,57.5,66.5,62.0,68.0,66.0" stroke="black" stroke-width="2" fill="none" />
<polyline points="71.0,57.0,67.0,51.5,63.5,48.0" stroke="black" stroke-width="2" fill="none" />
<polyline points="64.0,48.5,67.5,52.0,70.0,56.5" stroke="black" stroke-width="2" fill="none" />
<polyline points="62.0,38.0,60.0,34.0,61.0,34.0,59.5,31.5" stroke="black" stroke-width="2" fill="none" />
<polyline points="75.0,36.0,75.5,40.0,77.5,44.0,79.5,48.5,80.5,49.5" stroke="black" stroke-width="2" fill="none" />
<polyline points="83.0,48.5,81.5,45.0,78.5,41.0,76.0,37.0" stroke="black" stroke-width="2" fill="none" />
<polyline points="88.0,29.0,90.5,33.0,93.0,37.0,95.5,41.0,98.5,44.5" stroke="black" stroke-width="2" fill="none" />
<polyline points="109.5,53.0,105.5,56.0,110.0,52.5" stroke="black" stroke-width="2" fill="none" />
<polyline points="110.0,59.0,106.0,61.0,101.5,64.0,98.0,66.0,94.5,69.0,90.5,71.5,86.5,74.0,82.0,78.0,78.5,81.0,81.0,79.0,88.0,75.0,93.5,71.5,98.5,67.5,104.5,63.5,110.5,59.0,115.5,55.5,119.5,51.5" stroke="black" stroke-width="2" fill="none" />
<polyline points="119.5,50.5,115.5,52.5,114.5,51.5,114.0,55.5,113.0,53.5,109.5,55.5,105.5,58.5,102.0,61.0,97.0,65.0,93.0,68.0,89.0,71.0,85.0,74.0,85.5,72.0,81.5,71.5,81.0,73.0,85.5,73.5,91.0,69.5,97.0,65.5,102.5,61.0,108.0,57.5,114.5,53.5,117.5,49.5" stroke="black" stroke-width="2" fill="none" />
<polyline points="126.5,57.0,121.0,61.0,122.0,60.0,126.5,57.5,130.5,55.0" stroke="black" stroke-width="2" fill="none" />
<polyline points="134.5,65.5,139.0,63.0,147.0,58.0,144.0,51.0,150.5,49.0,151.5,46.5,159.0,43.5,154.5,44.5,150.5,47.5,146.5,50.0,142.5,51.5" stroke="black" stroke-width="2" fill="none" />
<polyline points="144.0,53.0,148.0,51.0" stroke="black" stroke-width="2" fill="none" />
<polyline points="153.5,52.0,157.5,50.5,162.0,47.0,165.5,45.5,169.5,43.0,173.5,42.5,177.0,45.0" stroke="black" stroke-width="2" fill="none" />
<polyline points="176.0,40.5,180.0,38.5,176.5,41.5,175.0,44.5,174.5,47.5,171.0,48.5,166.0,52.5" stroke="black" stroke-width="2" fill="none" />
<polyline points="157.5,54.0,157.0,58.0" stroke="black" stroke-width="2" fill="none" />
<polyline points="156.5,56.0,160.5,56.0,164.5,53.0,169.0,49.5,171.0,46.5,175.0,45.5,179.5,46.0,184.0,42.5,188.5,40.0,192.0,36.5,196.0,35.5,199.5,33.5,203.5,30.5,207.0,28.5,210.5,26.5,214.5,25.0,218.0,23.0,222.0,21.0,225.5,19.5,229.5,17.5,233.5,16.5,237.5,14.5,242.0,12.0" stroke="black" stroke-width="2" fill="none" />
<polyline points="241.5,8.0,237.5,10.5,242.0,7.0" stroke="black" stroke-width="2" fill="none" />
<polyline points="240.5,6.0,229.0,8.5" stroke="black" stroke-width="2" fill="none" />
<polyline points="230.0,3.5,226.0,5.0,232.0,2.0" stroke="black" stroke-width="2" fill="none" />
<polyline points="230.5,15.5,222.0,19.5,213.0,24.0,205.5,28.5,198.5,32.5,192.0,36.5,190.0,40.0,183.0,42.0" stroke="black" stroke-width="2" fill="none" />
<polyline points="180.5,37.0,176.5,37.5,172.0,40.0,167.5,41.0,163.5,44.0,159.0,46.5,155.5,49.0,151.5,52.0,145.5,57.5,141.0,60.0,137.0,63.0,133.0,67.5,129.0,69.0,124.5,70.0,120.5,72.5,118.5,74.0,114.5,77.0,110.5,79.5,106.5,81.5,103.0,83.0,99.0,86.5,95.0,90.0,90.5,92.5,86.5,96.5,83.0,99.5,79.0,102.5" stroke="black" stroke-width="2" fill="none" />
<polyline points="68.5,97.5,64.5,100.5,59.5,104.0,55.5,107.5,51.5,111.0,48.0,116.0,44.0,120.0,40.5,122.5,36.5,126.5,32.5,130.5,36.0,126.5,40.0,122.5,44.5,118.5,48.5,114.5,53.0,110.5,56.5,106.5,60.5,103.0,65.0,99.0,70.0,95.0" stroke="black" stroke-width="2" fill="none" />
<polyline points="64.5,112.5,61.0,116.5,58.0,119.5,62.0,116.0" stroke="black" stroke-width="2" fill="none" />
<polyline points="64.0,120.0,60.5,124.0,59.0,127.5,61.5,122.0,65.0,120.5,66.5,118.0" stroke="black" stroke-width="2" fill="none" />
<polyline points="68.5,117.5,65.0,121.5,60.0,125.5,59.0,130.5,56.5,135.0,54.5,139.0,52.0,142.5,50.5,146.5,49.0,150.0,48.5,154.5,47.5,158.5,46.0,162.0" stroke="black" stroke-width="2" fill="none" />
<polyline points="47.5,155.5,51.5,144.0,54.5,137.5,59.0,131.0,61.0,126.0" stroke="black" stroke-width="2" fill="none" />
<polyline points="41.0,134.0,37.0,138.5,33.0,142.5,29.0,147.5,25.0,152.0,22.5,156.0,16.0,159.5,15.5,164.0,12.0,169.0,9.0,173.0,11.5,170.0,14.5,165.0,17.5,161.0" stroke="black" stroke-width="2" fill="none" />
<polyline points="19.0,163.5,15.0,169.5,11.0,175.0,13.5,172.0,17.0,168.0,19.5,164.5" stroke="black" stroke-width="2" fill="none" />
<polyline points="19.5,151.0,20.0,155.5,18.5,154.5,19.0,156.0,23.0,155.0,27.0,150.5,31.5,145.5,36.0,141.5,40.0,138.0" stroke="black" stroke-width="2" fill="none" />
<polyline points="31.0,150.0,28.5,154.0,28.0,155.0" stroke="black" stroke-width="2" fill="none" />
<polyline points="43.0,204.0,44.0,208.0,43.5,212.5,43.5,216.0,43.0,220.0,42.0,223.5,40.5,227.5,38.0,231.5,36.0,235.5,33.5,239.5,31.5,243.0,29.0,247.0,26.0,251.0,22.5,255.0,17.5,259.0,12.5,263.5,10.0,267.0" stroke="black" stroke-width="2" fill="none" />
<polyline points="11.0,267.0,15.0,269.0,19.0,270.0,23.0,269.5" stroke="black" stroke-width="2" fill="none" />
<polyline points="9.0,268.0,13.0,270.0,17.0,272.0,21.0,273.5,25.5,275.0,29.5,275.5,33.5,276.5,37.0,277.0,41.0,277.5,45.0,278.0,49.0,278.0,53.0,278.0,57.0,277.5,61.0,277.0,65.0,277.0,69.0,277.0,73.0,276.5,77.0,275.5,81.0,275.5,85.0,274.0,89.0,274.0,93.0,273.0,96.5,273.0" stroke="black" stroke-width="2" fill="none" />
<polyline points="102.5,269.5,103.0,269.5,102.5,274.0,101.0,278.0,101.0,282.5" stroke="black" stroke-width="2" fill="none" />
<polyline points="107.5,276.5,111.5,283.0,115.0,285.5" stroke="black" stroke-width="2" fill="none" />
<polyline points="117.5,291.5,113.5,296.5,109.5,301.5,109.5,298.5,112.5,294.5" stroke="black" stroke-width="2" fill="none" />
<polyline points="104.5,305.5,101.5,309.5" stroke="black" stroke-width="2" fill="none" />
<polyline points="96.0,315.5,92.5,319.5,91.5,320.5" stroke="black" stroke-width="2" fill="none" />
<polyline points="94.5,318.5,90.5,322.5,91.0,322.5,95.0,318.0" stroke="black" stroke-width="2" fill="none" />
<polyline points="78.0,345.5,82.0,347.5,85.5,349.0,89.5,351.5,93.5,354.0,97.5,356.5" stroke="black" stroke-width="2" fill="none" />
<polyline points="98.5,363.5,94.5,359.5,90.5,355.5,86.0,352.0,82.0,349.0,78.0,347.0" stroke="black" stroke-width="2" fill="none" />
<polyline points="78.0,348.0,83.0,351.5,87.5,355.5,88.5,355.5,93.5,359.0,98.0,362.5" stroke="black" stroke-width="2" fill="none" />
<polyline points="86.0,365.0,82.0,358.5,78.0,353.5,74.0,349.5,70.0,348.0" stroke="black" stroke-width="2" fill="none" />
<polyline points="69.5,347.5,71.5,351.5,77.5,358.0,81.5,364.0" stroke="black" stroke-width="2" fill="none" />
<polyline points="83.0,365.0,81.0,360.5,78.0,356.5" stroke="black" stroke-width="2" fill="none" />
<polyline points="74.5,353.5,70.0,350.0" stroke="black" stroke-width="2" fill="none" />
<polyline points="71.0,349.0,74.5,353.0,76.5,356.5,79.0,360.5,82.0,364.0" stroke="black" stroke-width="2" fill="none" />
<polyline points="84.5,349.0,91.5,353.0,98.5,357.0" stroke="black" stroke-width="2" fill="none" />
<polyline points="124.0,357.0,128.0,360.5" stroke="black" stroke-width="2" fill="none" />
<polyline points="127.0,359.5,124.5,356.0,123.5,351.5,123.5,348.0,124.0,344.5,125.5,340.0,128.5,336.0,133.0,332.5,139.5,328.5,141.5,325.5" stroke="black" stroke-width="2" fill="none" />
<polyline points="141.0,330.5,135.0,334.5,131.0,338.5,128.5,342.5,126.5,346.5,126.5,350.5,126.5,354.5,127.5,358.5,130.5,363.0,131.0,367.0" stroke="black" stroke-width="2" fill="none" />
<polyline points="134.5,361.0,130.5,357.5" stroke="black" stroke-width="2" fill="none" />
<polyline points="131.0,359.0,135.0,363.5" stroke="black" stroke-width="2" fill="none" />
<polyline points="135.5,363.5,131.5,359.5,127.0,353.5" stroke="black" stroke-width="2" fill="none" />
<polyline points="126.0,346.0,130.0,338.0,134.0,334.0,138.0,331.0,142.5,329.0,146.0,327.0,150.0,326.5,154.0,326.0,157.5,326.0,161.5,326.0,165.0,326.0,169.0,326.0,173.5,327.0,177.5,328.0,181.5,329.5,185.5,330.5,189.0,331.0,193.0,330.0,197.0,331.0,201.0,330.5,204.5,331.0,209.0,331.0,213.5,331.0,217.5,331.0,222.0,330.5,226.0,331.0,230.0,331.5,234.5,331.5,238.5,331.0,242.0,331.0,246.0,331.5,250.0,330.0,254.0,329.0,258.0,328.0,262.0,325.5,266.5,323.0,270.0,321.0,274.0,320.0,277.5,318.5,281.5,314.0,288.0,311.0,283.5,315.0,280.5,319.0,279.0,323.5,274.5,327.5,270.5,330.0,271.0,334.0,272.0,341.0,275.5,342.5,277.5,347.0,278.0,351.0" stroke="black" stroke-width="2" fill="none" />
<polyline points="276.5,352.5,272.5,343.0" stroke="black" stroke-width="2" fill="none" />
<polyline points="270.5,340.5,273.0,342.5,275.5,347.0,277.0,350.5,279.0,354.5,279.0,358.0,279.0,362.0" stroke="black" stroke-width="2" fill="none" />
<polyline points="277.5,346.0,273.5,338.5,269.0,337.5" stroke="black" stroke-width="2" fill="none" />
<polyline points="270.5,333.0,274.5,330.5,278.5,326.5,283.0,321.0,287.5,316.5,291.5,313.0,296.0,308.5,299.5,304.5,303.5,300.0,308.0,296.5,312.0,292.0,315.5,288.0,319.5,284.0,323.5,280.0,327.0,276.5,331.0,270.5" stroke="black" stroke-width="2" fill="none" />
<polyline points="325.5,281.0,323.0,285.0" stroke="black" stroke-width="2" fill="none" />
<polyline points="346.0,294.0,350.5,296.0,354.0,300.0,358.0,302.0,362.0,304.5,366.0,305.0,369.5,306.0,373.5,306.0,377.5,306.0,381.0,305.5,385.0,305.5,389.0,305.5,393.5,306.0,398.0,307.0,402.0,307.0,406.0,307.5,410.5,308.0,414.5,309.5,419.0,310.5,423.0,312.0,427.0,313.5,430.5,315.0,434.5,317.0,438.5,318.5,442.5,320.0,447.0,321.5,451.0,323.5,454.5,325.0,458.5,327.5,462.5,329.5,466.5,331.5,470.5,334.0,474.0,335.5,478.0,337.5,481.5,340.0" stroke="black" stroke-width="2" fill="none" />
<polyline points="478.0,338.5,473.5,336.5,469.5,334.5,465.5,332.0" stroke="black" stroke-width="2" fill="none" />
<polyline points="465.5,334.5,461.0,332.5,457.0,331.0,452.5,328.0,448.5,326.5,444.5,324.5,440.5,323.0,436.5,321.5,432.0,320.5,428.0,319.0,423.5,318.0,419.5,316.5,415.5,315.5,415.5,313.5,411.5,313.5,407.5,313.0,403.5,312.5" stroke="black" stroke-width="2" fill="none" />
<polyline points="400.5,309.5,396.5,310.0,392.0,309.5" stroke="black" stroke-width="2" fill="none" />
<polyline points="415.0,311.0,416.0,315.0,426.0,319.0" stroke="black" stroke-width="2" fill="none" />
<polyline points="432.5,314.0,441.5,318.0,446.5,322.0,448.5,323.0,457.0,325.5,465.0,329.5,472.0,334.0,480.0,338.5" stroke="black" stroke-width="2" fill="none" />
<polyline points="469.0,363.5,464.5,363.5,460.5,364.5,456.5,365.5" stroke="black" stroke-width="2" fill="none" />
<polyline points="458.5,365.5,452.5,366.0,456.5,365.0,461.0,364.0,465.5,363.5,469.5,363.0,473.5,362.5" stroke="black" stroke-width="2" fill="none" />
<polyline points="475.5,338.5,468.0,334.5,462.5,331.5,458.5,329.5,454.5,327.0,451.0,324.5,447.5,322.5,443.0,320.5,438.5,319.5,434.5,318.0,430.5,316.5,426.5,315.0,422.5,313.5,418.5,311.5,414.0,310.5,410.0,310.0,406.0,308.5,401.5,308.5,397.5,308.0,394.0,308.0,390.0,308.0,386.0,307.5,382.0,308.0,377.5,308.0,373.5,308.5,369.5,308.5,366.0,309.0,362.0,307.0,358.5,305.5,354.5,303.5,350.5,301.0,346.5,296.0" stroke="black" stroke-width="2" fill="none" />
<polyline points="348.0,296.0,352.0,300.0,358.5,303.5" stroke="black" stroke-width="2" fill="none" />
<polyline points="352.5,310.0,356.5,312.0,363.0,316.5,366.5,320.5,370.5,324.5,373.5,328.5,376.0,332.5,378.0,336.5,377.5,340.5,381.0,342.5,383.0,346.5,384.5,350.5,386.0,354.5,388.0,359.0,388.0,363.0" stroke="black" stroke-width="2" fill="none" />
<polyline points="383.0,344.5,380.0,337.0,375.5,331.0,371.5,325.0,367.0,321.0,363.0,317.0,359.0,315.0" stroke="black" stroke-width="2" fill="none" />
<polyline points="354.5,315.0,358.5,318.5,362.5,322.0,366.5,325.5,370.5,329.0,374.5,335.0,378.5,341.0,382.0,348.0,387.0,353.0" stroke="black" stroke-width="2" fill="none" />
<polyline points="384.5,362.5,380.5,354.0,376.5,346.0,373.0,338.0,370.0,334.0,366.0,329.0,362.5,322.0,358.5,318.0,354.5,315.0,350.5,311.5,349.5,313.0,345.5,309.0" stroke="black" stroke-width="2" fill="none" />
<polyline points="347.0,308.5,350.5,312.0,355.0,316.0,359.5,320.0,363.5,323.5,367.0,327.5,370.0,332.0,372.0,336.0,375.0,340.0,376.5,344.5,378.5,348.5,380.0,352.5,382.5,356.5,385.0,360.0,386.5,364.0" stroke="black" stroke-width="2" fill="none" />
<polyline points="385.0,357.5,383.0,354.0,381.0,350.5,379.0,347.0,377.0,343.5,374.0,340.0,371.5,336.0,369.5,332.5,366.5,328.0,363.5,325.0,360.5,321.0,357.0,317.0,358.0,313.0,354.0,307.5,350.0,308.5,346.0,307.5" stroke="black" stroke-width="2" fill="none" />
<polyline points="347.5,294.5,349.0,298.5,354.0,303.0,361.5,307.0" stroke="black" stroke-width="2" fill="none" />
<polyline points="320.0,281.5,323.0,277.5,320.0,281.5,319.0,279.5,320.5,275.5,319.0,278.5,313.5,283.5,314.5,279.5,317.0,275.5,317.5,271.5,318.5,267.5,319.0,264.0,318.5,260.0,317.5,256.5,317.5,258.5" stroke="black" stroke-width="2" fill="none" />
<polyline points="317.5,257.0,320.0,255.5,322.5,259.5,322.0,263.0,322.0,267.0,320.5,270.5,319.0,274.5,317.5,278.0,316.0,282.0,315.0,286.0,311.5,290.5,313.5,288.0" stroke="black" stroke-width="2" fill="none" />
<polyline points="285.0,286.5,280.0,290.5,279.0,291.5,283.0,288.5" stroke="black" stroke-width="2" fill="none" />
<polyline points="276.0,274.0,272.0,276.0,268.0,278.5,264.0,280.0,259.5,282.0,255.5,283.0,252.0,285.0,248.0,286.0" stroke="black" stroke-width="2" fill="none" />
<polyline points="216.5,267.0,212.0,268.0" stroke="black" stroke-width="2" fill="none" />
<polyline points="211.5,266.0,215.0,264.5" stroke="black" stroke-width="2" fill="none" />
<polyline points="200.0,272.0,199.0,272.5,193.5,272.0,196.5,268.5,194.0,273.0" stroke="black" stroke-width="2" fill="none" />
<polyline points="179.0,270.5,174.5,268.5" stroke="black" stroke-width="2" fill="none" />
<polyline points="172.0,262.0,176.5,267.5,180.0,270.5,184.0,272.5,188.0,274.5,192.0,276.5,196.0,277.5,200.0,279.5,204.0,280.0,208.0,281.0,212.0,282.0,215.5,282.5,220.0,283.5,224.0,284.0,228.5,284.0,232.5,284.5,236.5,284.5,240.5,283.0,244.0,283.0,248.5,281.5,252.5,280.0,256.5,279.0,260.5,277.5,264.0,275.5,268.0,273.5,272.0,271.5,276.0,268.5,279.5,265.5,283.5,261.0,287.5,256.0,291.0,252.0,295.0,246.5,299.0,241.0,303.0,235.5,306.5,229.0,310.5,222.0,314.5,218.5" stroke="black" stroke-width="2" fill="none" />
<polyline points="312.5,212.5,309.5,216.5,306.0,221.5" stroke="black" stroke-width="2" fill="none" />
<polyline points="312.0,225.0,308.0,230.5,305.0,236.0,301.0,242.5,297.5,247.0,294.0,251.5,290.0,255.0,286.5,259.0,283.0,263.0,278.5,268.0,277.0,271.5,282.0,267.5" stroke="black" stroke-width="2" fill="none" />
<polyline points="282.0,269.0,278.0,273.0,271.5,277.0" stroke="black" stroke-width="2" fill="none" />
<polyline points="279.0,297.5,275.0,298.5,271.5,299.0,265.0,301.0,261.0,301.5,257.5,302.0,253.5,303.5,250.0,303.5,246.5,304.5,242.5,304.5,238.5,305.0,234.0,305.0,230.0,305.0,226.0,305.0,221.5,304.5,217.5,304.5,213.5,304.0,209.5,304.0,205.0,303.0,200.5,302.0,196.5,300.5" stroke="black" stroke-width="2" fill="none" />
<polyline points="197.5,302.0,200.0,302.5,197.5,304.5,201.5,308.5,206.5,313.0,210.0,315.5,216.5,318.5" stroke="black" stroke-width="2" fill="none" />
<polyline points="208.0,310.5,204.0,307.0" stroke="black" stroke-width="2" fill="none" />
<polyline points="205.0,306.5,210.0,310.5" stroke="black" stroke-width="2" fill="none" />
<polyline points="212.5,316.5,208.5,313.0,205.5,311.0,201.5,307.5,197.5,304.0" stroke="black" stroke-width="2" fill="none" />
<polyline points="199.0,304.5,203.0,307.5,206.5,311.5,211.0,314.5,215.5,317.0,219.5,320.5,223.5,324.0,228.0,329.5,232.0,328.5,236.0,327.5,240.0,327.5,244.0,327.0,248.5,326.0,252.5,326.0,256.0,325.0,259.5,323.0,257.5,326.5" stroke="black" stroke-width="2" fill="none" />
<polyline points="271.0,331.5,275.0,328.5,279.0,324.0" stroke="black" stroke-width="2" fill="none" />
<polyline points="274.0,321.0,264.5,325.5,257.5,329.0,253.0,332.0" stroke="black" stroke-width="2" fill="none" />
<polyline points="248.0,338.0,252.0,331.5,256.0,330.5,260.0,328.0,264.0,325.5,268.0,323.5,272.0,321.5,276.0,319.5,280.5,317.5,284.5,315.5,288.0,311.5,292.5,307.5,296.5,303.5,300.5,299.5,304.5,296.0,305.5,295.5,301.0,299.5,297.5,304.0,293.5,308.0,289.5,312.0,285.5,315.5,282.0,317.5,286.0,313.0,284.0,312.0,280.0,316.0,269.0,320.0,261.5,324.0,254.0,326.5,251.5,332.0,249.0,336.0,248.5,340.0,247.5,344.0,247.5,348.0,247.5,351.5,249.0,356.0,251.5,359.5,255.0,363.5" stroke="black" stroke-width="2" fill="none" />
<polyline points="253.0,362.0,249.0,355.0" stroke="black" stroke-width="2" fill="none" />
<polyline points="233.0,331.5,229.0,332.0" stroke="black" stroke-width="2" fill="none" />
<polyline points="218.5,335.0,214.0,335.5,210.0,335.5,206.0,335.5,202.0,335.5" stroke="black" stroke-width="2" fill="none" />
<polyline points="196.0,340.0,200.0,341.5,201.5,343.5,204.0,347.5,206.0,351.0,207.0,355.0" stroke="black" stroke-width="2" fill="none" />
<polyline points="205.5,352.5,201.5,345.5" stroke="black" stroke-width="2" fill="none" />
<polyline points="194.0,333.0,193.5,333.0,196.5,340.0,198.0,344.0,200.5,348.5,202.5,352.5,204.0,356.5,205.0,360.5" stroke="black" stroke-width="2" fill="none" />
<polyline points="202.5,339.0,199.0,336.0,197.0,334.0,195.0,335.0,191.0,333.0" stroke="black" stroke-width="2" fill="none" />
<polyline points="192.5,332.5,195.5,336.0,202.0,338.0" stroke="black" stroke-width="2" fill="none" />
<polyline points="202.5,352.5,198.5,345.0,192.5,340.5,189.0,336.0,185.0,334.0" stroke="black" stroke-width="2" fill="none" />
<polyline points="183.0,333.0,186.5,334.0,190.0,337.5,193.0,341.5,194.5,345.0,195.5,349.0,197.0,353.0,198.0,357.0,198.0,361.0,198.5,364.5" stroke="black" stroke-width="2" fill="none" />
<polyline points="189.0,312.0,185.5,306.5,181.5,304.5,177.5,303.0,173.5,300.0,169.0,298.5,165.0,294.5" stroke="black" stroke-width="2" fill="none" />
<polyline points="163.0,283.0,159.0,278.5" stroke="black" stroke-width="2" fill="none" />
<polyline points="158.5,278.0,162.0,282.0,165.0,286.5,170.5,288.5" stroke="black" stroke-width="2" fill="none" />
<polyline points="173.0,290.5,169.5,290.0,166.0,287.5,164.0,288.0,160.0,285.0,156.0,281.5" stroke="black" stroke-width="2" fill="none" />
<polyline points="156.0,283.0,160.5,287.0,165.5,291.0,167.0,297.5,173.0,301.5,181.5,305.5,186.5,309.5" stroke="black" stroke-width="2" fill="none" />
<polyline points="199.5,304.5,204.5,308.5,209.5,313.0,215.0,316.5,220.5,320.5,224.5,324.0,227.0,328.0" stroke="black" stroke-width="2" fill="none" />
<polyline points="156.0,295.5,151.5,291.0" stroke="black" stroke-width="2" fill="none" />
<polyline points="151.0,293.0,155.0,296.5,158.5,301.5,162.5,304.0" stroke="black" stroke-width="2" fill="none" />
<polyline points="158.5,304.0,154.5,298.5,150.0,294.5" stroke="black" stroke-width="2" fill="none" />
<polyline points="152.0,296.0,156.0,300.0,158.5,304.0,161.0,308.0,162.5,311.5,164.5,314.5,166.5,318.0,168.5,321.5,169.5,322.5,173.5,323.5,177.5,324.0,180.5,326.0,184.5,327.5,188.5,329.0,192.5,328.5,196.5,328.5,199.0,326.5,201.5,328.5,205.0,328.5" stroke="black" stroke-width="2" fill="none" />
<polyline points="153.5,286.5,149.5,286.5" stroke="black" stroke-width="2" fill="none" />
<polyline points="153.0,286.0,152.0,290.0,153.5,293.5,158.0,297.0,161.5,302.0" stroke="black" stroke-width="2" fill="none" />
<polyline points="167.5,313.5,163.5,308.5,160.5,307.0,158.5,303.0,157.0,301.5,153.0,297.5,151.0,293.5,151.0,289.5,153.5,285.5" stroke="black" stroke-width="2" fill="none" />
<polyline points="143.5,269.5,139.5,266.0" stroke="black" stroke-width="2" fill="none" />
<polyline points="143.0,264.5,141.5,262.0,137.5,258.0,133.5,254.0" stroke="black" stroke-width="2" fill="none" />
<polyline points="133.0,253.5,137.0,257.5,140.5,262.0,142.5,265.5,143.5,269.5,147.0,273.0,151.0,277.0,156.0,281.0,161.0,285.0,166.0,289.0,172.5,293.5,176.0,294.5,179.5,295.0,183.5,296.0,187.0,297.5,191.0,298.5,195.5,299.0,199.5,300.0,203.5,301.5,207.0,301.5,211.5,302.0,215.5,303.0,219.5,302.5,223.5,302.5,227.5,303.0,232.0,303.0,236.0,303.0,240.5,303.0,244.5,303.0,248.5,302.5,252.5,302.0,256.5,301.0,260.5,300.5,264.0,299.5,268.5,299.0,272.5,297.5,276.0,296.5,280.5,295.5,284.5,294.0,288.0,290.0,292.0,285.0,296.0,280.5,300.0,275.0,303.5,269.5,307.5,263.5,311.0,257.5,315.5,251.0,319.5,243.5,323.5,236.5" stroke="black" stroke-width="2" fill="none" />
<polyline points="332.5,230.0,332.0,234.0,333.5,237.5,334.5,241.5,334.5,245.0" stroke="black" stroke-width="2" fill="none" />
<polyline points="319.5,252.5,323.5,256.0,323.5,260.0" stroke="black" stroke-width="2" fill="none" />
<polyline points="318.0,252.0,315.0,256.0,311.5,260.5,309.0,264.5,306.0,269.0,303.0,273.0,300.5,277.0,296.5,281.0,294.0,284.0,291.0,288.5,287.5,292.5,283.0,296.5" stroke="black" stroke-width="2" fill="none" />
<polyline points="259.0,234.5,266.0,230.5,272.5,226.5,278.5,223.0,284.0,219.0,289.0,215.5,294.5,212.0,299.5,208.0,304.0,204.0,308.5,200.0,312.5,195.5,317.0,194.0,313.0,195.0,308.5,199.0,305.0,202.5,301.5,206.5,297.5,209.0,293.5,212.0,289.5,215.0,285.0,218.5,281.0,221.5,277.5,224.5,273.5,227.5,270.0,230.0,265.5,232.5,261.5,235.0,257.5,237.5,253.5,240.0,249.5,242.0,245.5,243.0,242.0,244.0,238.0,245.0,233.5,246.0,229.5,247.0,225.5,248.0,221.0,248.0,217.0,249.0,212.5,250.5,208.0,251.0,204.5,252.0,200.5,253.0,196.5,253.5,192.5,255.0,189.0,255.5,185.0,256.0,181.0,257.0,177.0,257.5,172.5,257.5,168.5,260.0" stroke="black" stroke-width="2" fill="none" />
<polyline points="171.5,260.5,172.0,264.5,174.5,268.0,178.5,272.5,183.0,274.5,186.5,277.0,194.5,270.5,199.0,270.0,201.0,273.0,202.5,269.5" stroke="black" stroke-width="2" fill="none" />
<polyline points="175.5,258.0,170.5,262.0,172.5,266.5,175.5,270.5,180.5,274.5,182.0,275.5,187.5,276.5,188.0,279.0,191.5,280.5,195.5,281.5,199.5,282.5,203.5,284.0,207.5,284.0,212.0,285.0,216.0,285.0,220.5,286.0,224.5,285.5,228.5,285.0,232.5,285.0,236.5,284.5,241.0,284.0,244.5,283.5,248.5,282.0,252.5,281.5,256.5,281.0,260.5,279.0,264.5,277.5,268.5,276.0" stroke="black" stroke-width="2" fill="none" />
<polyline points="263.5,231.5,260.0,233.5,266.5,229.5" stroke="black" stroke-width="2" fill="none" />
<polyline points="241.0,230.5,236.5,229.5,232.5,227.5,228.5,225.5,224.5,222.0" stroke="black" stroke-width="2" fill="none" />
<polyline points="223.0,226.0,225.5,226.0,230.0,228.5,234.0,230.0,238.5,232.0,242.5,232.0" stroke="black" stroke-width="2" fill="none" />
<polyline points="224.5,230.0,220.5,229.5,216.5,227.0" stroke="black" stroke-width="2" fill="none" />
<polyline points="217.0,224.0,217.0,228.5,222.0,231.0" stroke="black" stroke-width="2" fill="none" />
<polyline points="230.0,226.5,223.5,222.5,222.0,219.0,220.5,215.0,218.5,211.0,216.0,209.0" stroke="black" stroke-width="2" fill="none" />
<polyline points="216.5,214.0,216.0,209.5,215.0,205.5,216.0,199.0,212.5,191.5" stroke="black" stroke-width="2" fill="none" />
<polyline points="212.5,192.0,215.5,196.0,217.5,200.0,219.0,203.5,220.0,207.0,221.0,211.0,222.0,214.5,223.5,218.5,224.0,222.5,223.0,226.5,226.0,227.5" stroke="black" stroke-width="2" fill="none" />
<polyline points="218.0,213.0,217.0,209.5,217.0,205.5,215.0,201.5,213.0,197.5,210.0,193.0,210.0,191.0,207.0,189.0" stroke="black" stroke-width="2" fill="none" />
<polyline points="206.0,190.5,210.0,192.0,214.5,198.5,219.0,206.0" stroke="black" stroke-width="2" fill="none" />
<polyline points="193.5,211.0,191.5,207.0" stroke="black" stroke-width="2" fill="none" />
<polyline points="192.5,215.0,188.5,213.0,185.0,212.5,181.0,212.5,176.5,213.0,172.5,214.5,168.0,216.5,164.0,218.5,159.5,221.5,155.5,225.5,152.0,230.5,148.0,235.5,147.5,233.5,149.0,229.5,151.5,225.0,154.0,221.5,158.0,217.5,162.0,213.5,168.5,209.5" stroke="black" stroke-width="2" fill="none" />
<polyline points="168.5,215.5,163.5,219.5,158.5,224.0,154.5,228.0,151.5,232.0,148.0,235.5" stroke="black" stroke-width="2" fill="none" />
<polyline points="144.5,229.0,140.5,226.0" stroke="black" stroke-width="2" fill="none" />
<polyline points="146.0,223.0,142.0,222.0,137.5,215.5" stroke="black" stroke-width="2" fill="none" />
<polyline points="141.5,226.0,138.0,223.5,133.5,220.5,129.5,216.5,126.0,212.0,122.0,207.5,118.0,203.0,114.0,198.0,110.0,193.5,106.5,188.5,102.5,183.5,98.5,177.5,94.5,173.0" stroke="black" stroke-width="2" fill="none" />
<polyline points="95.5,172.5,98.0,176.5,100.5,181.0,103.0,185.5,107.0,189.5,109.5,193.5,112.5,197.5,115.5,201.0,119.0,204.5,123.0,208.5,127.0,212.5,130.0,216.5,135.0,221.0,140.5,225.0" stroke="black" stroke-width="2" fill="none" />
<polyline points="156.5,230.5,160.0,227.0" stroke="black" stroke-width="2" fill="none" />
<polyline points="158.0,225.5,154.0,229.5,152.5,231.5,156.0,227.0,160.0,223.0" stroke="black" stroke-width="2" fill="none" />
<polyline points="171.5,261.0,175.5,259.5,179.5,259.0,183.0,259.0,187.0,258.0,190.5,257.5,195.0,257.5,199.0,255.5,203.0,255.0,207.0,254.0,211.0,253.0,215.0,252.5,219.0,251.5,223.5,250.5,227.5,250.5,231.5,249.0,235.5,248.5,239.5,247.5,243.5,246.0,247.5,244.5,251.5,243.0,255.5,241.0,259.5,239.5,263.5,237.0,267.5,234.0,271.0,231.5,275.0,228.5,279.0,225.0,282.0,222.5,286.5,219.5,290.0,217.0,294.0,214.0,297.0,211.0,301.5,207.0,305.5,204.0,309.5,199.5,313.5,196.0,316.5,194.5" stroke="black" stroke-width="2" fill="none" />
<polyline points="316.5,194.5,317.0,198.0,318.5,202.5,317.0,206.5,314.5,210.0,312.0,213.5,309.0,216.5,307.0,219.5,304.5,222.5,302.0,226.0,298.5,227.0,303.0,222.5,305.5,221.5,308.0,215.0,312.0,208.5" stroke="black" stroke-width="2" fill="none" />
<polyline points="316.0,205.0,313.5,209.0,311.0,212.5,308.0,216.0,305.5,219.5,303.0,223.5,298.5,227.5,297.0,231.5,295.0,231.5,293.0,233.5,286.5,237.5,288.0,239.0,289.0,237.0,293.5,233.0" stroke="black" stroke-width="2" fill="none" />
<polyline points="292.0,208.0,295.0,205.0" stroke="black" stroke-width="2" fill="none" />
<polyline points="301.5,194.0,297.5,191.0,296.5,191.5" stroke="black" stroke-width="2" fill="none" />
<polyline points="300.0,184.0,296.0,187.0,292.0,185.0,288.0,184.0" stroke="black" stroke-width="2" fill="none" />
<polyline points="288.5,184.5,291.0,188.5,290.0,192.5,282.5,196.5,278.0,201.0,281.5,199.0,285.5,197.0,290.0,195.5,294.0,193.5,298.0,190.5,302.0,187.5,306.0,185.0,310.5,180.5,314.0,176.0,318.0,171.0" stroke="black" stroke-width="2" fill="none" />
<polyline points="319.0,168.0,316.5,172.5,313.5,176.5,309.5,180.5,304.5,184.5,299.5,189.0,294.0,193.0,287.0,196.5,278.5,201.0,274.0,203.0,274.5,200.0,279.0,198.5,283.5,196.5,287.5,194.0,292.0,191.0" stroke="black" stroke-width="2" fill="none" />
<polyline points="290.5,185.5,294.5,189.5,299.5,196.5" stroke="black" stroke-width="2" fill="none" />
<polyline points="306.0,185.5,311.5,189.5" stroke="black" stroke-width="2" fill="none" />
<polyline points="310.5,187.0,306.5,185.5" stroke="black" stroke-width="2" fill="none" />
<polyline points="307.0,183.0,311.0,183.5,312.0,179.5" stroke="black" stroke-width="2" fill="none" />
<polyline points="309.0,187.5,308.5,185.0,306.5,178.5,311.5,175.0,315.5,171.0,319.0,166.5,318.0,168.0,314.0,172.5,310.5,176.5,307.0,179.5,303.0,179.0,299.0,178.0" stroke="black" stroke-width="2" fill="none" />
<polyline points="300.0,177.5,301.0,181.0,300.0,185.5,297.5,192.0,301.5,195.0" stroke="black" stroke-width="2" fill="none" />
<polyline points="315.5,196.5,311.5,200.5,307.5,204.0,302.0,208.0,296.5,212.5,291.5,216.0,287.5,219.0,282.0,223.0,278.0,225.5,272.5,229.0,267.0,233.0,259.0,237.0,250.5,241.5,242.0,243.0" stroke="black" stroke-width="2" fill="none" />
<polyline points="281.5,271.5,277.5,275.0,273.0,279.0,269.5,281.0,266.0,282.0,262.0,283.0,261.0,283.5,267.0,276.5,271.0,272.5,277.0,268.5,281.0,264.5,284.5,260.5,287.5,256.0,290.5,252.0,293.0,248.0,296.5,244.0,299.5,240.0,302.5,236.0,305.0,232.0,307.5,228.0,310.5,223.5,312.5,219.5,314.5,216.0,316.0,212.0,317.5,208.5,317.5,204.5" stroke="black" stroke-width="2" fill="none" />
<polyline points="318.0,196.0,319.5,200.0,319.5,204.0,319.0,208.0,318.0,212.0,317.0,216.0,316.0,219.5,314.0,222.5,312.5,226.0,310.5,230.0,309.0,233.5,306.0,237.0,303.0,241.5,300.0,245.0,297.0,249.0,294.0,252.5,291.0,256.0,290.5,257.0,287.0,261.0,284.0,264.5,280.5,268.5,276.5,272.0,270.5,275.5,271.5,275.0,275.5,272.0,279.0,272.0,283.0,268.5,287.0,266.0" stroke="black" stroke-width="2" fill="none" />
<polyline points="333.5,250.0,335.5,246.5,336.5,242.5,338.0,238.5,340.0,234.0,341.0,230.0,341.0,226.0,338.0,222.0" stroke="black" stroke-width="2" fill="none" />
<polyline points="339.0,222.0,335.0,220.0" stroke="black" stroke-width="2" fill="none" />
<polyline points="334.0,221.0,336.5,225.5,337.5,229.0" stroke="black" stroke-width="2" fill="none" />
<polyline points="342.0,225.0,338.0,220.5,334.0,218.0" stroke="black" stroke-width="2" fill="none" />
<polyline points="333.0,220.5,339.5,222.0" stroke="black" stroke-width="2" fill="none" />
<polyline points="360.5,227.5,364.5,226.5,368.5,227.0,372.5,227.0,376.0,225.5,380.5,223.5,384.0,221.5,388.0,215.5" stroke="black" stroke-width="2" fill="none" />
<polyline points="384.0,223.5,389.5,220.0,385.5,222.0,381.5,224.5,377.5,226.0,373.0,228.0,369.0,228.0,365.0,228.5,361.0,228.0" stroke="black" stroke-width="2" fill="none" />
<polyline points="362.0,230.5,366.0,231.0,370.0,230.0" stroke="black" stroke-width="2" fill="none" />
<polyline points="364.0,234.0,368.0,232.5,372.0,232.5,376.0,231.5,380.0,229.5,383.5,227.5,387.5,226.5,388.0,224.0,394.0,223.0,397.5,220.5,401.5,218.5,405.5,218.0,410.0,218.5,414.0,218.5,418.0,216.0,422.0,212.5" stroke="black" stroke-width="2" fill="none" />
<polyline points="420.0,214.0,426.0,208.0,428.5,204.5,425.5,206.5,423.5,205.5,425.0,202.0,426.5,198.0,428.5,194.0,429.5,190.5,431.5,186.5,433.5,182.5,435.0,178.5,437.5,174.0,439.0,170.0,440.5,166.0,442.0,161.5,443.5,157.5,445.0,153.5,447.0,149.5,448.0,145.5,450.0,141.5,452.0,137.5,454.5,133.5,456.5,129.0,458.0,125.5,460.0,122.0,462.0,118.0,464.0,114.0,465.5,110.5,467.5,106.5,468.5,102.5,470.0,98.5,471.0,94.0,472.0,90.0,473.0,86.0,474.0,82.0,476.0,78.0,477.5,74.0,477.5,70.0,478.0,66.0,479.5,62.0,481.5,57.5,483.0,53.5,485.0,50.0,486.5,46.0,488.0,42.0,490.5,38.0,493.0,33.5,495.5,29.5,498.5,26.0,502.0,21.5,507.0,17.5,511.5,11.5,507.0,14.5,503.0,17.5,498.5,21.0,494.5,26.5,490.5,31.5,486.5,37.5" stroke="black" stroke-width="2" fill="none" />
<polyline points="486.0,44.0,490.0,36.5,494.5,30.0,498.0,24.5,502.0,20.5,506.0,17.0,511.0,14.5,511.0,18.0,511.5,22.0,511.5,26.0,512.0,29.5,512.0,33.5,512.0,38.0,512.0,42.5,512.0,46.5,512.0,51.0,511.5,55.0,511.5,59.0,511.0,62.5,510.5,66.5,510.0,70.0,510.5,74.0,510.5,78.5,510.5,83.0,510.5,87.0,507.5,91.0,502.0,95.0" stroke="black" stroke-width="2" fill="none" />
<polyline points="507.5,94.5,510.5,95.0,510.5,99.0,510.5,103.0,510.0,107.0,509.0,111.0,506.0,115.0,504.5,119.0,503.0,123.0,501.0,127.0,499.5,131.0,498.0,136.5,497.0,140.5,496.5,144.5,495.0,148.5,494.0,153.0,493.0,157.0,491.0,161.0,490.5,165.0,488.5,169.0,487.0,172.5,486.0,177.0,484.5,181.0,482.5,184.5,481.5,188.5,481.0,192.5,479.5,196.5,478.5,201.0,478.0,205.0,476.5,209.0,474.5,213.0,471.0,217.0,467.0,220.5,462.0,225.0,454.0,229.0,455.5,232.5,459.5,232.5" stroke="black" stroke-width="2" fill="none" />
<polyline points="476.5,222.5,480.0,228.5,484.5,231.0,488.5,232.5" stroke="black" stroke-width="2" fill="none" />
<polyline points="491.5,239.0,495.5,242.0,500.0,247.0,504.0,249.5,508.5,251.5" stroke="black" stroke-width="2" fill="none" />
<polyline points="506.0,253.0,502.0,250.5,498.0,246.5,494.5,241.5" stroke="black" stroke-width="2" fill="none" />
<polyline points="495.0,240.0,498.0,244.5,502.5,249.0,508.5,253.0" stroke="black" stroke-width="2" fill="none" />
<polyline points="509.0,255.5,505.0,254.0,499.0,249.5,495.0,245.5,492.5,241.5,493.0,240.5,491.5,239.5" stroke="black" stroke-width="2" fill="none" />
<polyline points="487.0,227.5,483.0,223.5" stroke="black" stroke-width="2" fill="none" />
<polyline points="481.5,225.0,485.0,229.0,489.0,230.5,492.5,227.5,493.0,225.5,491.0,229.5" stroke="black" stroke-width="2" fill="none" />
<polyline points="482.0,229.0,478.0,225.5,476.0,221.0,476.0,217.0,475.5,213.0,475.5,211.0" stroke="black" stroke-width="2" fill="none" />
<polyline points="476.0,210.5,472.0,216.0,467.5,220.0,463.0,223.0,459.0,226.0,455.0,227.5,450.5,229.5,446.5,227.5,442.5,225.0,438.0,221.0,434.0,220.5" stroke="black" stroke-width="2" fill="none" />
<polyline points="436.5,221.5,437.5,219.5,438.0,223.5,443.5,227.5" stroke="black" stroke-width="2" fill="none" />
<polyline points="440.0,227.5,440.0,230.0,444.5,233.0,449.0,234.0,453.0,236.5" stroke="black" stroke-width="2" fill="none" />
<polyline points="441.5,223.0,445.5,226.5,446.5,231.0,450.5,232.0,454.5,232.5,458.5,233.5,463.0,233.0,467.0,230.5,471.5,227.5,475.5,226.5,479.0,226.0,481.0,229.5" stroke="black" stroke-width="2" fill="none" />
<polyline points="476.0,221.0,476.5,225.0,472.5,228.0,466.5,232.5" stroke="black" stroke-width="2" fill="none" />
<polyline points="480.5,215.0,480.5,211.0,481.5,207.0,482.5,202.5,483.0,198.5,484.5,194.5,486.0,191.0,487.0,187.0,488.0,183.0,489.0,179.0,490.5,175.0,491.5,171.0,493.0,167.0,494.0,163.0,495.0,160.5,496.0,156.5,497.5,152.5,499.0,148.5,500.0,144.5,501.5,140.5,503.0,136.0,505.0,131.5,507.0,127.0,508.0,123.0,508.5,119.5,510.0,115.5,510.5,111.5,506.5,115.0" stroke="black" stroke-width="2" fill="none" />
<polyline points="508.5,123.0,508.0,125.0,507.5,129.5,506.0,133.5,504.5,138.0,503.0,142.0,502.0,146.0,500.0,150.5,498.5,154.0,497.0,158.0,495.5,162.5,494.0,166.5,493.5,170.5,492.0,175.0,491.5,179.0,490.5,183.0,489.0,187.0,487.5,191.0,486.5,195.0,485.0,199.0,484.0,203.0,482.5,207.0,482.5,211.0,481.0,215.0,480.5,219.0,483.0,226.0,487.5,226.5,491.5,223.5,495.5,219.5,499.5,215.5,503.5,212.0,507.5,207.5" stroke="black" stroke-width="2" fill="none" />
<polyline points="511.0,208.5,511.0,212.5,511.5,216.5,511.5,221.0,511.5,225.0,511.0,229.0,511.0,233.0,511.0,237.0,511.0,241.0,510.5,244.5,510.5,248.5,510.5,252.5,510.5,256.5,510.5,261.0,511.0,265.0,511.5,269.0,511.0,273.5,511.0,277.0,511.0,281.0,511.0,285.0,511.0,289.0,511.0,293.0,511.0,297.5,511.5,301.5,511.5,305.5,511.5,309.5,511.5,313.0,511.5,316.5,511.5,320.0,511.5,324.0,511.5,328.0,511.5,332.0,511.0,335.5,510.5,340.0,510.5,344.5,510.5,348.5,510.5,352.5,510.5,356.5,510.5,360.5,510.5,365.0" stroke="black" stroke-width="2" fill="none" />
<polyline points="460.0,329.5,453.5,325.5" stroke="black" stroke-width="2" fill="none" />
<polyline points="448.5,328.0,440.5,324.5" stroke="black" stroke-width="2" fill="none" />
<polyline points="448.5,231.0,443.0,227.0,441.5,223.0,440.0,221.0" stroke="black" stroke-width="2" fill="none" />
<polyline points="437.0,223.5,440.0,228.5,445.0,232.5" stroke="black" stroke-width="2" fill="none" />
<polyline points="420.0,207.5,416.5,208.0,413.0,206.5,409.0,200.5" stroke="black" stroke-width="2" fill="none" />
<polyline points="407.5,201.0,411.5,208.5,415.5,210.0,419.0,210.0,422.5,208.5,426.0,207.0,424.0,205.5" stroke="black" stroke-width="2" fill="none" />
<polyline points="426.5,191.0,430.0,183.0,434.0,173.5,438.0,163.5,442.0,155.0,446.0,146.0" stroke="black" stroke-width="2" fill="none" />
<polyline points="459.5,121.0,460.0,112.5,464.0,102.5,468.0,92.0" stroke="black" stroke-width="2" fill="none" />
<polyline points="466.5,90.5,465.0,94.5,466.5,90.5" stroke="black" stroke-width="2" fill="none" />
<polyline points="478.0,92.0,482.0,92.5,486.0,95.0,487.5,93.5,491.5,96.5" stroke="black" stroke-width="2" fill="none" />
<polyline points="488.5,96.5,485.0,93.5,484.0,90.0" stroke="black" stroke-width="2" fill="none" />
<polyline points="479.5,89.0,482.0,89.5,480.5,90.0,479.0,93.5,486.0,97.5" stroke="black" stroke-width="2" fill="none" />
<polyline points="482.5,94.5,486.5,97.0,490.5,99.0,494.5,100.5,498.5,100.5,502.0,101.5,506.0,100.0" stroke="black" stroke-width="2" fill="none" />
<polyline points="488.5,97.0,485.5,93.0,480.0,94.5,478.5,95.0" stroke="black" stroke-width="2" fill="none" />
<polyline points="479.0,89.0,482.5,90.5,487.0,92.5,491.0,94.5,495.5,95.5,499.5,92.5,504.5,92.5,509.0,90.0" stroke="black" stroke-width="2" fill="none" />
<polyline points="511.5,124.0,511.5,128.0,511.0,132.5,511.0,137.0,511.0,141.5,511.5,146.0,511.5,150.0,511.0,153.5,511.0,157.5,511.0,161.0,511.0,165.0,511.0,169.5,511.5,173.0,511.5,177.0,511.5,181.0,511.5,184.5,511.5,188.0,511.5,192.0,511.0,196.0,510.5,200.0,510.5,204.0,506.5,208.0,502.0,212.5,498.0,216.5,494.0,221.0,489.5,225.0,487.0,228.0,490.5,226.0,495.0,222.5,499.5,219.0,503.0,215.5,506.0,211.5,510.0,208.0" stroke="black" stroke-width="2" fill="none" />
<polyline points="503.0,216.0,500.0,219.5,496.0,223.0,491.0,226.5" stroke="black" stroke-width="2" fill="none" />
<polyline points="483.5,228.5,480.0,224.5,479.5,220.5,479.0,216.5,478.5,213.0" stroke="black" stroke-width="2" fill="none" />
<polyline points="480.5,205.0,481.5,200.5,482.0,196.5,484.0,189.5,484.5,185.0" stroke="black" stroke-width="2" fill="none" />
<polyline points="487.0,171.0,490.5,161.0" stroke="black" stroke-width="2" fill="none" />
<polyline points="496.0,157.5,495.5,166.5" stroke="black" stroke-width="2" fill="none" />
<polyline points="465.0,108.0,469.0,98.5" stroke="black" stroke-width="2" fill="none" />
<polyline points="475.0,79.0,472.0,82.5,473.0,78.5,475.0,74.5,476.0,70.5" stroke="black" stroke-width="2" fill="none" />
<polyline points="462.0,60.5,457.5,63.5,453.5,67.5,453.5,68.0,458.0,64.0,462.0,60.0" stroke="black" stroke-width="2" fill="none" />
<polyline points="452.0,61.5,447.5,64.5,443.5,68.0,439.0,71.5,442.0,69.0,446.5,65.5,451.0,61.5" stroke="black" stroke-width="2" fill="none" />
<polyline points="450.5,59.0,446.0,63.0,442.5,67.0,439.5,71.5,434.0,74.0,434.5,73.5,438.5,72.5,442.5,67.0,446.5,63.5" stroke="black" stroke-width="2" fill="none" />
<polyline points="443.5,62.0,440.5,65.0,440.0,66.0,444.5,61.5,448.5,57.0" stroke="black" stroke-width="2" fill="none" />
<polyline points="445.0,47.0,441.0,52.5,437.0,56.5,433.0,60.0,429.0,64.0,429.0,64.5,433.5,60.5,438.5,57.0,443.0,53.0,445.5,49.5,448.0,45.5" stroke="black" stroke-width="2" fill="none" />
<polyline points="450.0,45.0,446.0,50.5,443.0,55.0,439.5,59.0,436.5,62.0,433.5,65.0,429.5,68.0,429.5,67.5,433.0,63.5,438.5,59.5,442.0,56.5,445.0,56.0,447.5,52.0,447.0,50.0,450.0,45.5,451.5,41.5" stroke="black" stroke-width="2" fill="none" />
<polyline points="460.0,45.5,464.0,42.0,466.5,42.0,462.5,46.0,463.5,49.0,465.0,42.0" stroke="black" stroke-width="2" fill="none" />
<polyline points="464.0,39.0,460.5,42.5,457.0,46.5,453.5,51.0,455.5,48.0,459.5,42.5" stroke="black" stroke-width="2" fill="none" />
<polyline points="472.5,40.0,469.0,46.0,465.0,51.5,460.5,56.0,456.5,60.5,452.0,64.5,448.0,68.0,443.5,71.0,439.5,74.0,435.5,78.0,431.0,79.5,428.5,81.5,428.5,83.5,424.5,86.5,420.0,88.5,416.5,91.5,413.0,94.0,409.0,97.0,407.0,99.5,411.0,95.5,416.5,91.5,422.0,87.5,427.0,83.5,431.5,80.0,432.0,77.5,438.0,75.0,444.0,71.5,449.0,67.5,453.0,63.5,457.0,59.5,460.0,55.5,463.5,52.0,466.5,47.5,469.0,44.0,472.0,40.0,474.5,34.5,475.5,30.0,476.0,26.0,476.0,22.0,475.5,17.5,474.0,13.5,473.5,6.0,469.5,1.5" stroke="black" stroke-width="2" fill="none" />
<polyline points="468.5,3.5,471.5,7.0,474.0,11.0,473.5,15.0,475.5,19.0" stroke="black" stroke-width="2" fill="none" />
<polyline points="469.0,8.5,465.0,4.0" stroke="black" stroke-width="2" fill="none" />
<polyline points="463.0,5.0,469.0,3.5,472.5,7.0,475.0,10.0,476.5,14.0,477.0,18.0,478.5,22.0,478.0,26.0,476.0,30.0,475.0,34.5,474.0,38.5,471.0,42.5,468.5,46.5,466.0,50.5,462.5,54.0,459.0,58.5,455.5,62.0,452.0,65.5,447.0,69.5,442.5,73.5,437.0,78.0,432.0,81.5,426.0,85.5,420.5,89.5,415.5,93.5,411.0,97.5,407.0,101.0,411.0,98.0,415.0,95.5,420.0,92.5,424.0,89.0,428.0,86.0,432.0,83.5,436.0,80.5,439.5,77.0,443.5,74.0,447.0,70.0,450.5,67.0,454.5,63.5,458.5,59.0,462.5,54.5,466.5,50.0,470.0,43.5,474.0,38.0" stroke="black" stroke-width="2" fill="none" />
<polyline points="466.0,22.0,462.0,18.5" stroke="black" stroke-width="2" fill="none" />
<polyline points="463.0,20.0,466.0,24.0" stroke="black" stroke-width="2" fill="none" />
<polyline points="467.0,17.0,463.0,15.5" stroke="black" stroke-width="2" fill="none" />
<polyline points="460.5,11.5,464.5,13.5,465.0,17.0,470.5,17.5,472.0,21.5,473.5,25.5,473.5,29.5,472.5,34.0" stroke="black" stroke-width="2" fill="none" />
<polyline points="465.5,8.5,461.5,6.5" stroke="black" stroke-width="2" fill="none" />
<polyline points="464.5,8.5,468.0,13.5" stroke="black" stroke-width="2" fill="none" />
<polyline points="470.5,6.5,466.5,2.0" stroke="black" stroke-width="2" fill="none" />
<polyline points="458.0,5.0,459.0,3.0,465.0,4.5,469.0,9.0,470.5,15.0,472.0,19.0,471.5,22.0" stroke="black" stroke-width="2" fill="none" />
<polyline points="471.0,8.0,466.0,11.5,462.5,10.0,458.5,7.5,454.5,3.0" stroke="black" stroke-width="2" fill="none" />
<polyline points="449.0,6.5,456.5,11.0,461.5,15.5,465.5,20.0,468.5,24.0,470.0,27.5,471.0,31.5,470.5,35.5,470.0,39.0,463.5,41.5,460.0,45.0,457.0,48.5,455.0,52.5,458.5,56.0" stroke="black" stroke-width="2" fill="none" />
<polyline points="469.5,21.5,468.0,17.5,467.5,13.5,460.0,9.5,455.5,5.5,451.0,4.5,447.5,4.5,443.5,3.0,439.5,2.0" stroke="black" stroke-width="2" fill="none" />
<polyline points="438.0,8.5,445.0,12.5,451.0,17.0" stroke="black" stroke-width="2" fill="none" />
<polyline points="450.5,18.5,446.5,16.0,443.0,13.5,439.0,11.0" stroke="black" stroke-width="2" fill="none" />
<polyline points="439.5,11.5,446.0,15.5,452.0,19.5" stroke="black" stroke-width="2" fill="none" />
<polyline points="453.0,17.0,449.5,13.5,446.0,11.0,442.0,9.0,438.0,9.5" stroke="black" stroke-width="2" fill="none" />
<polyline points="435.5,16.5,436.0,20.5,438.0,24.0,439.0,28.0,439.5,32.5,439.5,36.5,438.0,40.5,435.5,44.5,432.5,49.0,434.5,46.0,438.5,42.5" stroke="black" stroke-width="2" fill="none" />
<polyline points="438.5,23.0,434.5,18.0,434.0,17.0" stroke="black" stroke-width="2" fill="none" />
<polyline points="435.0,17.0,437.5,21.0,439.0,24.5,440.5,28.0,441.0,31.5,441.0,36.0,440.0,40.0,438.5,43.5,436.0,47.5" stroke="black" stroke-width="2" fill="none" />
<polyline points="417.5,53.0,421.5,53.5,418.0,57.5,414.0,62.0,414.5,60.0,418.0,56.5" stroke="black" stroke-width="2" fill="none" />
<polyline points="403.0,61.5,403.0,62.0,401.5,65.5,400.0,69.5,397.5,73.5,395.5,77.0,391.0,82.5" stroke="black" stroke-width="2" fill="none" />
<polyline points="394.0,79.0,398.0,74.0,401.5,66.5" stroke="black" stroke-width="2" fill="none" />
<polyline points="406.0,72.5,406.5,76.5,404.0,79.5,402.5,83.5,402.0,87.0,399.0,91.5,398.5,95.5,399.0,99.5,398.5,103.5,397.5,109.0,398.0,113.0,398.0,117.0,397.0,121.0,396.0,125.0,395.5,129.0,395.5,133.5,396.0,137.5,396.0,142.0,395.5,146.0,395.5,150.0,395.5,154.0,395.5,158.0,395.5,161.5,396.5,165.0,396.5,168.5,396.5,172.5,396.5,176.5,396.0,180.5,396.0,184.5,396.0,188.5,396.0,192.5,395.0,196.5,394.5,200.5,393.5,205.0,392.5,209.5,391.0,214.0,388.5,217.5,385.5,221.5,378.0,225.5" stroke="black" stroke-width="2" fill="none" />
<polyline points="381.0,229.5,389.0,225.0,389.5,222.0,395.5,221.5,403.0,217.5" stroke="black" stroke-width="2" fill="none" />
<polyline points="410.0,206.5,408.0,202.5,406.5,199.0,405.0,197.5" stroke="black" stroke-width="2" fill="none" />
<polyline points="405.0,197.5,406.0,201.5,407.5,205.5,407.5,209.5,406.0,210.5" stroke="black" stroke-width="2" fill="none" />
<polyline points="398.5,187.0,398.5,183.0,399.5,179.0,399.0,175.0" stroke="black" stroke-width="2" fill="none" />
<polyline points="348.5,188.5,343.5,197.0,339.0,205.5,336.5,209.5,332.0,211.0,337.0,209.0,340.0,205.5,342.0,201.5,344.0,198.0,346.0,193.5,347.5,189.5,348.5,185.0,349.5,181.0,350.0,177.0,350.0,173.0,350.5,168.5,351.5,164.5,352.0,160.5,353.0,156.5,353.5,152.5,353.5,148.5,354.5,144.5,355.0,140.0,355.0,136.0,356.0,132.5,355.5,128.5,354.0,124.5,352.0,120.5,346.0,119.0" stroke="black" stroke-width="2" fill="none" />
<polyline points="345.0,113.5,348.5,117.5,349.5,121.5,350.0,125.0,348.5,129.0,351.5,133.0,353.5,134.0" stroke="black" stroke-width="2" fill="none" />
<polyline points="350.0,131.5,349.0,127.0,345.0,130.5" stroke="black" stroke-width="2" fill="none" />
<polyline points="346.0,130.0,345.0,134.0,343.5,138.5,342.5,142.5,341.5,146.5,340.0,150.5,340.0,155.0,339.5,159.0,339.5,162.5,339.5,167.0,340.0,171.0,340.5,175.0,341.0,178.5" stroke="black" stroke-width="2" fill="none" />
<polyline points="342.5,176.5,342.0,172.5,341.5,168.0,341.5,164.0,342.0,160.0,342.5,156.0,342.0,152.5,343.0,148.5,343.5,144.5,344.0,140.5,345.0,136.5,345.5,132.5,346.0,131.5" stroke="black" stroke-width="2" fill="none" />
<polyline points="348.0,132.5,349.0,136.5,349.5,140.5,349.0,144.5,348.5,148.5,344.5,153.0,343.5,154.5,347.5,151.5,350.5,150.0" stroke="black" stroke-width="2" fill="none" />
<polyline points="348.5,151.5,344.5,154.0" stroke="black" stroke-width="2" fill="none" />
<polyline points="344.5,157.5,348.0,159.0" stroke="black" stroke-width="2" fill="none" />
<polyline points="345.0,158.0,348.5,162.0,348.5,166.0,348.5,170.5,347.5,174.5,345.5,178.5,343.0,183.0,340.0,187.0,335.5,193.5,340.0,189.5,344.0,184.0" stroke="black" stroke-width="2" fill="none" />
<polyline points="341.0,192.5,342.0,194.0,340.0,198.0,336.5,202.5,337.5,204.0,334.0,208.0,337.0,205.5,340.0,198.0" stroke="black" stroke-width="2" fill="none" />
<polyline points="345.0,196.0,345.0,198.0,343.0,202.5,341.5,206.5,343.5,207.5,338.0,212.0,339.0,210.0,343.0,208.5" stroke="black" stroke-width="2" fill="none" />
<polyline points="347.0,198.0,346.5,202.0,345.5,207.5,345.5,211.0,348.0,216.0,346.5,220.0,345.0,224.0,343.0,228.0,341.5,232.0,340.5,236.0,339.0,240.0,338.0,244.0,337.0,248.0,336.0,252.5,335.5,257.0,334.5,261.5,332.5,265.0,331.5,269.0,331.0,273.0,327.5,277.0,323.5,281.0,320.0,284.5,316.0,288.5,312.0,292.5,308.5,296.0,304.5,299.5,300.5,303.5,296.5,307.0,292.0,310.5,288.0,314.5,284.0,318.5,280.5,322.5,277.0,326.5,273.0,330.5,270.0,338.0,272.0,342.0,274.0,346.5,275.0,350.5,276.0,354.5,277.5,359.0,278.0,363.0" stroke="black" stroke-width="2" fill="none" />
<polyline points="164.5,323.5,161.0,323.0,157.0,323.5,152.5,324.0,148.5,325.0,144.5,326.0,140.5,327.5,137.0,329.5,133.0,332.5,128.5,336.0,124.0,344.5" stroke="black" stroke-width="2" fill="none" />
<polyline points="74.5,336.5,72.5,336.0,68.5,338.0" stroke="black" stroke-width="2" fill="none" />
<polyline points="66.0,341.5,62.0,341.0" stroke="black" stroke-width="2" fill="none" />
<polyline points="61.0,341.5,65.0,338.5,69.0,336.5,73.0,333.5,77.0,331.0,81.5,327.5,85.5,323.5,90.0,320.0,94.0,316.0,98.0,313.0,102.0,307.0,106.0,302.0,110.0,297.0,113.5,292.0,118.0,287.5,122.0,282.0,126.5,280.5" stroke="black" stroke-width="2" fill="none" />
<polyline points="128.5,275.0,124.5,279.0,120.5,279.0,117.0,274.5,113.0,272.0" stroke="black" stroke-width="2" fill="none" />
<polyline points="112.0,272.0,112.0,276.0,112.5,280.5,113.0,284.5" stroke="black" stroke-width="2" fill="none" />
<polyline points="113.5,273.0,117.5,277.0,121.0,281.0,118.0,285.5,115.0,289.5,112.0,293.5,108.5,298.0,105.5,301.5,102.0,305.5,99.5,309.5,96.5,313.5,92.0,317.5,87.5,322.0,84.0,326.0,80.0,330.0,75.0,334.0,68.5,337.5,62.0,341.0,61.5,344.5,60.0,348.5,58.5,352.5,56.0,356.5,53.0,360.0,49.0,364.5,52.0,361.5,56.0,355.5,60.0,347.0,66.0,344.0" stroke="black" stroke-width="2" fill="none" />
<polyline points="62.5,346.5,61.5,350.5,59.5,354.0,58.0,358.0,55.5,361.5,53.0,365.5,56.0,361.0,60.0,353.5" stroke="black" stroke-width="2" fill="none" />
<polyline points="78.5,273.0,82.5,273.0" stroke="black" stroke-width="2" fill="none" />
<polyline points="95.5,269.0,91.5,260.5,87.0,255.0,83.0,252.0,79.0,250.5,74.5,249.0,71.0,246.5,67.5,243.5,63.5,240.0" stroke="black" stroke-width="2" fill="none" />
<polyline points="70.0,241.0,66.0,237.0,61.5,233.0,59.5,233.0" stroke="black" stroke-width="2" fill="none" />
<polyline points="55.5,224.5,55.0,224.5,57.5,226.5,60.0,231.0,61.0,235.0,65.5,240.5" stroke="black" stroke-width="2" fill="none" />
<polyline points="73.0,243.5,68.5,239.5,64.5,236.0,61.0,231.5,57.0,225.5,53.0,222.5" stroke="black" stroke-width="2" fill="none" />
<polyline points="51.0,223.5,55.0,229.5,59.0,235.0,62.0,239.0,66.0,239.5,70.0,243.5" stroke="black" stroke-width="2" fill="none" />
<polyline points="70.0,246.0,64.5,242.0,61.0,238.5,57.0,234.5,54.5,230.5,52.0,226.5,49.5,230.0" stroke="black" stroke-width="2" fill="none" />
<polyline points="50.0,233.0,46.0,232.5,42.0,242.0,38.0,248.0,40.5,244.5,42.5,240.5,44.5,236.5,46.0,232.5,47.0,228.0,49.0,224.0,51.0,220.0,50.0,221.5" stroke="black" stroke-width="2" fill="none" />
<polyline points="45.0,223.0,39.5,230.0,35.5,238.5,31.5,245.5,27.5,251.0,23.5,256.0,19.5,259.5,15.5,263.0,11.0,265.5,6.5,267.0,2.5,264.5" stroke="black" stroke-width="2" fill="none" />
<polyline points="2.5,264.0,8.0,268.0,16.5,271.5,23.0,271.0,27.0,272.0,31.0,273.0,35.0,274.5,39.0,275.0,43.0,275.0,47.0,276.5,51.0,276.0,55.0,276.5,59.0,276.0,63.0,276.5,67.0,275.5,71.0,274.5,74.5,274.5,79.0,273.5,83.0,272.5,87.5,271.5,91.5,270.5,95.5,269.5" stroke="black" stroke-width="2" fill="none" />
<polyline points="104.5,270.0,106.0,274.0,108.5,278.5,110.0,283.0,113.0,287.5,116.5,290.5,113.0,295.0,110.0,299.0,105.5,302.0,104.5,306.0,102.5,310.0,99.5,313.0,101.0,310.5,104.5,304.5,106.5,302.0,110.5,297.0,114.5,292.5" stroke="black" stroke-width="2" fill="none" />
<polyline points="124.0,254.0,120.5,252.5,116.5,250.0,116.0,245.0" stroke="black" stroke-width="2" fill="none" />
<polyline points="114.0,252.5,109.5,250.5,105.5,247.0" stroke="black" stroke-width="2" fill="none" />
<polyline points="120.5,251.0,119.0,249.5,117.0,245.0,113.0,241.0,108.5,237.5,104.5,236.0,100.0,233.5,96.0,231.5" stroke="black" stroke-width="2" fill="none" />
<polyline points="95.5,232.0,99.5,234.0,103.5,237.0,107.5,239.5,111.0,242.0,108.0,245.5,108.0,249.5,107.5,248.0,111.5,250.5" stroke="black" stroke-width="2" fill="none" />
<polyline points="95.0,237.5,91.0,232.5" stroke="black" stroke-width="2" fill="none" />
<polyline points="91.5,230.0,95.5,231.5,98.0,236.5" stroke="black" stroke-width="2" fill="none" />
<polyline points="89.5,230.0,96.5,233.0,103.0,237.0,112.0,239.5,115.0,243.0,116.0,246.5,117.5,250.5,119.0,254.0" stroke="black" stroke-width="2" fill="none" />
<polyline points="116.0,250.0,113.5,245.5,111.5,241.0,106.0,243.0,102.0,243.5,97.5,242.0,93.5,239.0,90.0,234.0,86.0,229.0" stroke="black" stroke-width="2" fill="none" />
<polyline points="84.5,229.0,88.5,231.5,92.0,235.0,95.0,238.5,100.5,242.5" stroke="black" stroke-width="2" fill="none" />
<polyline points="106.0,250.0,105.0,246.0,109.5,242.0,109.0,239.5,101.5,234.5,96.5,231.5,92.5,230.5,88.0,229.0,84.0,227.5" stroke="black" stroke-width="2" fill="none" />
<polyline points="83.0,224.0,87.0,225.0,85.0,227.0,87.5,231.0,90.5,235.5,92.5,239.5,97.0,242.0,102.0,242.0,106.0,240.0,107.5,240.0,104.0,242.0,105.5,241.5,110.0,242.5,108.0,246.5,114.0,249.0,118.0,254.0,122.0,255.5,126.0,258.0" stroke="black" stroke-width="2" fill="none" />
<polyline points="91.5,240.0,87.5,237.0,83.5,231.5" stroke="black" stroke-width="2" fill="none" />
<polyline points="83.0,232.5,85.5,236.5,89.5,240.0" stroke="black" stroke-width="2" fill="none" />
<polyline points="80.5,230.5,84.5,237.0,88.5,241.0,93.0,244.5,96.5,248.0,100.5,251.5,104.0,254.0,108.0,256.5,111.5,259.0,115.5,262.0,119.5,265.5,123.5,268.0,128.0,270.5,132.0,273.5,136.0,273.5,141.5,277.0,145.5,277.0" stroke="black" stroke-width="2" fill="none" />
<polyline points="132.5,267.0,134.5,264.5,133.0,264.5,130.5,260.5,127.5,256.0,125.0,252.5,122.5,248.0,119.0,244.5,115.5,241.0,112.0,237.0,107.0,233.0,102.0,229.5,95.0,225.5,86.0,221.5,82.5,222.0" stroke="black" stroke-width="2" fill="none" />
<polyline points="80.0,220.5,79.5,224.0,79.0,227.5,80.0,231.0,82.5,235.0,85.0,239.0,89.0,243.0,94.0,246.5,98.0,250.5,103.5,255.0,110.0,259.0,115.5,263.0,121.0,267.0,127.0,271.0,134.0,275.0,137.0,275.5,141.5,274.5,146.0,272.0" stroke="black" stroke-width="2" fill="none" />
<polyline points="143.0,272.0,139.0,267.5,135.5,262.0,131.0,261.0,127.0,254.5,123.0,249.5,119.5,245.0,115.0,241.0,110.5,237.0,106.5,233.5,102.5,230.0,98.0,228.0,94.5,225.5,90.5,223.5,87.0,221.5,83.0,220.5,79.0,220.0" stroke="black" stroke-width="2" fill="none" />
<polyline points="81.5,250.5,80.5,254.5,86.0,255.5" stroke="black" stroke-width="2" fill="none" />
<polyline points="84.0,252.5,86.5,256.5,89.0,257.5,90.0,259.0,92.0,263.5,93.0,267.5,94.5,268.5,97.0,274.5,98.5,278.0,100.0,282.0,101.0,286.0" stroke="black" stroke-width="2" fill="none" />
<polyline points="52.0,237.5,49.5,234.0" stroke="black" stroke-width="2" fill="none" />
<polyline points="38.0,245.0,37.0,246.0,40.0,242.0,42.0,238.0,43.5,233.5,43.5,229.5,43.5,226.0,44.5,222.0,44.5,218.0,44.5,214.0,44.5,210.5,43.0,208.5" stroke="black" stroke-width="2" fill="none" />
<polyline points="102.5,192.5,108.0,197.5" stroke="black" stroke-width="2" fill="none" />
<polyline points="109.0,192.5,105.0,188.0" stroke="black" stroke-width="2" fill="none" />
<polyline points="105.0,189.5,108.0,194.0,111.0,197.5,109.0,201.0,110.5,205.0,112.0,208.5,113.5,212.0,112.0,213.0,115.5,222.0,119.0,231.5,123.0,241.0,127.0,249.0,130.5,255.0,134.5,259.5,138.5,264.5,142.5,268.5,146.5,272.5,150.0,276.5,154.5,279.0,159.0,283.0,163.0,286.5,165.0,284.5,169.0,286.5" stroke="black" stroke-width="2" fill="none" />
<polyline points="113.0,208.0,110.5,207.5" stroke="black" stroke-width="2" fill="none" />
<polyline points="128.5,183.5,132.5,182.0,136.5,181.5,140.5,181.0,144.5,180.5,148.5,180.5,152.0,180.0,155.5,180.0,159.5,179.5,164.0,179.5,168.0,180.0,172.0,181.0" stroke="black" stroke-width="2" fill="none" />
<polyline points="174.5,139.5,170.5,134.0" stroke="black" stroke-width="2" fill="none" />
<polyline points="169.5,134.5,172.5,138.5,173.5,142.0,176.0,143.0" stroke="black" stroke-width="2" fill="none" />
<polyline points="154.0,134.0,150.0,130.5" stroke="black" stroke-width="2" fill="none" />
<polyline points="125.0,123.0,125.0,127.0,125.0,131.5,124.5,135.0,124.0,139.0,124.0,143.0,124.0,147.0,126.0,152.0,126.0,156.0,125.5,160.0" stroke="black" stroke-width="2" fill="none" />
<polyline points="129.5,173.5,129.0,178.0,130.0,182.0,133.5,181.5,137.0,180.5,141.0,179.5,144.5,179.0,148.5,179.0,152.5,178.0,156.5,178.0,161.0,178.0,164.5,179.0,169.0,179.0,173.0,181.0" stroke="black" stroke-width="2" fill="none" />
<polyline points="177.0,145.5,173.0,142.0,170.5,138.5,167.0,132.0,165.5,128.0,162.5,122.5,158.5,118.5,154.0,111.0,150.0,102.0,146.0,94.0,142.0,86.5" stroke="black" stroke-width="2" fill="none" />
<polyline points="148.0,94.0,146.5,90.0,143.0,84.5,142.0,80.0,141.0,76.0,144.5,74.0,141.0,75.5" stroke="black" stroke-width="2" fill="none" />
<polyline points="139.5,73.0,138.0,77.0,140.0,81.5,141.5,85.5,143.0,89.5,145.0,93.5,147.5,97.0,149.5,101.0,151.5,104.5,153.5,108.0,155.5,112.0,158.5,116.0,160.5,120.0,162.5,124.5,164.5,128.5,167.0,132.5,169.0,137.0,171.0,141.0,175.0,145.5,177.5,149.0" stroke="black" stroke-width="2" fill="none" />
<polyline points="127.5,108.0,123.5,104.0" stroke="black" stroke-width="2" fill="none" />
<polyline points="123.0,102.5,126.5,106.5,129.0,110.5,132.5,113.0" stroke="black" stroke-width="2" fill="none" />
<polyline points="125.5,102.0,129.0,106.0,132.5,110.0,136.0,114.0,140.5,118.5,144.5,122.5,149.0,126.5,153.5,130.5,159.0,134.5,164.0,138.5,169.5,142.5,175.0,146.5" stroke="black" stroke-width="2" fill="none" />
<polyline points="173.0,145.5,169.0,142.0,165.0,140.0,161.0,137.0,157.0,134.0,152.5,131.0,148.5,127.0,144.5,122.5,140.5,118.0,136.5,114.0,132.5,110.0,129.0,105.0,125.0,100.5,121.0,97.5" stroke="black" stroke-width="2" fill="none" />
<polyline points="123.0,96.5,121.5,100.5,121.5,105.0,121.0,109.0,120.5,113.5,121.0,117.5,121.0,122.0,121.0,126.0,121.5,130.5,121.5,134.5,121.5,138.0,122.0,142.5,122.5,146.5,122.5,150.5,123.5,154.5,124.0,159.0,124.0,163.0,124.5,166.5,125.0,171.0,125.5,175.0,126.0,179.0,127.0,183.0,128.5,188.5,129.5,192.0,131.5,195.5,132.0,199.5,133.5,203.0,135.0,207.5,136.5,212.0,138.0,216.0,140.0,220.0,143.5,224.0,146.5,224.5,145.5,227.5,152.0,224.5,156.0,219.5,160.0,215.5,164.0,211.5,167.5,209.5,171.5,207.5,175.5,207.0,179.5,206.0,184.0,206.0,188.0,208.0,192.0,208.0" stroke="black" stroke-width="2" fill="none" />
<polyline points="259.5,175.0,258.0,176.0,259.5,172.0" stroke="black" stroke-width="2" fill="none" />
<polyline points="261.5,171.5,261.0,176.0,264.5,170.0,268.5,166.0,272.5,162.5,276.5,159.5,280.5,158.5,284.5,158.0,288.5,157.0,292.5,157.0,296.5,157.0,300.5,157.5,304.0,159.0,308.0,162.5" stroke="black" stroke-width="2" fill="none" />
<polyline points="308.5,163.5,308.0,161.0,303.5,156.5" stroke="black" stroke-width="2" fill="none" />
<polyline points="316.5,166.0,313.0,170.0,308.5,174.5,303.5,178.0,307.0,176.0,311.0,172.0,315.0,168.0" stroke="black" stroke-width="2" fill="none" />
<polyline points="334.0,183.0,337.0,182.5,337.5,184.5" stroke="black" stroke-width="2" fill="none" />
<polyline points="348.0,169.5,348.5,165.5,348.0,161.5,344.0,162.0" stroke="black" stroke-width="2" fill="none" />
<polyline points="346.0,178.0,342.0,180.5,338.0,187.0,338.0,188.0,340.5,184.5,343.5,180.5,345.5,176.5,347.0,172.5,345.5,173.0,342.5,177.0,342.5,171.5,342.5,167.5,342.5,163.0,342.5,159.0,344.5,153.5,349.0,150.0,350.5,146.0,350.0,142.0,350.0,138.0,350.0,134.0,348.5,130.5,347.5,123.5,343.5,120.0,343.0,119.0,345.0,119.5,341.0,122.0" stroke="black" stroke-width="2" fill="none" />
<polyline points="339.5,119.0,343.5,113.5,347.5,115.5,352.0,120.0" stroke="black" stroke-width="2" fill="none" />
<polyline points="343.0,113.0,340.5,117.0,339.0,120.5,338.0,124.0,338.5,127.5,338.0,131.0,337.0,135.0,337.0,139.0,337.0,143.0,337.0,147.0,337.5,151.0,337.5,155.0,337.0,159.5,337.0,163.5,337.0,168.0,337.5,172.0,338.5,176.5,339.5,181.0,339.5,185.0,337.0,186.5,337.0,190.5,336.5,194.5,335.5,198.5,335.5,202.5,334.0,207.0,333.5,211.0,334.0,216.0,336.5,218.5,340.5,221.0,342.0,221.5" stroke="black" stroke-width="2" fill="none" />
<polyline points="306.5,161.0,302.5,161.0,298.5,161.0,294.0,160.5,290.0,161.0,286.0,160.5,281.5,162.0,278.0,164.0,274.0,166.5,270.0,169.5,266.0,173.5,262.5,180.0,259.0,178.5,260.5,174.5,262.5,170.5,266.5,167.0,270.5,163.5,276.5,159.5,273.0,152.0,269.0,148.0,265.0,144.0,260.5,140.0" stroke="black" stroke-width="2" fill="none" />
<polyline points="261.0,142.5,265.0,145.5" stroke="black" stroke-width="2" fill="none" />
<polyline points="264.0,146.5,259.5,142.5" stroke="black" stroke-width="2" fill="none" />
<polyline points="268.0,133.5,272.0,141.0,276.0,150.5" stroke="black" stroke-width="2" fill="none" />
<polyline points="276.5,151.0,274.5,147.0,273.0,143.0,271.0,139.0,269.0,135.0,269.5,131.5,274.0,128.0,280.5,124.0,287.0,120.5,285.5,115.5,281.5,111.5,277.5,108.0,273.5,105.0,269.5,102.0,265.5,99.0,261.5,95.5,257.5,92.0,253.5,89.0,249.5,85.0,245.0,81.5,241.0,77.5,237.0,75.0" stroke="black" stroke-width="2" fill="none" />
<polyline points="237.5,76.5,239.5,80.5,242.0,84.0,245.0,88.0,246.5,91.5,248.5,95.0,251.0,99.0,253.0,103.5,255.0,107.5,257.0,112.0,258.5,116.0,260.5,120.0,263.5,123.5,265.0,127.5,268.5,131.5,273.0,128.5,277.0,126.0,280.5,123.0,284.5,121.0,289.0,119.0,293.0,121.0,297.0,124.5,301.0,128.5,305.0,132.0,308.5,136.5,312.5,138.5" stroke="black" stroke-width="2" fill="none" />
<polyline points="315.0,135.0,309.0,129.0,305.0,122.0,301.0,117.0" stroke="black" stroke-width="2" fill="none" />
<polyline points="299.5,116.0,300.0,116.5,304.5,120.5,307.0,124.5,308.0,128.5,309.5,132.5,312.0,136.5,310.5,139.0,314.0,140.5" stroke="black" stroke-width="2" fill="none" />
<polyline points="323.5,136.5,320.0,132.5,316.0,127.5,312.0,123.5,308.0,120.0,304.5,116.0,300.5,114.5" stroke="black" stroke-width="2" fill="none" />
<polyline points="303.0,116.0,307.5,120.0,311.5,124.0,316.0,128.0,318.5,132.0,322.5,135.5,325.0,139.5,325.5,143.5,327.5,147.5,329.0,152.0,330.0,156.0,331.5,160.0,331.5,164.0,332.5,168.0,334.5,172.5,335.5,177.0,334.5,181.0,333.5,185.0,333.5,189.0,333.0,193.0,332.0,197.0,332.5,201.0,331.5,205.0,331.5,209.0,331.0,213.0,331.0,216.5,329.5,220.5,328.5,225.0,327.5,229.0,325.5,233.0,324.5,237.0,322.5,240.5,320.0,244.5,318.0,248.5,316.5,252.0,314.0,256.0,311.0,260.5,308.0,264.5,305.5,268.5,302.5,273.0,298.5,277.0,295.5,281.0,292.0,285.0,289.0,288.5,285.5,292.5,285.0,296.0,288.5,292.0,292.5,286.5,295.0,287.0,296.0,283.0,300.0,278.0,304.0,273.0,307.5,267.5,311.5,261.5,315.5,255.5,319.0,253.5,319.0,259.0" stroke="black" stroke-width="2" fill="none" />
<polyline points="277.0,170.0,272.5,172.0,268.5,176.0,271.0,173.0,276.0,169.5" stroke="black" stroke-width="2" fill="none" />
<polyline points="281.5,163.5,274.0,167.5,269.5,171.5,266.5,175.0,264.0,179.5" stroke="black" stroke-width="2" fill="none" />
<polyline points="251.0,137.0,251.0,136.0,247.0,135.0" stroke="black" stroke-width="2" fill="none" />
<polyline points="250.5,135.0,248.0,131.0" stroke="black" stroke-width="2" fill="none" />
<polyline points="286.5,117.0,282.5,120.0,278.5,122.5,274.5,125.5,270.0,129.0,266.5,127.0,262.5,119.0,258.5,110.5,254.5,102.5,250.0,95.5,246.0,88.5,241.5,82.5,238.0,77.5" stroke="black" stroke-width="2" fill="none" />
<polyline points="237.5,77.5,241.5,81.5,246.5,85.0,251.5,89.0,257.0,93.0,262.0,96.5,267.0,100.0,273.0,103.5,278.0,107.5,283.0,111.5,287.0,115.5,281.0,119.5,275.0,123.0,270.0,127.0" stroke="black" stroke-width="2" fill="none" />
<polyline points="287.5,122.5,283.5,125.5,281.5,126.5,279.0,127.0,273.5,133.0,273.5,133.0,279.5,128.0,281.5,125.5,285.5,124.0,289.0,119.5" stroke="black" stroke-width="2" fill="none" />
<polyline points="290.0,119.0,295.0,123.0,295.5,126.5,292.5,126.0,296.5,126.0" stroke="black" stroke-width="2" fill="none" />
<polyline points="298.5,125.5,302.5,129.5,307.0,133.5,310.5,137.5" stroke="black" stroke-width="2" fill="none" />
<polyline points="308.0,138.0,305.0,134.0" stroke="black" stroke-width="2" fill="none" />
<polyline points="315.0,129.5,316.0,136.0,322.0,139.0,323.5,140.5" stroke="black" stroke-width="2" fill="none" />
<polyline points="346.5,139.5,346.5,143.5,345.5,148.5" stroke="black" stroke-width="2" fill="none" />
<polyline points="369.5,88.0,373.5,89.5,377.5,88.5,381.5,89.0,385.0,87.5,388.5,86.5,393.0,84.5,396.5,89.0" stroke="black" stroke-width="2" fill="none" />
<polyline points="391.0,92.0,387.0,91.5,383.0,90.0" stroke="black" stroke-width="2" fill="none" />
<polyline points="388.5,86.5,395.5,83.0,398.0,78.5,400.0,79.5,396.5,81.0,393.0,82.5,389.5,84.5,385.5,86.0,381.5,86.5,377.0,86.5,373.0,87.0,369.5,86.0" stroke="black" stroke-width="2" fill="none" />
<polyline points="359.0,79.5,359.0,84.0,359.0,88.0,359.0,92.0,359.0,96.0,359.0,100.0,358.5,104.0,358.0,108.5" stroke="black" stroke-width="2" fill="none" />
<polyline points="347.5,81.0,343.0,73.5,339.0,69.0" stroke="black" stroke-width="2" fill="none" />
<polyline points="340.0,66.0,343.5,70.0,345.5,74.0,348.0,77.5,349.5,81.5,351.0,86.0,352.5,90.0,354.0,94.0,356.0,98.0,357.0,102.0,357.5,106.5" stroke="black" stroke-width="2" fill="none" />
<polyline points="351.5,68.5,348.0,67.0,344.0,67.0,340.0,65.5" stroke="black" stroke-width="2" fill="none" />
<polyline points="349.5,67.5,345.5,65.5,341.5,63.0,337.0,60.5,333.0,56.5,329.0,51.0" stroke="black" stroke-width="2" fill="none" />
<polyline points="328.0,48.0,329.5,51.5,332.5,55.5,337.0,59.0,342.0,63.0" stroke="black" stroke-width="2" fill="none" />
<polyline points="319.5,29.5,315.5,22.5,311.0,17.0" stroke="black" stroke-width="2" fill="none" />
<polyline points="310.5,14.0,314.5,15.0,318.0,16.5,321.5,17.5,325.5,18.5,329.0,20.0,333.0,22.0,337.0,23.0,341.0,26.0" stroke="black" stroke-width="2" fill="none" />
<polyline points="341.5,27.0,336.0,23.0" stroke="black" stroke-width="2" fill="none" />
<polyline points="332.0,19.0,340.5,23.0,347.0,27.0,353.0,30.5" stroke="black" stroke-width="2" fill="none" />
<polyline points="352.0,30.0,348.0,27.5,344.0,25.0,340.0,22.5,336.0,21.0,332.0,19.0,328.0,18.0,324.5,16.5,321.0,15.5,317.0,14.0,313.5,13.5,309.5,13.0" stroke="black" stroke-width="2" fill="none" />
<polyline points="308.5,14.5,309.5,15.5,312.5,19.5,315.5,23.5,317.5,27.5,319.0,32.0" stroke="black" stroke-width="2" fill="none" />
<polyline points="335.0,3.0,339.0,2.0,343.0,2.5,347.0,4.0,351.0,5.5,355.0,7.5" stroke="black" stroke-width="2" fill="none" />
<polyline points="354.0,8.5,350.0,6.5,346.0,5.0,342.0,4.0,337.5,3.5" stroke="black" stroke-width="2" fill="none" />
<polyline points="354.0,20.5,354.0,24.5" stroke="black" stroke-width="2" fill="none" />
<polyline points="362.0,1.0,360.5,5.0,360.0,9.5,359.0,13.5,358.5,18.0,357.5,22.5,357.0,26.0,356.5,30.0,355.5,34.0,355.0,37.5,354.5,41.5,354.5,45.5,354.5,49.5,354.5,53.5,355.0,57.5" stroke="black" stroke-width="2" fill="none" />
<polyline points="404.0,78.0,404.5,82.0,403.5,85.5,404.0,89.5,403.5,93.0,402.5,97.0,402.5,101.0,402.5,105.5,402.0,109.5,401.0,113.5,401.0,117.5,401.0,121.5,401.0,125.5,400.5,129.5,400.5,133.0,400.5,136.5,399.5,141.0,400.0,145.5,400.0,150.0,399.5,154.0,399.5,158.0,399.5,162.0,399.5,165.5,400.0,169.5,400.0,173.0,400.5,177.0,400.0,181.5,400.0,185.5,400.5,189.5,400.5,193.5,401.0,197.5,401.0,201.5,405.0,205.5" stroke="black" stroke-width="2" fill="none" />
<polyline points="405.0,125.0,405.0,121.0,405.0,116.5,405.0,112.5" stroke="black" stroke-width="2" fill="none" />
<polyline points="401.0,97.5,401.0,93.5" stroke="black" stroke-width="2" fill="none" />
<polyline points="408.0,86.0,407.5,82.0" stroke="black" stroke-width="2" fill="none" />
<polyline points="415.0,88.5,409.5,92.5,412.5,90.5,416.5,89.0" stroke="black" stroke-width="2" fill="none" />
<polyline points="465.5,21.5,461.5,17.0,457.5,13.0,453.5,10.0,449.5,7.5,446.0,6.5,442.0,4.5,438.0,3.5,434.0,3.0,430.5,2.0,426.5,2.0" stroke="black" stroke-width="2" fill="none" />
<polyline points="418.0,1.5,419.0,5.5,418.5,9.5,419.0,14.0,418.5,18.5,418.5,22.5,417.5,26.5,417.0,30.5,416.0,34.5,415.5,38.5,414.5,42.0,414.0,46.0,413.0,50.5,411.5,54.0,411.0,57.5,409.5,61.5,409.5,65.0,409.0,69.0,408.5,73.0,408.5,77.5,407.0,81.5,407.5,85.5,406.5,89.5,405.0,93.5,405.0,97.5,405.0,102.0,403.5,106.0,403.5,110.0,404.0,114.0,403.5,118.0,403.5,122.0,403.0,126.0,402.0,130.0,402.0,134.5,402.0,139.0,402.0,143.0,402.0,146.5,402.0,150.5,402.0,154.0,402.5,158.5,402.5,162.5,402.5,166.0,402.5,170.5,402.5,174.5,403.5,178.0,403.5,182.0,404.0,186.5,404.0,191.0,404.0,195.0,404.0,199.5,405.0,203.5,405.5,207.0,412.5,211.0" stroke="black" stroke-width="2" fill="none" />
<polyline points="277.0,154.5,273.0,150.0,269.0,146.0,264.5,141.5,260.5,139.0,256.0,143.0,252.0,149.5,253.0,147.5,256.0,143.5,258.5,139.5,254.5,134.0,250.5,130.5,246.0,127.0,242.0,124.5,238.0,122.0,234.0,119.5,230.0,117.0,226.0,114.0,222.0,111.5,218.0,108.5,214.0,106.5,209.5,104.5,205.5,101.5,202.0,99.0,198.0,97.0,194.5,94.0,191.0,92.5,187.5,90.0,183.5,88.0,180.0,85.0,176.0,83.0,171.5,81.5,167.0,79.5,162.5,77.5,158.0,75.5,154.0,75.0,149.5,73.5,145.5,73.0,142.0,73.5,137.5,75.5" stroke="black" stroke-width="2" fill="none" />
<polyline points="133.5,69.5,137.5,66.0,142.0,62.0,148.5,58.5,153.0,52.5,153.0,51.0,160.0,47.0,166.0,43.5,165.0,39.5,161.0,39.0,157.0,40.0" stroke="black" stroke-width="2" fill="none" />
<polyline points="162.0,44.5,155.5,48.5,153.5,49.5,158.0,47.0,162.0,44.5" stroke="black" stroke-width="2" fill="none" />
<polyline points="171.5,43.5,166.0,47.5,158.0,51.5,156.0,55.0,154.0,58.5" stroke="black" stroke-width="2" fill="none" />
<polyline points="158.0,75.5,167.5,79.5,175.5,83.5,182.0,87.5,189.0,91.5,196.0,95.5,201.5,99.5,208.0,103.5,214.0,107.0,221.0,111.0,226.5,114.5,232.5,119.0,238.0,123.0,243.0,127.0,248.5,131.5,253.5,135.5,258.0,139.5,255.0,143.5,252.0,147.5,250.5,151.5,253.0,146.0,257.0,141.0" stroke="black" stroke-width="2" fill="none" />
<polyline points="197.5,35.0,205.0,31.0,212.0,27.0,220.0,23.0,227.5,19.0" stroke="black" stroke-width="2" fill="none" />
<polyline points="194.0,5.5,189.5,6.5,185.5,8.0,182.0,9.0,178.0,10.0,174.0,12.0,170.0,14.0,166.5,15.5,163.0,17.5,158.5,19.0,154.5,21.0,150.5,22.0,146.0,24.0,141.5,26.0,137.0,28.0,133.0,30.0,129.0,32.5,125.0,34.5,120.5,36.5,117.0,38.0,112.5,40.5,108.5,43.0,104.5,46.0,100.5,48.5,97.0,51.5,93.0,54.5,89.5,57.5,86.5,59.5,82.5,62.0,79.0,64.5,75.0,68.0,71.0,71.5,66.5,76.0,63.0,80.0,59.0,84.0,54.5,88.5,50.5,91.5,46.0,92.0,41.5,95.5,40.0,96.0,43.5,93.5,47.5,89.5,52.5,89.0,57.0,85.0,60.5,80.5,65.5,75.5,70.5,71.0,76.0,67.0,80.5,62.5,85.0,58.5,86.5,55.0,92.5,53.5,98.0,49.5,104.0,45.5,109.5,42.0,116.0,38.0,123.0,34.0,130.5,30.0,138.0,26.5,145.5,22.5" stroke="black" stroke-width="2" fill="none" />
<polyline points="152.0,12.5,150.5,9.0,151.0,7.5,150.0,9.0" stroke="black" stroke-width="2" fill="none" />
<polyline points="149.0,2.5,155.0,2.5,154.0,4.5,157.5,8.5" stroke="black" stroke-width="2" fill="none" />
<polyline points="160.5,2.5,156.5,2.5,152.0,1.5" stroke="black" stroke-width="2" fill="none" />
<polyline points="147.5,12.0,143.5,6.5,139.5,2.5" stroke="black" stroke-width="2" fill="none" />
<polyline points="139.5,2.5,142.5,6.0,145.0,10.0,148.5,13.5" stroke="black" stroke-width="2" fill="none" />
<polyline points="145.5,13.5,141.5,12.5,141.5,9.0,137.5,4.0" stroke="black" stroke-width="2" fill="none" />
<polyline points="119.0,15.5,114.5,11.0" stroke="black" stroke-width="2" fill="none" />
<polyline points="115.5,13.0,116.0,17.5,118.0,21.5" stroke="black" stroke-width="2" fill="none" />
<polyline points="118.5,24.0,114.5,18.0" stroke="black" stroke-width="2" fill="none" />
<polyline points="116.5,18.0,112.5,15.0" stroke="black" stroke-width="2" fill="none" />
<polyline points="115.5,13.0,119.0,18.5" stroke="black" stroke-width="2" fill="none" />
<polyline points="117.5,16.0,119.5,20.5,121.5,24.5" stroke="black" stroke-width="2" fill="none" />
<polyline points="121.5,22.0,120.0,18.0,117.5,14.5,113.5,12.0,110.0,9.5" stroke="black" stroke-width="2" fill="none" />
<polyline points="109.5,9.0,114.5,13.0,116.5,15.0,119.0,19.0" stroke="black" stroke-width="2" fill="none" />
<polyline points="123.0,30.5,115.0,34.5,112.0,36.5,116.0,34.0,120.5,31.5" stroke="black" stroke-width="2" fill="none" />
<polyline points="128.5,27.5,131.0,26.5" stroke="black" stroke-width="2" fill="none" />
<polyline points="148.0,17.5,143.5,18.0,143.0,18.0,142.0,12.5,141.5,10.5,138.5,7.0,135.0,3.0,130.0,4.0,126.0,3.5,122.0,3.5,117.5,4.5,113.5,3.0" stroke="black" stroke-width="2" fill="none" />
<polyline points="80.0,33.5,77.5,29.5,75.0,25.5,74.5,21.5,72.0,17.5,67.5,14.0,64.5,10.0,63.0,6.5,63.5,2.5" stroke="black" stroke-width="2" fill="none" />
<polyline points="31.5,29.0,31.5,33.0,31.5,37.0,31.5,41.0" stroke="black" stroke-width="2" fill="none" />
<polyline points="38.0,42.0,36.5,46.0,38.0,50.0,38.5,54.5" stroke="black" stroke-width="2" fill="none" />
<polyline points="44.0,60.5,48.0,68.0,52.0,74.5,56.5,77.0,60.5,75.5" stroke="black" stroke-width="2" fill="none" />
<polyline points="52.0,71.5,48.0,64.0,47.5,60.5" stroke="black" stroke-width="2" fill="none" />
<polyline points="47.5,61.0,50.0,65.0,51.0,69.0" stroke="black" stroke-width="2" fill="none" />
<polyline points="50.0,69.5,48.5,65.5,47.0,61.0,46.5,60.0" stroke="black" stroke-width="2" fill="none" />
<polyline points="33.0,68.5,33.0,72.5,34.0,79.0" stroke="black" stroke-width="2" fill="none" />
<polyline points="4.0,94.0,4.0,98.0,4.0,102.0,4.0,105.5,3.5,109.5,4.0,113.5,3.0,117.5,2.5,123.0,2.5,127.5,2.5,131.5,2.5,136.0,2.5,139.5,2.5,143.5,2.0,147.0,2.0,151.0,2.0,155.0,3.0,159.0,3.5,163.5,4.0,168.0,3.0,172.0" stroke="black" stroke-width="2" fill="none" />
<polyline points="95.0,171.5,96.5,175.5,97.5,180.0,99.0,184.0,100.5,188.5,103.0,192.5,105.0,197.0,106.5,201.5,108.0,205.5,109.5,209.5,111.5,213.5,113.0,217.5,114.5,221.5,116.5,225.5,117.5,230.0,119.5,234.0,120.5,238.0,122.0,241.5,123.0,245.5,125.5,249.5,127.0,253.0,131.0,257.0,134.5,261.0,138.5,265.0,138.0,266.5,139.0,270.5,143.5,271.0,148.0,274.5" stroke="black" stroke-width="2" fill="none" />
<polyline points="99.5,183.0,95.5,176.0" stroke="black" stroke-width="2" fill="none" />
<polyline points="85.0,83.0,81.5,87.0,77.5,91.0,78.0,89.5,82.0,86.0,85.0,83.0" stroke="black" stroke-width="2" fill="none" />
<polyline points="88.0,80.5,86.5,84.5,82.5,88.5,81.0,89.0,85.5,85.0,89.0,81.0" stroke="black" stroke-width="2" fill="none" />
<polyline points="74.0,106.0,72.0,108.0,77.0,104.0,82.0,100.5,87.5,97.0,91.0,93.0,96.0,89.0,100.5,85.5,105.0,81.0,115.0,77.0,118.5,72.5,125.0,69.0" stroke="black" stroke-width="2" fill="none" />
<polyline points="126.5,72.5,120.5,76.5,115.5,80.0,106.5,84.0,100.5,87.5,96.5,91.0,92.5,95.0,87.5,99.5,82.5,103.5,77.0,107.5,71.5,111.5,66.5,115.5,62.5,120.0,58.0,124.0,53.0,128.0,48.5,132.0,44.0,136.5,40.0,140.5,36.0,144.0,32.0,148.5,28.5,152.5,25.5,156.5,21.0,160.0,18.0,164.0,14.5,168.0,12.0,172.0,9.5,175.5,7.5,179.5,5.5,183.0,4.0,186.5,5.0,184.0,9.0,176.5,13.0,171.0,16.5,165.5,21.0,160.0,25.0,156.5,29.0,151.5,33.0,147.0,37.5,142.5,41.5,139.0,45.5,136.0,49.5,132.0,53.0,128.0,57.0,124.5,60.5,121.0,64.5,117.0,69.0,113.0,73.0,110.0,77.0,107.0,80.5,103.5,85.0,100.5,89.0,97.5,93.0,93.5,97.0,89.5,101.0,86.5,105.5,83.5,109.5,82.5,114.0,81.0,118.0,77.5,122.0,75.0,126.0,72.5,130.0,71.5,134.0,71.5,137.5,68.0,142.0,64.0,146.0,61.0,149.5,58.5,154.0,56.5,158.0,60.5" stroke="black" stroke-width="2" fill="none" />
<polyline points="167.5,36.5,171.5,34.5,176.0,32.0,167.5,35.5" stroke="black" stroke-width="2" fill="none" />
<polyline points="165.0,15.0,175.0,10.5" stroke="black" stroke-width="2" fill="none" />
<polyline points="58.5,79.0,55.5,78.0,51.0,75.0,49.0,71.0,47.0,66.5,45.0,62.5,43.0,59.0,42.5,55.0,41.0,51.0,41.0,47.5,39.5,43.5" stroke="black" stroke-width="2" fill="none" />
<polyline points="4.0,44.5,5.0,48.5,4.5,52.5" stroke="black" stroke-width="2" fill="none" />
<polyline points="4.5,5.0,9.0,5.0,13.0,4.5" stroke="black" stroke-width="2" fill="none" />
<polyline points="4.0,2.0,4.0,6.5,4.0,10.5" stroke="black" stroke-width="2" fill="none" />
<polyline points="2.0,267.0,2.5,271.0" stroke="black" stroke-width="2" fill="none" />
<polyline points="407.0,76.5,404.0,80.0,402.0,81.5,403.5,77.5,404.5,73.5,405.5,70.0,406.5,66.0,407.0,62.0,407.5,58.0,409.0,54.0,410.0,50.0,410.5,46.0,411.5,42.0,412.0,38.0,413.0,33.5,414.0,29.5,414.0,26.0,414.0,22.0,415.0,18.0,416.0,14.5,416.0,10.5,416.0,6.5,415.5,2.5" stroke="black" stroke-width="2" fill="none" />
<polyline points="405.5,2.0,407.5,6.0,408.5,10.5,410.0,14.5,410.0,18.0,410.5,21.5,410.0,25.5" stroke="black" stroke-width="2" fill="none" />
<polyline points="364.0,1.0,363.5,5.0,362.5,9.5,361.0,13.5,360.0,17.0,359.5,21.0,358.0,25.0,358.0,29.5,358.0,33.5,357.5,37.5,357.5,41.5,357.5,45.5,358.0,49.5,358.0,54.0,357.5,58.0,357.5,62.0,358.0,66.0,359.0,70.0,359.5,73.5,359.5,77.5,359.5,81.0,359.5,85.5,360.5,89.5,360.0,93.5,360.0,98.0,359.0,102.0,358.5,106.5,358.5,110.5,359.0,115.0,358.5,119.0,358.0,123.0,357.5,127.0,357.5,131.0,357.5,134.5,357.0,139.0,356.0,143.0,356.5,147.0,356.5,150.5,355.5,154.0,355.0,158.0,354.0,161.5,353.5,165.5,353.5,170.0,352.0,174.5,352.0,178.5,351.5,182.5,349.5,186.5,349.5,190.0,348.5,193.5,348.0,197.5,348.0,201.5,347.0,205.5,346.0,210.0,344.5,214.0,343.0,218.5,341.5,224.5" stroke="black" stroke-width="2" fill="none" />
<polyline points="445.5,154.5,441.0,164.0,437.0,173.0,433.0,182.5,429.0,192.0,425.0,201.5,423.5,206.0,421.0,207.5,422.5,203.5,424.5,199.5,426.0,195.5,428.0,191.0,429.5,186.5,431.0,182.5,433.0,178.5,435.5,174.5,437.5,170.5,439.0,166.5,440.0,162.5,442.0,158.5,443.5,154.5,445.0,150.5,447.0,147.0,449.0,143.0,450.5,139.0,452.0,135.0,454.0,131.0,455.5,127.0,457.0,123.0,459.0,119.0,460.0,115.0,461.5,111.0,463.0,107.0,464.5,102.5,466.5,98.5,467.5,94.0,469.0,90.0,471.0,86.0,472.5,82.0,474.0,78.0,475.0,74.5,476.5,70.5,476.5,66.5,478.5,63.0,478.5,59.0,480.5,55.0,482.5,51.0,483.5,46.5,485.5,42.5,487.0,38.5,489.5,34.0,491.5,30.5,495.5,26.5,498.5,22.5,502.5,18.5,508.0,14.0,511.5,9.5,511.5,5.5,512.0,1.5" stroke="black" stroke-width="2" fill="none" />
</svg>