<svg xmlns="http://www.w3.org/2000/svg" version="1.1"><polyline points="234.5,12.0,228.5,24.0,230.0,36.0,234.5,38.0,227.0,41.5,227.0,53.5,217.5,64.0,220.5,64.0,227.5,74.5,239.5,71.5,251.5,73.0,263.5,76.5,275.5,70.0,288.0,73.0,302.0,70.0,314.5,58.0,327.0,48.5,328.5,60.5,336.5,66.5,344.0,60.0,356.0,72.0,360.5,75.0" stroke="black" stroke-width="2" fill="none" />
<polyline points="369.5,78.0,381.5,75.5,378.5,84.0,389.0,88.5,391.0,100.5,385.0,112.5,400.5,117.0,408.0,122.0,418.5,110.0,421.0,120.5,418.0,114.5,430.0,122.0" stroke="black" stroke-width="2" fill="none" />
<polyline points="423.0,110.0,411.0,107.0" stroke="black" stroke-width="2" fill="none" />
<polyline points="388.5,87.5,377.0,81.5" stroke="black" stroke-width="2" fill="none" />
<polyline points="388.5,67.0,400.5,68.5,400.5,74.5,406.5,79.0,418.5,87.0,416.0,94.5,432.5,107.5,425.0,113.0,435.5,114.5,435.5,126.5,425.0,132.5,434.5,144.5,438.5,162.5,444.5,171.5,439.5,183.5,435.5,200.0,439.5,201.0,441.5,198.0" stroke="black" stroke-width="2" fill="none" />
<polyline points="421.5,189.0,416.0,178.5,412.5,187.5" stroke="black" stroke-width="2" fill="none" />
<polyline points="405.0,189.0,417.0,200.0" stroke="black" stroke-width="2" fill="none" />
<polyline points="417.0,206.5,405.0,212.5" stroke="black" stroke-width="2" fill="none" />
<polyline points="402.0,203.0,402.0,215.0,402.5,227.0,393.0,226.5,394.5,235.5,392.5,248.0,403.0,267.5,395.0,282.5,395.0,294.5,394.5,307.0,391.5,319.0,389.0,331.0,386.0,343.0,381.5,355.0,375.5,367.0,368.0,379.0,359.0,391.0,339.5,398.5,320.5,417.5" stroke="black" stroke-width="2" fill="none" />
<polyline points="316.0,415.5,304.0,417.0,292.0,418.5,280.0,417.0,268.0,412.5,256.0,414.5,244.0,407.0,229.0,393.5,217.0,383.0,205.0,373.0,193.5,364.0,181.5,358.5" stroke="black" stroke-width="2" fill="none" />
<polyline points="182.0,360.5,194.0,371.0,206.5,380.0,218.5,390.5,230.5,399.5,245.5,419.0" stroke="black" stroke-width="2" fill="none" />
<polyline points="227.0,409.5,239.0,417.0,251.5,424.5,264.0,430.5" stroke="black" stroke-width="2" fill="none" />
<polyline points="275.5,386.5,287.5,401.0,301.0,402.5,313.0,402.5" stroke="black" stroke-width="2" fill="none" />
<polyline points="333.0,414.5,317.5,427.0" stroke="black" stroke-width="2" fill="none" />
<polyline points="328.0,445.5,328.0,445.5,326.5,457.0,325.0,469.0,322.0,481.0,320.5,492.5,319.0,504.5,328.0,503.0" stroke="black" stroke-width="2" fill="none" />
<polyline points="334.5,492.0,340.5,493.5,342.0,506.0" stroke="black" stroke-width="2" fill="none" />
<polyline points="365.5,489.0,353.5,464.5" stroke="black" stroke-width="2" fill="none" />
<polyline points="350.0,457.0,357.5,469.0,363.0,481.5,369.0,493.5,367.5,506.0" stroke="black" stroke-width="2" fill="none" />
<polyline points="356.5,478.0,344.5,457.0" stroke="black" stroke-width="2" fill="none" />
<polyline points="343.5,457.5,355.5,459.0,349.5,465.0,355.5,477.0,362.0,489.0,358.0,495.0,370.0,503.0" stroke="black" stroke-width="2" fill="none" />
<polyline points="334.5,506.5,328.0,501.5,331.5,502.0,337.0,490.0,337.0,478.5,337.5,466.5,335.0,454.5,332.0,443.0" stroke="black" stroke-width="2" fill="none" />
<polyline points="307.5,376.0,295.5,378.0,283.5,378.5,272.0,382.0,260.0,385.0,245.0,386.5,240.5,375.0,224.0,373.5,232.0,366.0,233.0,354.0,236.0,343.0,231.5,340.0,234.5,327.5,246.5,315.0,269.0,310.0,267.5,298.0,279.5,286.0,285.0,274.0,289.5,262.0,292.5,250.0,292.5,238.0,299.0,226.5,291.5,214.5,273.5,213.0,261.5,211.5,249.5,211.5,237.5,212.5,226.0,215.5,214.0,223.0" stroke="black" stroke-width="2" fill="none" />
<polyline points="216.0,228.0,228.0,228.5,240.0,228.5,252.0,223.0,263.5,223.0,275.0,223.5" stroke="black" stroke-width="2" fill="none" />
<polyline points="275.0,223.5,271.0,211.5" stroke="black" stroke-width="2" fill="none" />
<polyline points="295.5,241.5,286.0,231.0,274.0,229.5,262.0,230.5,250.5,231.5,238.0,233.0,225.5,237.5,213.0,243.5,211.5,245.0,237.5,232.5" stroke="black" stroke-width="2" fill="none" />
<polyline points="215.0,248.0,227.0,249.5,239.0,251.0,250.5,252.5,262.0,252.0" stroke="black" stroke-width="2" fill="none" />
<polyline points="256.5,266.0,249.5,264.5,249.5,269.0" stroke="black" stroke-width="2" fill="none" />
<polyline points="280.0,266.5,278.5,278.5,264.0,290.5,261.0,302.5,259.5,314.0,248.0,327.5,260.0,327.5,278.0,335.0,290.0,335.0,302.0,335.0,314.0,326.0" stroke="black" stroke-width="2" fill="none" />
<polyline points="308.5,321.5,296.0,324.0,283.5,315.0,277.5,301.5,263.0,316.5,251.0,319.5" stroke="black" stroke-width="2" fill="none" />
<polyline points="242.5,311.5,230.5,324.0,226.0,335.5,229.5,347.5,237.5,358.0,247.0,350.5,259.5,353.0,271.5,360.5,284.0,357.5,297.5,355.5,309.5,358.5" stroke="black" stroke-width="2" fill="none" />
<polyline points="338.5,359.5,333.0,352.0,333.0,335.5,334.0,323.5,322.0,313.0,326.5,301.0,321.5,289.0,317.0,276.5,315.5,265.0,316.0,253.0,316.5,240.5,325.5,236.0,315.0,242.0" stroke="black" stroke-width="2" fill="none" />
<polyline points="321.0,239.5,332.5,235.0,344.5,237.5,356.0,240.5,368.0,253.0" stroke="black" stroke-width="2" fill="none" />
<polyline points="388.5,250.5,400.5,250.0,402.5,248.5,401.0,249.5,395.0,259.0,407.0,256.0" stroke="black" stroke-width="2" fill="none" />
<polyline points="397.5,270.0,402.0,276.0" stroke="black" stroke-width="2" fill="none" />
<polyline points="411.5,287.5,399.5,298.0,398.5,300.0,395.0,295.5" stroke="black" stroke-width="2" fill="none" />
<polyline points="343.0,323.0,331.0,308.0" stroke="black" stroke-width="2" fill="none" />
<polyline points="317.5,319.0,310.0,331.0,300.5,341.5,300.5,349.0" stroke="black" stroke-width="2" fill="none" />
<polyline points="278.5,353.5,291.0,353.5,303.0,353.5,315.0,350.5,327.5,348.5,339.5,350.0" stroke="black" stroke-width="2" fill="none" />
<polyline points="344.5,330.0,332.0,321.0,321.5,313.5,310.0,316.5,298.0,321.0,285.5,312.0,273.0,311.5,255.0,315.5,242.5,317.0,230.5,335.0" stroke="black" stroke-width="2" fill="none" />
<polyline points="228.5,330.0,241.0,315.0,253.0,312.0,269.5,294.0,281.5,285.0,301.0,301.5" stroke="black" stroke-width="2" fill="none" />
<polyline points="306.5,311.5,299.5,299.5,290.0,287.5,292.5,275.5,291.0,260.0,276.5,281.0,265.0,290.0,270.0,276.5,274.5,259.5,292.5,252.0,277.5,258.0,265.5,261.0,257.5,264.0,245.0,263.5,233.0,261.5,221.0,267.5,216.0,261.5,204.0,253.0,205.5,250.0,201.5,244.0" stroke="black" stroke-width="2" fill="none" />
<polyline points="199.0,220.5,186.5,220.5" stroke="black" stroke-width="2" fill="none" />
<polyline points="188.5,216.0,182.5,228.0,181.5,240.0,173.0,243.0,172.0,255.0,170.5,267.0,175.5,265.5" stroke="black" stroke-width="2" fill="none" />
<polyline points="174.5,248.0,177.5,260.0,168.5,272.0,170.0,284.5,161.0,293.5,163.0,286.0" stroke="black" stroke-width="2" fill="none" />
<polyline points="159.0,284.5,156.0,281.0,156.0,264.5,153.0,264.5,143.0,264.5,146.0,258.5,152.5,246.5,140.5,246.5,138.0,252.5" stroke="black" stroke-width="2" fill="none" />
<polyline points="156.0,276.0,146.5,277.5,133.0,270.0,137.5,252.0,136.0,249.0,131.0,244.5,113.0,241.0,112.5,234.5" stroke="black" stroke-width="2" fill="none" />
<polyline points="102.5,224.0,104.0,240.5,122.0,245.5,132.5,262.0,137.5,271.0,146.5,283.0,148.0,295.0,152.0,307.0,158.0,319.0,161.0,331.0" stroke="black" stroke-width="2" fill="none" />
<polyline points="153.0,358.5,146.0,358.5,133.5,355.5,124.5,348.0,133.5,345.5,123.0,335.0,114.5,323.5,112.0,311.5,110.0,300.0,109.5,288.0,108.0,276.0,100.0,264.0,111.0,258.0,106.5,246.0,99.0,233.5,104.0,230.5,96.5,215.5,99.5,203.5,104.0,191.5,102.5,179.5,96.5,167.5,99.5,155.5,107.0,144.0,110.0,131.5,110.0,119.5,110.0,107.5,113.0,96.0,117.0,84.0,129.5,78.0,131.0,66.0,133.5,54.0,142.5,53.5,130.5,64.0" stroke="black" stroke-width="2" fill="none" />
<polyline points="131.0,58.5,143.0,46.0,155.5,47.5,169.0,53.5,184.5,43.0,196.0,35.5,208.5,32.5,218.5,38.5,228.5,44.5" stroke="black" stroke-width="2" fill="none" />
<polyline points="230.0,28.5,242.0,26.5,243.5,17.5,255.5,13.0,270.5,13.0,275.0,7.0,287.0,5.5,299.0,13.0,303.0,23.5,315.0,21.0,327.0,21.0,326.5,30.0" stroke="black" stroke-width="2" fill="none" />
<polyline points="324.5,25.0,336.5,31.0,342.5,33.0,333.5,45.0,341.5,56.5,335.5,68.0,349.0,68.0,359.0,77.0,351.0,92.0,345.0,104.0,343.5,115.5,356.5,127.5,364.0,130.5,365.5,127.5,378.0,129.0,379.5,124.5,387.0,128.0" stroke="black" stroke-width="2" fill="none" />
<polyline points="382.5,130.5,385.5,142.0,394.5,154.0,384.0,166.0,393.0,167.0,387.5,176.0,390.5,188.5,389.0,200.5,392.5,212.5,387.0,224.5,389.0,236.5,389.0,248.5,393.0,261.0,391.5,273.0,391.5,285.5,391.5,297.5,391.5,310.0,388.0,322.5,385.0,334.5,381.5,346.0,375.5,358.0,368.0,370.0,359.0,382.5,348.5,394.5,338.5,406.5,329.0,406.0,317.0,415.0,303.5,427.0,312.0,434.5,324.0,423.5,332.5,410.0,344.5,399.5,357.0,384.5,369.0,367.0,381.5,343.5" stroke="black" stroke-width="2" fill="none" />
<polyline points="381.0,358.5,368.5,379.0,356.0,392.0,338.0,399.0,322.5,414.0,311.0,421.5,298.5,424.5,287.0,423.0,275.5,422.0,263.5,421.0,251.5,416.5,249.0,412.0,229.5,394.0,213.0,382.0,199.5,369.5,184.5,357.5" stroke="black" stroke-width="2" fill="none" />
<polyline points="182.5,356.5,190.0,368.0,205.0,380.0,218.5,392.0,236.0,404.0,249.5,416.0" stroke="black" stroke-width="2" fill="none" />
<polyline points="255.0,392.5,243.0,383.5" stroke="black" stroke-width="2" fill="none" />
<polyline points="266.5,376.5,278.5,372.0,289.0,363.0" stroke="black" stroke-width="2" fill="none" />
<polyline points="294.0,345.0,281.5,342.0,269.5,340.5,257.5,340.5,245.5,334.0,234.0,343.0" stroke="black" stroke-width="2" fill="none" />
<polyline points="256.0,352.0,269.5,365.5,281.5,368.5,293.0,368.5,304.5,365.5" stroke="black" stroke-width="2" fill="none" />
<polyline points="274.5,385.5,282.0,397.5,307.5,408.0,323.5,408.0" stroke="black" stroke-width="2" fill="none" />
<polyline points="346.0,339.0,337.0,327.0" stroke="black" stroke-width="2" fill="none" />
<polyline points="341.5,347.5,341.0,342.0,328.5,339.5,316.5,342.5,304.5,338.5,294.0,329.5,289.5,331.0,282.0,319.0,286.0,317.5" stroke="black" stroke-width="2" fill="none" />
<polyline points="320.5,262.5,332.5,268.5,344.0,271.5" stroke="black" stroke-width="2" fill="none" />
<polyline points="341.0,264.0,329.0,258.0" stroke="black" stroke-width="2" fill="none" />
<polyline points="322.5,256.5,334.0,256.5,346.5,259.5,358.5,253.5" stroke="black" stroke-width="2" fill="none" />
<polyline points="363.0,258.0,350.5,252.0,346.0,250.5,364.0,251.5,349.0,239.5" stroke="black" stroke-width="2" fill="none" />
<polyline points="354.5,227.0,342.5,218.0,330.0,218.0" stroke="black" stroke-width="2" fill="none" />
<polyline points="337.0,216.0,350.5,217.5,359.5,229.5,370.0,229.5,358.5,234.0,369.5,226.5" stroke="black" stroke-width="2" fill="none" />
<polyline points="380.0,222.0,383.0,216.0,379.5,228.0,392.5,234.5,406.0,248.0,415.5,246.5,426.0,231.5" stroke="black" stroke-width="2" fill="none" />
<polyline points="417.0,225.5,415.5,237.5,407.5,223.0,391.0,229.5" stroke="black" stroke-width="2" fill="none" />
<polyline points="385.5,224.5,391.5,207.5,395.0,199.5,407.0,204.0,425.0,207.0" stroke="black" stroke-width="2" fill="none" />
<polyline points="431.5,193.5,421.0,207.0,416.0,222.0,404.0,219.5,392.0,218.0" stroke="black" stroke-width="2" fill="none" />
<polyline points="391.0,182.0,392.5,189.5,410.5,194.5,424.0,195.5,428.5,185.0,436.5,188.0" stroke="black" stroke-width="2" fill="none" />
<polyline points="434.5,174.0,422.5,175.5,418.5,181.5" stroke="black" stroke-width="2" fill="none" />
<polyline points="431.5,149.5,420.0,143.0,414.0,144.5" stroke="black" stroke-width="2" fill="none" />
<polyline points="426.5,152.5,425.0,148.5,414.5,147.0,397.0,144.0" stroke="black" stroke-width="2" fill="none" />
<polyline points="405.5,156.0,393.0,150.0,393.0,138.0,380.5,135.0" stroke="black" stroke-width="2" fill="none" />
<polyline points="386.5,157.5,386.0,150.0,374.0,141.5,361.5,143.0,352.5,141.0,352.5,136.5,341.0,141.0,329.0,144.0" stroke="black" stroke-width="2" fill="none" />
<polyline points="328.0,155.5,340.5,154.5,350.5,155.5,349.0,167.5" stroke="black" stroke-width="2" fill="none" />
<polyline points="325.0,156.0,337.0,149.5,348.5,151.0,351.5,152.5,365.0,154.0,367.5,158.5,377.0,168.5" stroke="black" stroke-width="2" fill="none" />
<polyline points="364.5,230.5,352.0,230.5,339.5,226.5,327.5,226.0" stroke="black" stroke-width="2" fill="none" />
<polyline points="319.5,260.0,321.0,272.0,324.0,284.5,330.5,297.0,332.0,309.5,341.0,322.0,351.5,334.0,348.5,346.0" stroke="black" stroke-width="2" fill="none" />
<polyline points="409.0,267.5,409.5,255.5,410.5,250.5,422.5,238.5,428.0,229.5,432.5,217.0,431.0,206.5,429.0,197.5,427.0,190.0,431.5,182.5,438.0,178.5,442.5,166.5,436.5,180.0,424.5,171.0,423.0,168.0,411.0,168.5,405.5,167.0,394.0,164.0,391.0,158.0,380.5,170.0,368.0,162.5,356.0,157.5,344.0,168.0,332.0,167.0,319.5,176.0,327.0,174.5,326.0,154.5,333.5,140.5,340.0,127.0,333.0,115.0,322.5,104.0,310.5,84.5,292.5,76.5,298.5,64.5,313.5,63.0,319.5,51.0,331.5,52.5,325.0,43.5,305.5,46.5,316.0,35.0,324.0,34.0,322.5,26.5,310.5,25.0" stroke="black" stroke-width="2" fill="none" />
<polyline points="296.5,29.5,309.0,31.0,327.0,29.5,343.5,40.0,337.0,59.0,328.0,61.0,326.5,73.0,313.0,71.5,328.0,78.0,320.5,78.0,331.0,78.0,341.5,77.5,354.0,83.0,363.0,90.5,369.0,91.5,375.0,96.0,386.5,99.0,386.5,82.0,404.0,101.5,420.5,101.0,437.0,116.0" stroke="black" stroke-width="2" fill="none" />
<polyline points="405.5,87.0,393.0,76.5,381.0,66.0,378.0,46.0,366.0,41.5" stroke="black" stroke-width="2" fill="none" />
<polyline points="370.5,41.5,371.5,53.5,369.0,65.5,367.5,77.5,361.5,89.5,366.0,101.5,373.5,103.0,376.5,110.0,370.0,119.0,358.0,122.5" stroke="black" stroke-width="2" fill="none" />
<polyline points="347.0,83.5,338.0,89.5,319.5,86.5,307.5,74.5" stroke="black" stroke-width="2" fill="none" />
<polyline points="303.5,74.5,315.5,72.0,319.5,67.5,333.0,69.0" stroke="black" stroke-width="2" fill="none" />
<polyline points="339.0,73.5,334.0,85.5,340.0,97.5" stroke="black" stroke-width="2" fill="none" />
<polyline points="343.0,82.5,341.5,88.5,350.0,109.0,350.0,121.0,355.0,120.5" stroke="black" stroke-width="2" fill="none" />
<polyline points="307.5,122.0,296.0,117.5" stroke="black" stroke-width="2" fill="none" />
<polyline points="306.0,116.5,307.5,104.5,295.5,106.0,283.0,97.0" stroke="black" stroke-width="2" fill="none" />
<polyline points="268.5,95.5,268.5,92.5,277.5,100.0,283.0,101.5,294.5,109.5,288.0,136.5,278.5,148.5,283.0,158.0,289.5,170.0,291.0,174.5,293.0,162.5,300.0,155.0,300.0,155.0,295.5,167.0" stroke="black" stroke-width="2" fill="none" />
<polyline points="308.0,165.5,320.0,168.5" stroke="black" stroke-width="2" fill="none" />
<polyline points="292.0,139.5,280.0,147.0" stroke="black" stroke-width="2" fill="none" />
<polyline points="287.0,147.0,279.0,156.0,267.0,157.5,256.5,165.0,244.5,168.0,229.0,142.5" stroke="black" stroke-width="2" fill="none" />
<polyline points="216.5,125.0,218.0,113.5,197.5,115.0,193.5,107.0,193.5,110.0,198.0,108.5,211.5,89.0,219.0,77.0,216.0,77.0,213.0,59.5,219.5,47.5,215.0,41.5,225.0,30.0,228.0,18.0,237.0,9.0,225.0,25.5" stroke="black" stroke-width="2" fill="none" />
<polyline points="240.5,22.5,252.5,16.5,247.0,15.5,239.5,35.0,247.0,45.0,240.5,49.5,252.5,48.0,252.5,39.0,255.0,43.5,262.0,42.0,269.0,53.5,276.5,40.5,269.5,50.5,274.5,52.0" stroke="black" stroke-width="2" fill="none" />
<polyline points="291.5,47.0,294.5,35.0,296.0,30.5,285.5,16.5,285.5,13.5" stroke="black" stroke-width="2" fill="none" />
<polyline points="286.5,30.0,307.5,30.0" stroke="black" stroke-width="2" fill="none" />
<polyline points="319.0,55.5,316.0,67.5,310.5,79.5,324.0,91.5,331.5,102.0,344.0,108.5,357.5,105.5" stroke="black" stroke-width="2" fill="none" />
<polyline points="352.0,63.5,359.5,58.0,356.5,53.0,356.5,44.0,341.5,42.0,338.0,37.5,325.5,39.0,319.5,37.5,313.5,36.0,301.5,37.5,287.0,54.5,283.5,45.0,285.0,33.5,268.5,35.0,274.0,23.5,278.5,11.5,281.5,13.0,269.5,23.5,257.5,29.5,245.5,27.0" stroke="black" stroke-width="2" fill="none" />
<polyline points="248.0,29.0,260.0,38.0,272.5,31.5,261.0,33.0,249.0,35.5,260.0,38.0,258.5,44.0,261.0,57.0,276.0,69.0,283.0,80.5,286.0,89.5,292.0,95.5,301.0,106.5,304.5,123.0,309.0,123.5,324.0,126.5,338.0,121.0,350.5,123.0,352.0,114.0,358.0,115.5,364.0,109.5,366.5,114.0,374.0,109.5,392.0,116.5,395.5,111.5,397.0,121.5,404.0,136.5,414.5,129.5,417.5,138.5,425.0,141.5,431.5,144.5" stroke="black" stroke-width="2" fill="none" />
<polyline points="433.0,221.0,433.5,233.5,427.5,238.0" stroke="black" stroke-width="2" fill="none" />
<polyline points="290.5,142.0,276.0,164.5,268.0,172.0,278.5,159.5" stroke="black" stroke-width="2" fill="none" />
<polyline points="256.5,112.5,244.5,105.0" stroke="black" stroke-width="2" fill="none" />
<polyline points="233.0,104.5,236.0,101.0,251.0,116.0" stroke="black" stroke-width="2" fill="none" />
<polyline points="239.0,94.0,251.0,84.5" stroke="black" stroke-width="2" fill="none" />
<polyline points="243.5,78.0,241.5,90.0,244.5,93.0,243.0,106.5,250.5,118.5,256.0,130.5,245.5,150.0,239.0,160.5,245.0,167.5" stroke="black" stroke-width="2" fill="none" />
<polyline points="254.0,135.5,251.5,149.0,247.0,146.0,235.0,158.0,235.0,151.0,226.0,151.0,218.5,147.5,206.5,150.5" stroke="black" stroke-width="2" fill="none" />
<polyline points="205.5,192.5,216.0,179.0,207.0,191.0,202.5,203.5,204.0,215.0" stroke="black" stroke-width="2" fill="none" />
<polyline points="163.0,171.0,164.5,162.0,161.5,145.0" stroke="black" stroke-width="2" fill="none" />
<polyline points="152.5,154.5,164.0,160.5" stroke="black" stroke-width="2" fill="none" />
<polyline points="180.0,152.0,168.5,146.0,168.5,141.5,156.5,142.5,145.0,153.5,131.5,167.0,140.5,159.5" stroke="black" stroke-width="2" fill="none" />
<polyline points="124.5,178.5,129.0,184.5" stroke="black" stroke-width="2" fill="none" />
<polyline points="134.0,187.0,146.0,194.5" stroke="black" stroke-width="2" fill="none" />
<polyline points="130.5,206.0,127.5,218.0,129.0,211.5,139.5,213.0,151.5,219.0,163.5,216.0" stroke="black" stroke-width="2" fill="none" />
<polyline points="157.5,213.0,145.5,213.0,126.0,205.5,120.5,216.0,127.5,204.0" stroke="black" stroke-width="2" fill="none" />
<polyline points="114.0,200.5,102.0,197.5" stroke="black" stroke-width="2" fill="none" />
<polyline points="90.5,235.5,102.5,228.5,96.5,234.5,97.0,247.0,112.0,256.0,116.5,250.0,130.0,235.0,127.0,244.0,128.0,256.0,131.0,268.5,136.0,280.5,140.0,292.5,144.5,304.5,153.5,316.0,155.0,328.5,158.0,340.5,159.5,352.5,147.0,358.5,154.5,367.5,157.0,379.5,157.0,391.5,158.5,403.0,161.5,415.0,166.0,427.0,148.0,436.0,152.5,443.5,148.5,459.5,153.0,471.5,154.5,480.0,170.0,488.0,178.5,498.0,187.5,505.5,205.5,498.0,210.0,502.5,224.0,501.0" stroke="black" stroke-width="2" fill="none" />
<polyline points="232.5,504.0,219.0,492.0" stroke="black" stroke-width="2" fill="none" />
<polyline points="199.0,456.0,187.5,446.0,176.0,432.5,164.5,416.0" stroke="black" stroke-width="2" fill="none" />
<polyline points="153.0,413.5,157.5,425.5,157.5,430.0,171.0,437.5,180.0,449.5,187.5,455.5,194.0,467.5,198.5,478.0,199.5,485.5,210.5,484.5,211.5,489.0,214.5,495.0,219.0,496.5,227.0,509.0" stroke="black" stroke-width="2" fill="none" />
<polyline points="170.5,489.5,158.5,481.5,166.5,483.0,163.5,474.5,163.5,475.0,151.5,478.0" stroke="black" stroke-width="2" fill="none" />
<polyline points="157.0,502.0,152.0,474.5,140.0,475.5,127.5,456.0,116.0,433.5" stroke="black" stroke-width="2" fill="none" />
<polyline points="110.0,440.5,116.0,452.5,123.5,464.5,131.0,476.5,141.0,488.0,142.5,500.0,150.0,504.5" stroke="black" stroke-width="2" fill="none" />
<polyline points="120.5,509.0,119.0,501.5,116.5,489.0,107.5,487.5,114.0,475.5,102.5,472.0" stroke="black" stroke-width="2" fill="none" />
<polyline points="101.0,469.5,113.0,469.5,82.5,475.5,72.0,489.0,75.0,491.0,89.5,491.0" stroke="black" stroke-width="2" fill="none" />
<polyline points="79.5,479.0,81.0,469.5,52.5,481.5,63.0,483.0,66.5,469.5,78.5,462.0,83.5,461.0,95.5,458.0,108.0,451.0,120.5,471.0,132.5,492.5" stroke="black" stroke-width="2" fill="none" />
<polyline points="93.0,475.0,96.5,490.0,108.0,498.5,99.0,506.0,93.0,511.0" stroke="black" stroke-width="2" fill="none" />
<polyline points="85.0,506.5,96.5,505.0,109.0,504.0" stroke="black" stroke-width="2" fill="none" />
<polyline points="145.5,508.5,139.5,502.5,132.0,492.5,126.5,480.0,117.5,468.0,111.5,456.0,99.0,453.0,87.0,456.5" stroke="black" stroke-width="2" fill="none" />
<polyline points="95.0,446.5,89.0,464.5,78.5,457.0,66.5,466.0,54.5,473.5,42.5,479.5,30.0,484.0" stroke="black" stroke-width="2" fill="none" />
<polyline points="40.5,462.0,52.5,457.5,65.0,453.0,77.0,448.5,89.0,444.5,101.5,441.5,113.5,445.0,125.5,464.5,137.5,482.5,149.5,502.0" stroke="black" stroke-width="2" fill="none" />
<polyline points="139.5,503.5,125.5,502.0,119.5,505.0,107.5,497.5,100.0,493.0,88.5,500.5,77.0,497.5,74.5,510.0,66.0,500.0,60.0,488.0,75.5,476.0,107.0,461.0,99.0,464.0,87.0,468.5,74.5,472.5,62.0,478.0,50.0,483.0,37.5,487.5,25.0,490.5,13.0,494.0,1.0,496.5" stroke="black" stroke-width="2" fill="none" />
<polyline points="2.0,500.0,14.0,498.5,26.0,494.0,38.0,490.5" stroke="black" stroke-width="2" fill="none" />
<polyline points="108.0,487.5,96.0,484.5,90.0,472.5,78.5,476.5,74.0,487.0,69.5,495.0,63.5,502.5,51.5,504.0,42.5,508.5,37.5,498.0,27.0,511.0,34.5,498.5,30.0,483.5,59.0,471.5,71.0,459.5,89.0,459.5,96.5,447.5" stroke="black" stroke-width="2" fill="none" />
<polyline points="141.0,389.0,145.5,399.5,154.5,411.0,143.5,423.0,143.0,423.5,147.5,407.0,159.0,423.5,172.5,438.0,174.0,454.5,183.0,453.0,192.5,465.0,201.5,475.5,208.0,489.5,223.0,494.0,235.0,504.0,246.5,508.5,258.5,507.0,270.5,510.0" stroke="black" stroke-width="2" fill="none" />
<polyline points="193.5,451.5,182.5,439.5,172.0,427.5" stroke="black" stroke-width="2" fill="none" />
<polyline points="141.5,385.0,137.0,397.0,134.0,409.0,126.5,420.0,119.0,418.5,131.0,397.5,143.0,378.0,155.5,374.5" stroke="black" stroke-width="2" fill="none" />
<polyline points="148.0,376.0,136.0,388.0,130.0,400.0,124.0,412.0,116.5,423.5,116.5,435.5,122.0,447.5,128.0,459.5,135.5,472.0,146.0,484.0,152.0,496.5,160.0,508.0" stroke="black" stroke-width="2" fill="none" />
<polyline points="137.5,334.5,125.5,334.5" stroke="black" stroke-width="2" fill="none" />
<polyline points="127.5,315.5,127.5,320.0,115.5,312.5" stroke="black" stroke-width="2" fill="none" />
<polyline points="112.5,310.0,124.5,301.0" stroke="black" stroke-width="2" fill="none" />
<polyline points="149.0,346.5,143.0,333.0,130.5,330.5,119.0,326.0,123.5,315.5,116.0,312.5,116.0,308.5,114.5,304.0,117.5,289.0,122.0,280.5,108.5,272.5,107.5,262.0,97.0,246.0,92.5,247.5,92.5,235.0,100.0,223.5,104.5,211.5,106.0,207.0,113.5,202.0,115.0,191.5,112.0,183.0,107.0,171.0,112.0,159.0,109.0,147.5,100.0,153.5" stroke="black" stroke-width="2" fill="none" />
<polyline points="104.0,151.0,107.0,163.0,99.5,172.0,113.0,192.0,123.0,191.5,130.5,181.0,138.0,170.5,149.0,161.5,159.5,173.5,170.0,172.5" stroke="black" stroke-width="2" fill="none" />
<polyline points="174.0,158.0,176.5,152.0,180.5,141.0,168.5,129.0" stroke="black" stroke-width="2" fill="none" />
<polyline points="166.5,126.0,168.5,138.5,162.5,151.0,170.0,163.0,169.5,173.0,159.5,185.0" stroke="black" stroke-width="2" fill="none" />
<polyline points="113.0,151.5,105.5,151.5" stroke="black" stroke-width="2" fill="none" />
<polyline points="128.0,124.0,114.5,122.5,114.0,113.5" stroke="black" stroke-width="2" fill="none" />
<polyline points="115.0,108.0,127.0,116.0,134.5,112.5" stroke="black" stroke-width="2" fill="none" />
<polyline points="134.5,107.0,122.5,104.5" stroke="black" stroke-width="2" fill="none" />
<polyline points="115.5,107.5,115.5,120.0,120.0,120.0,133.5,136.5,132.5,138.0,146.0,129.0,159.5,123.0,168.5,132.0,181.0,143.0" stroke="black" stroke-width="2" fill="none" />
<polyline points="179.0,135.0,166.5,126.0,150.5,135.0,159.5,123.0" stroke="black" stroke-width="2" fill="none" />
<polyline points="156.5,87.0,144.5,77.0" stroke="black" stroke-width="2" fill="none" />
<polyline points="147.5,72.5,159.5,81.5" stroke="black" stroke-width="2" fill="none" />
<polyline points="161.5,75.0,160.0,77.5,146.5,65.5" stroke="black" stroke-width="2" fill="none" />
<polyline points="142.0,67.0,154.5,53.5,166.5,64.0,178.5,53.5,190.5,46.0,189.0,46.0,192.0,52.0,184.5,59.5,184.0,72.0,188.5,71.5,190.0,83.5,185.5,85.0,202.0,74.5,213.5,76.0" stroke="black" stroke-width="2" fill="none" />
<polyline points="211.0,50.0,214.0,41.0,225.0,48.5,207.0,62.0,218.5,57.5,227.0,52.5,227.0,57.5,239.0,54.5,251.0,54.0,263.0,58.5" stroke="black" stroke-width="2" fill="none" />
<polyline points="253.5,55.5,270.0,70.5,259.5,84.0,270.0,78.0,270.0,84.0,283.5,90.5,295.5,90.5,297.5,83.0,306.5,80.0,318.5,92.0,328.0,100.0,337.0,102.5,343.0,93.5,349.0,90.5,360.5,96.5" stroke="black" stroke-width="2" fill="none" />
<polyline points="374.0,62.5,374.0,74.5,366.0,86.5,373.5,91.0,379.5,94.0,385.5,100.0,381.0,109.0,383.0,121.0,395.0,136.0,395.0,148.0,402.5,164.5" stroke="black" stroke-width="2" fill="none" />
<polyline points="424.0,163.0,418.0,163.0,410.5,152.5,403.0,148.0,401.5,136.0,410.5,131.0,404.5,119.0,412.0,101.0,407.5,98.0,413.0,86.0,408.5,74.0,393.5,72.5,391.5,60.5" stroke="black" stroke-width="2" fill="none" />
<polyline points="371.0,42.5,380.0,54.5,378.5,65.0,389.5,75.5,400.0,88.0,401.5,100.0,406.0,106.0,414.0,112.5,416.5,114.0,418.0,120.0,421.0,132.0,439.0,145.5,432.0,157.0,430.5,166.0,425.5,172.0,429.5,181.0,422.0,180.5,413.0,183.0,418.5,195.0,420.0,206.5,424.5,217.0,417.5,220.0,407.0,233.5,413.0,244.0,417.5,256.0,413.0,265.5,410.0,268.0" stroke="black" stroke-width="2" fill="none" />
<polyline points="255.5,68.0,252.5,79.5,240.5,75.0,228.5,78.0,225.5,79.5,230.0,60.0,237.5,47.0,245.0,35.0,252.5,23.0,242.0,9.5" stroke="black" stroke-width="2" fill="none" />
<polyline points="242.5,7.0,254.5,7.0" stroke="black" stroke-width="2" fill="none" />
<polyline points="245.5,58.5,229.0,66.0,217.0,71.5,205.0,66.5,203.5,62.0,191.5,54.5" stroke="black" stroke-width="2" fill="none" />
<polyline points="183.5,57.0,196.5,45.0,202.5,45.0,199.5,57.0,198.0,69.0,197.0,78.0,195.5,90.0,186.5,101.5,200.5,109.0" stroke="black" stroke-width="2" fill="none" />
<polyline points="190.0,98.5,202.0,101.5,215.5,119.5,222.5,124.0" stroke="black" stroke-width="2" fill="none" />
<polyline points="207.5,58.5,204.5,46.0,194.0,38.5" stroke="black" stroke-width="2" fill="none" />
<polyline points="199.0,31.5,181.0,43.5,167.5,57.0,154.0,63.0,142.0,68.0,146.5,80.0,151.0,98.0,141.5,107.5,137.0,128.5,139.5,140.5,142.0,140.5,154.5,152.5,136.5,160.0,136.5,170.5,135.0,184.0,141.0,195.5,142.5,195.5" stroke="black" stroke-width="2" fill="none" />
<polyline points="173.0,114.5,161.0,109.0,146.0,110.5,134.5,119.5,124.5,110.5,114.0,103.0,119.0,91.0,129.5,85.0,133.0,83.5,138.0,67.5,144.0,55.0,138.0,64.0" stroke="black" stroke-width="2" fill="none" />
<polyline points="131.0,78.0,146.0,67.5,155.0,79.0,159.5,86.5,166.5,87.0,169.5,78.0" stroke="black" stroke-width="2" fill="none" />
<polyline points="150.0,93.5,138.5,90.5" stroke="black" stroke-width="2" fill="none" />
<polyline points="141.0,86.5,129.0,95.5" stroke="black" stroke-width="2" fill="none" />
<polyline points="124.0,89.5,142.0,97.0" stroke="black" stroke-width="2" fill="none" />
<polyline points="120.5,85.5,122.5,80.5,124.0,91.0,125.0,99.5,134.0,104.0,140.0,102.5,152.0,96.5,166.0,99.5,178.0,92.0,189.0,89.0,194.5,87.5,205.0,92.0" stroke="black" stroke-width="2" fill="none" />
<polyline points="179.0,51.0,164.0,61.5,162.5,70.5,170.0,82.5,161.5,95.0,158.5,107.5,170.5,118.0,156.0,134.5,159.0,142.0,148.5,155.5,146.5,167.5,143.5,169.0,151.0,181.0,155.0,187.0,162.0,181.0" stroke="black" stroke-width="2" fill="none" />
</svg>